<?xml version="1.0" encoding="UTF-8"?>
<svg id="uuid-997db5cd-d81d-4c77-b4f0-0e51ee918e12" data-name="Layer 1" xmlns="http://www.w3.org/2000/svg" viewBox="0 0 506.73 476.03">
  <defs>
    <style>
      .uuid-0c764e5f-12e7-443d-82a1-79f539e2d340 {
        fill: none;
        stroke: #231f20;
        stroke-miterlimit: 10;
      }
    </style>
  </defs>
  <path class="uuid-0c764e5f-12e7-443d-82a1-79f539e2d340" d="M.5,465.56c0-155.02.02-310.04.03-465.06h386.9v465.06H.5Z"/>
  <rect class="uuid-0c764e5f-12e7-443d-82a1-79f539e2d340" x="22.35" y="465.56" width="333.33" height="9.97"/>
  <path class="uuid-0c764e5f-12e7-443d-82a1-79f539e2d340" d="M387.43,63.82c2.88,2.42,7.5,5.59,13.71,6.83,6.89,1.37,12.22-.33,17.63-1.77,17.01-4.55,25.58-7.17,33.52-5.46,11.22,2.41,22.15,10.28,29.31,23.44,4.46,8.21,6.81,15.77,8.34,21.65,16.5,63.41,16.28,120.6,16.28,120.6-.04,20.6-1.53,38.46-2.52,50.59-.81,9.95-1.82,20.03-3.6,31.75-2.34,15.5-4.48,23.73-5.03,25.83-1.31,4.95-3.25,12.2-6.83,20.72-3.07,7.3-6.27,12.74-7.84,15.3-5.08,8.28-9.96,13.84-12.11,16.18-3.38,3.69-6.05,6.5-10.43,9.42-8.83,5.89-16.78,6.51-20.65,6.76-3.72.24-6.83-.05-8.99-.38-1.4-.22-2.8-.4-4.2-.68-1.52-.31-3.02-.68-4.53-1.1-2.29-.64-4.79-1.7-7.48-3.06-2.43-1.23-4.62-2.6-6.58-3.91-1.85-1.24-3.72-2.45-5.58-3.65-1.29-.83-2.16-1.4-2.8-1.81-2-1.3-5.08-3.29-9.64-6.28"/>
  <path class="uuid-0c764e5f-12e7-443d-82a1-79f539e2d340" d="M387.43,116.44c4.49-5.82,9.11-9.63,12.43-11.98,5.26-3.73,9.77-5.57,14.98-7.7,6.32-2.59,9.48-3.88,14.12-4.28,2.87-.25,8.54-.67,14.55,2.14,2.69,1.26,5.41,3.14,9.54,7.8,1.71,1.93,8.79,10.08,12.78,19.76,9.52,23.06,8.26,71.32,8.04,112.89-.09,16.23.04,21.32-.54,32.01-.61,11.16-2.03,30.63-6.86,54.82-7,35.04-13.22,40.47-17.09,42.84-6.23,3.81-16.3,5.78-21.93,4.82-3.16-.54-5.81-1.79-5.81-1.79-1.78-.84-3.75-2.08-5.74-3.98h0c-4.02-2.01-8.34-5.31-14.45-13.95-2.99-4.23-5.85-8.27-8.58-14.48-3.27-7.43-4.78-15.47-5.44-19.84"/>
</svg>