<?xml version="1.0" encoding="UTF-8"?>
<svg id="Layer_1" xmlns="http://www.w3.org/2000/svg" version="1.1" viewBox="0 0 1121 1109">
  <!-- Generator: Adobe Illustrator 29.0.0, SVG Export Plug-In . SVG Version: 2.1.0 Build 186)  -->
  <defs>
    <style>
      .st0 {
        fill: #231f20;
      }
    </style>
  </defs>
  <path class="st0" d="M504,46c-228.8.9-425.9,4.1-453,7.5-14.8,1.8-18.1,3.1-27.3,10.5-13.6,10.9-15.4,17-17.9,61.4-2.1,35.4-.4,333.9,2.2,390,2.7,59.1,6.8,119.1,11,159.5,12.5,119.3,44,208.7,95.8,271.4,10.7,12.9,30.5,32.5,45.2,44.6,6.9,5.6,12.7,10.4,12.9,10.6s-3.1,4-7.2,8.4c-10.9,11.6-19.8,23.9-26.2,36.3-4.6,9.1-5.5,11.6-5.5,16.1,0,14.7,18,24.8,56,31.1,26.4,4.4,40.9,5.4,92.5,6,27,.3,55.3,1,63,1.5,7.7.6,30.9,1.7,51.5,2.5,20.6.9,47.6,2,60,2.5,48.1,2.1,125.7,1.1,170.5-2,67-4.8,103.6-11.3,118.8-21.4,17.4-11.5,14.2-26.5-12.7-59.5l-6-7.4,6-5.1c22.8-19.5,38.8-38.8,55.9-67,29.4-48.8,44.5-94.4,61-183.7,2-10.6,3.7-19.4,3.8-19.5,0,0,13,.2,28.7.7,61.4,2,108.1-4.6,137.1-19.2,31.7-15.9,52.1-39.4,68.5-78.9,11-26.7,15.3-43.6,20.3-79,7.9-56.6,10.3-126.4,5.6-164.5-2.5-20.7-7.4-54.3-9.1-63-10-50.1-40.2-78.6-91-85.9-17.3-2.5-71.6-6.2-107.3-7.4l-21.3-.7v-44.5c.3-61.2-2.1-108.3-6.3-122.6-2.6-9-9.3-16.7-18-20.4-2.7-1.2-7.7-3.5-11-5.1-11.6-5.6,14.7-5.3-346.5-3.8h0ZM930.6,337c12.8,1.3,26.7,4,35.6,6.9,25.6,8.6,40.9,28.5,48.7,63.5,7.3,32.6,6.4,106.2-2,154.5-2.4,14.4-5.1,23.5-9.6,32.5-5.8,11.8-10.4,15.4-29.3,23-22.8,9.2-46.5,15.6-69,18.9-15.3,2.2-37.2,4.7-37.7,4.3-.2-.2.3-6.2,1.1-13.3,9.7-83,15.6-175.8,15.6-244.5s.3-28.1.7-34.7l.6-12.2h17.2c9.4,0,22.1.5,28.1,1.1h0Z"/>
</svg>