<?xml version="1.0" encoding="utf-8"?>
<!-- Generator: Adobe Illustrator 27.0.0, SVG Export Plug-In . SVG Version: 6.00 Build 0)  -->
<svg version="1.1" id="Layer_1" xmlns="http://www.w3.org/2000/svg" xmlns:xlink="http://www.w3.org/1999/xlink" x="0px" y="0px"
	 viewBox="0 0 2500 2500" style="enable-background:new 0 0 2500 2500;" xml:space="preserve">
<style type="text/css">
	.st0{fill:#231F20;}
</style>
<path transform="translate(0.000000,2500.000000) scale(0.100000,-0.100000)" class="st0" d="M13080,15419c-2288-9-4259-41-4530-75
	c-148-18-181-31-273-105c-136-109-154-170-179-614c-21-354-4-3339,22-3900c27-591,68-1191,110-1595c125-1193,440-2087,958-2714
	c107-129,305-325,452-446c69-56,127-104,129-106s-31-40-72-84c-109-116-198-239-262-363c-46-91-55-116-55-161c0-147,180-248,560-311
	c264-44,409-54,925-60c270-3,553-10,630-15c77-6,309-17,515-25c206-9,476-20,600-25c481-21,1257-11,1705,20
	c670,48,1036,113,1188,214c174,115,142,265-127,595l-60,74l60,51c228,195,388,388,559,670c294,488,445,944,610,1837
	c20,106,37,194,38,195s130-2,287-7c614-20,1081,46,1371,192c317,159,521,394,685,789c110,267,153,436,203,790
	c79,566,103,1264,56,1645c-25,207-74,543-91,630c-100,501-402,786-910,859c-173,25-716,62-1073,74l-213,7l1,445
	c2,612-22,1083-64,1226c-26,90-93,167-180,204c-27,12-77,35-110,51C16429,15437,16692,15434,13080,15419z M11732,12784
	c239-55,461-224,589-450c61-107,107-222,162-404c33-108,36-113,46-87c6,16,11,31,11,35c0,14,68,219,98,294c125,321,374,546,677,613
	c114,26,319,17,438-19c273-81,494-275,617-540c53-112,70-183,77-312c13-247-73-434-300-650c-51-49-140-125-197-168
	c-76-57-97-77-75-72c180,45,393,70,529,63c354-19,623-203,770-530c60-133,71-186,71-352c-1-136-3-158-28-230
	c-87-260-337-478-637-555c-108-27-314-38-430-21c-45,7-83,11-85,9s21-39,51-83c70-101,116-191,146-285c20-66,23-94,23-240
	c-1-180-11-238-66-358c-55-122-165-251-282-331c-69-47-199-106-292-133c-115-32-307-32-419,0c-326,94-547,365-649,798
	c-15,60-31,150-38,199c-11,87-29,137-29,83c0-14-9-79-20-144c-89-517-316-832-677-936c-65-19-101-23-213-22c-116,1-148,5-223,28
	c-335,101-568,349-618,655c-15,95-13,264,5,349c19,91,96,254,164,346c28,39,50,72,47,74c-2,2-42-1-89-8c-111-17-315-8-421,19
	c-165,41-301,114-421,225c-188,172-262,351-251,601c6,138,22,205,77,321c92,197,224,339,394,424c222,111,442,127,796,56
	c63-13,116-22,118-21c1,1-42,35-95,76c-123,93-271,235-335,319c-62,81-122,205-142,290c-20,83-20,238-1,328c40,193,136,355,300,510
	c128,121,277,198,455,236C11451,12804,11644,12804,11732,12784z M17346,12509c128-13,267-40,356-69c256-86,409-285,487-635
	c73-326,64-1062-20-1545c-24-144-51-235-96-325c-58-118-104-154-293-230c-228-92-465-156-690-189c-153-22-372-47-377-43
	c-2,2,3,62,11,133c97,830,156,1758,156,2445c0,124,3,281,7,347l6,122h172C17159,12520,17286,12515,17346,12509z M12365,11194
	c-157-34-305-115-420-229c-127-125-207-267-242-427c-21-96-20-271,1-368c97-437,529-732,964-656c336,59,591,291,688,626
	c29,101,27,337-5,445c-82,284-295,499-581,590C12661,11209,12474,11218,12365,11194z"/>
</svg>
