<?xml version="1.0" encoding="utf-8"?>
<!-- Generator: Adobe Illustrator 27.0.0, SVG Export Plug-In . SVG Version: 6.00 Build 0)  -->
<svg version="1.1" id="Layer_1" xmlns="http://www.w3.org/2000/svg" xmlns:xlink="http://www.w3.org/1999/xlink" x="0px" y="0px"
	 viewBox="0 0 2500 2500" style="enable-background:new 0 0 2500 2500;" xml:space="preserve">
<style type="text/css">
	.st0{fill:#231F20;}
</style>
<path transform="translate(0.000000,2500.000000) scale(0.100000,-0.100000)" class="st0" d="M12522,20930c-59-25-55-62,55-485
	c127-491,136-539,136-805c1-371-27-488-293-1225c-156-431-204-582-242-755c-20-92-22-134-22-335c0-323,20-422,170-810
	c42-110,98-261,124-335c137-385,172-447,272-490c67-29,163-32,201-7c62,40,96,145,104,322c7,153-14,304-67,497
	c-122,435-146,591-137,893c3,115,14,245,27,330c22,146,34,208,150,775c88,431,107,562,121,822c17,336-8,592-87,883
	c-92,334-186,602-231,656c-40,47-96,71-182,75C12579,20938,12535,20936,12522,20930z M11133,19956c-29-13-33-20-33-54
	c0-22,25-136,55-255c63-250,75-348,75-611c-1-385-28-502-300-1276c-133-380-206-678-231-939c-18-201,14-411,91-594
	c89-209,304-461,455-531c102-48,251-50,276-4c17,31,4,103-51,275c-53,167-73,251-89,383c-32,252,14,556,189,1247
	c100,397,153,645,171,803c17,156,6,421-25,604c-52,298-106,460-249,746c-79,160-84,166-129,189C11279,19968,11179,19977,11133,19956
	z M13863,19709c-33-17-36-56-17-197c36-267-14-539-181-987c-93-250-121-338-144-457c-49-256-51-452-7-633c34-137,68-238,211-615
	c139-367,178-507,225-812c16-108,37-214,45-235c21-53,63-76,141-77c56-1,66,2,94,29c44,41,124,211,154,324c14,51,31,150,37,218
	c22,230-11,391-184,919c-58,175-114,362-125,414c-48,221-65,524-42,738c6,53,29,234,52,402c37,285,40,317,35,480
	c-7,267-46,433-111,476C14014,19716,13895,19725,13863,19709z M13080,15419c-2288-9-4259-41-4530-75c-148-18-181-31-273-105
	c-136-109-154-170-179-614c-21-354-4-3339,22-3900c27-591,68-1191,110-1595c125-1193,440-2087,958-2714c107-129,305-325,452-446
	c69-56,127-104,129-106s-31-40-72-84c-109-116-198-239-262-363c-46-91-55-116-55-161c0-147,180-248,560-311c264-44,409-54,925-60
	c270-3,553-10,630-15c77-6,309-17,515-25c206-9,476-20,600-25c481-21,1257-11,1705,20c670,48,1036,113,1188,214
	c174,115,142,265-127,595l-60,74l60,51c228,195,388,388,559,670c294,488,445,944,610,1837c20,106,37,194,38,195s130-2,287-7
	c614-20,1081,46,1371,192c317,159,521,394,685,789c110,267,153,436,203,790c79,566,103,1264,56,1645c-25,207-74,543-91,630
	c-100,501-402,786-910,859c-173,25-716,62-1073,74l-213,7l1,445c2,612-22,1083-64,1226c-26,90-93,167-180,204c-27,12-77,35-110,51
	C16429,15437,16692,15434,13080,15419z M11732,12784c239-55,461-224,589-450c61-107,107-222,162-404c33-108,36-113,46-87
	c6,16,11,31,11,35c0,14,68,219,98,294c125,321,374,546,677,613c114,26,319,17,438-19c273-81,494-275,617-540c53-112,70-183,77-312
	c13-247-73-434-300-650c-51-49-140-125-197-168c-76-57-97-77-75-72c180,45,393,70,529,63c354-19,623-203,770-530
	c60-133,71-186,71-352c-1-136-3-158-28-230c-87-260-337-478-637-555c-108-27-314-38-430-21c-45,7-83,11-85,9s21-39,51-83
	c70-101,116-191,146-285c20-66,23-94,23-240c-1-180-11-238-66-358c-55-122-165-251-282-331c-69-47-199-106-292-133
	c-115-32-307-32-419,0c-326,94-547,365-649,798c-15,60-31,150-38,199c-11,87-29,137-29,83c0-14-9-79-20-144c-89-517-316-832-677-936
	c-65-19-101-23-213-22c-116,1-148,5-223,28c-335,101-568,349-618,655c-15,95-13,264,5,349c19,91,96,254,164,346c28,39,50,72,47,74
	c-2,2-42-1-89-8c-111-17-315-8-421,19c-165,41-301,114-421,225c-188,172-262,351-251,601c6,138,22,205,77,321
	c92,197,224,339,394,424c222,111,442,127,796,56c63-13,116-22,118-21c1,1-42,35-95,76c-123,93-271,235-335,319
	c-62,81-122,205-142,290c-20,83-20,238-1,328c40,193,136,355,300,510c128,121,277,198,455,236C11451,12804,11644,12804,11732,12784z
	 M17346,12509c128-13,267-40,356-69c256-86,409-285,487-635c73-326,64-1062-20-1545c-24-144-51-235-96-325c-58-118-104-154-293-230
	c-228-92-465-156-690-189c-153-22-372-47-377-43c-2,2,3,62,11,133c97,830,156,1758,156,2445c0,124,3,281,7,347l6,122h172
	C17159,12520,17286,12515,17346,12509z M12365,11194c-157-34-305-115-420-229c-127-125-207-267-242-427c-21-96-20-271,1-368
	c97-437,529-732,964-656c336,59,591,291,688,626c29,101,27,337-5,445c-82,284-295,499-581,590C12661,11209,12474,11218,12365,11194z
	"/>
</svg>
