<?xml version="1.0" encoding="utf-8"?>
<!-- Generator: Adobe Illustrator 27.0.0, SVG Export Plug-In . SVG Version: 6.00 Build 0)  -->
<svg version="1.1" id="Layer_1" xmlns="http://www.w3.org/2000/svg" xmlns:xlink="http://www.w3.org/1999/xlink" x="0px" y="0px"
	 viewBox="0 0 2500 2500" style="enable-background:new 0 0 2500 2500;" xml:space="preserve">
<style type="text/css">
	.st0{fill:#231F20;}
</style>
<path transform="translate(0.000000,2500.000000) scale(0.100000,-0.100000)" class="st0" d="M13080,15419c-2288-9-4259-41-4530-75
	c-148-18-181-31-273-105c-136-109-154-170-179-614c-21-354-4-3339,22-3900c27-591,68-1191,110-1595c125-1193,440-2087,958-2714
	c107-129,305-325,452-446c69-56,127-104,129-106s-31-40-72-84c-109-116-198-239-262-363c-46-91-55-116-55-161c0-147,180-248,560-311
	c264-44,409-54,925-60c270-3,553-10,630-15c77-6,309-17,515-25c206-9,476-20,600-25c481-21,1257-11,1705,20
	c670,48,1036,113,1188,214c174,115,142,265-127,595l-60,74l60,51c228,195,388,388,559,670c294,488,445,944,610,1837
	c20,106,37,194,38,195s130-2,287-7c614-20,1081,46,1371,192c317,159,521,394,685,789c110,267,153,436,203,790
	c79,566,103,1264,56,1645c-25,207-74,543-91,630c-100,501-402,786-910,859c-173,25-716,62-1073,74l-213,7l1,445
	c2,612-22,1083-64,1226c-26,90-93,167-180,204c-27,12-77,35-110,51C16429,15437,16692,15434,13080,15419z M17346,12509
	c128-13,267-40,356-69c256-86,409-285,487-635c73-326,64-1062-20-1545c-24-144-51-235-96-325c-58-118-104-154-293-230
	c-228-92-465-156-690-189c-153-22-372-47-377-43c-2,2,3,62,11,133c97,830,156,1758,156,2445c0,124,3,281,7,347l6,122h172
	C17159,12520,17286,12515,17346,12509z M11291,12190c120-43,223-115,363-250c264-256,474-546,631-872l61-126l66,131
	c212,418,573,813,890,973c169,85,354,115,503,80c409-97,582-514,430-1041c-78-270-250-649-431-948c-94-155-465-705-641-949
	c-62-86-156-223-209-305c-158-243-180-275-247-369c-102-141-130-164-208-164c-79,0-108,24-310,255c-62,72-181,202-265,290
	c-496,523-838,1003-1139,1600c-113,225-171,366-220,537c-56,194-69,277-69,438c1,127,4,156,27,235c80,268,240,454,438,510
	C11048,12239,11185,12229,11291,12190z"/>
</svg>
