<?xml version="1.0" encoding="utf-8"?>
<!-- Generator: Adobe Illustrator 27.0.0, SVG Export Plug-In . SVG Version: 6.00 Build 0)  -->
<svg version="1.1" id="Layer_1" xmlns="http://www.w3.org/2000/svg" xmlns:xlink="http://www.w3.org/1999/xlink" x="0px" y="0px"
	 viewBox="0 0 2500 2500" style="enable-background:new 0 0 2500 2500;" xml:space="preserve">
<style type="text/css">
	.st0{fill:#231F20;}
</style>
<path transform="translate(0.000000,2500.000000) scale(0.100000,-0.100000)" class="st0" d="M12522,20930c-59-25-55-62,55-485
	c127-491,136-539,136-805c1-371-27-488-293-1225c-156-431-204-582-242-755c-20-92-22-134-22-335c0-323,20-422,170-810
	c42-110,98-261,124-335c137-385,172-447,272-490c67-29,163-32,201-7c62,40,96,145,104,322c7,153-14,304-67,497
	c-122,435-146,591-137,893c3,115,14,245,27,330c22,146,34,208,150,775c88,431,107,562,121,822c17,336-8,592-87,883
	c-92,334-186,602-231,656c-40,47-96,71-182,75C12579,20938,12535,20936,12522,20930z M11133,19956c-29-13-33-20-33-54
	c0-22,25-136,55-255c63-250,75-348,75-611c-1-385-28-502-300-1276c-133-380-206-678-231-939c-18-201,14-411,91-594
	c89-209,304-461,455-531c102-48,251-50,276-4c17,31,4,103-51,275c-53,167-73,251-89,383c-32,252,14,556,189,1247
	c100,397,153,645,171,803c17,156,6,421-25,604c-52,298-106,460-249,746c-79,160-84,166-129,189C11279,19968,11179,19977,11133,19956
	z M13863,19709c-33-17-36-56-17-197c36-267-14-539-181-987c-93-250-121-338-144-457c-49-256-51-452-7-633c34-137,68-238,211-615
	c139-367,178-507,225-812c16-108,37-214,45-235c21-53,63-76,141-77c56-1,66,2,94,29c44,41,124,211,154,324c14,51,31,150,37,218
	c22,230-11,391-184,919c-58,175-114,362-125,414c-48,221-65,524-42,738c6,53,29,234,52,402c37,285,40,317,35,480
	c-7,267-46,433-111,476C14014,19716,13895,19725,13863,19709z M13080,15419c-2288-9-4259-41-4530-75c-148-18-181-31-273-105
	c-136-109-154-170-179-614c-21-354-4-3339,22-3900c27-591,68-1191,110-1595c125-1193,440-2087,958-2714c107-129,305-325,452-446
	c69-56,127-104,129-106s-31-40-72-84c-109-116-198-239-262-363c-46-91-55-116-55-161c0-147,180-248,560-311c264-44,409-54,925-60
	c270-3,553-10,630-15c77-6,309-17,515-25c206-9,476-20,600-25c481-21,1257-11,1705,20c670,48,1036,113,1188,214
	c174,115,142,265-127,595l-60,74l60,51c228,195,388,388,559,670c294,488,445,944,610,1837c20,106,37,194,38,195s130-2,287-7
	c614-20,1081,46,1371,192c317,159,521,394,685,789c110,267,153,436,203,790c79,566,103,1264,56,1645c-25,207-74,543-91,630
	c-100,501-402,786-910,859c-173,25-716,62-1073,74l-213,7l1,445c2,612-22,1083-64,1226c-26,90-93,167-180,204c-27,12-77,35-110,51
	C16429,15437,16692,15434,13080,15419z M11914,12965c86-23,214-81,272-125c240-181,402-776,315-1157c-28-121-83-280-118-340
	c-43-75-165-196-232-232c-115-61-305-92-436-72c-220,35-459,248-578,516c-105,235-118,453-46,737c94,373,238,569,479,651
	c41,15,84,28,95,30C11714,12984,11861,12979,11914,12965z M13679,12955c193-46,336-169,441-379c80-161,150-446,150-607
	c0-84-27-241-55-326c-76-225-235-433-416-541c-162-97-391-105-598-20c-65,27-89,44-162,118c-101,101-148,187-198,360
	c-42,150-51,208-51,346c0,149,12,242,50,396c55,216,128,365,234,477c49,50,81,73,161,112c55,27,127,55,160,63
	C13474,12973,13600,12973,13679,12955z M17346,12509c128-13,267-40,356-69c256-86,409-285,487-635c73-326,64-1062-20-1545
	c-24-144-51-235-96-325c-58-118-104-154-293-230c-228-92-465-156-690-189c-153-22-372-47-377-43c-2,2,3,62,11,133
	c97,830,156,1758,156,2445c0,124,3,281,7,347l6,122h172C17159,12520,17286,12515,17346,12509z M10701,11552c86-34,145-77,250-181
	c110-110,191-228,278-406c113-229,159-415,141-564c-22-170-73-274-195-389c-83-79-163-122-284-153c-75-19-83-19-146-4
	c-155,36-316,153-424,310c-89,129-156,308-197,525c-59,320-36,581,66,739c40,63,86,98,169,128c58,21,80,23,176,20
	C10618,11574,10659,11568,10701,11552z M14924,11554c117-30,176-79,228-191c45-95,59-157,65-293c7-163-10-327-52-499
	c-57-226-123-368-232-494c-150-172-307-247-518-247c-309,0-494,188-495,502c0,366,238,875,516,1099c88,72,146,105,214,123
	C14723,11574,14848,11574,14924,11554z M12765,10989c187-23,359-104,486-229c93-92,146-163,251-339c155-260,246-382,457-611
	c179-195,223-252,277-365c57-121,67-172,61-319c-12-302-141-494-420-626c-248-118-507-136-877-60c-80,17-197,35-260,42
	c-130,13-235,3-538-52c-197-36-415-54-532-45c-242,20-487,133-602,279c-47,59-98,157-129,247c-18,53-22,86-22,189
	c1,224,51,382,185,582c22,33,110,123,207,213c212,194,284,275,411,464c178,264,324,408,517,508c135,71,216,102,298,118
	C12624,11002,12655,11002,12765,10989z"/>
</svg>
