<?xml version="1.0" encoding="utf-8"?>
<!-- Generator: Adobe Illustrator 27.0.0, SVG Export Plug-In . SVG Version: 6.00 Build 0)  -->
<svg version="1.1" id="Layer_1" xmlns="http://www.w3.org/2000/svg" xmlns:xlink="http://www.w3.org/1999/xlink" x="0px" y="0px"
	 viewBox="0 0 2500 2500" style="enable-background:new 0 0 2500 2500;" xml:space="preserve">
<style type="text/css">
	.st0{fill:#231F20;}
</style>
<path transform="translate(0.000000,2500.000000) scale(0.100000,-0.100000)" class="st0" d="M13080,15419c-2288-9-4259-41-4530-75
	c-148-18-181-31-273-105c-136-109-154-170-179-614c-21-354-4-3339,22-3900c27-591,68-1191,110-1595c125-1193,440-2087,958-2714
	c107-129,305-325,452-446c69-56,127-104,129-106s-31-40-72-84c-109-116-198-239-262-363c-46-91-55-116-55-161c0-147,180-248,560-311
	c264-44,409-54,925-60c270-3,553-10,630-15c77-6,309-17,515-25c206-9,476-20,600-25c481-21,1257-11,1705,20
	c670,48,1036,113,1188,214c174,115,142,265-127,595l-60,74l60,51c228,195,388,388,559,670c294,488,445,944,610,1837
	c20,106,37,194,38,195s130-2,287-7c614-20,1081,46,1371,192c317,159,521,394,685,789c110,267,153,436,203,790
	c79,566,103,1264,56,1645c-25,207-74,543-91,630c-100,501-402,786-910,859c-173,25-716,62-1073,74l-213,7l1,445
	c2,612-22,1083-64,1226c-26,90-93,167-180,204c-27,12-77,35-110,51C16429,15437,16692,15434,13080,15419z M13030,13325
	c242-18,598-146,775-280c232-175,464-501,559-785c110-329,96-741-41-1230c-83-297-91-340-98-505c-9-199-19-231-105-317
	c-87-87-151-117-346-164c-225-53-233-63-244-284c-5-102-12-154-23-176c-38-74-152-139-332-189c-141-39-246-50-490-50
	c-206,0-239,2-319,23c-49,12-118,36-155,54c-85,40-181,135-219,215c-25,54-27,68-28,198c-1,77-2,147-3,156c-1,18-33,29-295,98
	c-103,28-211,63-238,78c-66,36-131,110-160,181c-22,54-23,68-20,266c3,257-1,273-109,499c-132,275-169,411-169,616
	c0,392,185,772,507,1042c372,313,863,529,1263,558C12843,13337,12880,13336,13030,13325z M17346,12509c128-13,267-40,356-69
	c256-86,409-285,487-635c73-326,64-1062-20-1545c-24-144-51-235-96-325c-58-118-104-154-293-230c-228-92-465-156-690-189
	c-153-22-372-47-377-43c-2,2,3,62,11,133c97,830,156,1758,156,2445c0,124,3,281,7,347l6,122h172
	C17159,12520,17286,12515,17346,12509z M14556,9960c55-28,74-45,99-84c32-53,32-45,23-266c-4-120,11-153,126-278
	c93-101,118-144,124-218c9-102-56-193-178-251c-46-22-72-27-165-31c-100-3-125,0-270,33c-88,21-185,38-215,38c-72,0-254-47-468-122
	c-167-58-357-135-376-152c-26-23,539-252,737-299c111-27,166-25,342,10c160,32,289,38,385,20c207-39,321-204,245-356
	c-28-56-52-83-153-172c-49-43-74-73-81-97c-5-18-7-98-4-177c5-128,3-149-16-198c-28-75-69-121-136-154c-74-36-160-48-250-35
	c-94,13-164,47-233,113c-57,55-72,80-166,277c-37,79-57,107-109,155c-83,78-270,188-607,357c-151,76-321,163-376,193
	c-56,30-109,54-118,54s-38-11-64-24s-137-61-247-106c-513-211-674-301-746-416c-10-18-33-84-49-149c-37-145-77-222-149-286
	c-180-161-470-174-595-27c-56,65-71,123-68,261c3,141-1,149-103,260c-151,162-186,325-91,425c87,93,273,125,476,81
	c291-62,282-61,341-50c31,5,105,28,165,51c141,54,303,110,484,166c80,24,152,47,160,50c19,7-34,35-230,121c-328,146-476,196-576,195
	c-28,0-114-17-190-37c-158-43-285-54-376-36c-183,38-317,185-326,356c-5,92,22,144,99,198c143,99,153,117,170,297
	c17,193,46,247,156,302c58,29,73,32,156,31c194,0,272-64,431-354c49-92,112-166,214-255c131-115,258-194,509-319
	c126-62,275-138,331-169l104-57l111,55c62,30,157,73,212,94c161,64,371,163,490,230c241,137,315,214,430,447
	c133,270,235,348,447,342C14479,9995,14495,9991,14556,9960z M13270,11279c-78-31-158-86-186-128c-34-53-48-136-34-213
	c36-195,196-308,440-312c158-2,228,40,269,162c25,74,26,108,6,187c-35,133-133,254-240,295C13439,11303,13340,11306,13270,11279z
	 M12015,11276c-142-35-235-126-291-283c-31-90-31-156,2-238c30-74,61-104,137-129c92-31,260-13,373,40c64,30,138,107,171,180
	c47,104,32,247-35,317c-61,64-202,128-276,126C12079,11289,12043,11283,12015,11276z M12690,10558c-26-28-46-73-111-245
	c-53-143-57-164-33-187c21-21,52-20,126,5c53,19,68,20,110,10c137-31,164-8,129,111c-35,118-81,241-104,283c-19,34-28,40-59,43
	C12721,10580,12707,10576,12690,10558z"/>
</svg>
