<?xml version="1.0" encoding="utf-8"?>
<!-- Generator: Adobe Illustrator 27.0.0, SVG Export Plug-In . SVG Version: 6.00 Build 0)  -->
<svg version="1.1" id="Layer_1" xmlns="http://www.w3.org/2000/svg" xmlns:xlink="http://www.w3.org/1999/xlink" x="0px" y="0px"
	 viewBox="0 0 2500 2500" style="enable-background:new 0 0 2500 2500;" xml:space="preserve">
<style type="text/css">
	.st0{fill:#231F20;}
</style>
<path transform="translate(0.000000,2500.000000) scale(0.100000,-0.100000)" class="st0" d="M12522,20930c-59-25-55-62,55-485
	c127-491,136-539,136-805c1-371-27-488-293-1225c-156-431-204-582-242-755c-20-92-22-134-22-335c0-323,20-422,170-810
	c42-110,98-261,124-335c137-385,172-447,272-490c67-29,163-32,201-7c62,40,96,145,104,322c7,153-14,304-67,497
	c-122,435-146,591-137,893c3,115,14,245,27,330c22,146,34,208,150,775c88,431,107,562,121,822c17,336-8,592-87,883
	c-92,334-186,602-231,656c-40,47-96,71-182,75C12579,20938,12535,20936,12522,20930z M11133,19956c-29-13-33-20-33-54
	c0-22,25-136,55-255c63-250,75-348,75-611c-1-385-28-502-300-1276c-133-380-206-678-231-939c-18-201,14-411,91-594
	c89-209,304-461,455-531c102-48,251-50,276-4c17,31,4,103-51,275c-53,167-73,251-89,383c-32,252,14,556,189,1247
	c100,397,153,645,171,803c17,156,6,421-25,604c-52,298-106,460-249,746c-79,160-84,166-129,189C11279,19968,11179,19977,11133,19956
	z M13863,19709c-33-17-36-56-17-197c36-267-14-539-181-987c-93-250-121-338-144-457c-49-256-51-452-7-633c34-137,68-238,211-615
	c139-367,178-507,225-812c16-108,37-214,45-235c21-53,63-76,141-77c56-1,66,2,94,29c44,41,124,211,154,324c14,51,31,150,37,218
	c22,230-11,391-184,919c-58,175-114,362-125,414c-48,221-65,524-42,738c6,53,29,234,52,402c37,285,40,317,35,480
	c-7,267-46,433-111,476C14014,19716,13895,19725,13863,19709z M13080,15419c-2288-9-4259-41-4530-75c-148-18-181-31-273-105
	c-136-109-154-170-179-614c-21-354-4-3339,22-3900c27-591,68-1191,110-1595c125-1193,440-2087,958-2714c107-129,305-325,452-446
	c69-56,127-104,129-106s-31-40-72-84c-109-116-198-239-262-363c-46-91-55-116-55-161c0-147,180-248,560-311c264-44,409-54,925-60
	c270-3,553-10,630-15c77-6,309-17,515-25c206-9,476-20,600-25c481-21,1257-11,1705,20c670,48,1036,113,1188,214
	c174,115,142,265-127,595l-60,74l60,51c228,195,388,388,559,670c294,488,445,944,610,1837c20,106,37,194,38,195s130-2,287-7
	c614-20,1081,46,1371,192c317,159,521,394,685,789c110,267,153,436,203,790c79,566,103,1264,56,1645c-25,207-74,543-91,630
	c-100,501-402,786-910,859c-173,25-716,62-1073,74l-213,7l1,445c2,612-22,1083-64,1226c-26,90-93,167-180,204c-27,12-77,35-110,51
	C16429,15437,16692,15434,13080,15419z M12970,12926c800-109,1510-596,1897-1301c163-295,263-616,304-964c19-171,7-534-24-706
	c-129-702-520-1298-1112-1693c-132-88-410-227-555-277c-138-48-354-100-499-122c-166-25-542-24-706,1c-551,84-1033,322-1424,701
	c-501,487-771,1127-771,1830c0,260,27,459,97,704c207,732,749,1346,1453,1644c261,110,498,168,835,201
	C12542,12952,12866,12940,12970,12926z M17346,12509c128-13,267-40,356-69c256-86,409-285,487-635c73-326,64-1062-20-1545
	c-24-144-51-235-96-325c-58-118-104-154-293-230c-228-92-465-156-690-189c-153-22-372-47-377-43c-2,2,3,62,11,133
	c97,830,156,1758,156,2445c0,124,3,281,7,347l6,122h172C17159,12520,17286,12515,17346,12509z M11626,11659c-77-18-167-70-230-132
	c-233-230-192-610,84-787c196-126,458-95,625,74c100,102,145,211,145,356c0,226-155,428-374,486
	C11819,11671,11686,11673,11626,11659z M13308,11637c-184-64-312-220-339-413c-21-145,25-292,124-401c156-170,386-217,592-119
	c176,84,284,253,285,447c0,206-102,371-287,461c-84,40-92,42-198,45C13390,11660,13366,11658,13308,11637z M10685,10355
	c-22-9-57-32-78-53c-103-99-103-226,0-477c84-203,186-379,319-550c85-109,327-344,451-437c541-406,1228-538,1865-359
	c439,124,831,391,1118,762c147,190,263,410,345,654c42,123,47,145,43,210c-4,91-40,155-112,199c-60,37-159,47-219,23
	c-95-40-132-95-187-272c-128-417-473-812-870-998c-387-182-798-204-1211-67c-250,83-448,208-650,409c-148,149-203,222-333,444
	c-93,160-131,243-142,312c-9,66-60,144-116,178C10849,10369,10749,10379,10685,10355z"/>
</svg>
