<?xml version="1.0" encoding="utf-8"?>
<!-- Generator: Adobe Illustrator 27.0.0, SVG Export Plug-In . SVG Version: 6.00 Build 0)  -->
<svg version="1.1" id="Layer_1" xmlns="http://www.w3.org/2000/svg" xmlns:xlink="http://www.w3.org/1999/xlink" x="0px" y="0px"
	 viewBox="0 0 2500 2500" style="enable-background:new 0 0 2500 2500;" xml:space="preserve">
<style type="text/css">
	.st0{fill:#231F20;}
</style>
<path transform="translate(0.000000,2500.000000) scale(0.100000,-0.100000)" class="st0" d="M13080,15419c-2288-9-4259-41-4530-75
	c-148-18-181-31-273-105c-136-109-154-170-179-614c-21-354-4-3339,22-3900c27-591,68-1191,110-1595c125-1193,440-2087,958-2714
	c107-129,305-325,452-446c69-56,127-104,129-106s-31-40-72-84c-109-116-198-239-262-363c-46-91-55-116-55-161c0-147,180-248,560-311
	c264-44,409-54,925-60c270-3,553-10,630-15c77-6,309-17,515-25c206-9,476-20,600-25c481-21,1257-11,1705,20
	c670,48,1036,113,1188,214c174,115,142,265-127,595l-60,74l60,51c228,195,388,388,559,670c294,488,445,944,610,1837
	c20,106,37,194,38,195s130-2,287-7c614-20,1081,46,1371,192c317,159,521,394,685,789c110,267,153,436,203,790
	c79,566,103,1264,56,1645c-25,207-74,543-91,630c-100,501-402,786-910,859c-173,25-716,62-1073,74l-213,7l1,445
	c2,612-22,1083-64,1226c-26,90-93,167-180,204c-27,12-77,35-110,51C16429,15437,16692,15434,13080,15419z M13029,13181
	c615-106,1141-401,1538-865c315-368,519-821,590-1311c26-182,24-535-5-720c-115-733-519-1362-1137-1768c-840-551-1957-546-2798,13
	c-616,410-1015,1044-1123,1785c-22,148-25,513-5,655c69,506,276,976,593,1345c231,268,477,461,793,620c288,146,529,218,880,264
	c39,6,178,8,310,6C12853,13203,12932,13198,13029,13181z M17346,12509c128-13,267-40,356-69c256-86,409-285,487-635
	c73-326,64-1062-20-1545c-24-144-51-235-96-325c-58-118-104-154-293-230c-228-92-465-156-690-189c-153-22-372-47-377-43
	c-2,2,3,62,11,133c97,830,156,1758,156,2445c0,124,3,281,7,347l6,122h172C17159,12520,17286,12515,17346,12509z M11633,11925
	c-120-26-236-105-307-207c-136-199-110-471,62-642c96-96,219-146,357-146c140,0,250,46,352,146c197,194,200,513,6,708
	c-71,71-140,111-239,136C11775,11943,11721,11944,11633,11925z M13354,11915c-93-20-181-69-250-140c-197-201-193-518,10-713
	c294-283,778-122,847,281c44,257-133,518-388,572C13491,11933,13435,11933,13354,11915z M10715,10631c-98-24-175-108-191-209
	c-10-65,13-167,72-317c82-205,188-390,329-570c73-93,299-317,400-397c319-252,704-413,1098-459c130-15,484-6,597,15
	c224,42,378,94,585,195c418,206,760,547,970,970c91,183,175,423,175,502c0,87-51,170-132,215c-43,23-65,29-118,29s-75-6-118-29
	c-72-40-96-77-143-218c-97-292-214-489-414-697c-230-239-509-391-856-468c-130-28-486-26-625,5c-331,72-601,219-845,462
	c-148,147-213,233-334,440c-97,168-130,239-144,314C10992,10570,10857,10665,10715,10631z"/>
</svg>
