  0
SECTION
  2
HEADER
  9
$ACADVER
  1
AC1006
  9
$EXTMIN
 10
0.000000
 20
0.000000
 30
0.000000
  9
$EXTMAX
 10
7813.000000
 20
7813.000000
 30
0.000000
  0
ENDSEC
  0
SECTION
  2
ENTITIES
  0
POLYLINE
  8
0
 66
1
 70
1
  0
VERTEX
  8
0
 10
4623.000000
 20
4820.925739
 42
0.000331
  0
VERTEX
  8
0
 10
3980.811581
 20
4818.085529
 42
0.001004
  0
VERTEX
  8
0
 10
3543.766762
 20
4814.984988
 42
0.001444
  0
VERTEX
  8
0
 10
3212.322924
 20
4811.010675
 42
0.002187
  0
VERTEX
  8
0
 10
2924.000000
 20
4805.459448
 42
0.001864
  0
VERTEX
  8
0
 10
2790.268234
 20
4801.800528
 42
0.007887
  0
VERTEX
  8
0
 10
2710.205083
 20
4798.046403
 42
0.011979
  0
VERTEX
  8
0
 10
2657.815219
 20
4793.498810
 42
0.052479
  0
VERTEX
  8
0
 10
2627.500000
 20
4786.865835
 42
0.021910
  0
VERTEX
  8
0
 10
2619.225462
 20
4783.712658
 42
0.026822
  0
VERTEX
  8
0
 10
2611.815642
 20
4780.027369
 42
0.022535
  0
VERTEX
  8
0
 10
2603.898990
 20
4775.061581
 42
0.009999
  0
VERTEX
  8
0
 10
2593.899755
 20
4767.843013
 42
0.049990
  0
VERTEX
  8
0
 10
2565.214468
 20
4741.377280
 42
0.091973
  0
VERTEX
  8
0
 10
2548.874812
 20
4714.259888
 42
0.060516
  0
VERTEX
  8
0
 10
2539.546648
 20
4675.805227
 42
0.012149
  0
VERTEX
  8
0
 10
2533.003762
 20
4605.500000
 42
0.008083
  0
VERTEX
  8
0
 10
2530.449848
 20
4556.744872
 42
0.006123
  0
VERTEX
  8
0
 10
2529.168312
 20
4503.187669
 42
0.002682
  0
VERTEX
  8
0
 10
2528.635705
 20
4418.849568
 42
0.000295
  0
VERTEX
  8
0
 10
2528.565775
 20
4225.500000
 42
0.001091
  0
VERTEX
  8
0
 10
2529.297735
 20
3921.894135
 42
0.001760
  0
VERTEX
  8
0
 10
2531.395429
 20
3663.369377
 42
0.001948
  0
VERTEX
  8
0
 10
2534.616020
 20
3456.001486
 42
0.007178
  0
VERTEX
  8
0
 10
2539.043079
 20
3325.000000
 42
0.002784
  0
VERTEX
  8
0
 10
2546.856566
 20
3179.652793
 42
0.003330
  0
VERTEX
  8
0
 10
2555.890150
 20
3042.843652
 42
0.003634
  0
VERTEX
  8
0
 10
2565.631283
 20
2921.130153
 42
0.006733
  0
VERTEX
  8
0
 10
2575.586691
 20
2822.500000
 42
0.022373
  0
VERTEX
  8
0
 10
2612.675255
 20
2590.912993
 42
0.030060
  0
VERTEX
  8
0
 10
2668.035728
 20
2385.817021
 42
0.033226
  0
VERTEX
  8
0
 10
2741.519111
 20
2207.135515
 42
0.042709
  0
VERTEX
  8
0
 10
2833.120145
 20
2055.000000
 42
0.006889
  0
VERTEX
  8
0
 10
2853.799291
 20
2027.289930
 42
0.011054
  0
VERTEX
  8
0
 10
2872.276432
 20
2004.299923
 42
0.010970
  0
VERTEX
  8
0
 10
2891.853870
 20
1982.025319
 42
0.006652
  0
VERTEX
  8
0
 10
2915.934562
 20
1956.500000
 42
0.006251
  0
VERTEX
  8
0
 10
2943.283793
 20
1928.969204
 42
0.007846
  0
VERTEX
  8
0
 10
2969.343693
 20
1904.175057
 42
0.007808
  0
VERTEX
  8
0
 10
2996.273023
 20
1880.113976
 42
0.006090
  0
VERTEX
  8
0
 10
3026.250000
 20
1854.792282
 42
-0.001359
  0
VERTEX
  8
0
 10
3036.503852
 20
1846.295716
 42
-0.002230
  0
VERTEX
  8
0
 10
3045.132433
 20
1839.040777
 42
-0.000249
  0
VERTEX
  8
0
 10
3052.788633
 20
1832.538331
 42
-0.233966
  0
VERTEX
  8
0
 10
3052.966794
 20
1832.124509
 42
-0.166249
  0
VERTEX
  8
0
 10
3052.551983
 20
1831.093762
 42
-0.001254
  0
VERTEX
  8
0
 10
3046.505614
 20
1824.124336
 42
-0.003630
  0
VERTEX
  8
0
 10
3038.485856
 20
1815.060640
 42
-0.001211
  0
VERTEX
  8
0
 10
3026.621503
 20
1801.910658
 42
0.014329
  0
VERTEX
  8
0
 10
3001.234806
 20
1772.244120
 42
0.017122
  0
VERTEX
  8
0
 10
2979.118331
 20
1742.842429
 42
0.018189
  0
VERTEX
  8
0
 10
2960.291715
 20
1713.746790
 42
0.021723
  0
VERTEX
  8
0
 10
2944.792210
 20
1685.000000
 42
0.009108
  0
VERTEX
  8
0
 10
2937.499261
 20
1669.216479
 42
0.035767
  0
VERTEX
  8
0
 10
2933.893829
 20
1659.124271
 42
0.049373
  0
VERTEX
  8
0
 10
2932.360577
 20
1650.347419
 42
0.030421
  0
VERTEX
  8
0
 10
2932.219365
 20
1639.854556
 42
0.010318
  0
VERTEX
  8
0
 10
2932.587592
 20
1634.447994
 42
0.023234
  0
VERTEX
  8
0
 10
2933.140849
 20
1630.377722
 42
0.028017
  0
VERTEX
  8
0
 10
2933.987509
 20
1626.881307
 42
0.024318
  0
VERTEX
  8
0
 10
2935.253283
 20
1623.328156
 42
0.122123
  0
VERTEX
  8
0
 10
2952.763086
 20
1599.508237
 42
0.061918
  0
VERTEX
  8
0
 10
2984.285063
 20
1579.295408
 42
0.045224
  0
VERTEX
  8
0
 10
3030.276064
 20
1562.187652
 42
0.020762
  0
VERTEX
  8
0
 10
3092.692661
 20
1547.953424
 42
0.006114
  0
VERTEX
  8
0
 10
3109.868698
 20
1544.996689
 42
0.002592
  0
VERTEX
  8
0
 10
3132.968562
 20
1541.433119
 42
0.002573
  0
VERTEX
  8
0
 10
3155.933939
 20
1538.132775
 42
0.006701
  0
VERTEX
  8
0
 10
3172.500000
 20
1536.064872
 42
0.010338
  0
VERTEX
  8
0
 10
3214.756410
 20
1532.246836
 42
0.007876
  0
VERTEX
  8
0
 10
3261.157895
 20
1529.753454
 42
0.004700
  0
VERTEX
  8
0
 10
3326.218672
 20
1527.896663
 42
0.001033
  0
VERTEX
  8
0
 10
3438.000000
 20
1525.989003
 42
-0.001176
  0
VERTEX
  8
0
 10
3504.321813
 20
1524.838201
 42
-0.003264
  0
VERTEX
  8
0
 10
3550.939055
 20
1523.615116
 42
-0.004072
  0
VERTEX
  8
0
 10
3591.316925
 20
1521.962628
 42
-0.003002
  0
VERTEX
  8
0
 10
3636.000000
 20
1519.500357
 42
0.003570
  0
VERTEX
  8
0
 10
3649.458114
 20
1518.774095
 42
0.000420
  0
VERTEX
  8
0
 10
3679.440809
 20
1517.395962
 42
0.000527
  0
VERTEX
  8
0
 10
3713.545645
 20
1515.893107
 42
0.000559
  0
VERTEX
  8
0
 10
3747.000000
 20
1514.491740
 42
-0.000158
  0
VERTEX
  8
0
 10
3762.969689
 20
1513.835619
 42
-0.000131
  0
VERTEX
  8
0
 10
3779.946875
 20
1513.128264
 42
-0.000133
  0
VERTEX
  8
0
 10
3795.489945
 20
1512.472441
 42
-0.000360
  0
VERTEX
  8
0
 10
3806.500000
 20
1511.997006
 42
0.000463
  0
VERTEX
  8
0
 10
3828.634303
 20
1511.045752
 42
0.000166
  0
VERTEX
  8
0
 10
3860.151820
 20
1509.730981
 42
0.000151
  0
VERTEX
  8
0
 10
3897.596485
 20
1508.192797
 42
0.000112
  0
VERTEX
  8
0
 10
3939.000000
 20
1506.513853
 42
0.008061
  0
VERTEX
  8
0
 10
4078.565544
 20
1503.138165
 42
0.005962
  0
VERTEX
  8
0
 10
4232.994871
 20
1503.734680
 42
0.006035
  0
VERTEX
  8
0
 10
4383.597186
 20
1507.930776
 42
0.009882
  0
VERTEX
  8
0
 10
4511.000000
 20
1515.544165
 42
0.006431
  0
VERTEX
  8
0
 10
4609.977246
 20
1524.707106
 42
0.011748
  0
VERTEX
  8
0
 10
4690.402387
 20
1535.112970
 42
0.014307
  0
VERTEX
  8
0
 10
4754.914475
 20
1546.904093
 42
0.030462
  0
VERTEX
  8
0
 10
4803.771659
 20
1560.441278
 42
0.042153
  0
VERTEX
  8
0
 10
4839.562794
 20
1576.230028
 42
0.084945
  0
VERTEX
  8
0
 10
4863.681815
 20
1595.306953
 42
0.111125
  0
VERTEX
  8
0
 10
4876.136596
 20
1617.532720
 42
0.115796
  0
VERTEX
  8
0
 10
4877.614214
 20
1642.604115
 42
0.017086
  0
VERTEX
  8
0
 10
4875.740582
 20
1651.576437
 42
0.024353
  0
VERTEX
  8
0
 10
4873.423180
 20
1659.378331
 42
0.021039
  0
VERTEX
  8
0
 10
4870.098438
 20
1667.714526
 42
0.009097
  0
VERTEX
  8
0
 10
4865.009735
 20
1678.530224
 42
0.022255
  0
VERTEX
  8
0
 10
4854.953324
 20
1696.831279
 42
0.014546
  0
VERTEX
  8
0
 10
4841.831974
 20
1717.032355
 42
0.012006
  0
VERTEX
  8
0
 10
4824.932226
 20
1740.252188
 42
0.006580
  0
VERTEX
  8
0
 10
4803.183415
 20
1767.912326
 42
0.000000
  0
VERTEX
  8
0
 10
4786.694176
 20
1788.324652
 42
0.000000
  0
VERTEX
  8
0
 10
4790.658109
 20
1791.912326
 42
-0.004246
  0
VERTEX
  8
0
 10
4793.126638
 20
1794.108695
 42
-0.000488
  0
VERTEX
  8
0
 10
4798.727211
 20
1798.997583
 42
-0.000588
  0
VERTEX
  8
0
 10
4805.401815
 20
1804.798760
 42
-0.000479
  0
VERTEX
  8
0
 10
4812.561021
 20
1810.994339
 42
0.011037
  0
VERTEX
  8
0
 10
4829.929159
 20
1826.678144
 42
0.005706
  0
VERTEX
  8
0
 10
4850.975992
 20
1847.003770
 42
0.005679
  0
VERTEX
  8
0
 10
4871.242234
 20
1867.487571
 42
0.012964
  0
VERTEX
  8
0
 10
4885.944696
 20
1883.500000
 42
0.012414
  0
VERTEX
  8
0
 10
4911.095783
 20
1913.848655
 42
0.011504
  0
VERTEX
  8
0
 10
4935.375580
 20
1946.175603
 42
0.011048
  0
VERTEX
  8
0
 10
4959.077558
 20
1980.888918
 42
0.009487
  0
VERTEX
  8
0
 10
4982.494488
 20
2018.404762
 42
0.021993
  0
VERTEX
  8
0
 10
5033.357648
 20
2112.611648
 42
0.023388
  0
VERTEX
  8
0
 10
5074.618260
 20
2209.039116
 42
0.021344
  0
VERTEX
  8
0
 10
5109.583964
 20
2316.392641
 42
0.013550
  0
VERTEX
  8
0
 10
5141.501158
 20
2444.000000
 42
0.002075
  0
VERTEX
  8
0
 10
5148.321002
 20
2475.404070
 42
0.002606
  0
VERTEX
  8
0
 10
5154.368500
 20
2504.565567
 42
0.002042
  0
VERTEX
  8
0
 10
5161.149584
 20
2538.865063
 42
0.000725
  0
VERTEX
  8
0
 10
5170.573965
 20
2587.961189
 42
-0.000530
  0
VERTEX
  8
0
 10
5175.020585
 20
2611.174734
 42
-0.000873
  0
VERTEX
  8
0
 10
5178.835147
 20
2630.790561
 42
-0.000055
  0
VERTEX
  8
0
 10
5182.300358
 20
2648.435110
 42
-0.148928
  0
VERTEX
  8
0
 10
5182.527025
 20
2648.860359
 42
-0.204274
  0
VERTEX
  8
0
 10
5182.957197
 20
2649.033370
 42
-0.000065
  0
VERTEX
  8
0
 10
5201.691811
 20
2648.644737
 42
-0.001084
  0
VERTEX
  8
0
 10
5222.510640
 20
2648.164993
 42
-0.000656
  0
VERTEX
  8
0
 10
5247.153814
 20
2647.511291
 42
0.005088
  0
VERTEX
  8
0
 10
5325.859194
 20
2646.121378
 42
0.008802
  0
VERTEX
  8
0
 10
5391.296959
 20
2646.783674
 42
0.010276
  0
VERTEX
  8
0
 10
5448.537877
 20
2649.549105
 42
0.012486
  0
VERTEX
  8
0
 10
5502.000000
 20
2654.578394
 42
0.013969
  0
VERTEX
  8
0
 10
5559.374702
 20
2663.056285
 42
0.019372
  0
VERTEX
  8
0
 10
5610.176859
 20
2674.063804
 42
0.021469
  0
VERTEX
  8
0
 10
5655.296789
 20
2687.776520
 42
0.027301
  0
VERTEX
  8
0
 10
5695.500000
 20
2704.423066
 42
0.030955
  0
VERTEX
  8
0
 10
5741.788566
 20
2730.257128
 42
0.033101
  0
VERTEX
  8
0
 10
5783.453750
 20
2761.092282
 42
0.033198
  0
VERTEX
  8
0
 10
5820.578688
 20
2797.066999
 42
0.031516
  0
VERTEX
  8
0
 10
5853.316186
 20
2838.240774
 42
0.029989
  0
VERTEX
  8
0
 10
5882.827007
 20
2886.506389
 42
0.019655
  0
VERTEX
  8
0
 10
5911.160953
 20
2945.235094
 42
0.019117
  0
VERTEX
  8
0
 10
5935.830752
 20
3008.468006
 42
0.022035
  0
VERTEX
  8
0
 10
5954.320766
 20
3070.500000
 42
0.018110
  0
VERTEX
  8
0
 10
5967.120458
 20
3130.727266
 42
0.009455
  0
VERTEX
  8
0
 10
5978.911155
 20
3206.543439
 42
0.008772
  0
VERTEX
  8
0
 10
5988.962939
 20
3291.457739
 42
0.007817
  0
VERTEX
  8
0
 10
5996.476004
 20
3380.000000
 42
0.007642
  0
VERTEX
  8
0
 10
6000.994339
 20
3464.007247
 42
0.007993
  0
VERTEX
  8
0
 10
6002.855934
 20
3546.864073
 42
0.008493
  0
VERTEX
  8
0
 10
6002.056437
 20
3622.944275
 42
0.014755
  0
VERTEX
  8
0
 10
5998.458282
 20
3686.000000
 42
0.010433
  0
VERTEX
  8
0
 10
5994.285450
 20
3724.713580
 42
0.002166
  0
VERTEX
  8
0
 10
5985.240558
 20
3792.541251
 42
0.002290
  0
VERTEX
  8
0
 10
5975.520628
 20
3860.783801
 42
0.008326
  0
VERTEX
  8
0
 10
5968.426120
 20
3904.000000
 42
0.025919
  0
VERTEX
  8
0
 10
5957.442364
 20
3950.660107
 42
0.030061
  0
VERTEX
  8
0
 10
5942.095659
 20
3993.617573
 42
0.031508
  0
VERTEX
  8
0
 10
5922.488402
 20
4032.580922
 42
0.035153
  0
VERTEX
  8
0
 10
5898.762964
 20
4067.297812
 42
0.018644
  0
VERTEX
  8
0
 10
5890.213721
 20
4077.303673
 42
0.009407
  0
VERTEX
  8
0
 10
5878.742151
 20
4089.297304
 42
0.009404
  0
VERTEX
  8
0
 10
5866.853859
 20
4100.825491
 42
0.019063
  0
VERTEX
  8
0
 10
5857.000000
 20
4109.348302
 42
0.040173
  0
VERTEX
  8
0
 10
5818.443057
 20
4135.425870
 42
0.036324
  0
VERTEX
  8
0
 10
5774.919194
 20
4156.009193
 42
0.034071
  0
VERTEX
  8
0
 10
5726.174505
 20
4171.142145
 42
0.027185
  0
VERTEX
  8
0
 10
5672.000000
 20
4180.918911
 42
0.011416
  0
VERTEX
  8
0
 10
5609.943438
 20
4187.230476
 42
0.003480
  0
VERTEX
  8
0
 10
5515.762531
 20
4193.982339
 42
0.003584
  0
VERTEX
  8
0
 10
5414.095419
 20
4199.828579
 42
0.005070
  0
VERTEX
  8
0
 10
5323.500000
 20
4203.466340
 42
-0.001064
  0
VERTEX
  8
0
 10
5315.372799
 20
4203.727471
 42
-0.000864
  0
VERTEX
  8
0
 10
5306.662013
 20
4204.040971
 42
-0.000872
  0
VERTEX
  8
0
 10
5298.635144
 20
4204.357769
 42
-0.002271
  0
VERTEX
  8
0
 10
5292.860044
 20
4204.622073
 42
0.000000
  0
VERTEX
  8
0
 10
5281.220088
 20
4205.207782
 42
0.000000
  0
VERTEX
  8
0
 10
5280.699602
 20
4352.353891
 42
0.000624
  0
VERTEX
  8
0
 10
5280.255019
 20
4445.244157
 42
0.003003
  0
VERTEX
  8
0
 10
5279.618124
 20
4498.137986
 42
0.004627
  0
VERTEX
  8
0
 10
5278.486556
 20
4539.576222
 42
0.003290
  0
VERTEX
  8
0
 10
5276.482791
 20
4586.000000
 42
0.005313
  0
VERTEX
  8
0
 10
5273.599328
 20
4633.726992
 42
0.009163
  0
VERTEX
  8
0
 10
5270.050815
 20
4673.360878
 42
0.010671
  0
VERTEX
  8
0
 10
5265.967549
 20
4704.847772
 42
0.032182
  0
VERTEX
  8
0
 10
5261.358889
 20
4725.987963
 42
0.032008
  0
VERTEX
  8
0
 10
5256.810373
 20
4738.725435
 42
0.033665
  0
VERTEX
  8
0
 10
5250.736809
 20
4750.556303
 42
0.033855
  0
VERTEX
  8
0
 10
5243.166253
 20
4761.404913
 42
0.033164
  0
VERTEX
  8
0
 10
5234.152296
 20
4771.212435
 42
0.019581
  0
VERTEX
  8
0
 10
5226.659849
 20
4777.811384
 42
0.029609
  0
VERTEX
  8
0
 10
5219.607122
 20
4782.886083
 42
0.024419
  0
VERTEX
  8
0
 10
5211.068880
 20
4787.725993
 42
0.008909
  0
VERTEX
  8
0
 10
5198.546315
 20
4793.760301
 42
-0.001937
  0
VERTEX
  8
0
 10
5191.384346
 20
4797.089239
 42
-0.001245
  0
VERTEX
  8
0
 10
5183.101105
 20
4801.003642
 42
-0.001251
  0
VERTEX
  8
0
 10
5175.013083
 20
4804.875291
 42
-0.002349
  0
VERTEX
  8
0
 10
5168.500000
 20
4808.050872
 42
0.006637
  0
VERTEX
  8
0
 10
5160.789593
 20
4811.728725
 42
0.020459
  0
VERTEX
  8
0
 10
5155.449235
 20
4813.929470
 42
0.026699
  0
VERTEX
  8
0
 10
5150.780241
 20
4815.356350
 42
0.019854
  0
VERTEX
  8
0
 10
5145.500000
 20
4816.445985
 42
0.024169
  0
VERTEX
  8
0
 10
5130.193875
 20
4818.221324
 42
0.007803
  0
VERTEX
  8
0
 10
5107.391509
 20
4819.397582
 42
0.005006
  0
VERTEX
  8
0
 10
5073.549098
 20
4820.275022
 42
0.001265
  0
VERTEX
  8
0
 10
5018.500000
 20
4821.011559
 42
0.001191
  0
VERTEX
  8
0
 10
4953.006222
 20
4821.566031
 42
0.001575
  0
VERTEX
  8
0
 10
4893.344170
 20
4821.741019
 42
0.000790
  0
VERTEX
  8
0
 10
4808.907171
 20
4821.589239
 42
0.000095
  0
SEQEND
  0
POLYLINE
  8
0
 66
1
 70
1
  0
VERTEX
  8
0
 10
5398.500000
 20
3911.023438
 42
-0.015975
  0
VERTEX
  8
0
 10
5435.155834
 20
3907.661233
 42
-0.013761
  0
VERTEX
  8
0
 10
5473.405258
 20
3901.843854
 42
-0.014218
  0
VERTEX
  8
0
 10
5508.942082
 20
3894.384975
 42
-0.026838
  0
VERTEX
  8
0
 10
5537.010973
 20
3886.039851
 42
-0.059756
  0
VERTEX
  8
0
 10
5581.612639
 20
3863.829714
 42
-0.064198
  0
VERTEX
  8
0
 10
5618.506994
 20
3832.142964
 42
-0.059767
  0
VERTEX
  8
0
 10
5648.137134
 20
3790.069816
 42
-0.042238
  0
VERTEX
  8
0
 10
5671.187634
 20
3737.000000
 42
-0.009281
  0
VERTEX
  8
0
 10
5675.507360
 20
3723.363211
 42
-0.007290
  0
VERTEX
  8
0
 10
5679.697756
 20
3708.433206
 42
-0.007298
  0
VERTEX
  8
0
 10
5683.444748
 20
3693.411764
 42
-0.009397
  0
VERTEX
  8
0
 10
5686.425416
 20
3679.500000
 42
-0.034206
  0
VERTEX
  8
0
 10
5696.950347
 20
3594.978002
 42
-0.015041
  0
VERTEX
  8
0
 10
5699.817404
 20
3482.218647
 42
-0.014683
  0
VERTEX
  8
0
 10
5695.680118
 20
3360.663096
 42
-0.017721
  0
VERTEX
  8
0
 10
5684.410535
 20
3247.000000
 42
-0.009659
  0
VERTEX
  8
0
 10
5677.112848
 20
3199.857808
 42
-0.019294
  0
VERTEX
  8
0
 10
5669.194171
 20
3162.974351
 42
-0.023669
  0
VERTEX
  8
0
 10
5659.834325
 20
3132.435167
 42
-0.029305
  0
VERTEX
  8
0
 10
5648.163082
 20
3105.083634
 42
-0.035985
  0
VERTEX
  8
0
 10
5634.640803
 20
3082.207417
 42
-0.065360
  0
VERTEX
  8
0
 10
5620.075184
 20
3066.137313
 42
-0.055691
  0
VERTEX
  8
0
 10
5600.267862
 20
3052.798585
 42
-0.019801
  0
VERTEX
  8
0
 10
5569.366858
 20
3038.182929
 42
-0.017090
  0
VERTEX
  8
0
 10
5515.277664
 20
3017.326356
 42
-0.014853
  0
VERTEX
  8
0
 10
5457.315706
 20
2999.132866
 42
-0.014860
  0
VERTEX
  8
0
 10
5398.406521
 20
2984.421366
 42
-0.017155
  0
VERTEX
  8
0
 10
5341.473604
 20
2974.020013
 42
-0.003591
  0
VERTEX
  8
0
 10
5320.494391
 20
2971.080433
 42
-0.001887
  0
VERTEX
  8
0
 10
5294.374686
 20
2967.711952
 42
-0.001869
  0
VERTEX
  8
0
 10
5268.816346
 20
2964.610893
 42
-0.004589
  0
VERTEX
  8
0
 10
5250.000000
 20
2962.574097
 42
0.000015
  0
VERTEX
  8
0
 10
5243.633723
 20
2961.943834
 42
0.000015
  0
VERTEX
  8
0
 10
5237.322400
 20
2961.318625
 42
0.000015
  0
VERTEX
  8
0
 10
5231.846685
 20
2960.775859
 42
0.000065
  0
VERTEX
  8
0
 10
5228.608169
 20
2960.454328
 42
0.000000
  0
VERTEX
  8
0
 10
5222.716338
 20
2959.868594
 42
0.000000
  0
VERTEX
  8
0
 10
5223.400838
 20
2969.684297
 42
-0.007539
  0
VERTEX
  8
0
 10
5223.918107
 20
2975.776780
 42
-0.000834
  0
VERTEX
  8
0
 10
5225.334244
 20
2989.688512
 42
-0.001017
  0
VERTEX
  8
0
 10
5227.081208
 20
3006.241770
 42
-0.000823
  0
VERTEX
  8
0
 10
5229.021432
 20
3024.000000
 42
0.004392
  0
VERTEX
  8
0
 10
5244.333970
 20
3174.065127
 42
0.004559
  0
VERTEX
  8
0
 10
5256.802369
 20
3322.529664
 42
0.004730
  0
VERTEX
  8
0
 10
5266.122051
 20
3465.248858
 42
0.005896
  0
VERTEX
  8
0
 10
5271.961059
 20
3598.000000
 42
-0.000467
  0
VERTEX
  8
0
 10
5272.388291
 20
3610.903138
 42
-0.000487
  0
VERTEX
  8
0
 10
5272.833824
 20
3623.625000
 42
-0.000468
  0
VERTEX
  8
0
 10
5273.239920
 20
3634.620570
 42
-0.002144
  0
VERTEX
  8
0
 10
5273.508906
 20
3641.000000
 42
0.007712
  0
VERTEX
  8
0
 10
5273.756732
 20
3648.990591
 42
0.000337
  0
VERTEX
  8
0
 10
5274.172750
 20
3676.894534
 42
0.000572
  0
VERTEX
  8
0
 10
5274.606003
 20
3709.989067
 42
0.000408
  0
VERTEX
  8
0
 10
5275.018492
 20
3747.045221
 42
-0.000687
  0
VERTEX
  8
0
 10
5275.672154
 20
3802.966389
 42
-0.002681
  0
VERTEX
  8
0
 10
5276.309039
 20
3837.530994
 42
-0.003696
  0
VERTEX
  8
0
 10
5277.203615
 20
3866.215015
 42
-0.002392
  0
VERTEX
  8
0
 10
5278.642959
 20
3899.395877
 42
0.000000
  0
VERTEX
  8
0
 10
5279.312348
 20
3913.291754
 42
0.000000
  0
VERTEX
  8
0
 10
5329.906174
 20
3912.693921
 42
-0.001526
  0
VERTEX
  8
0
 10
5350.596037
 20
3912.386304
 42
-0.001608
  0
VERTEX
  8
0
 10
5370.925564
 20
3911.956610
 42
-0.001536
  0
VERTEX
  8
0
 10
5388.454851
 20
3911.475839
 42
-0.007258
  0
SEQEND
  0
ENDSEC
  0
EOF
