  0
SECTION
  2
HEADER
  9
$ACADVER
  1
AC1006
  9
$EXTMIN
 10
0.000000
 20
0.000000
 30
0.000000
  9
$EXTMAX
 10
7813.000000
 20
7813.000000
 30
0.000000
  0
ENDSEC
  0
SECTION
  2
ENTITIES
  0
POLYLINE
  8
0
 66
1
 70
1
  0
VERTEX
  8
0
 10
3917.085578
 20
6541.914511
 42
0.051867
  0
VERTEX
  8
0
 10
3912.781841
 20
6540.595300
 42
0.052572
  0
VERTEX
  8
0
 10
3908.862620
 20
6538.422963
 42
0.055385
  0
VERTEX
  8
0
 10
3905.672388
 20
6535.614599
 42
0.073947
  0
VERTEX
  8
0
 10
3903.526234
 20
6532.414042
 42
0.047471
  0
VERTEX
  8
0
 10
3902.622052
 20
6529.923079
 42
0.042586
  0
VERTEX
  8
0
 10
3902.161936
 20
6527.213483
 42
0.025865
  0
VERTEX
  8
0
 10
3902.043834
 20
6523.449433
 42
0.005897
  0
VERTEX
  8
0
 10
3902.248831
 20
6517.074804
 42
0.026193
  0
VERTEX
  8
0
 10
3903.454830
 20
6504.592176
 42
0.013716
  0
VERTEX
  8
0
 10
3906.190456
 20
6489.220367
 42
0.008692
  0
VERTEX
  8
0
 10
3911.031930
 20
6467.664435
 42
0.002316
  0
VERTEX
  8
0
 10
3919.499449
 20
6433.500000
 42
0.000016
  0
VERTEX
  8
0
 10
3924.396337
 20
6414.129687
 42
0.000008
  0
VERTEX
  8
0
 10
3930.645423
 20
6389.415625
 42
0.000008
  0
VERTEX
  8
0
 10
3937.146355
 20
6363.708995
 42
0.000011
  0
VERTEX
  8
0
 10
3942.890152
 20
6341.000000
 42
-0.004001
  0
VERTEX
  8
0
 10
3960.672983
 20
6268.255927
 42
-0.021849
  0
VERTEX
  8
0
 10
3968.244543
 20
6228.470700
 42
-0.027382
  0
VERTEX
  8
0
 10
3971.511097
 20
6192.119482
 42
-0.008608
  0
VERTEX
  8
0
 10
3972.475451
 20
6137.500000
 42
-0.004428
  0
VERTEX
  8
0
 10
3972.098460
 20
6092.716016
 42
-0.014109
  0
VERTEX
  8
0
 10
3970.738248
 20
6062.835820
 42
-0.018425
  0
VERTEX
  8
0
 10
3967.942421
 20
6037.649779
 42
-0.013146
  0
VERTEX
  8
0
 10
3963.038605
 20
6009.701232
 42
-0.017239
  0
VERTEX
  8
0
 10
3952.715491
 20
5966.480601
 42
-0.011216
  0
VERTEX
  8
0
 10
3937.969154
 20
5917.308921
 42
-0.006337
  0
VERTEX
  8
0
 10
3913.974682
 20
5846.441089
 42
-0.001263
  0
VERTEX
  8
0
 10
3869.188740
 20
5720.500000
 42
0.002813
  0
VERTEX
  8
0
 10
3845.620149
 20
5653.567004
 42
0.006439
  0
VERTEX
  8
0
 10
3828.792631
 20
5602.798774
 42
0.008393
  0
VERTEX
  8
0
 10
3816.574338
 20
5561.913849
 42
0.013337
  0
VERTEX
  8
0
 10
3807.647050
 20
5526.500000
 42
0.013924
  0
VERTEX
  8
0
 10
3803.130459
 20
5503.318057
 42
0.020768
  0
VERTEX
  8
0
 10
3800.595674
 20
5482.821819
 42
0.015746
  0
VERTEX
  8
0
 10
3799.375177
 20
5458.445308
 42
0.004632
  0
VERTEX
  8
0
 10
3799.027960
 20
5421.000000
 42
0.014113
  0
VERTEX
  8
0
 10
3801.051727
 20
5349.294824
 42
0.036599
  0
VERTEX
  8
0
 10
3807.728915
 20
5298.064169
 42
0.031419
  0
VERTEX
  8
0
 10
3822.414403
 20
5244.076001
 42
0.008208
  0
VERTEX
  8
0
 10
3852.791404
 20
5159.500000
 42
-0.000400
  0
VERTEX
  8
0
 10
3866.571912
 20
5122.937116
 42
-0.001416
  0
VERTEX
  8
0
 10
3875.331251
 20
5099.438269
 42
-0.001402
  0
VERTEX
  8
0
 10
3884.000671
 20
5075.773938
 42
-0.000386
  0
VERTEX
  8
0
 10
3897.504958
 20
5038.500000
 42
0.003673
  0
VERTEX
  8
0
 10
3913.097643
 20
4996.329480
 42
0.010641
  0
VERTEX
  8
0
 10
3924.718758
 20
4967.467994
 42
0.015182
  0
VERTEX
  8
0
 10
3934.406044
 20
4946.590067
 42
0.030649
  0
VERTEX
  8
0
 10
3943.509453
 20
4930.912209
 42
0.024202
  0
VERTEX
  8
0
 10
3949.472150
 20
4922.832148
 42
0.036309
  0
VERTEX
  8
0
 10
3955.487126
 20
4916.461974
 42
0.037587
  0
VERTEX
  8
0
 10
3962.195610
 20
4911.186951
 42
0.028623
  0
VERTEX
  8
0
 10
3970.244613
 20
4906.427822
 42
0.027803
  0
VERTEX
  8
0
 10
3980.351950
 20
4901.900180
 42
0.035173
  0
VERTEX
  8
0
 10
3990.144936
 20
4898.921814
 42
0.033376
  0
VERTEX
  8
0
 10
4000.665159
 20
4897.243508
 42
0.021516
  0
VERTEX
  8
0
 10
4013.000000
 20
4896.645484
 42
0.004631
  0
VERTEX
  8
0
 10
4021.487158
 20
4896.678102
 42
0.024678
  0
VERTEX
  8
0
 10
4026.113692
 20
4896.967409
 42
0.039673
  0
VERTEX
  8
0
 10
4029.626686
 20
4897.647040
 42
0.026888
  0
VERTEX
  8
0
 10
4033.492628
 20
4898.946083
 42
0.153096
  0
VERTEX
  8
0
 10
4049.719286
 20
4912.115357
 42
0.070775
  0
VERTEX
  8
0
 10
4061.511827
 20
4936.913700
 42
0.050983
  0
VERTEX
  8
0
 10
4068.787612
 20
4972.678731
 42
0.024479
  0
VERTEX
  8
0
 10
4071.124440
 20
5019.500000
 42
0.019734
  0
VERTEX
  8
0
 10
4069.784792
 20
5054.240450
 42
0.021732
  0
VERTEX
  8
0
 10
4065.705846
 20
5087.656714
 42
0.017814
  0
VERTEX
  8
0
 10
4057.973872
 20
5125.693117
 42
0.007813
  0
VERTEX
  8
0
 10
4045.160791
 20
5175.500000
 42
-0.007309
  0
VERTEX
  8
0
 10
4025.923878
 20
5249.966581
 42
-0.018385
  0
VERTEX
  8
0
 10
4014.713385
 20
5304.869662
 42
-0.022709
  0
VERTEX
  8
0
 10
4008.937996
 20
5353.073989
 42
-0.018534
  0
VERTEX
  8
0
 10
4007.027870
 20
5405.000000
 42
-0.008904
  0
VERTEX
  8
0
 10
4007.808961
 20
5448.146712
 42
-0.011683
  0
VERTEX
  8
0
 10
4010.143342
 20
5487.484564
 42
-0.011715
  0
VERTEX
  8
0
 10
4014.305913
 20
5526.582397
 42
-0.009036
  0
VERTEX
  8
0
 10
4020.611212
 20
5569.000000
 42
-0.005548
  0
VERTEX
  8
0
 10
4024.765104
 20
5592.258054
 42
-0.001830
  0
VERTEX
  8
0
 10
4031.373520
 20
5626.345053
 42
-0.000933
  0
VERTEX
  8
0
 10
4042.439054
 20
5681.781004
 42
-0.000139
  0
VERTEX
  8
0
 10
4064.970373
 20
5793.410784
 42
0.004861
  0
VERTEX
  8
0
 10
4083.055649
 20
5887.590725
 42
0.013271
  0
VERTEX
  8
0
 10
4093.422906
 20
5954.617827
 42
0.016256
  0
VERTEX
  8
0
 10
4099.035933
 20
6013.896726
 42
0.011353
  0
VERTEX
  8
0
 10
4101.667219
 20
6081.000000
 42
0.015990
  0
VERTEX
  8
0
 10
4100.648908
 20
6146.735898
 42
0.021107
  0
VERTEX
  8
0
 10
4095.283787
 20
6206.405333
 42
0.020804
  0
VERTEX
  8
0
 10
4084.825061
 20
6266.086322
 42
0.014854
  0
VERTEX
  8
0
 10
4068.386035
 20
6331.895080
 42
0.005946
  0
VERTEX
  8
0
 10
4051.942612
 20
6387.733154
 42
0.007849
  0
VERTEX
  8
0
 10
4035.558520
 20
6438.189211
 42
0.008433
  0
VERTEX
  8
0
 10
4020.467966
 20
6479.978118
 42
0.027359
  0
VERTEX
  8
0
 10
4008.504027
 20
6506.905215
 42
0.053632
  0
VERTEX
  8
0
 10
3999.541142
 20
6520.586204
 42
0.072457
  0
VERTEX
  8
0
 10
3988.623782
 20
6530.534685
 42
0.068659
  0
VERTEX
  8
0
 10
3974.849209
 20
6537.311899
 42
0.042658
  0
VERTEX
  8
0
 10
3957.301195
 20
6541.510869
 42
0.024005
  0
VERTEX
  8
0
 10
3948.073719
 20
6542.451647
 42
0.010892
  0
VERTEX
  8
0
 10
3935.935968
 20
6542.837988
 42
0.010170
  0
VERTEX
  8
0
 10
3924.207957
 20
6542.717145
 42
0.040810
  0
SEQEND
  0
POLYLINE
  8
0
 66
1
 70
1
  0
VERTEX
  8
0
 10
3485.024244
 20
6238.396909
 42
0.030117
  0
VERTEX
  8
0
 10
3479.305058
 20
6236.484232
 42
0.051361
  0
VERTEX
  8
0
 10
3474.853443
 20
6234.134965
 42
0.063891
  0
VERTEX
  8
0
 10
3471.714177
 20
6231.404701
 42
0.102503
  0
VERTEX
  8
0
 10
3469.947533
 20
6228.341025
 42
0.106255
  0
VERTEX
  8
0
 10
3469.107015
 20
6220.520016
 42
0.019391
  0
VERTEX
  8
0
 10
3471.200759
 20
6206.023000
 42
0.011841
  0
VERTEX
  8
0
 10
3476.029500
 20
6182.902528
 42
0.002181
  0
VERTEX
  8
0
 10
3486.128165
 20
6140.524143
 42
-0.005394
  0
VERTEX
  8
0
 10
3497.594010
 20
6090.999376
 42
-0.017460
  0
VERTEX
  8
0
 10
3503.695856
 20
6057.807356
 42
-0.019906
  0
VERTEX
  8
0
 10
3507.048548
 20
6026.617277
 42
-0.008793
  0
VERTEX
  8
0
 10
3509.107916
 20
5985.206763
 42
-0.008830
  0
VERTEX
  8
0
 10
3509.676947
 20
5945.817259
 42
-0.008992
  0
VERTEX
  8
0
 10
3508.847002
 20
5906.670097
 42
-0.009519
  0
VERTEX
  8
0
 10
3506.758111
 20
5870.830005
 42
-0.017419
  0
VERTEX
  8
0
 10
3503.484078
 20
5841.743572
 42
-0.022039
  0
VERTEX
  8
0
 10
3494.876278
 20
5797.225126
 42
-0.013236
  0
VERTEX
  8
0
 10
3480.955561
 20
5745.218116
 42
-0.008946
  0
VERTEX
  8
0
 10
3459.049202
 20
5675.853393
 42
-0.002786
  0
VERTEX
  8
0
 10
3423.721474
 20
5572.500000
 42
0.002469
  0
VERTEX
  8
0
 10
3405.082447
 20
5518.083245
 42
0.005361
  0
VERTEX
  8
0
 10
3391.423805
 20
5476.072079
 42
0.006519
  0
VERTEX
  8
0
 10
3380.483621
 20
5439.488441
 42
0.006448
  0
VERTEX
  8
0
 10
3370.459599
 20
5402.500000
 42
0.009463
  0
VERTEX
  8
0
 10
3360.093063
 20
5358.782369
 42
0.010931
  0
VERTEX
  8
0
 10
3351.920609
 20
5316.750095
 42
0.011680
  0
VERTEX
  8
0
 10
3346.090997
 20
5277.329247
 42
0.015847
  0
VERTEX
  8
0
 10
3342.793778
 20
5241.500000
 42
0.024307
  0
VERTEX
  8
0
 10
3342.433829
 20
5210.121333
 42
0.019917
  0
VERTEX
  8
0
 10
3345.012783
 20
5176.678556
 42
0.019710
  0
VERTEX
  8
0
 10
3350.295824
 20
5143.133300
 42
0.022213
  0
VERTEX
  8
0
 10
3358.053215
 20
5111.439547
 42
0.022670
  0
VERTEX
  8
0
 10
3368.326686
 20
5081.426047
 42
0.023632
  0
VERTEX
  8
0
 10
3381.151955
 20
5052.889429
 42
0.023087
  0
VERTEX
  8
0
 10
3396.910584
 20
5025.096493
 42
0.019682
  0
VERTEX
  8
0
 10
3415.975810
 20
4997.308116
 42
0.019981
  0
VERTEX
  8
0
 10
3439.745847
 20
4967.952373
 42
0.022524
  0
VERTEX
  8
0
 10
3464.895575
 20
4941.788593
 42
0.024435
  0
VERTEX
  8
0
 10
3489.371747
 20
4920.697074
 42
0.048857
  0
VERTEX
  8
0
 10
3510.929408
 20
4907.038105
 42
0.029478
  0
VERTEX
  8
0
 10
3523.892695
 20
4901.431779
 42
0.032003
  0
VERTEX
  8
0
 10
3537.078133
 20
4897.564973
 42
0.030831
  0
VERTEX
  8
0
 10
3551.080567
 20
4895.310456
 42
0.023931
  0
VERTEX
  8
0
 10
3566.500000
 20
4894.536634
 42
0.070972
  0
VERTEX
  8
0
 10
3591.480138
 20
4898.042010
 42
0.274453
  0
VERTEX
  8
0
 10
3601.764766
 20
4908.994542
 42
0.118781
  0
VERTEX
  8
0
 10
3601.361389
 20
4931.143404
 42
0.011107
  0
VERTEX
  8
0
 10
3586.340786
 20
4984.000000
 42
-0.004229
  0
VERTEX
  8
0
 10
3573.700625
 20
5026.260425
 42
-0.013154
  0
VERTEX
  8
0
 10
3566.176735
 20
5055.021358
 42
-0.016025
  0
VERTEX
  8
0
 10
3560.989826
 20
5080.940016
 42
-0.009173
  0
VERTEX
  8
0
 10
3556.312896
 20
5112.500000
 42
-0.024939
  0
VERTEX
  8
0
 10
3554.850748
 20
5130.991369
 42
-0.007285
  0
VERTEX
  8
0
 10
3554.437768
 20
5159.529835
 42
-0.007505
  0
VERTEX
  8
0
 10
3554.874857
 20
5188.455695
 42
-0.020117
  0
VERTEX
  8
0
 10
3556.322497
 20
5209.000000
 42
-0.012535
  0
VERTEX
  8
0
 10
3563.822963
 20
5263.955331
 42
-0.010060
  0
VERTEX
  8
0
 10
3574.558790
 20
5322.675672
 42
-0.007664
  0
VERTEX
  8
0
 10
3590.338345
 20
5394.493781
 42
-0.003106
  0
VERTEX
  8
0
 10
3613.946305
 20
5491.884012
 42
0.002753
  0
VERTEX
  8
0
 10
3637.788583
 20
5589.938494
 42
0.006612
  0
VERTEX
  8
0
 10
3654.090544
 20
5662.909277
 42
0.008697
  0
VERTEX
  8
0
 10
3664.703552
 20
5718.339326
 42
0.022056
  0
VERTEX
  8
0
 10
3669.923386
 20
5759.000000
 42
0.017630
  0
VERTEX
  8
0
 10
3671.534554
 20
5792.320943
 42
0.010630
  0
VERTEX
  8
0
 10
3671.210218
 20
5831.873869
 42
0.010427
  0
VERTEX
  8
0
 10
3669.148910
 20
5872.809672
 42
0.013212
  0
VERTEX
  8
0
 10
3665.459089
 20
5910.500000
 42
0.014476
  0
VERTEX
  8
0
 10
3658.415125
 20
5956.191259
 42
0.014089
  0
VERTEX
  8
0
 10
3648.686201
 20
6001.816932
 42
0.014505
  0
VERTEX
  8
0
 10
3636.773703
 20
6045.321329
 42
0.018498
  0
VERTEX
  8
0
 10
3623.170191
 20
6084.616795
 42
0.013465
  0
VERTEX
  8
0
 10
3609.195931
 20
6117.929462
 42
0.006045
  0
VERTEX
  8
0
 10
3589.141317
 20
6160.950360
 42
0.004581
  0
VERTEX
  8
0
 10
3568.917338
 20
6202.031441
 42
0.040377
  0
VERTEX
  8
0
 10
3558.391305
 20
6219.302900
 42
0.098822
  0
VERTEX
  8
0
 10
3549.263879
 20
6227.733738
 42
0.052757
  0
VERTEX
  8
0
 10
3535.332545
 20
6234.349043
 42
0.046903
  0
VERTEX
  8
0
 10
3518.270151
 20
6238.600061
 42
0.039422
  0
VERTEX
  8
0
 10
3499.677641
 20
6239.934189
 42
0.013389
  0
VERTEX
  8
0
 10
3495.762558
 20
6239.801228
 42
0.010951
  0
VERTEX
  8
0
 10
3491.587429
 20
6239.455466
 42
0.011105
  0
VERTEX
  8
0
 10
3487.759393
 20
6238.967699
 42
0.028402
  0
SEQEND
  0
POLYLINE
  8
0
 66
1
 70
1
  0
VERTEX
  8
0
 10
4338.001508
 20
6160.970650
 42
0.039205
  0
VERTEX
  8
0
 10
4334.521567
 20
6159.944503
 42
0.051607
  0
VERTEX
  8
0
 10
4331.570048
 20
6158.451763
 42
0.051331
  0
VERTEX
  8
0
 10
4328.974929
 20
6156.379104
 42
0.038204
  0
VERTEX
  8
0
 10
4326.561789
 20
6153.616157
 42
0.138927
  0
VERTEX
  8
0
 10
4324.566200
 20
6148.400999
 42
0.021605
  0
VERTEX
  8
0
 10
4324.051327
 20
6137.257926
 42
0.020315
  0
VERTEX
  8
0
 10
4324.603630
 20
6122.596949
 42
0.010767
  0
VERTEX
  8
0
 10
4326.415924
 20
6104.500000
 42
-0.016385
  0
VERTEX
  8
0
 10
4329.912767
 20
6065.125120
 42
-0.023180
  0
VERTEX
  8
0
 10
4330.245540
 20
6029.936885
 42
-0.023315
  0
VERTEX
  8
0
 10
4327.323038
 20
5995.025465
 42
-0.016866
  0
VERTEX
  8
0
 10
4320.952882
 20
5956.500000
 42
-0.012848
  0
VERTEX
  8
0
 10
4312.497162
 20
5919.262571
 42
-0.011724
  0
VERTEX
  8
0
 10
4301.903801
 20
5881.344857
 42
-0.009409
  0
VERTEX
  8
0
 10
4287.494553
 20
5837.078512
 42
-0.004233
  0
VERTEX
  8
0
 10
4266.998635
 20
5779.500000
 42
0.003253
  0
VERTEX
  8
0
 10
4247.410804
 20
5724.812188
 42
0.012615
  0
VERTEX
  8
0
 10
4236.353382
 20
5690.553147
 42
0.017629
  0
VERTEX
  8
0
 10
4228.988349
 20
5661.914796
 42
0.012070
  0
VERTEX
  8
0
 10
4222.570663
 20
5628.958207
 42
0.005949
  0
VERTEX
  8
0
 10
4218.375016
 20
5602.331456
 42
0.014385
  0
VERTEX
  8
0
 10
4216.076860
 20
5582.543462
 42
0.014729
  0
VERTEX
  8
0
 10
4214.950046
 20
5562.932835
 42
0.006523
  0
VERTEX
  8
0
 10
4214.563765
 20
5537.000000
 42
0.008483
  0
VERTEX
  8
0
 10
4215.007364
 20
5507.657768
 42
0.020546
  0
VERTEX
  8
0
 10
4216.591702
 20
5486.042913
 42
0.022378
  0
VERTEX
  8
0
 10
4219.845960
 20
5465.748889
 42
0.011962
  0
VERTEX
  8
0
 10
4225.580059
 20
5441.000000
 42
0.010016
  0
VERTEX
  8
0
 10
4233.807813
 20
5411.458272
 42
0.009750
  0
VERTEX
  8
0
 10
4243.281215
 20
5382.001936
 42
0.005719
  0
VERTEX
  8
0
 10
4257.582415
 20
5341.841390
 42
0.001122
  0
VERTEX
  8
0
 10
4284.278227
 20
5270.000000
 42
-0.001253
  0
VERTEX
  8
0
 10
4305.650472
 20
5212.438630
 42
-0.005270
  0
VERTEX
  8
0
 10
4318.032241
 20
5177.709094
 42
-0.007996
  0
VERTEX
  8
0
 10
4326.937622
 20
5150.466285
 42
-0.006797
  0
VERTEX
  8
0
 10
4335.484177
 20
5121.440585
 42
-0.009065
  0
VERTEX
  8
0
 10
4341.944728
 20
5096.619306
 42
-0.008650
  0
VERTEX
  8
0
 10
4347.609718
 20
5071.191107
 42
-0.007197
  0
VERTEX
  8
0
 10
4353.207642
 20
5041.687729
 42
-0.003538
  0
VERTEX
  8
0
 10
4359.523434
 20
5004.000000
 42
0.002866
  0
VERTEX
  8
0
 10
4363.377770
 20
4980.809255
 42
0.003498
  0
VERTEX
  8
0
 10
4367.259857
 20
4959.159212
 42
0.003184
  0
VERTEX
  8
0
 10
4370.757383
 20
4941.050444
 42
0.020459
  0
VERTEX
  8
0
 10
4372.957012
 20
4931.986281
 42
0.048885
  0
VERTEX
  8
0
 10
4374.774198
 20
4927.392340
 42
0.028611
  0
VERTEX
  8
0
 10
4377.776098
 20
4922.287334
 42
0.028693
  0
VERTEX
  8
0
 10
4381.299760
 20
4917.614934
 42
0.054347
  0
VERTEX
  8
0
 10
4384.717689
 20
4914.374866
 42
0.025019
  0
VERTEX
  8
0
 10
4386.733089
 20
4912.995835
 42
0.013614
  0
VERTEX
  8
0
 10
4389.332331
 20
4911.497861
 42
0.013536
  0
VERTEX
  8
0
 10
4392.064827
 20
4910.114920
 42
0.020860
  0
VERTEX
  8
0
 10
4394.504395
 20
4909.084240
 42
0.053263
  0
VERTEX
  8
0
 10
4404.311931
 20
4906.563266
 42
0.026563
  0
VERTEX
  8
0
 10
4417.093229
 20
4905.383297
 42
0.025836
  0
VERTEX
  8
0
 10
4429.454981
 20
4905.540486
 42
0.083041
  0
VERTEX
  8
0
 10
4437.441612
 20
4907.411157
 42
0.066848
  0
VERTEX
  8
0
 10
4441.722987
 20
4909.915531
 42
0.032414
  0
VERTEX
  8
0
 10
4446.468014
 20
4914.141300
 42
0.028338
  0
VERTEX
  8
0
 10
4451.398705
 20
4919.743264
 42
0.020438
  0
VERTEX
  8
0
 10
4456.265592
 20
4926.500000
 42
0.027775
  0
VERTEX
  8
0
 10
4466.025394
 20
4943.241012
 42
0.013208
  0
VERTEX
  8
0
 10
4476.787224
 20
4965.756820
 42
0.013186
  0
VERTEX
  8
0
 10
4486.603421
 20
4989.429525
 42
0.021618
  0
VERTEX
  8
0
 10
4493.500721
 20
5010.002504
 42
0.024278
  0
VERTEX
  8
0
 10
4500.488480
 20
5039.618304
 42
0.017173
  0
VERTEX
  8
0
 10
4505.555621
 20
5073.414972
 42
0.017262
  0
VERTEX
  8
0
 10
4508.259130
 20
5107.154125
 42
0.026242
  0
VERTEX
  8
0
 10
4508.052333
 20
5136.557637
 42
0.026404
  0
VERTEX
  8
0
 10
4503.482819
 20
5177.077121
 42
0.019755
  0
VERTEX
  8
0
 10
4494.352747
 20
5221.076834
 42
0.013265
  0
VERTEX
  8
0
 10
4478.407863
 20
5278.548238
 42
0.003941
  0
VERTEX
  8
0
 10
4451.029166
 20
5365.500000
 42
-0.001474
  0
VERTEX
  8
0
 10
4437.715989
 20
5407.063962
 42
-0.002431
  0
VERTEX
  8
0
 10
4426.740800
 20
5442.272820
 42
-0.002758
  0
VERTEX
  8
0
 10
4418.225762
 20
5470.621648
 42
-0.009019
  0
VERTEX
  8
0
 10
4413.036781
 20
5489.500000
 42
-0.021751
  0
VERTEX
  8
0
 10
4405.193143
 20
5526.903547
 42
-0.013730
  0
VERTEX
  8
0
 10
4399.155502
 20
5571.104461
 42
-0.013181
  0
VERTEX
  8
0
 10
4395.288058
 20
5618.198845
 42
-0.013994
  0
VERTEX
  8
0
 10
4394.010252
 20
5664.500000
 42
-0.010703
  0
VERTEX
  8
0
 10
4394.670593
 20
5694.786546
 42
-0.012817
  0
VERTEX
  8
0
 10
4396.632530
 20
5723.243198
 42
-0.007850
  0
VERTEX
  8
0
 10
4400.793211
 20
5760.857353
 42
-0.001559
  0
VERTEX
  8
0
 10
4409.501830
 20
5828.000000
 42
0.001901
  0
VERTEX
  8
0
 10
4419.263158
 20
5903.665519
 42
0.011117
  0
VERTEX
  8
0
 10
4423.359403
 20
5943.582219
 42
0.018234
  0
VERTEX
  8
0
 10
4424.704897
 20
5974.447977
 42
0.011778
  0
VERTEX
  8
0
 10
4424.116139
 20
6010.223591
 42
0.002737
  0
VERTEX
  8
0
 10
4423.122367
 20
6032.056740
 42
0.006472
  0
VERTEX
  8
0
 10
4422.082463
 20
6048.307587
 42
0.007845
  0
VERTEX
  8
0
 10
4420.766257
 20
6062.490422
 42
0.006559
  0
VERTEX
  8
0
 10
4418.935907
 20
6077.500000
 42
0.021072
  0
VERTEX
  8
0
 10
4413.667755
 20
6107.019772
 42
0.039012
  0
VERTEX
  8
0
 10
4406.551590
 20
6130.294181
 42
0.049709
  0
VERTEX
  8
0
 10
4397.964638
 20
6147.030771
 42
0.132180
  0
VERTEX
  8
0
 10
4388.078418
 20
6155.959994
 42
0.074771
  0
VERTEX
  8
0
 10
4379.253297
 20
6158.908847
 42
0.018374
  0
VERTEX
  8
0
 10
4364.055685
 20
6160.995847
 42
0.019177
  0
VERTEX
  8
0
 10
4348.535130
 20
6161.949662
 42
0.057917
  0
SEQEND
  0
POLYLINE
  8
0
 66
1
 70
1
  0
VERTEX
  8
0
 10
4623.000000
 20
4820.925739
 42
0.000331
  0
VERTEX
  8
0
 10
3980.811581
 20
4818.085529
 42
0.001004
  0
VERTEX
  8
0
 10
3543.766762
 20
4814.984988
 42
0.001444
  0
VERTEX
  8
0
 10
3212.322924
 20
4811.010675
 42
0.002187
  0
VERTEX
  8
0
 10
2924.000000
 20
4805.459448
 42
0.001864
  0
VERTEX
  8
0
 10
2790.268234
 20
4801.800528
 42
0.007887
  0
VERTEX
  8
0
 10
2710.205083
 20
4798.046403
 42
0.011979
  0
VERTEX
  8
0
 10
2657.815219
 20
4793.498810
 42
0.052479
  0
VERTEX
  8
0
 10
2627.500000
 20
4786.865835
 42
0.021910
  0
VERTEX
  8
0
 10
2619.225462
 20
4783.712658
 42
0.026822
  0
VERTEX
  8
0
 10
2611.815642
 20
4780.027369
 42
0.022535
  0
VERTEX
  8
0
 10
2603.898990
 20
4775.061581
 42
0.009999
  0
VERTEX
  8
0
 10
2593.899755
 20
4767.843013
 42
0.049990
  0
VERTEX
  8
0
 10
2565.214468
 20
4741.377280
 42
0.091973
  0
VERTEX
  8
0
 10
2548.874812
 20
4714.259888
 42
0.060516
  0
VERTEX
  8
0
 10
2539.546648
 20
4675.805227
 42
0.012149
  0
VERTEX
  8
0
 10
2533.003762
 20
4605.500000
 42
0.008083
  0
VERTEX
  8
0
 10
2530.449848
 20
4556.744872
 42
0.006123
  0
VERTEX
  8
0
 10
2529.168312
 20
4503.187669
 42
0.002682
  0
VERTEX
  8
0
 10
2528.635705
 20
4418.849568
 42
0.000295
  0
VERTEX
  8
0
 10
2528.565775
 20
4225.500000
 42
0.001092
  0
VERTEX
  8
0
 10
2529.298037
 20
3921.979227
 42
0.001759
  0
VERTEX
  8
0
 10
2531.396464
 20
3663.417434
 42
0.001946
  0
VERTEX
  8
0
 10
2534.617305
 20
3455.979236
 42
0.007180
  0
VERTEX
  8
0
 10
2539.043079
 20
3325.000000
 42
0.002782
  0
VERTEX
  8
0
 10
2546.860687
 20
3179.564478
 42
0.003332
  0
VERTEX
  8
0
 10
2555.895438
 20
3042.725039
 42
0.003636
  0
VERTEX
  8
0
 10
2565.634664
 20
2921.037052
 42
0.006751
  0
VERTEX
  8
0
 10
2575.584917
 20
2822.500000
 42
0.022356
  0
VERTEX
  8
0
 10
2612.691575
 20
2590.866755
 42
0.030058
  0
VERTEX
  8
0
 10
2668.051644
 20
2385.777372
 42
0.033229
  0
VERTEX
  8
0
 10
2741.525995
 20
2207.121768
 42
0.042706
  0
VERTEX
  8
0
 10
2833.120145
 20
2055.000000
 42
0.006889
  0
VERTEX
  8
0
 10
2853.799291
 20
2027.289930
 42
0.011054
  0
VERTEX
  8
0
 10
2872.276432
 20
2004.299923
 42
0.010970
  0
VERTEX
  8
0
 10
2891.853870
 20
1982.025319
 42
0.006652
  0
VERTEX
  8
0
 10
2915.934562
 20
1956.500000
 42
0.006251
  0
VERTEX
  8
0
 10
2943.283793
 20
1928.969204
 42
0.007846
  0
VERTEX
  8
0
 10
2969.343693
 20
1904.175057
 42
0.007808
  0
VERTEX
  8
0
 10
2996.273023
 20
1880.113976
 42
0.006090
  0
VERTEX
  8
0
 10
3026.250000
 20
1854.792282
 42
-0.001359
  0
VERTEX
  8
0
 10
3036.503852
 20
1846.295716
 42
-0.002230
  0
VERTEX
  8
0
 10
3045.132433
 20
1839.040777
 42
-0.000249
  0
VERTEX
  8
0
 10
3052.788633
 20
1832.538331
 42
-0.233966
  0
VERTEX
  8
0
 10
3052.966794
 20
1832.124509
 42
-0.166249
  0
VERTEX
  8
0
 10
3052.551983
 20
1831.093762
 42
-0.001254
  0
VERTEX
  8
0
 10
3046.505614
 20
1824.124336
 42
-0.003630
  0
VERTEX
  8
0
 10
3038.485856
 20
1815.060640
 42
-0.001211
  0
VERTEX
  8
0
 10
3026.621503
 20
1801.910658
 42
0.014329
  0
VERTEX
  8
0
 10
3001.234806
 20
1772.244120
 42
0.017122
  0
VERTEX
  8
0
 10
2979.118331
 20
1742.842429
 42
0.018189
  0
VERTEX
  8
0
 10
2960.291715
 20
1713.746790
 42
0.021723
  0
VERTEX
  8
0
 10
2944.792210
 20
1685.000000
 42
0.009108
  0
VERTEX
  8
0
 10
2937.499261
 20
1669.216479
 42
0.035767
  0
VERTEX
  8
0
 10
2933.893829
 20
1659.124271
 42
0.049373
  0
VERTEX
  8
0
 10
2932.360577
 20
1650.347419
 42
0.030421
  0
VERTEX
  8
0
 10
2932.219365
 20
1639.854556
 42
0.010318
  0
VERTEX
  8
0
 10
2932.587592
 20
1634.447994
 42
0.023234
  0
VERTEX
  8
0
 10
2933.140849
 20
1630.377722
 42
0.028017
  0
VERTEX
  8
0
 10
2933.987509
 20
1626.881307
 42
0.024318
  0
VERTEX
  8
0
 10
2935.253283
 20
1623.328156
 42
0.122123
  0
VERTEX
  8
0
 10
2952.763086
 20
1599.508237
 42
0.061918
  0
VERTEX
  8
0
 10
2984.285063
 20
1579.295408
 42
0.045224
  0
VERTEX
  8
0
 10
3030.276064
 20
1562.187652
 42
0.020762
  0
VERTEX
  8
0
 10
3092.692661
 20
1547.953424
 42
0.006114
  0
VERTEX
  8
0
 10
3109.868698
 20
1544.996689
 42
0.002592
  0
VERTEX
  8
0
 10
3132.968562
 20
1541.433119
 42
0.002573
  0
VERTEX
  8
0
 10
3155.933939
 20
1538.132775
 42
0.006701
  0
VERTEX
  8
0
 10
3172.500000
 20
1536.064872
 42
0.010338
  0
VERTEX
  8
0
 10
3214.756410
 20
1532.246836
 42
0.007876
  0
VERTEX
  8
0
 10
3261.157895
 20
1529.753454
 42
0.004700
  0
VERTEX
  8
0
 10
3326.218672
 20
1527.896663
 42
0.001033
  0
VERTEX
  8
0
 10
3438.000000
 20
1525.989003
 42
-0.001176
  0
VERTEX
  8
0
 10
3504.321813
 20
1524.838201
 42
-0.003264
  0
VERTEX
  8
0
 10
3550.939055
 20
1523.615116
 42
-0.004072
  0
VERTEX
  8
0
 10
3591.316925
 20
1521.962628
 42
-0.003002
  0
VERTEX
  8
0
 10
3636.000000
 20
1519.500357
 42
0.003570
  0
VERTEX
  8
0
 10
3649.458114
 20
1518.774095
 42
0.000420
  0
VERTEX
  8
0
 10
3679.440809
 20
1517.395962
 42
0.000527
  0
VERTEX
  8
0
 10
3713.545645
 20
1515.893107
 42
0.000559
  0
VERTEX
  8
0
 10
3747.000000
 20
1514.491740
 42
-0.000158
  0
VERTEX
  8
0
 10
3762.969689
 20
1513.835619
 42
-0.000131
  0
VERTEX
  8
0
 10
3779.946875
 20
1513.128264
 42
-0.000133
  0
VERTEX
  8
0
 10
3795.489945
 20
1512.472441
 42
-0.000360
  0
VERTEX
  8
0
 10
3806.500000
 20
1511.997006
 42
0.000463
  0
VERTEX
  8
0
 10
3828.634303
 20
1511.045752
 42
0.000166
  0
VERTEX
  8
0
 10
3860.151820
 20
1509.730981
 42
0.000151
  0
VERTEX
  8
0
 10
3897.596485
 20
1508.192797
 42
0.000112
  0
VERTEX
  8
0
 10
3939.000000
 20
1506.513853
 42
0.008061
  0
VERTEX
  8
0
 10
4078.565544
 20
1503.138165
 42
0.005962
  0
VERTEX
  8
0
 10
4232.994871
 20
1503.734680
 42
0.006035
  0
VERTEX
  8
0
 10
4383.597186
 20
1507.930776
 42
0.009882
  0
VERTEX
  8
0
 10
4511.000000
 20
1515.544165
 42
0.006431
  0
VERTEX
  8
0
 10
4609.977246
 20
1524.707106
 42
0.011748
  0
VERTEX
  8
0
 10
4690.402387
 20
1535.112970
 42
0.014307
  0
VERTEX
  8
0
 10
4754.914475
 20
1546.904093
 42
0.030462
  0
VERTEX
  8
0
 10
4803.771659
 20
1560.441278
 42
0.042153
  0
VERTEX
  8
0
 10
4839.562794
 20
1576.230028
 42
0.084945
  0
VERTEX
  8
0
 10
4863.681815
 20
1595.306953
 42
0.111125
  0
VERTEX
  8
0
 10
4876.136596
 20
1617.532720
 42
0.115796
  0
VERTEX
  8
0
 10
4877.614214
 20
1642.604115
 42
0.017086
  0
VERTEX
  8
0
 10
4875.740582
 20
1651.576437
 42
0.024353
  0
VERTEX
  8
0
 10
4873.423180
 20
1659.378331
 42
0.021039
  0
VERTEX
  8
0
 10
4870.098438
 20
1667.714526
 42
0.009097
  0
VERTEX
  8
0
 10
4865.009735
 20
1678.530224
 42
0.022255
  0
VERTEX
  8
0
 10
4854.953324
 20
1696.831279
 42
0.014546
  0
VERTEX
  8
0
 10
4841.831974
 20
1717.032355
 42
0.012006
  0
VERTEX
  8
0
 10
4824.932226
 20
1740.252188
 42
0.006580
  0
VERTEX
  8
0
 10
4803.183415
 20
1767.912326
 42
0.000000
  0
VERTEX
  8
0
 10
4786.694176
 20
1788.324652
 42
0.000000
  0
VERTEX
  8
0
 10
4790.658109
 20
1791.912326
 42
-0.004246
  0
VERTEX
  8
0
 10
4793.126638
 20
1794.108695
 42
-0.000488
  0
VERTEX
  8
0
 10
4798.727211
 20
1798.997583
 42
-0.000588
  0
VERTEX
  8
0
 10
4805.401815
 20
1804.798760
 42
-0.000479
  0
VERTEX
  8
0
 10
4812.561021
 20
1810.994339
 42
0.011037
  0
VERTEX
  8
0
 10
4829.929159
 20
1826.678144
 42
0.005706
  0
VERTEX
  8
0
 10
4850.975992
 20
1847.003770
 42
0.005679
  0
VERTEX
  8
0
 10
4871.242234
 20
1867.487571
 42
0.012964
  0
VERTEX
  8
0
 10
4885.944696
 20
1883.500000
 42
0.012414
  0
VERTEX
  8
0
 10
4911.095783
 20
1913.848655
 42
0.011504
  0
VERTEX
  8
0
 10
4935.375580
 20
1946.175603
 42
0.011048
  0
VERTEX
  8
0
 10
4959.077558
 20
1980.888918
 42
0.009487
  0
VERTEX
  8
0
 10
4982.494488
 20
2018.404762
 42
0.021993
  0
VERTEX
  8
0
 10
5033.357648
 20
2112.611648
 42
0.023388
  0
VERTEX
  8
0
 10
5074.618260
 20
2209.039116
 42
0.021344
  0
VERTEX
  8
0
 10
5109.583964
 20
2316.392641
 42
0.013550
  0
VERTEX
  8
0
 10
5141.501158
 20
2444.000000
 42
0.002075
  0
VERTEX
  8
0
 10
5148.321002
 20
2475.404070
 42
0.002606
  0
VERTEX
  8
0
 10
5154.368500
 20
2504.565567
 42
0.002042
  0
VERTEX
  8
0
 10
5161.149584
 20
2538.865063
 42
0.000725
  0
VERTEX
  8
0
 10
5170.573965
 20
2587.961189
 42
-0.000530
  0
VERTEX
  8
0
 10
5175.020585
 20
2611.174734
 42
-0.000873
  0
VERTEX
  8
0
 10
5178.835147
 20
2630.790561
 42
-0.000055
  0
VERTEX
  8
0
 10
5182.300358
 20
2648.435110
 42
-0.148928
  0
VERTEX
  8
0
 10
5182.527025
 20
2648.860359
 42
-0.204274
  0
VERTEX
  8
0
 10
5182.957197
 20
2649.033370
 42
-0.000065
  0
VERTEX
  8
0
 10
5201.691811
 20
2648.644737
 42
-0.001084
  0
VERTEX
  8
0
 10
5222.510640
 20
2648.164993
 42
-0.000656
  0
VERTEX
  8
0
 10
5247.153814
 20
2647.511291
 42
0.003826
  0
VERTEX
  8
0
 10
5297.998767
 20
2646.485040
 42
0.003727
  0
VERTEX
  8
0
 10
5349.298145
 20
2646.224733
 42
0.003807
  0
VERTEX
  8
0
 10
5394.850346
 20
2646.679995
 42
0.011364
  0
VERTEX
  8
0
 10
5426.000000
 20
2647.937054
 42
0.013980
  0
VERTEX
  8
0
 10
5509.863387
 20
2655.591207
 42
0.021912
  0
VERTEX
  8
0
 10
5581.310433
 20
2667.326002
 42
0.025308
  0
VERTEX
  8
0
 10
5642.592536
 20
2683.445658
 42
0.034844
  0
VERTEX
  8
0
 10
5695.504420
 20
2704.424872
 42
0.031001
  0
VERTEX
  8
0
 10
5741.767139
 20
2730.249074
 42
0.033061
  0
VERTEX
  8
0
 10
5783.445797
 20
2761.099834
 42
0.033156
  0
VERTEX
  8
0
 10
5820.589190
 20
2797.086947
 42
0.031556
  0
VERTEX
  8
0
 10
5853.316186
 20
2838.240774
 42
0.029990
  0
VERTEX
  8
0
 10
5882.827730
 20
2886.507892
 42
0.019654
  0
VERTEX
  8
0
 10
5911.163168
 20
2945.240313
 42
0.019117
  0
VERTEX
  8
0
 10
5935.833210
 20
3008.474290
 42
0.022043
  0
VERTEX
  8
0
 10
5954.320104
 20
3070.500000
 42
0.020228
  0
VERTEX
  8
0
 10
5969.173387
 20
3141.886951
 42
0.010367
  0
VERTEX
  8
0
 10
5982.293382
 20
3232.394479
 42
0.009639
  0
VERTEX
  8
0
 10
5992.867173
 20
3333.751837
 42
0.008692
  0
VERTEX
  8
0
 10
5999.959461
 20
3439.000000
 42
0.007087
  0
VERTEX
  8
0
 10
6002.336303
 20
3505.497968
 42
0.006908
  0
VERTEX
  8
0
 10
6002.855615
 20
3572.606246
 42
0.007255
  0
VERTEX
  8
0
 10
6001.575015
 20
3634.802766
 42
0.012854
  0
VERTEX
  8
0
 10
5998.458282
 20
3686.000000
 42
0.010433
  0
VERTEX
  8
0
 10
5994.285450
 20
3724.713580
 42
0.002166
  0
VERTEX
  8
0
 10
5985.240558
 20
3792.541251
 42
0.002290
  0
VERTEX
  8
0
 10
5975.520628
 20
3860.783801
 42
0.008326
  0
VERTEX
  8
0
 10
5968.426120
 20
3904.000000
 42
0.025919
  0
VERTEX
  8
0
 10
5957.442364
 20
3950.660107
 42
0.030061
  0
VERTEX
  8
0
 10
5942.095659
 20
3993.617573
 42
0.031508
  0
VERTEX
  8
0
 10
5922.488402
 20
4032.580922
 42
0.035153
  0
VERTEX
  8
0
 10
5898.762964
 20
4067.297812
 42
0.018644
  0
VERTEX
  8
0
 10
5890.213721
 20
4077.303673
 42
0.009407
  0
VERTEX
  8
0
 10
5878.742151
 20
4089.297304
 42
0.009404
  0
VERTEX
  8
0
 10
5866.853859
 20
4100.825491
 42
0.019063
  0
VERTEX
  8
0
 10
5857.000000
 20
4109.348302
 42
0.040173
  0
VERTEX
  8
0
 10
5818.443057
 20
4135.425870
 42
0.036324
  0
VERTEX
  8
0
 10
5774.919194
 20
4156.009193
 42
0.034071
  0
VERTEX
  8
0
 10
5726.174505
 20
4171.142145
 42
0.027185
  0
VERTEX
  8
0
 10
5672.000000
 20
4180.918911
 42
0.011416
  0
VERTEX
  8
0
 10
5609.943438
 20
4187.230476
 42
0.003480
  0
VERTEX
  8
0
 10
5515.762531
 20
4193.982339
 42
0.003584
  0
VERTEX
  8
0
 10
5414.095419
 20
4199.828579
 42
0.005070
  0
VERTEX
  8
0
 10
5323.500000
 20
4203.466340
 42
-0.001064
  0
VERTEX
  8
0
 10
5315.372799
 20
4203.727471
 42
-0.000864
  0
VERTEX
  8
0
 10
5306.662013
 20
4204.040971
 42
-0.000872
  0
VERTEX
  8
0
 10
5298.635144
 20
4204.357769
 42
-0.002271
  0
VERTEX
  8
0
 10
5292.860044
 20
4204.622073
 42
0.000000
  0
VERTEX
  8
0
 10
5281.220088
 20
4205.207782
 42
0.000000
  0
VERTEX
  8
0
 10
5280.699602
 20
4352.353891
 42
0.000624
  0
VERTEX
  8
0
 10
5280.255019
 20
4445.244157
 42
0.003003
  0
VERTEX
  8
0
 10
5279.618124
 20
4498.137986
 42
0.004627
  0
VERTEX
  8
0
 10
5278.486556
 20
4539.576222
 42
0.003290
  0
VERTEX
  8
0
 10
5276.482791
 20
4586.000000
 42
0.005313
  0
VERTEX
  8
0
 10
5273.599328
 20
4633.726992
 42
0.009163
  0
VERTEX
  8
0
 10
5270.050815
 20
4673.360878
 42
0.010671
  0
VERTEX
  8
0
 10
5265.967549
 20
4704.847772
 42
0.032182
  0
VERTEX
  8
0
 10
5261.358889
 20
4725.987963
 42
0.032008
  0
VERTEX
  8
0
 10
5256.810373
 20
4738.725435
 42
0.033665
  0
VERTEX
  8
0
 10
5250.736809
 20
4750.556303
 42
0.033855
  0
VERTEX
  8
0
 10
5243.166253
 20
4761.404913
 42
0.033164
  0
VERTEX
  8
0
 10
5234.152296
 20
4771.212435
 42
0.019581
  0
VERTEX
  8
0
 10
5226.659849
 20
4777.811384
 42
0.029609
  0
VERTEX
  8
0
 10
5219.607122
 20
4782.886083
 42
0.024419
  0
VERTEX
  8
0
 10
5211.068880
 20
4787.725993
 42
0.008909
  0
VERTEX
  8
0
 10
5198.546315
 20
4793.760301
 42
-0.001937
  0
VERTEX
  8
0
 10
5191.384346
 20
4797.089239
 42
-0.001245
  0
VERTEX
  8
0
 10
5183.101105
 20
4801.003642
 42
-0.001251
  0
VERTEX
  8
0
 10
5175.013083
 20
4804.875291
 42
-0.002349
  0
VERTEX
  8
0
 10
5168.500000
 20
4808.050872
 42
0.006637
  0
VERTEX
  8
0
 10
5160.789593
 20
4811.728725
 42
0.020459
  0
VERTEX
  8
0
 10
5155.449235
 20
4813.929470
 42
0.026699
  0
VERTEX
  8
0
 10
5150.780241
 20
4815.356350
 42
0.019854
  0
VERTEX
  8
0
 10
5145.500000
 20
4816.445985
 42
0.024169
  0
VERTEX
  8
0
 10
5130.193875
 20
4818.221324
 42
0.007803
  0
VERTEX
  8
0
 10
5107.391509
 20
4819.397582
 42
0.005006
  0
VERTEX
  8
0
 10
5073.549098
 20
4820.275022
 42
0.001265
  0
VERTEX
  8
0
 10
5018.500000
 20
4821.011559
 42
0.001191
  0
VERTEX
  8
0
 10
4953.006222
 20
4821.566031
 42
0.001575
  0
VERTEX
  8
0
 10
4893.344170
 20
4821.741019
 42
0.000790
  0
VERTEX
  8
0
 10
4808.907171
 20
4821.589239
 42
0.000095
  0
SEQEND
  0
POLYLINE
  8
0
 66
1
 70
1
  0
VERTEX
  8
0
 10
3638.000000
 20
3998.975030
 42
-0.022830
  0
VERTEX
  8
0
 10
3660.095101
 20
3996.286773
 42
-0.027965
  0
VERTEX
  8
0
 10
3680.379089
 20
3991.694611
 42
-0.026582
  0
VERTEX
  8
0
 10
3700.836366
 20
3984.648425
 42
-0.017660
  0
VERTEX
  8
0
 10
3723.500000
 20
3974.522713
 42
-0.029502
  0
VERTEX
  8
0
 10
3753.654751
 20
3957.477697
 42
-0.029973
  0
VERTEX
  8
0
 10
3781.426793
 20
3937.084033
 42
-0.029751
  0
VERTEX
  8
0
 10
3806.748743
 20
3913.361183
 42
-0.028131
  0
VERTEX
  8
0
 10
3829.585493
 20
3886.372559
 42
-0.012534
  0
VERTEX
  8
0
 10
3838.343068
 20
3874.130054
 42
-0.013627
  0
VERTEX
  8
0
 10
3846.225595
 20
3861.795045
 42
-0.012686
  0
VERTEX
  8
0
 10
3853.883720
 20
3848.295112
 42
-0.008504
  0
VERTEX
  8
0
 10
3861.979298
 20
3832.500000
 42
-0.010513
  0
VERTEX
  8
0
 10
3871.926994
 20
3811.125879
 42
-0.012691
  0
VERTEX
  8
0
 10
3880.327404
 20
3790.642404
 42
-0.010396
  0
VERTEX
  8
0
 10
3888.871072
 20
3766.719701
 42
-0.004290
  0
VERTEX
  8
0
 10
3899.483883
 20
3734.000000
 42
0.001580
  0
VERTEX
  8
0
 10
3905.549301
 20
3714.948906
 42
0.008882
  0
VERTEX
  8
0
 10
3909.003758
 20
3704.835698
 42
0.009196
  0
VERTEX
  8
0
 10
3911.422504
 20
3698.511787
 42
0.219775
  0
VERTEX
  8
0
 10
3912.773221
 20
3697.242260
 42
0.384587
  0
VERTEX
  8
0
 10
3913.884940
 20
3697.728818
 42
0.014054
  0
VERTEX
  8
0
 10
3915.813814
 20
3702.344405
 42
0.020365
  0
VERTEX
  8
0
 10
3917.779456
 20
3708.139480
 42
0.015014
  0
VERTEX
  8
0
 10
3919.497185
 20
3714.695115
 42
-0.022874
  0
VERTEX
  8
0
 10
3922.798471
 20
3726.532453
 42
-0.002013
  0
VERTEX
  8
0
 10
3932.632301
 20
3756.034651
 42
-0.002753
  0
VERTEX
  8
0
 10
3942.742971
 20
3785.430315
 42
-0.010132
  0
VERTEX
  8
0
 10
3949.613710
 20
3803.848814
 42
-0.052411
  0
VERTEX
  8
0
 10
3985.601222
 20
3872.632119
 42
-0.060958
  0
VERTEX
  8
0
 10
4033.606573
 20
3928.649595
 42
-0.063244
  0
VERTEX
  8
0
 10
4092.035422
 20
3969.851578
 42
-0.063758
  0
VERTEX
  8
0
 10
4158.751557
 20
3995.003495
 42
-0.038001
  0
VERTEX
  8
0
 10
4182.166886
 20
3998.715318
 42
-0.019173
  0
VERTEX
  8
0
 10
4212.050510
 20
3999.998248
 42
-0.018802
  0
VERTEX
  8
0
 10
4243.499767
 20
3998.958886
 42
-0.024677
  0
VERTEX
  8
0
 10
4272.021978
 20
3995.520289
 42
-0.036102
  0
VERTEX
  8
0
 10
4305.270113
 20
3987.331159
 42
-0.029957
  0
VERTEX
  8
0
 10
4339.206727
 20
3974.028995
 42
-0.029365
  0
VERTEX
  8
0
 10
4372.041046
 20
3956.423782
 42
-0.030917
  0
VERTEX
  8
0
 10
4402.000000
 20
3935.364287
 42
-0.017167
  0
VERTEX
  8
0
 10
4411.559706
 20
3927.166646
 42
-0.007651
  0
VERTEX
  8
0
 10
4423.602462
 20
3915.755455
 42
-0.007669
  0
VERTEX
  8
0
 10
4435.352949
 20
3903.917243
 42
-0.016195
  0
VERTEX
  8
0
 10
4444.017323
 20
3894.312171
 42
-0.030640
  0
VERTEX
  8
0
 10
4467.810019
 20
3862.376349
 42
-0.029325
  0
VERTEX
  8
0
 10
4487.904804
 20
3827.313330
 42
-0.030547
  0
VERTEX
  8
0
 10
4502.902612
 20
3791.909345
 42
-0.044109
  0
VERTEX
  8
0
 10
4511.357076
 20
3759.000000
 42
-0.020343
  0
VERTEX
  8
0
 10
4513.584097
 20
3740.929455
 42
-0.011995
  0
VERTEX
  8
0
 10
4514.844168
 20
3719.211168
 42
-0.011976
  0
VERTEX
  8
0
 10
4515.056120
 20
3698.048767
 42
-0.026636
  0
VERTEX
  8
0
 10
4513.974337
 20
3681.973766
 42
-0.068096
  0
VERTEX
  8
0
 10
4499.451437
 20
3626.587007
 42
-0.060635
  0
VERTEX
  8
0
 10
4470.196324
 20
3574.717550
 42
-0.047529
  0
VERTEX
  8
0
 10
4422.589382
 20
3521.482641
 42
-0.021848
  0
VERTEX
  8
0
 10
4351.500000
 20
3461.303424
 42
0.004542
  0
VERTEX
  8
0
 10
4342.926964
 20
3454.541062
 42
0.015743
  0
VERTEX
  8
0
 10
4337.562504
 20
3449.944703
 42
0.015587
  0
VERTEX
  8
0
 10
4334.167876
 20
3446.645829
 42
0.409282
  0
VERTEX
  8
0
 10
4334.177632
 20
3445.489035
 42
0.241042
  0
VERTEX
  8
0
 10
4334.640135
 20
3445.339689
 42
0.003428
  0
VERTEX
  8
0
 10
4337.599587
 20
3445.840322
 42
0.008610
  0
VERTEX
  8
0
 10
4341.073644
 20
3446.514407
 42
0.005460
  0
VERTEX
  8
0
 10
4345.098242
 20
3447.413507
 42
-0.009404
  0
VERTEX
  8
0
 10
4365.760798
 20
3451.858769
 42
-0.006898
  0
VERTEX
  8
0
 10
4388.829267
 20
3456.039953
 42
-0.006699
  0
VERTEX
  8
0
 10
4412.873509
 20
3459.725850
 42
-0.007142
  0
VERTEX
  8
0
 10
4436.500000
 20
3462.680999
 42
-0.019467
  0
VERTEX
  8
0
 10
4455.215650
 20
3464.016172
 42
-0.006687
  0
VERTEX
  8
0
 10
4482.377559
 20
3464.530045
 42
-0.006097
  0
VERTEX
  8
0
 10
4509.043367
 20
3464.352689
 42
-0.030176
  0
VERTEX
  8
0
 10
4524.000000
 20
3463.165965
 42
-0.042068
  0
VERTEX
  8
0
 10
4580.126366
 20
3450.402710
 42
-0.052698
  0
VERTEX
  8
0
 10
4628.998270
 20
3428.987825
 42
-0.054235
  0
VERTEX
  8
0
 10
4671.207915
 20
3398.428502
 42
-0.048841
  0
VERTEX
  8
0
 10
4707.533394
 20
3358.500000
 42
-0.019219
  0
VERTEX
  8
0
 10
4719.354847
 20
3341.299884
 42
-0.015719
  0
VERTEX
  8
0
 10
4730.682826
 20
3322.066601
 42
-0.015387
  0
VERTEX
  8
0
 10
4741.041807
 20
3301.677073
 42
-0.016121
  0
VERTEX
  8
0
 10
4749.956503
 20
3281.000000
 42
-0.016486
  0
VERTEX
  8
0
 10
4757.215367
 20
3260.599668
 42
-0.036984
  0
VERTEX
  8
0
 10
4761.039920
 20
3244.622061
 42
-0.029657
  0
VERTEX
  8
0
 10
4762.916807
 20
3226.233990
 42
-0.007443
  0
VERTEX
  8
0
 10
4763.746958
 20
3196.094254
 42
-0.004179
  0
VERTEX
  8
0
 10
4763.860509
 20
3169.640275
 42
-0.015127
  0
VERTEX
  8
0
 10
4763.282909
 20
3152.815802
 42
-0.023237
  0
VERTEX
  8
0
 10
4761.899450
 20
3140.407418
 42
-0.031150
  0
VERTEX
  8
0
 10
4759.432143
 20
3129.362595
 42
-0.033377
  0
VERTEX
  8
0
 10
4748.485104
 20
3099.260160
 42
-0.033923
  0
VERTEX
  8
0
 10
4733.679599
 20
3071.051931
 42
-0.033157
  0
VERTEX
  8
0
 10
4714.849136
 20
3044.532650
 42
-0.029060
  0
VERTEX
  8
0
 10
4691.882383
 20
3019.472763
 42
-0.025648
  0
VERTEX
  8
0
 10
4669.914479
 20
3000.222338
 42
-0.024326
  0
VERTEX
  8
0
 10
4645.711517
 20
2982.956884
 42
-0.024133
  0
VERTEX
  8
0
 10
4619.744353
 20
2967.994540
 42
-0.024258
  0
VERTEX
  8
0
 10
4592.500000
 20
2955.632218
 42
-0.025161
  0
VERTEX
  8
0
 10
4564.279480
 20
2946.055557
 42
-0.029576
  0
VERTEX
  8
0
 10
4536.713418
 20
2939.957462
 42
-0.025932
  0
VERTEX
  8
0
 10
4505.792520
 20
2936.644827
 42
-0.013488
  0
VERTEX
  8
0
 10
4467.000000
 20
2935.562277
 42
-0.002052
  0
VERTEX
  8
0
 10
4447.733172
 20
2935.623530
 42
-0.009436
  0
VERTEX
  8
0
 10
4436.569354
 20
2935.915566
 42
-0.014352
  0
VERTEX
  8
0
 10
4427.807031
 20
2936.562763
 42
-0.010403
  0
VERTEX
  8
0
 10
4418.095448
 20
2937.765664
 42
0.003909
  0
VERTEX
  8
0
 10
4407.787288
 20
2939.178616
 42
0.014004
  0
VERTEX
  8
0
 10
4401.173606
 20
2939.844865
 42
0.012848
  0
VERTEX
  8
0
 10
4396.700435
 20
2940.053909
 42
0.420379
  0
VERTEX
  8
0
 10
4396.000000
 20
2939.368034
 42
0.137454
  0
VERTEX
  8
0
 10
4396.354307
 20
2938.103566
 42
0.003277
  0
VERTEX
  8
0
 10
4399.599017
 20
2932.846155
 42
0.004369
  0
VERTEX
  8
0
 10
4404.649844
 20
2924.935571
 42
0.000813
  0
VERTEX
  8
0
 10
4414.078809
 20
2910.500000
 42
-0.009427
  0
VERTEX
  8
0
 10
4428.291087
 20
2887.900265
 42
-0.016331
  0
VERTEX
  8
0
 10
4439.117166
 20
2868.539658
 42
-0.018460
  0
VERTEX
  8
0
 10
4447.698524
 20
2850.325383
 42
-0.017833
  0
VERTEX
  8
0
 10
4455.020395
 20
2831.318974
 42
-0.015306
  0
VERTEX
  8
0
 10
4459.770677
 20
2816.040487
 42
-0.036626
  0
VERTEX
  8
0
 10
4462.099683
 20
2804.408370
 42
-0.024405
  0
VERTEX
  8
0
 10
4463.185300
 20
2790.073724
 42
-0.003800
  0
VERTEX
  8
0
 10
4463.730687
 20
2761.655915
 42
-0.009686
  0
VERTEX
  8
0
 10
4463.398565
 20
2718.975892
 42
-0.031521
  0
VERTEX
  8
0
 10
4460.852906
 20
2690.821632
 42
-0.040942
  0
VERTEX
  8
0
 10
4455.235223
 20
2667.361575
 42
-0.027014
  0
VERTEX
  8
0
 10
4445.178141
 20
2641.500000
 42
-0.036165
  0
VERTEX
  8
0
 10
4428.975903
 20
2611.643498
 42
-0.031690
  0
VERTEX
  8
0
 10
4407.976097
 20
2583.013782
 42
-0.031565
  0
VERTEX
  8
0
 10
4383.428052
 20
2557.150977
 42
-0.035088
  0
VERTEX
  8
0
 10
4356.627420
 20
2535.557282
 42
-0.031379
  0
VERTEX
  8
0
 10
4337.236105
 20
2523.792568
 42
-0.014763
  0
VERTEX
  8
0
 10
4310.872099
 20
2510.957337
 42
-0.014781
  0
VERTEX
  8
0
 10
4283.628321
 20
2499.631511
 42
-0.029462
  0
VERTEX
  8
0
 10
4261.364683
 20
2492.609720
 42
-0.015055
  0
VERTEX
  8
0
 10
4249.101403
 20
2489.912400
 42
-0.017445
  0
VERTEX
  8
0
 10
4237.284660
 20
2488.108229
 42
-0.015199
  0
VERTEX
  8
0
 10
4224.101215
 20
2486.968642
 42
-0.007764
  0
VERTEX
  8
0
 10
4207.500000
 20
2486.299227
 42
-0.014285
  0
VERTEX
  8
0
 10
4181.878191
 20
2486.396472
 42
-0.022984
  0
VERTEX
  8
0
 10
4160.111704
 20
2488.104802
 42
-0.025716
  0
VERTEX
  8
0
 10
4140.506376
 20
2491.585434
 42
-0.026237
  0
VERTEX
  8
0
 10
4121.495482
 20
2497.043583
 42
-0.056308
  0
VERTEX
  8
0
 10
4069.494279
 20
2521.814127
 42
-0.056980
  0
VERTEX
  8
0
 10
4024.557986
 20
2557.479545
 42
-0.054044
  0
VERTEX
  8
0
 10
3986.937288
 20
2604.183408
 42
-0.042549
  0
VERTEX
  8
0
 10
3956.630426
 20
2661.684449
 42
-0.018646
  0
VERTEX
  8
0
 10
3944.809682
 20
2692.830641
 42
-0.016248
  0
VERTEX
  8
0
 10
3934.736897
 20
2726.225316
 42
-0.015065
  0
VERTEX
  8
0
 10
3926.191521
 20
2762.667660
 42
-0.011495
  0
VERTEX
  8
0
 10
3918.968372
 20
2803.000000
 42
0.001853
  0
VERTEX
  8
0
 10
3917.732593
 20
2810.759794
 42
0.002321
  0
VERTEX
  8
0
 10
3916.526420
 20
2817.946875
 42
0.001865
  0
VERTEX
  8
0
 10
3915.463930
 20
2823.968532
 42
0.018105
  0
VERTEX
  8
0
 10
3914.912227
 20
2826.500000
 42
0.006274
  0
VERTEX
  8
0
 10
3913.629538
 20
2831.257797
 42
0.018931
  0
VERTEX
  8
0
 10
3912.593064
 20
2834.452272
 42
0.020019
  0
VERTEX
  8
0
 10
3911.713714
 20
2836.581634
 42
0.292740
  0
VERTEX
  8
0
 10
3911.060380
 20
2837.000000
 42
0.350066
  0
VERTEX
  8
0
 10
3910.724048
 20
2836.731637
 42
0.009136
  0
VERTEX
  8
0
 10
3910.305262
 20
2834.723437
 42
0.015391
  0
VERTEX
  8
0
 10
3909.910334
 20
2832.221219
 42
0.009419
  0
VERTEX
  8
0
 10
3909.591427
 20
2829.250000
 42
-0.012016
  0
VERTEX
  8
0
 10
3908.429974
 20
2818.934038
 42
-0.003883
  0
VERTEX
  8
0
 10
3906.225110
 20
2803.718957
 42
-0.003953
  0
VERTEX
  8
0
 10
3903.581866
 20
2787.296324
 42
-0.005348
  0
VERTEX
  8
0
 10
3900.917134
 20
2772.500000
 42
-0.022746
  0
VERTEX
  8
0
 10
3886.981497
 20
2714.131410
 42
-0.029589
  0
VERTEX
  8
0
 10
3868.707894
 20
2662.309481
 42
-0.032095
  0
VERTEX
  8
0
 10
3845.982129
 20
2616.708730
 42
-0.037935
  0
VERTEX
  8
0
 10
3818.687721
 20
2577.012260
 42
-0.025510
  0
VERTEX
  8
0
 10
3805.208197
 20
2561.925176
 42
-0.017995
  0
VERTEX
  8
0
 10
3788.639014
 20
2546.345884
 42
-0.017957
  0
VERTEX
  8
0
 10
3770.932167
 20
2531.947243
 42
-0.024821
  0
VERTEX
  8
0
 10
3754.000000
 20
2520.433395
 42
-0.023226
  0
VERTEX
  8
0
 10
3737.116361
 20
2511.185702
 42
-0.016712
  0
VERTEX
  8
0
 10
3717.500089
 20
2502.396523
 42
-0.016789
  0
VERTEX
  8
0
 10
3697.501541
 20
2495.000242
 42
-0.024775
  0
VERTEX
  8
0
 10
3679.473067
 20
2489.988869
 42
-0.030066
  0
VERTEX
  8
0
 10
3666.573224
 20
2487.887609
 42
-0.013991
  0
VERTEX
  8
0
 10
3649.657128
 20
2486.644102
 42
-0.012724
  0
VERTEX
  8
0
 10
3630.190649
 20
2486.255676
 42
-0.010269
  0
VERTEX
  8
0
 10
3609.282046
 20
2486.800134
 42
-0.007945
  0
VERTEX
  8
0
 10
3590.212748
 20
2487.992799
 42
-0.023728
  0
VERTEX
  8
0
 10
3577.245317
 20
2489.632773
 42
-0.025612
  0
VERTEX
  8
0
 10
3565.035314
 20
2492.420430
 42
-0.010554
  0
VERTEX
  8
0
 10
3548.805594
 20
2497.383715
 42
-0.054277
  0
VERTEX
  8
0
 10
3484.314559
 20
2526.675301
 42
-0.062461
  0
VERTEX
  8
0
 10
3430.928948
 20
2568.069262
 42
-0.065216
  0
VERTEX
  8
0
 10
3391.214085
 20
2619.639970
 42
-0.068427
  0
VERTEX
  8
0
 10
3366.904659
 20
2678.887365
 42
-0.011645
  0
VERTEX
  8
0
 10
3364.149268
 20
2690.685709
 42
-0.016099
  0
VERTEX
  8
0
 10
3362.267921
 20
2701.392169
 42
-0.014235
  0
VERTEX
  8
0
 10
3360.930278
 20
2713.149758
 42
-0.006722
  0
VERTEX
  8
0
 10
3359.841166
 20
2728.384017
 42
-0.014376
  0
VERTEX
  8
0
 10
3359.294734
 20
2747.108212
 42
-0.010537
  0
VERTEX
  8
0
 10
3359.723895
 20
2767.888561
 42
-0.010684
  0
VERTEX
  8
0
 10
3360.974498
 20
2787.684939
 42
-0.021672
  0
VERTEX
  8
0
 10
3362.962784
 20
2803.158670
 42
-0.026533
  0
VERTEX
  8
0
 10
3366.262925
 20
2817.631793
 42
-0.018464
  0
VERTEX
  8
0
 10
3371.443592
 20
2833.576060
 42
-0.016408
  0
VERTEX
  8
0
 10
3378.507079
 20
2851.062464
 42
-0.011618
  0
VERTEX
  8
0
 10
3387.523865
 20
2870.217878
 42
-0.005727
  0
VERTEX
  8
0
 10
3394.366767
 20
2883.535757
 42
-0.012665
  0
VERTEX
  8
0
 10
3399.958192
 20
2893.498689
 42
-0.011005
  0
VERTEX
  8
0
 10
3406.510000
 20
2903.977913
 42
-0.003383
  0
VERTEX
  8
0
 10
3416.847513
 20
2919.500000
 42
0.000000
  0
VERTEX
  8
0
 10
3430.363469
 20
2939.500000
 42
0.000000
  0
VERTEX
  8
0
 10
3426.075765
 20
2939.812676
 42
0.036541
  0
VERTEX
  8
0
 10
3423.484851
 20
2939.812016
 42
0.004829
  0
VERTEX
  8
0
 10
3418.011515
 20
2939.356897
 42
0.005580
  0
VERTEX
  8
0
 10
3411.522369
 20
2938.681039
 42
0.004654
  0
VERTEX
  8
0
 10
3404.644030
 20
2937.822013
 42
-0.008523
  0
VERTEX
  8
0
 10
3394.179374
 20
2936.597252
 42
-0.013026
  0
VERTEX
  8
0
 10
3385.066149
 20
2935.927011
 42
-0.009513
  0
VERTEX
  8
0
 10
3374.089164
 20
2935.615856
 42
-0.002500
  0
VERTEX
  8
0
 10
3356.500000
 20
2935.540003
 42
-0.011923
  0
VERTEX
  8
0
 10
3322.778371
 20
2936.367469
 42
-0.022613
  0
VERTEX
  8
0
 10
3295.736701
 20
2938.905876
 42
-0.025235
  0
VERTEX
  8
0
 10
3271.099425
 20
2943.625515
 42
-0.019914
  0
VERTEX
  8
0
 10
3245.000000
 20
2951.117893
 42
-0.028334
  0
VERTEX
  8
0
 10
3214.105837
 20
2963.315396
 42
-0.029862
  0
VERTEX
  8
0
 10
3185.346092
 20
2978.743872
 42
-0.029261
  0
VERTEX
  8
0
 10
3158.116867
 20
2997.799226
 42
-0.025098
  0
VERTEX
  8
0
 10
3131.798901
 20
3020.848880
 42
-0.048015
  0
VERTEX
  8
0
 10
3096.761948
 20
3061.996285
 42
-0.062789
  0
VERTEX
  8
0
 10
3073.792091
 20
3105.690154
 42
-0.061810
  0
VERTEX
  8
0
 10
3062.155109
 20
3154.268728
 42
-0.044668
  0
VERTEX
  8
0
 10
3060.907718
 20
3210.000000
 42
-0.016049
  0
VERTEX
  8
0
 10
3063.624992
 20
3237.359183
 42
-0.031951
  0
VERTEX
  8
0
 10
3067.841021
 20
3258.708591
 42
-0.031932
  0
VERTEX
  8
0
 10
3074.744637
 20
3279.354680
 42
-0.016011
  0
VERTEX
  8
0
 10
3085.930270
 20
3304.500000
 42
-0.012514
  0
VERTEX
  8
0
 10
3096.295434
 20
3324.625294
 42
-0.017118
  0
VERTEX
  8
0
 10
3106.685289
 20
3342.161993
 42
-0.018139
  0
VERTEX
  8
0
 10
3117.724894
 20
3358.114161
 42
-0.017411
  0
VERTEX
  8
0
 10
3130.036796
 20
3373.449937
 42
-0.030371
  0
VERTEX
  8
0
 10
3152.989280
 20
3397.025750
 42
-0.033301
  0
VERTEX
  8
0
 10
3177.967539
 20
3416.875657
 42
-0.032668
  0
VERTEX
  8
0
 10
3205.797982
 20
3433.543035
 42
-0.027215
  0
VERTEX
  8
0
 10
3237.287408
 20
3447.600603
 42
-0.040883
  0
VERTEX
  8
0
 10
3276.536900
 20
3459.045966
 42
-0.034980
  0
VERTEX
  8
0
 10
3319.240066
 20
3464.719485
 42
-0.031724
  0
VERTEX
  8
0
 10
3366.260570
 20
3464.659664
 42
-0.022765
  0
VERTEX
  8
0
 10
3418.500000
 20
3458.878356
 42
-0.003975
  0
VERTEX
  8
0
 10
3425.196880
 20
3457.772228
 42
-0.001259
  0
VERTEX
  8
0
 10
3435.171875
 20
3456.017198
 42
-0.001257
  0
VERTEX
  8
0
 10
3446.283777
 20
3454.004454
 42
-0.001397
  0
VERTEX
  8
0
 10
3457.000000
 20
3452.004585
 42
0.000878
  0
VERTEX
  8
0
 10
3467.130820
 20
3450.103093
 42
0.001120
  0
VERTEX
  8
0
 10
3476.478125
 20
3448.387315
 42
0.000869
  0
VERTEX
  8
0
 10
3484.321525
 20
3446.979826
 42
0.009410
  0
VERTEX
  8
0
 10
3487.500000
 20
3446.476662
 42
0.002892
  0
VERTEX
  8
0
 10
3490.932230
 20
3446.019568
 42
0.134901
  0
VERTEX
  8
0
 10
3491.624494
 20
3446.118230
 42
0.507914
  0
VERTEX
  8
0
 10
3491.707863
 20
3446.489081
 42
0.016758
  0
VERTEX
  8
0
 10
3490.500000
 20
3447.779667
 42
0.026233
  0
VERTEX
  8
0
 10
3489.001685
 20
3449.127375
 42
0.000832
  0
VERTEX
  8
0
 10
3482.625000
 20
3454.267225
 42
0.001612
  0
VERTEX
  8
0
 10
3475.074375
 20
3460.292668
 42
0.001117
  0
VERTEX
  8
0
 10
3466.500000
 20
3467.058791
 42
-0.001827
  0
VERTEX
  8
0
 10
3457.345055
 20
3474.304155
 42
-0.001705
  0
VERTEX
  8
0
 10
3448.030098
 20
3481.783782
 42
-0.001698
  0
VERTEX
  8
0
 10
3439.801332
 20
3488.483853
 42
-0.005810
  0
VERTEX
  8
0
 10
3434.517356
 20
3492.919787
 42
-0.009966
  0
VERTEX
  8
0
 10
3415.073950
 20
3510.317307
 42
-0.007630
  0
VERTEX
  8
0
 10
3394.496934
 20
3530.075980
 42
-0.007646
  0
VERTEX
  8
0
 10
3375.981748
 20
3548.975231
 42
-0.020470
  0
VERTEX
  8
0
 10
3363.572107
 20
3563.155420
 42
-0.030468
  0
VERTEX
  8
0
 10
3347.229607
 20
3586.189969
 42
-0.024114
  0
VERTEX
  8
0
 10
3332.374277
 20
3612.877690
 42
-0.024618
  0
VERTEX
  8
0
 10
3320.598930
 20
3639.935034
 42
-0.040012
  0
VERTEX
  8
0
 10
3313.645857
 20
3664.000000
 42
-0.033470
  0
VERTEX
  8
0
 10
3311.058850
 20
3683.136591
 42
-0.014823
  0
VERTEX
  8
0
 10
3310.094621
 20
3708.625466
 42
-0.014866
  0
VERTEX
  8
0
 10
3310.649057
 20
3734.334574
 42
-0.030702
  0
VERTEX
  8
0
 10
3312.908368
 20
3754.300993
 42
-0.031947
  0
VERTEX
  8
0
 10
3321.360325
 20
3789.150586
 42
-0.033132
  0
VERTEX
  8
0
 10
3334.106100
 20
3822.203640
 42
-0.032591
  0
VERTEX
  8
0
 10
3351.327658
 20
3853.769241
 42
-0.028915
  0
VERTEX
  8
0
 10
3373.147382
 20
3884.177414
 42
-0.019470
  0
VERTEX
  8
0
 10
3384.644256
 20
3897.307868
 42
-0.008307
  0
VERTEX
  8
0
 10
3400.980822
 20
3913.997417
 42
-0.008192
  0
VERTEX
  8
0
 10
3417.648382
 20
3929.937391
 42
-0.022861
  0
VERTEX
  8
0
 10
3430.011547
 20
3940.371688
 42
-0.025816
  0
VERTEX
  8
0
 10
3455.282086
 20
3957.796140
 42
-0.026673
  0
VERTEX
  8
0
 10
3481.946663
 20
3972.318116
 42
-0.026529
  0
VERTEX
  8
0
 10
3510.144603
 20
3983.985615
 42
-0.024945
  0
VERTEX
  8
0
 10
3540.000000
 20
3992.875192
 42
-0.007114
  0
VERTEX
  8
0
 10
3550.101684
 20
3995.190272
 42
-0.012544
  0
VERTEX
  8
0
 10
3558.513224
 20
3996.772874
 42
-0.012701
  0
VERTEX
  8
0
 10
3566.921431
 20
3997.919076
 42
-0.007520
  0
VERTEX
  8
0
 10
3577.000000
 20
3998.879871
 42
-0.013351
  0
VERTEX
  8
0
 10
3590.238190
 20
3999.586176
 42
-0.006261
  0
VERTEX
  8
0
 10
3607.389287
 20
3999.827699
 42
-0.006266
  0
VERTEX
  8
0
 10
3624.587085
 20
3999.639002
 42
-0.012980
  0
SEQEND
  0
POLYLINE
  8
0
 66
1
 70
1
  0
VERTEX
  8
0
 10
5398.500000
 20
3911.023438
 42
-0.015975
  0
VERTEX
  8
0
 10
5435.155834
 20
3907.661233
 42
-0.013761
  0
VERTEX
  8
0
 10
5473.405258
 20
3901.843854
 42
-0.014218
  0
VERTEX
  8
0
 10
5508.942082
 20
3894.384975
 42
-0.026838
  0
VERTEX
  8
0
 10
5537.010973
 20
3886.039851
 42
-0.059756
  0
VERTEX
  8
0
 10
5581.612639
 20
3863.829714
 42
-0.064198
  0
VERTEX
  8
0
 10
5618.506994
 20
3832.142964
 42
-0.059767
  0
VERTEX
  8
0
 10
5648.137134
 20
3790.069816
 42
-0.042238
  0
VERTEX
  8
0
 10
5671.187634
 20
3737.000000
 42
-0.009281
  0
VERTEX
  8
0
 10
5675.507360
 20
3723.363211
 42
-0.007290
  0
VERTEX
  8
0
 10
5679.697756
 20
3708.433206
 42
-0.007298
  0
VERTEX
  8
0
 10
5683.444748
 20
3693.411764
 42
-0.009397
  0
VERTEX
  8
0
 10
5686.425416
 20
3679.500000
 42
-0.034206
  0
VERTEX
  8
0
 10
5696.950347
 20
3594.978002
 42
-0.015041
  0
VERTEX
  8
0
 10
5699.817404
 20
3482.218647
 42
-0.014683
  0
VERTEX
  8
0
 10
5695.680118
 20
3360.663096
 42
-0.017721
  0
VERTEX
  8
0
 10
5684.410535
 20
3247.000000
 42
-0.009655
  0
VERTEX
  8
0
 10
5677.097109
 20
3199.753259
 42
-0.019411
  0
VERTEX
  8
0
 10
5669.171031
 20
3162.873914
 42
-0.023819
  0
VERTEX
  8
0
 10
5659.779990
 20
3132.314543
 42
-0.029043
  0
VERTEX
  8
0
 10
5648.023746
 20
3104.803750
 42
-0.029045
  0
VERTEX
  8
0
 10
5636.485459
 20
3084.651173
 42
-0.054995
  0
VERTEX
  8
0
 10
5624.618287
 20
3070.212131
 42
-0.054070
  0
VERTEX
  8
0
 10
5609.748936
 20
3058.553772
 42
-0.027153
  0
VERTEX
  8
0
 10
5588.811130
 20
3047.044244
 42
-0.019900
  0
VERTEX
  8
0
 10
5549.374743
 20
3029.972996
 42
-0.012150
  0
VERTEX
  8
0
 10
5501.619165
 20
3012.841417
 42
-0.011815
  0
VERTEX
  8
0
 10
5450.832886
 20
2997.325471
 42
-0.013868
  0
VERTEX
  8
0
 10
5402.000000
 20
2985.108602
 42
-0.012103
  0
VERTEX
  8
0
 10
5370.141256
 20
2978.875528
 42
-0.005801
  0
VERTEX
  8
0
 10
5328.978877
 20
2972.342551
 42
-0.005699
  0
VERTEX
  8
0
 10
5285.261569
 20
2966.431398
 42
-0.007362
  0
VERTEX
  8
0
 10
5245.000000
 20
2962.054928
 42
0.000544
  0
VERTEX
  8
0
 10
5240.201584
 20
2961.599440
 42
0.000508
  0
VERTEX
  8
0
 10
5235.293753
 20
2961.123136
 42
0.000506
  0
VERTEX
  8
0
 10
5230.935912
 20
2960.691282
 42
0.001736
  0
VERTEX
  8
0
 10
5228.106393
 20
2960.398064
 42
0.000000
  0
VERTEX
  8
0
 10
5222.712786
 20
2959.820202
 42
0.000000
  0
VERTEX
  8
0
 10
5223.399062
 20
2969.660101
 42
-0.007544
  0
VERTEX
  8
0
 10
5223.917453
 20
2975.764384
 42
-0.000838
  0
VERTEX
  8
0
 10
5225.334652
 20
2989.681405
 42
-0.001020
  0
VERTEX
  8
0
 10
5227.083034
 20
3006.240014
 42
-0.000826
  0
VERTEX
  8
0
 10
5229.024598
 20
3024.000000
 42
0.004414
  0
VERTEX
  8
0
 10
5244.317624
 20
3173.835429
 42
0.004555
  0
VERTEX
  8
0
 10
5256.789070
 20
3322.357550
 42
0.004723
  0
VERTEX
  8
0
 10
5266.119361
 20
3465.221024
 42
0.005901
  0
VERTEX
  8
0
 10
5271.961059
 20
3598.000000
 42
-0.000477
  0
VERTEX
  8
0
 10
5272.388563
 20
3610.903138
 42
-0.000498
  0
VERTEX
  8
0
 10
5272.834909
 20
3623.625000
 42
-0.000478
  0
VERTEX
  8
0
 10
5273.242182
 20
3634.620562
 42
-0.002192
  0
VERTEX
  8
0
 10
5273.512601
 20
3641.000000
 42
0.007792
  0
VERTEX
  8
0
 10
5273.761688
 20
3648.990025
 42
0.000341
  0
VERTEX
  8
0
 10
5274.177280
 20
3676.881250
 42
0.000578
  0
VERTEX
  8
0
 10
5274.609398
 20
3709.961178
 42
0.000412
  0
VERTEX
  8
0
 10
5275.019842
 20
3747.000000
 42
-0.000690
  0
VERTEX
  8
0
 10
5275.670162
 20
3802.886809
 42
-0.002689
  0
VERTEX
  8
0
 10
5276.306017
 20
3837.453922
 42
-0.003701
  0
VERTEX
  8
0
 10
5277.201214
 20
3866.162166
 42
-0.002390
  0
VERTEX
  8
0
 10
5278.642959
 20
3899.395877
 42
0.000000
  0
VERTEX
  8
0
 10
5279.312348
 20
3913.291754
 42
0.000000
  0
VERTEX
  8
0
 10
5329.906174
 20
3912.693921
 42
-0.001526
  0
VERTEX
  8
0
 10
5350.596037
 20
3912.386304
 42
-0.001608
  0
VERTEX
  8
0
 10
5370.925564
 20
3911.956610
 42
-0.001536
  0
VERTEX
  8
0
 10
5388.454851
 20
3911.475839
 42
-0.007258
  0
SEQEND
  0
POLYLINE
  8
0
 66
1
 70
1
  0
VERTEX
  8
0
 10
3895.500000
 20
3501.839911
 42
0.011336
  0
VERTEX
  8
0
 10
3883.258404
 20
3501.022827
 42
0.017166
  0
VERTEX
  8
0
 10
3872.666360
 20
3499.706436
 42
0.016887
  0
VERTEX
  8
0
 10
3862.063098
 20
3497.648011
 42
0.010497
  0
VERTEX
  8
0
 10
3849.772272
 20
3494.555317
 42
0.028172
  0
VERTEX
  8
0
 10
3825.083699
 20
3486.268698
 42
0.023561
  0
VERTEX
  8
0
 10
3799.922667
 20
3474.812250
 42
0.023392
  0
VERTEX
  8
0
 10
3775.744809
 20
3460.931611
 42
0.026514
  0
VERTEX
  8
0
 10
3754.000000
 20
3445.376525
 42
0.020251
  0
VERTEX
  8
0
 10
3743.739422
 20
3436.477315
 42
0.008529
  0
VERTEX
  8
0
 10
3730.656270
 20
3423.739664
 42
0.008550
  0
VERTEX
  8
0
 10
3717.969705
 20
3410.514662
 42
0.019420
  0
VERTEX
  8
0
 10
3708.956028
 20
3400.000000
 42
0.029850
  0
VERTEX
  8
0
 10
3689.466591
 20
3372.124904
 42
0.031842
  0
VERTEX
  8
0
 10
3673.894727
 20
3342.706061
 42
0.032518
  0
VERTEX
  8
0
 10
3662.460090
 20
3312.155964
 42
0.034252
  0
VERTEX
  8
0
 10
3655.318507
 20
3280.903826
 42
0.031475
  0
VERTEX
  8
0
 10
3653.911874
 20
3265.863009
 42
0.006155
  0
VERTEX
  8
0
 10
3653.421878
 20
3238.660862
 42
0.006239
  0
VERTEX
  8
0
 10
3653.606380
 20
3211.433173
 42
0.030082
  0
VERTEX
  8
0
 10
3654.834359
 20
3196.000000
 42
0.031815
  0
VERTEX
  8
0
 10
3661.027242
 20
3165.936878
 42
0.029818
  0
VERTEX
  8
0
 10
3671.084075
 20
3136.225585
 42
0.029677
  0
VERTEX
  8
0
 10
3684.661057
 20
3107.780966
 42
0.030768
  0
VERTEX
  8
0
 10
3701.365305
 20
3081.500000
 42
0.048432
  0
VERTEX
  8
0
 10
3736.958772
 20
3041.283670
 42
0.049780
  0
VERTEX
  8
0
 10
3779.318970
 20
3009.078903
 42
0.049773
  0
VERTEX
  8
0
 10
3827.214509
 20
2985.878106
 42
0.048392
  0
VERTEX
  8
0
 10
3879.202928
 20
2972.330430
 42
0.029582
  0
VERTEX
  8
0
 10
3894.131777
 20
2970.846634
 42
0.009980
  0
VERTEX
  8
0
 10
3916.000000
 20
2970.410096
 42
0.009980
  0
VERTEX
  8
0
 10
3937.868223
 20
2970.846634
 42
0.029582
  0
VERTEX
  8
0
 10
3952.797072
 20
2972.330430
 42
0.030780
  0
VERTEX
  8
0
 10
3988.623292
 20
2980.332559
 42
0.032474
  0
VERTEX
  8
0
 10
4022.540593
 20
2992.568187
 42
0.032968
  0
VERTEX
  8
0
 10
4054.113766
 20
3008.887547
 42
0.033941
  0
VERTEX
  8
0
 10
4082.946362
 20
3029.074522
 42
0.017222
  0
VERTEX
  8
0
 10
4091.720491
 20
3036.663862
 42
0.008451
  0
VERTEX
  8
0
 10
4102.382796
 20
3046.888834
 42
0.008457
  0
VERTEX
  8
0
 10
4112.794647
 20
3057.572444
 42
0.015645
  0
VERTEX
  8
0
 10
4120.823965
 20
3066.647868
 42
0.024858
  0
VERTEX
  8
0
 10
4134.329341
 20
3084.661716
 42
0.019987
  0
VERTEX
  8
0
 10
4147.062932
 20
3105.261692
 42
0.019733
  0
VERTEX
  8
0
 10
4158.292864
 20
3127.140276
 42
0.022216
  0
VERTEX
  8
0
 10
4167.286918
 20
3149.000000
 42
0.016162
  0
VERTEX
  8
0
 10
4173.876587
 20
3169.320485
 42
0.034062
  0
VERTEX
  8
0
 10
4177.382592
 20
3185.517696
 42
0.028163
  0
VERTEX
  8
0
 10
4179.015413
 20
3203.865266
 42
0.008007
  0
VERTEX
  8
0
 10
4179.486076
 20
3232.500000
 42
0.007784
  0
VERTEX
  8
0
 10
4179.052524
 20
3261.124634
 42
0.021156
  0
VERTEX
  8
0
 10
4177.573274
 20
3281.347613
 42
0.027057
  0
VERTEX
  8
0
 10
4174.673320
 20
3298.300285
 42
0.022648
  0
VERTEX
  8
0
 10
4169.825624
 20
3315.897742
 42
0.040721
  0
VERTEX
  8
0
 10
4152.142233
 20
3358.254004
 42
0.042519
  0
VERTEX
  8
0
 10
4128.039942
 20
3396.537834
 42
0.042710
  0
VERTEX
  8
0
 10
4097.920569
 20
3430.042974
 42
0.041849
  0
VERTEX
  8
0
 10
4062.352169
 20
3458.195895
 42
0.023050
  0
VERTEX
  8
0
 10
4041.996629
 20
3470.392212
 42
0.019690
  0
VERTEX
  8
0
 10
4019.521677
 20
3481.369339
 42
0.020190
  0
VERTEX
  8
0
 10
3997.073470
 20
3490.194858
 42
0.030466
  0
VERTEX
  8
0
 10
3976.847318
 20
3495.864522
 42
0.019671
  0
VERTEX
  8
0
 10
3958.384528
 20
3499.091783
 42
0.015099
  0
VERTEX
  8
0
 10
3938.017275
 20
3501.207735
 42
0.014591
  0
VERTEX
  8
0
 10
3916.732597
 20
3502.147941
 42
0.014737
  0
SEQEND
  0
ENDSEC
  0
EOF
