  0
SECTION
  2
HEADER
  9
$ACADVER
  1
AC1006
  9
$EXTMIN
 10
0.000000
 20
0.000000
 30
0.000000
  9
$EXTMAX
 10
7813.000000
 20
7813.000000
 30
0.000000
  0
ENDSEC
  0
SECTION
  2
ENTITIES
  0
POLYLINE
  8
0
 66
1
 70
1
  0
VERTEX
  8
0
 10
3917.085578
 20
6541.914511
 42
0.051867
  0
VERTEX
  8
0
 10
3912.781841
 20
6540.595300
 42
0.052572
  0
VERTEX
  8
0
 10
3908.862620
 20
6538.422963
 42
0.055385
  0
VERTEX
  8
0
 10
3905.672388
 20
6535.614599
 42
0.073947
  0
VERTEX
  8
0
 10
3903.526234
 20
6532.414042
 42
0.047471
  0
VERTEX
  8
0
 10
3902.622052
 20
6529.923079
 42
0.042586
  0
VERTEX
  8
0
 10
3902.161936
 20
6527.213483
 42
0.025865
  0
VERTEX
  8
0
 10
3902.043834
 20
6523.449433
 42
0.005897
  0
VERTEX
  8
0
 10
3902.248831
 20
6517.074804
 42
0.026193
  0
VERTEX
  8
0
 10
3903.454830
 20
6504.592176
 42
0.013716
  0
VERTEX
  8
0
 10
3906.190456
 20
6489.220367
 42
0.008692
  0
VERTEX
  8
0
 10
3911.031930
 20
6467.664435
 42
0.002316
  0
VERTEX
  8
0
 10
3919.499449
 20
6433.500000
 42
0.000016
  0
VERTEX
  8
0
 10
3924.396337
 20
6414.129687
 42
0.000008
  0
VERTEX
  8
0
 10
3930.645423
 20
6389.415625
 42
0.000008
  0
VERTEX
  8
0
 10
3937.146355
 20
6363.708995
 42
0.000011
  0
VERTEX
  8
0
 10
3942.890152
 20
6341.000000
 42
-0.004001
  0
VERTEX
  8
0
 10
3960.672983
 20
6268.255927
 42
-0.021849
  0
VERTEX
  8
0
 10
3968.244543
 20
6228.470700
 42
-0.027382
  0
VERTEX
  8
0
 10
3971.511097
 20
6192.119482
 42
-0.008608
  0
VERTEX
  8
0
 10
3972.475451
 20
6137.500000
 42
-0.004428
  0
VERTEX
  8
0
 10
3972.098460
 20
6092.716016
 42
-0.014109
  0
VERTEX
  8
0
 10
3970.738248
 20
6062.835820
 42
-0.018425
  0
VERTEX
  8
0
 10
3967.942421
 20
6037.649779
 42
-0.013146
  0
VERTEX
  8
0
 10
3963.038605
 20
6009.701232
 42
-0.017239
  0
VERTEX
  8
0
 10
3952.715491
 20
5966.480601
 42
-0.011216
  0
VERTEX
  8
0
 10
3937.969154
 20
5917.308921
 42
-0.006337
  0
VERTEX
  8
0
 10
3913.974682
 20
5846.441089
 42
-0.001263
  0
VERTEX
  8
0
 10
3869.188740
 20
5720.500000
 42
0.002813
  0
VERTEX
  8
0
 10
3845.620149
 20
5653.567004
 42
0.006439
  0
VERTEX
  8
0
 10
3828.792631
 20
5602.798774
 42
0.008393
  0
VERTEX
  8
0
 10
3816.574338
 20
5561.913849
 42
0.013337
  0
VERTEX
  8
0
 10
3807.647050
 20
5526.500000
 42
0.013924
  0
VERTEX
  8
0
 10
3803.130459
 20
5503.318057
 42
0.020768
  0
VERTEX
  8
0
 10
3800.595674
 20
5482.821819
 42
0.015746
  0
VERTEX
  8
0
 10
3799.375177
 20
5458.445308
 42
0.004632
  0
VERTEX
  8
0
 10
3799.027960
 20
5421.000000
 42
0.014113
  0
VERTEX
  8
0
 10
3801.051727
 20
5349.294824
 42
0.036599
  0
VERTEX
  8
0
 10
3807.728915
 20
5298.064169
 42
0.031419
  0
VERTEX
  8
0
 10
3822.414403
 20
5244.076001
 42
0.008208
  0
VERTEX
  8
0
 10
3852.791404
 20
5159.500000
 42
-0.000400
  0
VERTEX
  8
0
 10
3866.571912
 20
5122.937116
 42
-0.001416
  0
VERTEX
  8
0
 10
3875.331251
 20
5099.438269
 42
-0.001402
  0
VERTEX
  8
0
 10
3884.000671
 20
5075.773938
 42
-0.000386
  0
VERTEX
  8
0
 10
3897.504958
 20
5038.500000
 42
0.003673
  0
VERTEX
  8
0
 10
3913.097643
 20
4996.329480
 42
0.010641
  0
VERTEX
  8
0
 10
3924.718758
 20
4967.467994
 42
0.015182
  0
VERTEX
  8
0
 10
3934.406044
 20
4946.590067
 42
0.030649
  0
VERTEX
  8
0
 10
3943.509453
 20
4930.912209
 42
0.024202
  0
VERTEX
  8
0
 10
3949.472150
 20
4922.832148
 42
0.036309
  0
VERTEX
  8
0
 10
3955.487126
 20
4916.461974
 42
0.037587
  0
VERTEX
  8
0
 10
3962.195610
 20
4911.186951
 42
0.028623
  0
VERTEX
  8
0
 10
3970.244613
 20
4906.427822
 42
0.027803
  0
VERTEX
  8
0
 10
3980.351950
 20
4901.900180
 42
0.035173
  0
VERTEX
  8
0
 10
3990.144936
 20
4898.921814
 42
0.033376
  0
VERTEX
  8
0
 10
4000.665159
 20
4897.243508
 42
0.021516
  0
VERTEX
  8
0
 10
4013.000000
 20
4896.645484
 42
0.004631
  0
VERTEX
  8
0
 10
4021.487158
 20
4896.678102
 42
0.024678
  0
VERTEX
  8
0
 10
4026.113692
 20
4896.967409
 42
0.039673
  0
VERTEX
  8
0
 10
4029.626686
 20
4897.647040
 42
0.026888
  0
VERTEX
  8
0
 10
4033.492628
 20
4898.946083
 42
0.153096
  0
VERTEX
  8
0
 10
4049.719286
 20
4912.115357
 42
0.070775
  0
VERTEX
  8
0
 10
4061.511827
 20
4936.913700
 42
0.050983
  0
VERTEX
  8
0
 10
4068.787612
 20
4972.678731
 42
0.024479
  0
VERTEX
  8
0
 10
4071.124440
 20
5019.500000
 42
0.019734
  0
VERTEX
  8
0
 10
4069.784792
 20
5054.240450
 42
0.021732
  0
VERTEX
  8
0
 10
4065.705846
 20
5087.656714
 42
0.017814
  0
VERTEX
  8
0
 10
4057.973872
 20
5125.693117
 42
0.007813
  0
VERTEX
  8
0
 10
4045.160791
 20
5175.500000
 42
-0.007309
  0
VERTEX
  8
0
 10
4025.923878
 20
5249.966581
 42
-0.018385
  0
VERTEX
  8
0
 10
4014.713385
 20
5304.869662
 42
-0.022709
  0
VERTEX
  8
0
 10
4008.937996
 20
5353.073989
 42
-0.018534
  0
VERTEX
  8
0
 10
4007.027870
 20
5405.000000
 42
-0.008904
  0
VERTEX
  8
0
 10
4007.808961
 20
5448.146712
 42
-0.011683
  0
VERTEX
  8
0
 10
4010.143342
 20
5487.484564
 42
-0.011715
  0
VERTEX
  8
0
 10
4014.305913
 20
5526.582397
 42
-0.009036
  0
VERTEX
  8
0
 10
4020.611212
 20
5569.000000
 42
-0.005548
  0
VERTEX
  8
0
 10
4024.765104
 20
5592.258054
 42
-0.001830
  0
VERTEX
  8
0
 10
4031.373520
 20
5626.345053
 42
-0.000933
  0
VERTEX
  8
0
 10
4042.439054
 20
5681.781004
 42
-0.000139
  0
VERTEX
  8
0
 10
4064.970373
 20
5793.410784
 42
0.004861
  0
VERTEX
  8
0
 10
4083.055649
 20
5887.590725
 42
0.013271
  0
VERTEX
  8
0
 10
4093.422906
 20
5954.617827
 42
0.016256
  0
VERTEX
  8
0
 10
4099.035933
 20
6013.896726
 42
0.011353
  0
VERTEX
  8
0
 10
4101.667219
 20
6081.000000
 42
0.015990
  0
VERTEX
  8
0
 10
4100.648908
 20
6146.735898
 42
0.021107
  0
VERTEX
  8
0
 10
4095.283787
 20
6206.405333
 42
0.020804
  0
VERTEX
  8
0
 10
4084.825061
 20
6266.086322
 42
0.014854
  0
VERTEX
  8
0
 10
4068.386035
 20
6331.895080
 42
0.005946
  0
VERTEX
  8
0
 10
4051.942612
 20
6387.733154
 42
0.007849
  0
VERTEX
  8
0
 10
4035.558520
 20
6438.189211
 42
0.008433
  0
VERTEX
  8
0
 10
4020.467966
 20
6479.978118
 42
0.027359
  0
VERTEX
  8
0
 10
4008.504027
 20
6506.905215
 42
0.053632
  0
VERTEX
  8
0
 10
3999.541142
 20
6520.586204
 42
0.072457
  0
VERTEX
  8
0
 10
3988.623782
 20
6530.534685
 42
0.068659
  0
VERTEX
  8
0
 10
3974.849209
 20
6537.311899
 42
0.042658
  0
VERTEX
  8
0
 10
3957.301195
 20
6541.510869
 42
0.024005
  0
VERTEX
  8
0
 10
3948.073719
 20
6542.451647
 42
0.010892
  0
VERTEX
  8
0
 10
3935.935968
 20
6542.837988
 42
0.010170
  0
VERTEX
  8
0
 10
3924.207957
 20
6542.717145
 42
0.040810
  0
SEQEND
  0
POLYLINE
  8
0
 66
1
 70
1
  0
VERTEX
  8
0
 10
3485.024244
 20
6238.396909
 42
0.030117
  0
VERTEX
  8
0
 10
3479.305058
 20
6236.484232
 42
0.051361
  0
VERTEX
  8
0
 10
3474.853443
 20
6234.134965
 42
0.063891
  0
VERTEX
  8
0
 10
3471.714177
 20
6231.404701
 42
0.102503
  0
VERTEX
  8
0
 10
3469.947533
 20
6228.341025
 42
0.106255
  0
VERTEX
  8
0
 10
3469.107015
 20
6220.520016
 42
0.019391
  0
VERTEX
  8
0
 10
3471.200759
 20
6206.023000
 42
0.011841
  0
VERTEX
  8
0
 10
3476.029500
 20
6182.902528
 42
0.002181
  0
VERTEX
  8
0
 10
3486.128165
 20
6140.524143
 42
-0.005394
  0
VERTEX
  8
0
 10
3497.594010
 20
6090.999376
 42
-0.017460
  0
VERTEX
  8
0
 10
3503.695856
 20
6057.807356
 42
-0.019906
  0
VERTEX
  8
0
 10
3507.048548
 20
6026.617277
 42
-0.008793
  0
VERTEX
  8
0
 10
3509.107916
 20
5985.206763
 42
-0.008830
  0
VERTEX
  8
0
 10
3509.676947
 20
5945.817259
 42
-0.008992
  0
VERTEX
  8
0
 10
3508.847002
 20
5906.670097
 42
-0.009519
  0
VERTEX
  8
0
 10
3506.758111
 20
5870.830005
 42
-0.017419
  0
VERTEX
  8
0
 10
3503.484078
 20
5841.743572
 42
-0.022039
  0
VERTEX
  8
0
 10
3494.876278
 20
5797.225126
 42
-0.013236
  0
VERTEX
  8
0
 10
3480.955561
 20
5745.218116
 42
-0.008946
  0
VERTEX
  8
0
 10
3459.049202
 20
5675.853393
 42
-0.002786
  0
VERTEX
  8
0
 10
3423.721474
 20
5572.500000
 42
0.002469
  0
VERTEX
  8
0
 10
3405.082447
 20
5518.083245
 42
0.005361
  0
VERTEX
  8
0
 10
3391.423805
 20
5476.072079
 42
0.006519
  0
VERTEX
  8
0
 10
3380.483621
 20
5439.488441
 42
0.006448
  0
VERTEX
  8
0
 10
3370.459599
 20
5402.500000
 42
0.009463
  0
VERTEX
  8
0
 10
3360.093063
 20
5358.782369
 42
0.010931
  0
VERTEX
  8
0
 10
3351.920609
 20
5316.750095
 42
0.011680
  0
VERTEX
  8
0
 10
3346.090997
 20
5277.329247
 42
0.015847
  0
VERTEX
  8
0
 10
3342.793778
 20
5241.500000
 42
0.024307
  0
VERTEX
  8
0
 10
3342.433829
 20
5210.121333
 42
0.019917
  0
VERTEX
  8
0
 10
3345.012783
 20
5176.678556
 42
0.019710
  0
VERTEX
  8
0
 10
3350.295824
 20
5143.133300
 42
0.022213
  0
VERTEX
  8
0
 10
3358.053215
 20
5111.439547
 42
0.022670
  0
VERTEX
  8
0
 10
3368.326686
 20
5081.426047
 42
0.023632
  0
VERTEX
  8
0
 10
3381.151955
 20
5052.889429
 42
0.023087
  0
VERTEX
  8
0
 10
3396.910584
 20
5025.096493
 42
0.019682
  0
VERTEX
  8
0
 10
3415.975810
 20
4997.308116
 42
0.019981
  0
VERTEX
  8
0
 10
3439.745847
 20
4967.952373
 42
0.022524
  0
VERTEX
  8
0
 10
3464.895575
 20
4941.788593
 42
0.024435
  0
VERTEX
  8
0
 10
3489.371747
 20
4920.697074
 42
0.048857
  0
VERTEX
  8
0
 10
3510.929408
 20
4907.038105
 42
0.029478
  0
VERTEX
  8
0
 10
3523.892695
 20
4901.431779
 42
0.032003
  0
VERTEX
  8
0
 10
3537.078133
 20
4897.564973
 42
0.030831
  0
VERTEX
  8
0
 10
3551.080567
 20
4895.310456
 42
0.023931
  0
VERTEX
  8
0
 10
3566.500000
 20
4894.536634
 42
0.070972
  0
VERTEX
  8
0
 10
3591.480138
 20
4898.042010
 42
0.274453
  0
VERTEX
  8
0
 10
3601.764766
 20
4908.994542
 42
0.118781
  0
VERTEX
  8
0
 10
3601.361389
 20
4931.143404
 42
0.011107
  0
VERTEX
  8
0
 10
3586.340786
 20
4984.000000
 42
-0.004229
  0
VERTEX
  8
0
 10
3573.700625
 20
5026.260425
 42
-0.013154
  0
VERTEX
  8
0
 10
3566.176735
 20
5055.021358
 42
-0.016025
  0
VERTEX
  8
0
 10
3560.989826
 20
5080.940016
 42
-0.009173
  0
VERTEX
  8
0
 10
3556.312896
 20
5112.500000
 42
-0.024939
  0
VERTEX
  8
0
 10
3554.850748
 20
5130.991369
 42
-0.007285
  0
VERTEX
  8
0
 10
3554.437768
 20
5159.529835
 42
-0.007505
  0
VERTEX
  8
0
 10
3554.874857
 20
5188.455695
 42
-0.020117
  0
VERTEX
  8
0
 10
3556.322497
 20
5209.000000
 42
-0.012535
  0
VERTEX
  8
0
 10
3563.822963
 20
5263.955331
 42
-0.010060
  0
VERTEX
  8
0
 10
3574.558790
 20
5322.675672
 42
-0.007664
  0
VERTEX
  8
0
 10
3590.338345
 20
5394.493781
 42
-0.003106
  0
VERTEX
  8
0
 10
3613.946305
 20
5491.884012
 42
0.002753
  0
VERTEX
  8
0
 10
3637.788583
 20
5589.938494
 42
0.006612
  0
VERTEX
  8
0
 10
3654.090544
 20
5662.909277
 42
0.008697
  0
VERTEX
  8
0
 10
3664.703552
 20
5718.339326
 42
0.022056
  0
VERTEX
  8
0
 10
3669.923386
 20
5759.000000
 42
0.017630
  0
VERTEX
  8
0
 10
3671.534554
 20
5792.320943
 42
0.010630
  0
VERTEX
  8
0
 10
3671.210218
 20
5831.873869
 42
0.010427
  0
VERTEX
  8
0
 10
3669.148910
 20
5872.809672
 42
0.013212
  0
VERTEX
  8
0
 10
3665.459089
 20
5910.500000
 42
0.014476
  0
VERTEX
  8
0
 10
3658.415125
 20
5956.191259
 42
0.014089
  0
VERTEX
  8
0
 10
3648.686201
 20
6001.816932
 42
0.014505
  0
VERTEX
  8
0
 10
3636.773703
 20
6045.321329
 42
0.018498
  0
VERTEX
  8
0
 10
3623.170191
 20
6084.616795
 42
0.013465
  0
VERTEX
  8
0
 10
3609.195931
 20
6117.929462
 42
0.006045
  0
VERTEX
  8
0
 10
3589.141317
 20
6160.950360
 42
0.004581
  0
VERTEX
  8
0
 10
3568.917338
 20
6202.031441
 42
0.040377
  0
VERTEX
  8
0
 10
3558.391305
 20
6219.302900
 42
0.098822
  0
VERTEX
  8
0
 10
3549.263879
 20
6227.733738
 42
0.052757
  0
VERTEX
  8
0
 10
3535.332545
 20
6234.349043
 42
0.046903
  0
VERTEX
  8
0
 10
3518.270151
 20
6238.600061
 42
0.039422
  0
VERTEX
  8
0
 10
3499.677641
 20
6239.934189
 42
0.013389
  0
VERTEX
  8
0
 10
3495.762558
 20
6239.801228
 42
0.010951
  0
VERTEX
  8
0
 10
3491.587429
 20
6239.455466
 42
0.011105
  0
VERTEX
  8
0
 10
3487.759393
 20
6238.967699
 42
0.028402
  0
SEQEND
  0
POLYLINE
  8
0
 66
1
 70
1
  0
VERTEX
  8
0
 10
4338.001508
 20
6160.970650
 42
0.039205
  0
VERTEX
  8
0
 10
4334.521567
 20
6159.944503
 42
0.051607
  0
VERTEX
  8
0
 10
4331.570048
 20
6158.451763
 42
0.051331
  0
VERTEX
  8
0
 10
4328.974929
 20
6156.379104
 42
0.038204
  0
VERTEX
  8
0
 10
4326.561789
 20
6153.616157
 42
0.138927
  0
VERTEX
  8
0
 10
4324.566200
 20
6148.400999
 42
0.021605
  0
VERTEX
  8
0
 10
4324.051327
 20
6137.257926
 42
0.020315
  0
VERTEX
  8
0
 10
4324.603630
 20
6122.596949
 42
0.010767
  0
VERTEX
  8
0
 10
4326.415924
 20
6104.500000
 42
-0.016385
  0
VERTEX
  8
0
 10
4329.912767
 20
6065.125120
 42
-0.023180
  0
VERTEX
  8
0
 10
4330.245540
 20
6029.936885
 42
-0.023315
  0
VERTEX
  8
0
 10
4327.323038
 20
5995.025465
 42
-0.016866
  0
VERTEX
  8
0
 10
4320.952882
 20
5956.500000
 42
-0.012848
  0
VERTEX
  8
0
 10
4312.497162
 20
5919.262571
 42
-0.011724
  0
VERTEX
  8
0
 10
4301.903801
 20
5881.344857
 42
-0.009409
  0
VERTEX
  8
0
 10
4287.494553
 20
5837.078512
 42
-0.004233
  0
VERTEX
  8
0
 10
4266.998635
 20
5779.500000
 42
0.003253
  0
VERTEX
  8
0
 10
4247.410804
 20
5724.812188
 42
0.012615
  0
VERTEX
  8
0
 10
4236.353382
 20
5690.553147
 42
0.017629
  0
VERTEX
  8
0
 10
4228.988349
 20
5661.914796
 42
0.012070
  0
VERTEX
  8
0
 10
4222.570663
 20
5628.958207
 42
0.005949
  0
VERTEX
  8
0
 10
4218.375016
 20
5602.331456
 42
0.014385
  0
VERTEX
  8
0
 10
4216.076860
 20
5582.543462
 42
0.014729
  0
VERTEX
  8
0
 10
4214.950046
 20
5562.932835
 42
0.006523
  0
VERTEX
  8
0
 10
4214.563765
 20
5537.000000
 42
0.008483
  0
VERTEX
  8
0
 10
4215.007364
 20
5507.657768
 42
0.020546
  0
VERTEX
  8
0
 10
4216.591702
 20
5486.042913
 42
0.022378
  0
VERTEX
  8
0
 10
4219.845960
 20
5465.748889
 42
0.011962
  0
VERTEX
  8
0
 10
4225.580059
 20
5441.000000
 42
0.010016
  0
VERTEX
  8
0
 10
4233.807813
 20
5411.458272
 42
0.009750
  0
VERTEX
  8
0
 10
4243.281215
 20
5382.001936
 42
0.005719
  0
VERTEX
  8
0
 10
4257.582415
 20
5341.841390
 42
0.001122
  0
VERTEX
  8
0
 10
4284.278227
 20
5270.000000
 42
-0.001253
  0
VERTEX
  8
0
 10
4305.650472
 20
5212.438630
 42
-0.005270
  0
VERTEX
  8
0
 10
4318.032241
 20
5177.709094
 42
-0.007996
  0
VERTEX
  8
0
 10
4326.937622
 20
5150.466285
 42
-0.006797
  0
VERTEX
  8
0
 10
4335.484177
 20
5121.440585
 42
-0.009065
  0
VERTEX
  8
0
 10
4341.944728
 20
5096.619306
 42
-0.008650
  0
VERTEX
  8
0
 10
4347.609718
 20
5071.191107
 42
-0.007197
  0
VERTEX
  8
0
 10
4353.207642
 20
5041.687729
 42
-0.003538
  0
VERTEX
  8
0
 10
4359.523434
 20
5004.000000
 42
0.002866
  0
VERTEX
  8
0
 10
4363.377770
 20
4980.809255
 42
0.003498
  0
VERTEX
  8
0
 10
4367.259857
 20
4959.159212
 42
0.003184
  0
VERTEX
  8
0
 10
4370.757383
 20
4941.050444
 42
0.020459
  0
VERTEX
  8
0
 10
4372.957012
 20
4931.986281
 42
0.048885
  0
VERTEX
  8
0
 10
4374.774198
 20
4927.392340
 42
0.028611
  0
VERTEX
  8
0
 10
4377.776098
 20
4922.287334
 42
0.028693
  0
VERTEX
  8
0
 10
4381.299760
 20
4917.614934
 42
0.054347
  0
VERTEX
  8
0
 10
4384.717689
 20
4914.374866
 42
0.025019
  0
VERTEX
  8
0
 10
4386.733089
 20
4912.995835
 42
0.013614
  0
VERTEX
  8
0
 10
4389.332331
 20
4911.497861
 42
0.013536
  0
VERTEX
  8
0
 10
4392.064827
 20
4910.114920
 42
0.020860
  0
VERTEX
  8
0
 10
4394.504395
 20
4909.084240
 42
0.053263
  0
VERTEX
  8
0
 10
4404.311931
 20
4906.563266
 42
0.026563
  0
VERTEX
  8
0
 10
4417.093229
 20
4905.383297
 42
0.025836
  0
VERTEX
  8
0
 10
4429.454981
 20
4905.540486
 42
0.083041
  0
VERTEX
  8
0
 10
4437.441612
 20
4907.411157
 42
0.066848
  0
VERTEX
  8
0
 10
4441.722987
 20
4909.915531
 42
0.032414
  0
VERTEX
  8
0
 10
4446.468014
 20
4914.141300
 42
0.028338
  0
VERTEX
  8
0
 10
4451.398705
 20
4919.743264
 42
0.020438
  0
VERTEX
  8
0
 10
4456.265592
 20
4926.500000
 42
0.027775
  0
VERTEX
  8
0
 10
4466.025394
 20
4943.241012
 42
0.013208
  0
VERTEX
  8
0
 10
4476.787224
 20
4965.756820
 42
0.013186
  0
VERTEX
  8
0
 10
4486.603421
 20
4989.429525
 42
0.021618
  0
VERTEX
  8
0
 10
4493.500721
 20
5010.002504
 42
0.024278
  0
VERTEX
  8
0
 10
4500.488480
 20
5039.618304
 42
0.017173
  0
VERTEX
  8
0
 10
4505.555621
 20
5073.414972
 42
0.017262
  0
VERTEX
  8
0
 10
4508.259130
 20
5107.154125
 42
0.026242
  0
VERTEX
  8
0
 10
4508.052333
 20
5136.557637
 42
0.026404
  0
VERTEX
  8
0
 10
4503.482819
 20
5177.077121
 42
0.019755
  0
VERTEX
  8
0
 10
4494.352747
 20
5221.076834
 42
0.013265
  0
VERTEX
  8
0
 10
4478.407863
 20
5278.548238
 42
0.003941
  0
VERTEX
  8
0
 10
4451.029166
 20
5365.500000
 42
-0.001474
  0
VERTEX
  8
0
 10
4437.715989
 20
5407.063962
 42
-0.002431
  0
VERTEX
  8
0
 10
4426.740800
 20
5442.272820
 42
-0.002758
  0
VERTEX
  8
0
 10
4418.225762
 20
5470.621648
 42
-0.009019
  0
VERTEX
  8
0
 10
4413.036781
 20
5489.500000
 42
-0.021751
  0
VERTEX
  8
0
 10
4405.193143
 20
5526.903547
 42
-0.013730
  0
VERTEX
  8
0
 10
4399.155502
 20
5571.104461
 42
-0.013181
  0
VERTEX
  8
0
 10
4395.288058
 20
5618.198845
 42
-0.013994
  0
VERTEX
  8
0
 10
4394.010252
 20
5664.500000
 42
-0.010703
  0
VERTEX
  8
0
 10
4394.670593
 20
5694.786546
 42
-0.012817
  0
VERTEX
  8
0
 10
4396.632530
 20
5723.243198
 42
-0.007850
  0
VERTEX
  8
0
 10
4400.793211
 20
5760.857353
 42
-0.001559
  0
VERTEX
  8
0
 10
4409.501830
 20
5828.000000
 42
0.001901
  0
VERTEX
  8
0
 10
4419.263158
 20
5903.665519
 42
0.011117
  0
VERTEX
  8
0
 10
4423.359403
 20
5943.582219
 42
0.018234
  0
VERTEX
  8
0
 10
4424.704897
 20
5974.447977
 42
0.011778
  0
VERTEX
  8
0
 10
4424.116139
 20
6010.223591
 42
0.002737
  0
VERTEX
  8
0
 10
4423.122367
 20
6032.056740
 42
0.006472
  0
VERTEX
  8
0
 10
4422.082463
 20
6048.307587
 42
0.007845
  0
VERTEX
  8
0
 10
4420.766257
 20
6062.490422
 42
0.006559
  0
VERTEX
  8
0
 10
4418.935907
 20
6077.500000
 42
0.021072
  0
VERTEX
  8
0
 10
4413.667755
 20
6107.019772
 42
0.039012
  0
VERTEX
  8
0
 10
4406.551590
 20
6130.294181
 42
0.049709
  0
VERTEX
  8
0
 10
4397.964638
 20
6147.030771
 42
0.132180
  0
VERTEX
  8
0
 10
4388.078418
 20
6155.959994
 42
0.074771
  0
VERTEX
  8
0
 10
4379.253297
 20
6158.908847
 42
0.018374
  0
VERTEX
  8
0
 10
4364.055685
 20
6160.995847
 42
0.019177
  0
VERTEX
  8
0
 10
4348.535130
 20
6161.949662
 42
0.057917
  0
SEQEND
  0
POLYLINE
  8
0
 66
1
 70
1
  0
VERTEX
  8
0
 10
4623.000000
 20
4820.925739
 42
0.000331
  0
VERTEX
  8
0
 10
3980.811581
 20
4818.085529
 42
0.001004
  0
VERTEX
  8
0
 10
3543.766762
 20
4814.984988
 42
0.001444
  0
VERTEX
  8
0
 10
3212.322924
 20
4811.010675
 42
0.002187
  0
VERTEX
  8
0
 10
2924.000000
 20
4805.459448
 42
0.001864
  0
VERTEX
  8
0
 10
2790.268234
 20
4801.800528
 42
0.007887
  0
VERTEX
  8
0
 10
2710.205083
 20
4798.046403
 42
0.011979
  0
VERTEX
  8
0
 10
2657.815219
 20
4793.498810
 42
0.052479
  0
VERTEX
  8
0
 10
2627.500000
 20
4786.865835
 42
0.021910
  0
VERTEX
  8
0
 10
2619.225462
 20
4783.712658
 42
0.026822
  0
VERTEX
  8
0
 10
2611.815642
 20
4780.027369
 42
0.022535
  0
VERTEX
  8
0
 10
2603.898990
 20
4775.061581
 42
0.009999
  0
VERTEX
  8
0
 10
2593.899755
 20
4767.843013
 42
0.049990
  0
VERTEX
  8
0
 10
2565.214468
 20
4741.377280
 42
0.091973
  0
VERTEX
  8
0
 10
2548.874812
 20
4714.259888
 42
0.060516
  0
VERTEX
  8
0
 10
2539.546648
 20
4675.805227
 42
0.012149
  0
VERTEX
  8
0
 10
2533.003762
 20
4605.500000
 42
0.008083
  0
VERTEX
  8
0
 10
2530.449848
 20
4556.744872
 42
0.006123
  0
VERTEX
  8
0
 10
2529.168312
 20
4503.187669
 42
0.002682
  0
VERTEX
  8
0
 10
2528.635705
 20
4418.849568
 42
0.000295
  0
VERTEX
  8
0
 10
2528.565775
 20
4225.500000
 42
0.001091
  0
VERTEX
  8
0
 10
2529.297735
 20
3921.894135
 42
0.001760
  0
VERTEX
  8
0
 10
2531.395429
 20
3663.369377
 42
0.001948
  0
VERTEX
  8
0
 10
2534.616020
 20
3456.001486
 42
0.007178
  0
VERTEX
  8
0
 10
2539.043079
 20
3325.000000
 42
0.002784
  0
VERTEX
  8
0
 10
2546.856566
 20
3179.652793
 42
0.003330
  0
VERTEX
  8
0
 10
2555.890150
 20
3042.843652
 42
0.003634
  0
VERTEX
  8
0
 10
2565.631283
 20
2921.130153
 42
0.006733
  0
VERTEX
  8
0
 10
2575.586691
 20
2822.500000
 42
0.022373
  0
VERTEX
  8
0
 10
2612.675255
 20
2590.912993
 42
0.030060
  0
VERTEX
  8
0
 10
2668.035728
 20
2385.817021
 42
0.033226
  0
VERTEX
  8
0
 10
2741.519111
 20
2207.135515
 42
0.042709
  0
VERTEX
  8
0
 10
2833.120145
 20
2055.000000
 42
0.006889
  0
VERTEX
  8
0
 10
2853.799291
 20
2027.289930
 42
0.011054
  0
VERTEX
  8
0
 10
2872.276432
 20
2004.299923
 42
0.010970
  0
VERTEX
  8
0
 10
2891.853870
 20
1982.025319
 42
0.006652
  0
VERTEX
  8
0
 10
2915.934562
 20
1956.500000
 42
0.006251
  0
VERTEX
  8
0
 10
2943.283793
 20
1928.969204
 42
0.007846
  0
VERTEX
  8
0
 10
2969.343693
 20
1904.175057
 42
0.007808
  0
VERTEX
  8
0
 10
2996.273023
 20
1880.113976
 42
0.006090
  0
VERTEX
  8
0
 10
3026.250000
 20
1854.792282
 42
-0.001359
  0
VERTEX
  8
0
 10
3036.503852
 20
1846.295716
 42
-0.002230
  0
VERTEX
  8
0
 10
3045.132433
 20
1839.040777
 42
-0.000249
  0
VERTEX
  8
0
 10
3052.788633
 20
1832.538331
 42
-0.233966
  0
VERTEX
  8
0
 10
3052.966794
 20
1832.124509
 42
-0.166249
  0
VERTEX
  8
0
 10
3052.551983
 20
1831.093762
 42
-0.001254
  0
VERTEX
  8
0
 10
3046.505614
 20
1824.124336
 42
-0.003630
  0
VERTEX
  8
0
 10
3038.485856
 20
1815.060640
 42
-0.001211
  0
VERTEX
  8
0
 10
3026.621503
 20
1801.910658
 42
0.014329
  0
VERTEX
  8
0
 10
3001.234806
 20
1772.244120
 42
0.017122
  0
VERTEX
  8
0
 10
2979.118331
 20
1742.842429
 42
0.018189
  0
VERTEX
  8
0
 10
2960.291715
 20
1713.746790
 42
0.021723
  0
VERTEX
  8
0
 10
2944.792210
 20
1685.000000
 42
0.009108
  0
VERTEX
  8
0
 10
2937.499261
 20
1669.216479
 42
0.035767
  0
VERTEX
  8
0
 10
2933.893829
 20
1659.124271
 42
0.049373
  0
VERTEX
  8
0
 10
2932.360577
 20
1650.347419
 42
0.030421
  0
VERTEX
  8
0
 10
2932.219365
 20
1639.854556
 42
0.010318
  0
VERTEX
  8
0
 10
2932.587592
 20
1634.447994
 42
0.023234
  0
VERTEX
  8
0
 10
2933.140849
 20
1630.377722
 42
0.028017
  0
VERTEX
  8
0
 10
2933.987509
 20
1626.881307
 42
0.024318
  0
VERTEX
  8
0
 10
2935.253283
 20
1623.328156
 42
0.122123
  0
VERTEX
  8
0
 10
2952.763086
 20
1599.508237
 42
0.061918
  0
VERTEX
  8
0
 10
2984.285063
 20
1579.295408
 42
0.045224
  0
VERTEX
  8
0
 10
3030.276064
 20
1562.187652
 42
0.020762
  0
VERTEX
  8
0
 10
3092.692661
 20
1547.953424
 42
0.006114
  0
VERTEX
  8
0
 10
3109.868698
 20
1544.996689
 42
0.002592
  0
VERTEX
  8
0
 10
3132.968562
 20
1541.433119
 42
0.002573
  0
VERTEX
  8
0
 10
3155.933939
 20
1538.132775
 42
0.006701
  0
VERTEX
  8
0
 10
3172.500000
 20
1536.064872
 42
0.010338
  0
VERTEX
  8
0
 10
3214.756410
 20
1532.246836
 42
0.007876
  0
VERTEX
  8
0
 10
3261.157895
 20
1529.753454
 42
0.004700
  0
VERTEX
  8
0
 10
3326.218672
 20
1527.896663
 42
0.001033
  0
VERTEX
  8
0
 10
3438.000000
 20
1525.989003
 42
-0.001176
  0
VERTEX
  8
0
 10
3504.321813
 20
1524.838201
 42
-0.003264
  0
VERTEX
  8
0
 10
3550.939055
 20
1523.615116
 42
-0.004072
  0
VERTEX
  8
0
 10
3591.316925
 20
1521.962628
 42
-0.003002
  0
VERTEX
  8
0
 10
3636.000000
 20
1519.500357
 42
0.003570
  0
VERTEX
  8
0
 10
3649.458114
 20
1518.774095
 42
0.000420
  0
VERTEX
  8
0
 10
3679.440809
 20
1517.395962
 42
0.000527
  0
VERTEX
  8
0
 10
3713.545645
 20
1515.893107
 42
0.000559
  0
VERTEX
  8
0
 10
3747.000000
 20
1514.491740
 42
-0.000158
  0
VERTEX
  8
0
 10
3762.969689
 20
1513.835619
 42
-0.000131
  0
VERTEX
  8
0
 10
3779.946875
 20
1513.128264
 42
-0.000133
  0
VERTEX
  8
0
 10
3795.489945
 20
1512.472441
 42
-0.000360
  0
VERTEX
  8
0
 10
3806.500000
 20
1511.997006
 42
0.000463
  0
VERTEX
  8
0
 10
3828.634303
 20
1511.045752
 42
0.000166
  0
VERTEX
  8
0
 10
3860.151820
 20
1509.730981
 42
0.000151
  0
VERTEX
  8
0
 10
3897.596485
 20
1508.192797
 42
0.000112
  0
VERTEX
  8
0
 10
3939.000000
 20
1506.513853
 42
0.008061
  0
VERTEX
  8
0
 10
4078.565544
 20
1503.138165
 42
0.005962
  0
VERTEX
  8
0
 10
4232.994871
 20
1503.734680
 42
0.006035
  0
VERTEX
  8
0
 10
4383.597186
 20
1507.930776
 42
0.009882
  0
VERTEX
  8
0
 10
4511.000000
 20
1515.544165
 42
0.006431
  0
VERTEX
  8
0
 10
4609.977246
 20
1524.707106
 42
0.011748
  0
VERTEX
  8
0
 10
4690.402387
 20
1535.112970
 42
0.014307
  0
VERTEX
  8
0
 10
4754.914475
 20
1546.904093
 42
0.030462
  0
VERTEX
  8
0
 10
4803.771659
 20
1560.441278
 42
0.042153
  0
VERTEX
  8
0
 10
4839.562794
 20
1576.230028
 42
0.084945
  0
VERTEX
  8
0
 10
4863.681815
 20
1595.306953
 42
0.111125
  0
VERTEX
  8
0
 10
4876.136596
 20
1617.532720
 42
0.115796
  0
VERTEX
  8
0
 10
4877.614214
 20
1642.604115
 42
0.017086
  0
VERTEX
  8
0
 10
4875.740582
 20
1651.576437
 42
0.024353
  0
VERTEX
  8
0
 10
4873.423180
 20
1659.378331
 42
0.021039
  0
VERTEX
  8
0
 10
4870.098438
 20
1667.714526
 42
0.009097
  0
VERTEX
  8
0
 10
4865.009735
 20
1678.530224
 42
0.022255
  0
VERTEX
  8
0
 10
4854.953324
 20
1696.831279
 42
0.014546
  0
VERTEX
  8
0
 10
4841.831974
 20
1717.032355
 42
0.012006
  0
VERTEX
  8
0
 10
4824.932226
 20
1740.252188
 42
0.006580
  0
VERTEX
  8
0
 10
4803.183415
 20
1767.912326
 42
0.000000
  0
VERTEX
  8
0
 10
4786.694176
 20
1788.324652
 42
0.000000
  0
VERTEX
  8
0
 10
4790.658109
 20
1791.912326
 42
-0.004246
  0
VERTEX
  8
0
 10
4793.126638
 20
1794.108695
 42
-0.000488
  0
VERTEX
  8
0
 10
4798.727211
 20
1798.997583
 42
-0.000588
  0
VERTEX
  8
0
 10
4805.401815
 20
1804.798760
 42
-0.000479
  0
VERTEX
  8
0
 10
4812.561021
 20
1810.994339
 42
0.011037
  0
VERTEX
  8
0
 10
4829.929159
 20
1826.678144
 42
0.005706
  0
VERTEX
  8
0
 10
4850.975992
 20
1847.003770
 42
0.005679
  0
VERTEX
  8
0
 10
4871.242234
 20
1867.487571
 42
0.012964
  0
VERTEX
  8
0
 10
4885.944696
 20
1883.500000
 42
0.012414
  0
VERTEX
  8
0
 10
4911.095783
 20
1913.848655
 42
0.011504
  0
VERTEX
  8
0
 10
4935.375580
 20
1946.175603
 42
0.011048
  0
VERTEX
  8
0
 10
4959.077558
 20
1980.888918
 42
0.009487
  0
VERTEX
  8
0
 10
4982.494488
 20
2018.404762
 42
0.021993
  0
VERTEX
  8
0
 10
5033.357648
 20
2112.611648
 42
0.023388
  0
VERTEX
  8
0
 10
5074.618260
 20
2209.039116
 42
0.021344
  0
VERTEX
  8
0
 10
5109.583964
 20
2316.392641
 42
0.013550
  0
VERTEX
  8
0
 10
5141.501158
 20
2444.000000
 42
0.002075
  0
VERTEX
  8
0
 10
5148.321002
 20
2475.404070
 42
0.002606
  0
VERTEX
  8
0
 10
5154.368500
 20
2504.565567
 42
0.002042
  0
VERTEX
  8
0
 10
5161.149584
 20
2538.865063
 42
0.000725
  0
VERTEX
  8
0
 10
5170.573965
 20
2587.961189
 42
-0.000530
  0
VERTEX
  8
0
 10
5175.020585
 20
2611.174734
 42
-0.000873
  0
VERTEX
  8
0
 10
5178.835147
 20
2630.790561
 42
-0.000055
  0
VERTEX
  8
0
 10
5182.300358
 20
2648.435110
 42
-0.148928
  0
VERTEX
  8
0
 10
5182.527025
 20
2648.860359
 42
-0.204274
  0
VERTEX
  8
0
 10
5182.957197
 20
2649.033370
 42
-0.000065
  0
VERTEX
  8
0
 10
5201.691811
 20
2648.644737
 42
-0.001084
  0
VERTEX
  8
0
 10
5222.510640
 20
2648.164993
 42
-0.000656
  0
VERTEX
  8
0
 10
5247.153814
 20
2647.511291
 42
0.005088
  0
VERTEX
  8
0
 10
5325.859194
 20
2646.121378
 42
0.008802
  0
VERTEX
  8
0
 10
5391.296959
 20
2646.783674
 42
0.010276
  0
VERTEX
  8
0
 10
5448.537877
 20
2649.549105
 42
0.012486
  0
VERTEX
  8
0
 10
5502.000000
 20
2654.578394
 42
0.013969
  0
VERTEX
  8
0
 10
5559.374702
 20
2663.056285
 42
0.019372
  0
VERTEX
  8
0
 10
5610.176859
 20
2674.063804
 42
0.021469
  0
VERTEX
  8
0
 10
5655.296789
 20
2687.776520
 42
0.027301
  0
VERTEX
  8
0
 10
5695.500000
 20
2704.423066
 42
0.030955
  0
VERTEX
  8
0
 10
5741.788566
 20
2730.257128
 42
0.033101
  0
VERTEX
  8
0
 10
5783.453750
 20
2761.092282
 42
0.033198
  0
VERTEX
  8
0
 10
5820.578688
 20
2797.066999
 42
0.031516
  0
VERTEX
  8
0
 10
5853.316186
 20
2838.240774
 42
0.029989
  0
VERTEX
  8
0
 10
5882.827007
 20
2886.506389
 42
0.019655
  0
VERTEX
  8
0
 10
5911.160953
 20
2945.235094
 42
0.019117
  0
VERTEX
  8
0
 10
5935.830752
 20
3008.468006
 42
0.022035
  0
VERTEX
  8
0
 10
5954.320766
 20
3070.500000
 42
0.018110
  0
VERTEX
  8
0
 10
5967.120458
 20
3130.727266
 42
0.009455
  0
VERTEX
  8
0
 10
5978.911155
 20
3206.543439
 42
0.008772
  0
VERTEX
  8
0
 10
5988.962939
 20
3291.457739
 42
0.007817
  0
VERTEX
  8
0
 10
5996.476004
 20
3380.000000
 42
0.007642
  0
VERTEX
  8
0
 10
6000.994339
 20
3464.007247
 42
0.007993
  0
VERTEX
  8
0
 10
6002.855934
 20
3546.864073
 42
0.008493
  0
VERTEX
  8
0
 10
6002.056437
 20
3622.944275
 42
0.014755
  0
VERTEX
  8
0
 10
5998.458282
 20
3686.000000
 42
0.010433
  0
VERTEX
  8
0
 10
5994.285450
 20
3724.713580
 42
0.002166
  0
VERTEX
  8
0
 10
5985.240558
 20
3792.541251
 42
0.002290
  0
VERTEX
  8
0
 10
5975.520628
 20
3860.783801
 42
0.008326
  0
VERTEX
  8
0
 10
5968.426120
 20
3904.000000
 42
0.025919
  0
VERTEX
  8
0
 10
5957.442364
 20
3950.660107
 42
0.030061
  0
VERTEX
  8
0
 10
5942.095659
 20
3993.617573
 42
0.031508
  0
VERTEX
  8
0
 10
5922.488402
 20
4032.580922
 42
0.035153
  0
VERTEX
  8
0
 10
5898.762964
 20
4067.297812
 42
0.018644
  0
VERTEX
  8
0
 10
5890.213721
 20
4077.303673
 42
0.009407
  0
VERTEX
  8
0
 10
5878.742151
 20
4089.297304
 42
0.009404
  0
VERTEX
  8
0
 10
5866.853859
 20
4100.825491
 42
0.019063
  0
VERTEX
  8
0
 10
5857.000000
 20
4109.348302
 42
0.040173
  0
VERTEX
  8
0
 10
5818.443057
 20
4135.425870
 42
0.036324
  0
VERTEX
  8
0
 10
5774.919194
 20
4156.009193
 42
0.034071
  0
VERTEX
  8
0
 10
5726.174505
 20
4171.142145
 42
0.027185
  0
VERTEX
  8
0
 10
5672.000000
 20
4180.918911
 42
0.011416
  0
VERTEX
  8
0
 10
5609.943438
 20
4187.230476
 42
0.003480
  0
VERTEX
  8
0
 10
5515.762531
 20
4193.982339
 42
0.003584
  0
VERTEX
  8
0
 10
5414.095419
 20
4199.828579
 42
0.005070
  0
VERTEX
  8
0
 10
5323.500000
 20
4203.466340
 42
-0.001064
  0
VERTEX
  8
0
 10
5315.372799
 20
4203.727471
 42
-0.000864
  0
VERTEX
  8
0
 10
5306.662013
 20
4204.040971
 42
-0.000872
  0
VERTEX
  8
0
 10
5298.635144
 20
4204.357769
 42
-0.002271
  0
VERTEX
  8
0
 10
5292.860044
 20
4204.622073
 42
0.000000
  0
VERTEX
  8
0
 10
5281.220088
 20
4205.207782
 42
0.000000
  0
VERTEX
  8
0
 10
5280.699602
 20
4352.353891
 42
0.000624
  0
VERTEX
  8
0
 10
5280.255019
 20
4445.244157
 42
0.003003
  0
VERTEX
  8
0
 10
5279.618124
 20
4498.137986
 42
0.004627
  0
VERTEX
  8
0
 10
5278.486556
 20
4539.576222
 42
0.003290
  0
VERTEX
  8
0
 10
5276.482791
 20
4586.000000
 42
0.005313
  0
VERTEX
  8
0
 10
5273.599328
 20
4633.726992
 42
0.009163
  0
VERTEX
  8
0
 10
5270.050815
 20
4673.360878
 42
0.010671
  0
VERTEX
  8
0
 10
5265.967549
 20
4704.847772
 42
0.032182
  0
VERTEX
  8
0
 10
5261.358889
 20
4725.987963
 42
0.032008
  0
VERTEX
  8
0
 10
5256.810373
 20
4738.725435
 42
0.033665
  0
VERTEX
  8
0
 10
5250.736809
 20
4750.556303
 42
0.033855
  0
VERTEX
  8
0
 10
5243.166253
 20
4761.404913
 42
0.033164
  0
VERTEX
  8
0
 10
5234.152296
 20
4771.212435
 42
0.019581
  0
VERTEX
  8
0
 10
5226.659849
 20
4777.811384
 42
0.029609
  0
VERTEX
  8
0
 10
5219.607122
 20
4782.886083
 42
0.024419
  0
VERTEX
  8
0
 10
5211.068880
 20
4787.725993
 42
0.008909
  0
VERTEX
  8
0
 10
5198.546315
 20
4793.760301
 42
-0.001937
  0
VERTEX
  8
0
 10
5191.384346
 20
4797.089239
 42
-0.001245
  0
VERTEX
  8
0
 10
5183.101105
 20
4801.003642
 42
-0.001251
  0
VERTEX
  8
0
 10
5175.013083
 20
4804.875291
 42
-0.002349
  0
VERTEX
  8
0
 10
5168.500000
 20
4808.050872
 42
0.006637
  0
VERTEX
  8
0
 10
5160.789593
 20
4811.728725
 42
0.020459
  0
VERTEX
  8
0
 10
5155.449235
 20
4813.929470
 42
0.026699
  0
VERTEX
  8
0
 10
5150.780241
 20
4815.356350
 42
0.019854
  0
VERTEX
  8
0
 10
5145.500000
 20
4816.445985
 42
0.024169
  0
VERTEX
  8
0
 10
5130.193875
 20
4818.221324
 42
0.007803
  0
VERTEX
  8
0
 10
5107.391509
 20
4819.397582
 42
0.005006
  0
VERTEX
  8
0
 10
5073.549098
 20
4820.275022
 42
0.001265
  0
VERTEX
  8
0
 10
5018.500000
 20
4821.011559
 42
0.001191
  0
VERTEX
  8
0
 10
4953.006222
 20
4821.566031
 42
0.001575
  0
VERTEX
  8
0
 10
4893.344170
 20
4821.741019
 42
0.000790
  0
VERTEX
  8
0
 10
4808.907171
 20
4821.589239
 42
0.000095
  0
SEQEND
  0
POLYLINE
  8
0
 66
1
 70
1
  0
VERTEX
  8
0
 10
5398.500000
 20
3911.023438
 42
-0.015975
  0
VERTEX
  8
0
 10
5435.155834
 20
3907.661233
 42
-0.013761
  0
VERTEX
  8
0
 10
5473.405258
 20
3901.843854
 42
-0.014218
  0
VERTEX
  8
0
 10
5508.942082
 20
3894.384975
 42
-0.026838
  0
VERTEX
  8
0
 10
5537.010973
 20
3886.039851
 42
-0.059756
  0
VERTEX
  8
0
 10
5581.612639
 20
3863.829714
 42
-0.064198
  0
VERTEX
  8
0
 10
5618.506994
 20
3832.142964
 42
-0.059767
  0
VERTEX
  8
0
 10
5648.137134
 20
3790.069816
 42
-0.042238
  0
VERTEX
  8
0
 10
5671.187634
 20
3737.000000
 42
-0.009281
  0
VERTEX
  8
0
 10
5675.507360
 20
3723.363211
 42
-0.007290
  0
VERTEX
  8
0
 10
5679.697756
 20
3708.433206
 42
-0.007298
  0
VERTEX
  8
0
 10
5683.444748
 20
3693.411764
 42
-0.009397
  0
VERTEX
  8
0
 10
5686.425416
 20
3679.500000
 42
-0.034206
  0
VERTEX
  8
0
 10
5696.950347
 20
3594.978002
 42
-0.015041
  0
VERTEX
  8
0
 10
5699.817404
 20
3482.218647
 42
-0.014683
  0
VERTEX
  8
0
 10
5695.680118
 20
3360.663096
 42
-0.017721
  0
VERTEX
  8
0
 10
5684.410535
 20
3247.000000
 42
-0.009659
  0
VERTEX
  8
0
 10
5677.112848
 20
3199.857808
 42
-0.019294
  0
VERTEX
  8
0
 10
5669.194171
 20
3162.974351
 42
-0.023669
  0
VERTEX
  8
0
 10
5659.834325
 20
3132.435167
 42
-0.029305
  0
VERTEX
  8
0
 10
5648.163082
 20
3105.083634
 42
-0.044230
  0
VERTEX
  8
0
 10
5632.607799
 20
3079.730400
 42
-0.073995
  0
VERTEX
  8
0
 10
5614.935697
 20
3062.095116
 42
-0.053215
  0
VERTEX
  8
0
 10
5588.954834
 20
3046.861839
 42
-0.013531
  0
VERTEX
  8
0
 10
5543.829587
 20
3027.947086
 42
-0.013952
  0
VERTEX
  8
0
 10
5494.363424
 20
3010.340326
 42
-0.013410
  0
VERTEX
  8
0
 10
5443.338215
 20
2995.267390
 42
-0.013508
  0
VERTEX
  8
0
 10
5391.975885
 20
2983.056852
 42
-0.014742
  0
VERTEX
  8
0
 10
5341.500000
 20
2974.033125
 42
-0.003810
  0
VERTEX
  8
0
 10
5320.876751
 20
2971.131032
 42
-0.001899
  0
VERTEX
  8
0
 10
5294.717998
 20
2967.754099
 42
-0.001882
  0
VERTEX
  8
0
 10
5268.977500
 20
2964.628855
 42
-0.004602
  0
VERTEX
  8
0
 10
5250.000000
 20
2962.574097
 42
0.000015
  0
VERTEX
  8
0
 10
5243.633723
 20
2961.943834
 42
0.000015
  0
VERTEX
  8
0
 10
5237.322400
 20
2961.318625
 42
0.000015
  0
VERTEX
  8
0
 10
5231.846685
 20
2960.775859
 42
0.000065
  0
VERTEX
  8
0
 10
5228.608169
 20
2960.454328
 42
0.000000
  0
VERTEX
  8
0
 10
5222.716338
 20
2959.868594
 42
0.000000
  0
VERTEX
  8
0
 10
5223.400838
 20
2969.684297
 42
-0.007539
  0
VERTEX
  8
0
 10
5223.918107
 20
2975.776780
 42
-0.000834
  0
VERTEX
  8
0
 10
5225.334244
 20
2989.688512
 42
-0.001017
  0
VERTEX
  8
0
 10
5227.081208
 20
3006.241770
 42
-0.000823
  0
VERTEX
  8
0
 10
5229.021432
 20
3024.000000
 42
0.004392
  0
VERTEX
  8
0
 10
5244.333970
 20
3174.065127
 42
0.004559
  0
VERTEX
  8
0
 10
5256.802369
 20
3322.529664
 42
0.004730
  0
VERTEX
  8
0
 10
5266.122051
 20
3465.248858
 42
0.005896
  0
VERTEX
  8
0
 10
5271.961059
 20
3598.000000
 42
-0.000477
  0
VERTEX
  8
0
 10
5272.388563
 20
3610.903138
 42
-0.000498
  0
VERTEX
  8
0
 10
5272.834909
 20
3623.625000
 42
-0.000478
  0
VERTEX
  8
0
 10
5273.242182
 20
3634.620562
 42
-0.002192
  0
VERTEX
  8
0
 10
5273.512601
 20
3641.000000
 42
0.007792
  0
VERTEX
  8
0
 10
5273.761688
 20
3648.990025
 42
0.000341
  0
VERTEX
  8
0
 10
5274.177280
 20
3676.881250
 42
0.000578
  0
VERTEX
  8
0
 10
5274.609398
 20
3709.961178
 42
0.000412
  0
VERTEX
  8
0
 10
5275.019842
 20
3747.000000
 42
-0.000690
  0
VERTEX
  8
0
 10
5275.670162
 20
3802.886809
 42
-0.002689
  0
VERTEX
  8
0
 10
5276.306017
 20
3837.453922
 42
-0.003701
  0
VERTEX
  8
0
 10
5277.201214
 20
3866.162166
 42
-0.002390
  0
VERTEX
  8
0
 10
5278.642959
 20
3899.395877
 42
0.000000
  0
VERTEX
  8
0
 10
5279.312348
 20
3913.291754
 42
0.000000
  0
VERTEX
  8
0
 10
5329.906174
 20
3912.693921
 42
-0.001526
  0
VERTEX
  8
0
 10
5350.596037
 20
3912.386304
 42
-0.001608
  0
VERTEX
  8
0
 10
5370.925564
 20
3911.956610
 42
-0.001536
  0
VERTEX
  8
0
 10
5388.454851
 20
3911.475839
 42
-0.007258
  0
SEQEND
  0
POLYLINE
  8
0
 66
1
 70
1
  0
VERTEX
  8
0
 10
3478.500000
 20
3820.479519
 42
-0.021838
  0
VERTEX
  8
0
 10
3488.288879
 20
3819.419918
 42
-0.012168
  0
VERTEX
  8
0
 10
3500.100225
 20
3817.321460
 42
-0.011983
  0
VERTEX
  8
0
 10
3512.223906
 20
3814.557741
 42
-0.016146
  0
VERTEX
  8
0
 10
3523.038327
 20
3811.443500
 42
-0.041240
  0
VERTEX
  8
0
 10
3555.215734
 20
3798.024335
 42
-0.035803
  0
VERTEX
  8
0
 10
3586.396883
 20
3778.944938
 42
-0.029060
  0
VERTEX
  8
0
 10
3619.897084
 20
3751.921295
 42
-0.014184
  0
VERTEX
  8
0
 10
3659.508293
 20
3713.873756
 42
-0.016599
  0
VERTEX
  8
0
 10
3704.515714
 20
3664.973556
 42
-0.017466
  0
VERTEX
  8
0
 10
3745.389689
 20
3613.996519
 42
-0.017484
  0
VERTEX
  8
0
 10
3782.567625
 20
3560.341664
 42
-0.016710
  0
VERTEX
  8
0
 10
3816.501238
 20
3503.418478
 42
-0.006576
  0
VERTEX
  8
0
 10
3820.549029
 20
3495.847873
 42
-0.001649
  0
VERTEX
  8
0
 10
3826.948001
 20
3483.391293
 42
-0.001683
  0
VERTEX
  8
0
 10
3834.170998
 20
3469.097045
 42
-0.001695
  0
VERTEX
  8
0
 10
3841.281554
 20
3454.785925
 42
0.000000
  0
VERTEX
  8
0
 10
3858.382971
 20
3420.071849
 42
0.000000
  0
VERTEX
  8
0
 10
3873.019562
 20
3448.785925
 42
-0.001626
  0
VERTEX
  8
0
 10
3883.651055
 20
3469.476192
 42
-0.005830
  0
VERTEX
  8
0
 10
3890.638530
 20
3482.589901
 42
-0.006764
  0
VERTEX
  8
0
 10
3897.392878
 20
3494.531324
 42
-0.002802
  0
VERTEX
  8
0
 10
3906.832852
 20
3510.500000
 42
-0.022162
  0
VERTEX
  8
0
 10
3944.809408
 20
3567.985363
 42
-0.020532
  0
VERTEX
  8
0
 10
3988.653370
 20
3623.418660
 42
-0.020916
  0
VERTEX
  8
0
 10
4035.911735
 20
3673.936656
 42
-0.025890
  0
VERTEX
  8
0
 10
4084.118790
 20
3716.656815
 42
-0.023470
  0
VERTEX
  8
0
 10
4123.874988
 20
3745.426630
 42
-0.033076
  0
VERTEX
  8
0
 10
4161.973172
 20
3766.905910
 42
-0.035565
  0
VERTEX
  8
0
 10
4200.249787
 20
3782.022936
 42
-0.034964
  0
VERTEX
  8
0
 10
4240.500000
 20
3791.665656
 42
-0.014965
  0
VERTEX
  8
0
 10
4247.041674
 20
3792.556249
 42
-0.013124
  0
VERTEX
  8
0
 10
4253.917786
 20
3793.101519
 42
-0.009984
  0
VERTEX
  8
0
 10
4262.355874
 20
3793.379388
 42
-0.003915
  0
VERTEX
  8
0
 10
4274.000000
 20
3793.439004
 42
-0.003241
  0
VERTEX
  8
0
 10
4287.296673
 20
3793.316760
 42
-0.015395
  0
VERTEX
  8
0
 10
4294.897275
 20
3792.963362
 42
-0.021652
  0
VERTEX
  8
0
 10
4301.203214
 20
3792.199498
 42
-0.011230
  0
VERTEX
  8
0
 10
4309.000000
 20
3790.729885
 42
-0.007674
  0
VERTEX
  8
0
 10
4314.585511
 20
3789.456726
 42
-0.004857
  0
VERTEX
  8
0
 10
4321.059375
 20
3787.809387
 42
-0.004877
  0
VERTEX
  8
0
 10
4327.388894
 20
3786.066910
 42
-0.008967
  0
VERTEX
  8
0
 10
4332.500000
 20
3784.506405
 42
-0.024336
  0
VERTEX
  8
0
 10
4344.437555
 20
3779.973174
 42
-0.013073
  0
VERTEX
  8
0
 10
4358.709066
 20
3773.293926
 42
-0.013070
  0
VERTEX
  8
0
 10
4372.518133
 20
3765.928065
 42
-0.025989
  0
VERTEX
  8
0
 10
4382.965936
 20
3759.259034
 42
-0.022518
  0
VERTEX
  8
0
 10
4392.285201
 20
3751.949631
 42
-0.012726
  0
VERTEX
  8
0
 10
4402.932351
 20
3742.313511
 42
-0.012734
  0
VERTEX
  8
0
 10
4413.014102
 20
3732.209294
 42
-0.023822
  0
VERTEX
  8
0
 10
4420.551621
 20
3723.460895
 42
-0.068332
  0
VERTEX
  8
0
 10
4446.692209
 20
3678.547593
 42
-0.056816
  0
VERTEX
  8
0
 10
4461.825939
 20
3625.344987
 42
-0.051615
  0
VERTEX
  8
0
 10
4465.466231
 20
3565.235128
 42
-0.039524
  0
VERTEX
  8
0
 10
4457.471251
 20
3499.842876
 42
-0.032795
  0
VERTEX
  8
0
 10
4440.150046
 20
3436.326327
 42
-0.016372
  0
VERTEX
  8
0
 10
4410.431274
 20
3358.445224
 42
-0.015425
  0
VERTEX
  8
0
 10
4372.263036
 20
3274.807771
 42
-0.015059
  0
VERTEX
  8
0
 10
4328.723504
 20
3193.000000
 42
-0.009040
  0
VERTEX
  8
0
 10
4312.562381
 20
3165.872425
 42
-0.004460
  0
VERTEX
  8
0
 10
4291.100154
 20
3131.963413
 42
-0.003516
  0
VERTEX
  8
0
 10
4263.303186
 20
3089.558213
 42
-0.001679
  0
VERTEX
  8
0
 10
4227.009328
 20
3035.425981
 42
-0.000938
  0
VERTEX
  8
0
 10
4192.976652
 20
2985.236402
 42
-0.001824
  0
VERTEX
  8
0
 10
4165.581575
 20
2945.312212
 42
-0.001930
  0
VERTEX
  8
0
 10
4138.932043
 20
2907.092806
 42
-0.001204
  0
VERTEX
  8
0
 10
4107.421285
 20
2862.500000
 42
0.004683
  0
VERTEX
  8
0
 10
4091.264962
 20
2839.295307
 42
0.001725
  0
VERTEX
  8
0
 10
4068.893023
 20
2806.268693
 42
0.001526
  0
VERTEX
  8
0
 10
4042.071791
 20
2766.113962
 42
0.001016
  0
VERTEX
  8
0
 10
4011.562228
 20
2719.930851
 42
-0.005083
  0
VERTEX
  8
0
 10
3982.966204
 20
2677.400634
 42
-0.012867
  0
VERTEX
  8
0
 10
3961.082386
 20
2647.249771
 42
-0.016094
  0
VERTEX
  8
0
 10
3943.977020
 20
2626.344464
 42
-0.070701
  0
VERTEX
  8
0
 10
3931.933203
 20
2615.957136
 42
-0.036550
  0
VERTEX
  8
0
 10
3926.492781
 20
2613.003011
 42
-0.047845
  0
VERTEX
  8
0
 10
3921.140785
 20
2611.177204
 42
-0.040258
  0
VERTEX
  8
0
 10
3914.857770
 20
2610.210429
 42
-0.017496
  0
VERTEX
  8
0
 10
3906.408255
 20
2609.895858
 42
-0.089569
  0
VERTEX
  8
0
 10
3888.497322
 20
2613.089216
 42
-0.082705
  0
VERTEX
  8
0
 10
3872.273792
 20
2622.381032
 42
-0.036659
  0
VERTEX
  8
0
 10
3851.111261
 20
2642.432666
 42
-0.004605
  0
VERTEX
  8
0
 10
3809.002392
 20
2689.500000
 42
0.002707
  0
VERTEX
  8
0
 10
3791.736794
 20
2708.946714
 42
0.001890
  0
VERTEX
  8
0
 10
3772.062942
 20
2730.699763
 42
0.001855
  0
VERTEX
  8
0
 10
3751.689150
 20
2752.890309
 42
0.002202
  0
VERTEX
  8
0
 10
3732.277599
 20
2773.691430
 42
-0.001720
  0
VERTEX
  8
0
 10
3703.116686
 20
2804.879534
 42
-0.003265
  0
VERTEX
  8
0
 10
3679.889743
 20
2830.223047
 42
-0.003725
  0
VERTEX
  8
0
 10
3659.173262
 20
2853.471630
 42
-0.003291
  0
VERTEX
  8
0
 10
3637.926294
 20
2878.000000
 42
-0.014428
  0
VERTEX
  8
0
 10
3558.624101
 20
2976.387917
 42
-0.016400
  0
VERTEX
  8
0
 10
3488.593635
 20
3075.160225
 42
-0.016415
  0
VERTEX
  8
0
 10
3425.244209
 20
3178.226064
 42
-0.014510
  0
VERTEX
  8
0
 10
3365.995388
 20
3289.500000
 42
-0.004603
  0
VERTEX
  8
0
 10
3347.621339
 20
3327.435088
 42
-0.008762
  0
VERTEX
  8
0
 10
3333.664440
 20
3358.328985
 42
-0.010230
  0
VERTEX
  8
0
 10
3322.338003
 20
3386.172882
 42
-0.010182
  0
VERTEX
  8
0
 10
3312.141453
 20
3414.500000
 42
-0.008549
  0
VERTEX
  8
0
 10
3304.520351
 20
3438.451808
 42
-0.006401
  0
VERTEX
  8
0
 10
3296.917522
 20
3465.076361
 42
-0.006495
  0
VERTEX
  8
0
 10
3290.357103
 20
3490.518184
 42
-0.013595
  0
VERTEX
  8
0
 10
3286.052486
 20
3510.500000
 42
-0.026343
  0
VERTEX
  8
0
 10
3281.939609
 20
3541.400972
 42
-0.015911
  0
VERTEX
  8
0
 10
3280.173256
 20
3578.304017
 42
-0.015840
  0
VERTEX
  8
0
 10
3280.730499
 20
3613.868981
 42
-0.038442
  0
VERTEX
  8
0
 10
3283.980569
 20
3639.904651
 42
-0.022316
  0
VERTEX
  8
0
 10
3288.055458
 20
3656.157250
 42
-0.013750
  0
VERTEX
  8
0
 10
3294.217575
 20
3674.891200
 42
-0.013443
  0
VERTEX
  8
0
 10
3301.668414
 20
3693.978668
 42
-0.016456
  0
VERTEX
  8
0
 10
3309.686105
 20
3711.371084
 42
-0.042728
  0
VERTEX
  8
0
 10
3333.413755
 20
3750.048721
 42
-0.051219
  0
VERTEX
  8
0
 10
3362.138820
 20
3781.633240
 42
-0.055367
  0
VERTEX
  8
0
 10
3394.480717
 20
3804.712898
 42
-0.068311
  0
VERTEX
  8
0
 10
3428.946869
 20
3818.191193
 42
-0.023823
  0
VERTEX
  8
0
 10
3436.728233
 20
3819.677451
 42
-0.012540
  0
VERTEX
  8
0
 10
3446.506680
 20
3820.816997
 42
-0.012535
  0
VERTEX
  8
0
 10
3456.274765
 20
3821.461300
 42
-0.025178
  0
VERTEX
  8
0
 10
3464.000000
 20
3821.387528
 42
-0.000478
  0
VERTEX
  8
0
 10
3466.730056
 20
3821.221198
 42
-0.000183
  0
VERTEX
  8
0
 10
3470.528125
 20
3820.984754
 42
-0.000181
  0
VERTEX
  8
0
 10
3474.651264
 20
3820.725056
 42
-0.000223
  0
SEQEND
  0
ENDSEC
  0
EOF
