  0
SECTION
  2
HEADER
  9
$ACADVER
  1
AC1006
  9
$EXTMIN
 10
0.000000
 20
0.000000
 30
0.000000
  9
$EXTMAX
 10
7813.000000
 20
7813.000000
 30
0.000000
  0
ENDSEC
  0
SECTION
  2
ENTITIES
  0
POLYLINE
  8
0
 66
1
 70
1
  0
VERTEX
  8
0
 10
4623.000000
 20
4820.925739
 42
0.000331
  0
VERTEX
  8
0
 10
3980.811581
 20
4818.085529
 42
0.001004
  0
VERTEX
  8
0
 10
3543.766762
 20
4814.984988
 42
0.001444
  0
VERTEX
  8
0
 10
3212.322924
 20
4811.010675
 42
0.002187
  0
VERTEX
  8
0
 10
2924.000000
 20
4805.459448
 42
0.001864
  0
VERTEX
  8
0
 10
2790.268234
 20
4801.800528
 42
0.007887
  0
VERTEX
  8
0
 10
2710.205083
 20
4798.046403
 42
0.011979
  0
VERTEX
  8
0
 10
2657.815219
 20
4793.498810
 42
0.052479
  0
VERTEX
  8
0
 10
2627.500000
 20
4786.865835
 42
0.021910
  0
VERTEX
  8
0
 10
2619.225462
 20
4783.712658
 42
0.026822
  0
VERTEX
  8
0
 10
2611.815642
 20
4780.027369
 42
0.022535
  0
VERTEX
  8
0
 10
2603.898990
 20
4775.061581
 42
0.009999
  0
VERTEX
  8
0
 10
2593.899755
 20
4767.843013
 42
0.049990
  0
VERTEX
  8
0
 10
2565.214468
 20
4741.377280
 42
0.091973
  0
VERTEX
  8
0
 10
2548.874812
 20
4714.259888
 42
0.060516
  0
VERTEX
  8
0
 10
2539.546648
 20
4675.805227
 42
0.012149
  0
VERTEX
  8
0
 10
2533.003762
 20
4605.500000
 42
0.008083
  0
VERTEX
  8
0
 10
2530.449848
 20
4556.744872
 42
0.006123
  0
VERTEX
  8
0
 10
2529.168312
 20
4503.187669
 42
0.002682
  0
VERTEX
  8
0
 10
2528.635705
 20
4418.849568
 42
0.000295
  0
VERTEX
  8
0
 10
2528.565775
 20
4225.500000
 42
0.001087
  0
VERTEX
  8
0
 10
2529.294701
 20
3922.159040
 42
0.001762
  0
VERTEX
  8
0
 10
2531.384135
 20
3664.287565
 42
0.001961
  0
VERTEX
  8
0
 10
2534.600597
 20
3457.444533
 42
0.007047
  0
VERTEX
  8
0
 10
2539.030821
 20
3325.500000
 42
0.002789
  0
VERTEX
  8
0
 10
2546.409971
 20
3187.017053
 42
0.003157
  0
VERTEX
  8
0
 10
2555.069978
 20
3054.236439
 42
0.003405
  0
VERTEX
  8
0
 10
2564.464634
 20
2934.425658
 42
0.006068
  0
VERTEX
  8
0
 10
2574.061643
 20
2836.000000
 42
0.022483
  0
VERTEX
  8
0
 10
2610.757953
 20
2600.054786
 42
0.030266
  0
VERTEX
  8
0
 10
2666.273615
 20
2391.169664
 42
0.033496
  0
VERTEX
  8
0
 10
2740.409284
 20
2209.394304
 42
0.043305
  0
VERTEX
  8
0
 10
2833.120145
 20
2055.000000
 42
0.006889
  0
VERTEX
  8
0
 10
2853.799291
 20
2027.289930
 42
0.011054
  0
VERTEX
  8
0
 10
2872.276432
 20
2004.299923
 42
0.010970
  0
VERTEX
  8
0
 10
2891.853870
 20
1982.025319
 42
0.006652
  0
VERTEX
  8
0
 10
2915.934562
 20
1956.500000
 42
0.006251
  0
VERTEX
  8
0
 10
2943.283793
 20
1928.969204
 42
0.007846
  0
VERTEX
  8
0
 10
2969.343693
 20
1904.175057
 42
0.007808
  0
VERTEX
  8
0
 10
2996.273023
 20
1880.113976
 42
0.006090
  0
VERTEX
  8
0
 10
3026.250000
 20
1854.792282
 42
-0.001359
  0
VERTEX
  8
0
 10
3036.503852
 20
1846.295716
 42
-0.002230
  0
VERTEX
  8
0
 10
3045.132433
 20
1839.040777
 42
-0.000249
  0
VERTEX
  8
0
 10
3052.788633
 20
1832.538331
 42
-0.233966
  0
VERTEX
  8
0
 10
3052.966794
 20
1832.124509
 42
-0.166249
  0
VERTEX
  8
0
 10
3052.551983
 20
1831.093762
 42
-0.001254
  0
VERTEX
  8
0
 10
3046.505614
 20
1824.124336
 42
-0.003630
  0
VERTEX
  8
0
 10
3038.485856
 20
1815.060640
 42
-0.001211
  0
VERTEX
  8
0
 10
3026.621503
 20
1801.910658
 42
0.014329
  0
VERTEX
  8
0
 10
3001.234806
 20
1772.244120
 42
0.017122
  0
VERTEX
  8
0
 10
2979.118331
 20
1742.842429
 42
0.018189
  0
VERTEX
  8
0
 10
2960.291715
 20
1713.746790
 42
0.021723
  0
VERTEX
  8
0
 10
2944.792210
 20
1685.000000
 42
0.009108
  0
VERTEX
  8
0
 10
2937.499261
 20
1669.216479
 42
0.035767
  0
VERTEX
  8
0
 10
2933.893829
 20
1659.124271
 42
0.049373
  0
VERTEX
  8
0
 10
2932.360577
 20
1650.347419
 42
0.030421
  0
VERTEX
  8
0
 10
2932.219365
 20
1639.854556
 42
0.010318
  0
VERTEX
  8
0
 10
2932.587592
 20
1634.447994
 42
0.023234
  0
VERTEX
  8
0
 10
2933.140849
 20
1630.377722
 42
0.028017
  0
VERTEX
  8
0
 10
2933.987509
 20
1626.881307
 42
0.024318
  0
VERTEX
  8
0
 10
2935.253283
 20
1623.328156
 42
0.122123
  0
VERTEX
  8
0
 10
2952.763086
 20
1599.508237
 42
0.061918
  0
VERTEX
  8
0
 10
2984.285063
 20
1579.295408
 42
0.045224
  0
VERTEX
  8
0
 10
3030.276064
 20
1562.187652
 42
0.020762
  0
VERTEX
  8
0
 10
3092.692661
 20
1547.953424
 42
0.006114
  0
VERTEX
  8
0
 10
3109.868698
 20
1544.996689
 42
0.002592
  0
VERTEX
  8
0
 10
3132.968562
 20
1541.433119
 42
0.002573
  0
VERTEX
  8
0
 10
3155.933939
 20
1538.132775
 42
0.006701
  0
VERTEX
  8
0
 10
3172.500000
 20
1536.064872
 42
0.010338
  0
VERTEX
  8
0
 10
3214.756410
 20
1532.246836
 42
0.007876
  0
VERTEX
  8
0
 10
3261.157895
 20
1529.753454
 42
0.004700
  0
VERTEX
  8
0
 10
3326.218672
 20
1527.896663
 42
0.001033
  0
VERTEX
  8
0
 10
3438.000000
 20
1525.989003
 42
-0.001176
  0
VERTEX
  8
0
 10
3504.321813
 20
1524.838201
 42
-0.003264
  0
VERTEX
  8
0
 10
3550.939055
 20
1523.615116
 42
-0.004072
  0
VERTEX
  8
0
 10
3591.316925
 20
1521.962628
 42
-0.003002
  0
VERTEX
  8
0
 10
3636.000000
 20
1519.500357
 42
0.003570
  0
VERTEX
  8
0
 10
3649.458114
 20
1518.774095
 42
0.000420
  0
VERTEX
  8
0
 10
3679.440809
 20
1517.395962
 42
0.000527
  0
VERTEX
  8
0
 10
3713.545645
 20
1515.893107
 42
0.000559
  0
VERTEX
  8
0
 10
3747.000000
 20
1514.491740
 42
-0.000158
  0
VERTEX
  8
0
 10
3762.969689
 20
1513.835619
 42
-0.000131
  0
VERTEX
  8
0
 10
3779.946875
 20
1513.128264
 42
-0.000133
  0
VERTEX
  8
0
 10
3795.489945
 20
1512.472441
 42
-0.000360
  0
VERTEX
  8
0
 10
3806.500000
 20
1511.997006
 42
0.000463
  0
VERTEX
  8
0
 10
3828.634303
 20
1511.045752
 42
0.000166
  0
VERTEX
  8
0
 10
3860.151820
 20
1509.730981
 42
0.000151
  0
VERTEX
  8
0
 10
3897.596485
 20
1508.192797
 42
0.000112
  0
VERTEX
  8
0
 10
3939.000000
 20
1506.513853
 42
0.008061
  0
VERTEX
  8
0
 10
4078.565544
 20
1503.138165
 42
0.005962
  0
VERTEX
  8
0
 10
4232.994871
 20
1503.734680
 42
0.006035
  0
VERTEX
  8
0
 10
4383.597186
 20
1507.930776
 42
0.009882
  0
VERTEX
  8
0
 10
4511.000000
 20
1515.544165
 42
0.006431
  0
VERTEX
  8
0
 10
4609.977246
 20
1524.707106
 42
0.011748
  0
VERTEX
  8
0
 10
4690.402387
 20
1535.112970
 42
0.014307
  0
VERTEX
  8
0
 10
4754.914475
 20
1546.904093
 42
0.030462
  0
VERTEX
  8
0
 10
4803.771659
 20
1560.441278
 42
0.042153
  0
VERTEX
  8
0
 10
4839.562794
 20
1576.230028
 42
0.084945
  0
VERTEX
  8
0
 10
4863.681815
 20
1595.306953
 42
0.111125
  0
VERTEX
  8
0
 10
4876.136596
 20
1617.532720
 42
0.115796
  0
VERTEX
  8
0
 10
4877.614214
 20
1642.604115
 42
0.017086
  0
VERTEX
  8
0
 10
4875.740582
 20
1651.576437
 42
0.024353
  0
VERTEX
  8
0
 10
4873.423180
 20
1659.378331
 42
0.021039
  0
VERTEX
  8
0
 10
4870.098438
 20
1667.714526
 42
0.009097
  0
VERTEX
  8
0
 10
4865.009735
 20
1678.530224
 42
0.022255
  0
VERTEX
  8
0
 10
4854.953324
 20
1696.831279
 42
0.014546
  0
VERTEX
  8
0
 10
4841.831974
 20
1717.032355
 42
0.012006
  0
VERTEX
  8
0
 10
4824.932226
 20
1740.252188
 42
0.006580
  0
VERTEX
  8
0
 10
4803.183415
 20
1767.912326
 42
0.000000
  0
VERTEX
  8
0
 10
4786.694176
 20
1788.324652
 42
0.000000
  0
VERTEX
  8
0
 10
4790.658109
 20
1791.912326
 42
-0.004246
  0
VERTEX
  8
0
 10
4793.126638
 20
1794.108695
 42
-0.000488
  0
VERTEX
  8
0
 10
4798.727211
 20
1798.997583
 42
-0.000588
  0
VERTEX
  8
0
 10
4805.401815
 20
1804.798760
 42
-0.000479
  0
VERTEX
  8
0
 10
4812.561021
 20
1810.994339
 42
0.011037
  0
VERTEX
  8
0
 10
4829.929159
 20
1826.678144
 42
0.005706
  0
VERTEX
  8
0
 10
4850.975992
 20
1847.003770
 42
0.005679
  0
VERTEX
  8
0
 10
4871.242234
 20
1867.487571
 42
0.012964
  0
VERTEX
  8
0
 10
4885.944696
 20
1883.500000
 42
0.012414
  0
VERTEX
  8
0
 10
4911.095783
 20
1913.848655
 42
0.011504
  0
VERTEX
  8
0
 10
4935.375580
 20
1946.175603
 42
0.011048
  0
VERTEX
  8
0
 10
4959.077558
 20
1980.888918
 42
0.009487
  0
VERTEX
  8
0
 10
4982.494488
 20
2018.404762
 42
0.021993
  0
VERTEX
  8
0
 10
5033.357648
 20
2112.611648
 42
0.023388
  0
VERTEX
  8
0
 10
5074.618260
 20
2209.039116
 42
0.021344
  0
VERTEX
  8
0
 10
5109.583964
 20
2316.392641
 42
0.013550
  0
VERTEX
  8
0
 10
5141.501158
 20
2444.000000
 42
0.002075
  0
VERTEX
  8
0
 10
5148.321002
 20
2475.404070
 42
0.002606
  0
VERTEX
  8
0
 10
5154.368500
 20
2504.565567
 42
0.002042
  0
VERTEX
  8
0
 10
5161.149584
 20
2538.865063
 42
0.000725
  0
VERTEX
  8
0
 10
5170.573965
 20
2587.961189
 42
-0.000530
  0
VERTEX
  8
0
 10
5175.020585
 20
2611.174734
 42
-0.000873
  0
VERTEX
  8
0
 10
5178.835147
 20
2630.790561
 42
-0.000055
  0
VERTEX
  8
0
 10
5182.300358
 20
2648.435110
 42
-0.148928
  0
VERTEX
  8
0
 10
5182.527025
 20
2648.860359
 42
-0.204274
  0
VERTEX
  8
0
 10
5182.957197
 20
2649.033370
 42
-0.000065
  0
VERTEX
  8
0
 10
5201.691811
 20
2648.644737
 42
-0.001084
  0
VERTEX
  8
0
 10
5222.510640
 20
2648.164993
 42
-0.000656
  0
VERTEX
  8
0
 10
5247.153814
 20
2647.511291
 42
0.003826
  0
VERTEX
  8
0
 10
5297.998767
 20
2646.485040
 42
0.003727
  0
VERTEX
  8
0
 10
5349.298145
 20
2646.224733
 42
0.003807
  0
VERTEX
  8
0
 10
5394.850346
 20
2646.679995
 42
0.011364
  0
VERTEX
  8
0
 10
5426.000000
 20
2647.937054
 42
0.013952
  0
VERTEX
  8
0
 10
5509.916682
 20
2655.591428
 42
0.021939
  0
VERTEX
  8
0
 10
5581.331929
 20
2667.316861
 42
0.025355
  0
VERTEX
  8
0
 10
5642.571646
 20
2683.431226
 42
0.034803
  0
VERTEX
  8
0
 10
5695.500000
 20
2704.423066
 42
0.030955
  0
VERTEX
  8
0
 10
5741.788566
 20
2730.257128
 42
0.033101
  0
VERTEX
  8
0
 10
5783.453750
 20
2761.092282
 42
0.033198
  0
VERTEX
  8
0
 10
5820.578688
 20
2797.066999
 42
0.031516
  0
VERTEX
  8
0
 10
5853.316186
 20
2838.240774
 42
0.029990
  0
VERTEX
  8
0
 10
5882.827730
 20
2886.507892
 42
0.019654
  0
VERTEX
  8
0
 10
5911.163168
 20
2945.240313
 42
0.019117
  0
VERTEX
  8
0
 10
5935.833210
 20
3008.474290
 42
0.022043
  0
VERTEX
  8
0
 10
5954.320104
 20
3070.500000
 42
0.020196
  0
VERTEX
  8
0
 10
5969.166657
 20
3141.831826
 42
0.010394
  0
VERTEX
  8
0
 10
5982.264292
 20
3232.138281
 42
0.009643
  0
VERTEX
  8
0
 10
5992.832375
 20
3333.428508
 42
0.008598
  0
VERTEX
  8
0
 10
5999.966890
 20
3439.000000
 42
0.007221
  0
VERTEX
  8
0
 10
6002.336854
 20
3505.099944
 42
0.006876
  0
VERTEX
  8
0
 10
6002.850790
 20
3572.330226
 42
0.007196
  0
VERTEX
  8
0
 10
6001.570133
 20
3634.796120
 42
0.012905
  0
VERTEX
  8
0
 10
5998.458282
 20
3686.000000
 42
0.010433
  0
VERTEX
  8
0
 10
5994.285450
 20
3724.713580
 42
0.002166
  0
VERTEX
  8
0
 10
5985.240558
 20
3792.541251
 42
0.002290
  0
VERTEX
  8
0
 10
5975.520628
 20
3860.783801
 42
0.008326
  0
VERTEX
  8
0
 10
5968.426120
 20
3904.000000
 42
0.025919
  0
VERTEX
  8
0
 10
5957.442364
 20
3950.660107
 42
0.030061
  0
VERTEX
  8
0
 10
5942.095659
 20
3993.617573
 42
0.031508
  0
VERTEX
  8
0
 10
5922.488402
 20
4032.580922
 42
0.035153
  0
VERTEX
  8
0
 10
5898.762964
 20
4067.297812
 42
0.018644
  0
VERTEX
  8
0
 10
5890.213721
 20
4077.303673
 42
0.009407
  0
VERTEX
  8
0
 10
5878.742151
 20
4089.297304
 42
0.009404
  0
VERTEX
  8
0
 10
5866.853859
 20
4100.825491
 42
0.019063
  0
VERTEX
  8
0
 10
5857.000000
 20
4109.348302
 42
0.040173
  0
VERTEX
  8
0
 10
5818.443057
 20
4135.425870
 42
0.036324
  0
VERTEX
  8
0
 10
5774.919194
 20
4156.009193
 42
0.034071
  0
VERTEX
  8
0
 10
5726.174505
 20
4171.142145
 42
0.027185
  0
VERTEX
  8
0
 10
5672.000000
 20
4180.918911
 42
0.011416
  0
VERTEX
  8
0
 10
5609.943438
 20
4187.230476
 42
0.003480
  0
VERTEX
  8
0
 10
5515.762531
 20
4193.982339
 42
0.003584
  0
VERTEX
  8
0
 10
5414.095419
 20
4199.828579
 42
0.005070
  0
VERTEX
  8
0
 10
5323.500000
 20
4203.466340
 42
-0.001064
  0
VERTEX
  8
0
 10
5315.372799
 20
4203.727471
 42
-0.000864
  0
VERTEX
  8
0
 10
5306.662013
 20
4204.040971
 42
-0.000872
  0
VERTEX
  8
0
 10
5298.635144
 20
4204.357769
 42
-0.002271
  0
VERTEX
  8
0
 10
5292.860044
 20
4204.622073
 42
0.000000
  0
VERTEX
  8
0
 10
5281.220088
 20
4205.207782
 42
0.000000
  0
VERTEX
  8
0
 10
5280.699602
 20
4352.353891
 42
0.000624
  0
VERTEX
  8
0
 10
5280.255019
 20
4445.244157
 42
0.003003
  0
VERTEX
  8
0
 10
5279.618124
 20
4498.137986
 42
0.004627
  0
VERTEX
  8
0
 10
5278.486556
 20
4539.576222
 42
0.003290
  0
VERTEX
  8
0
 10
5276.482791
 20
4586.000000
 42
0.005313
  0
VERTEX
  8
0
 10
5273.599328
 20
4633.726992
 42
0.009163
  0
VERTEX
  8
0
 10
5270.050815
 20
4673.360878
 42
0.010671
  0
VERTEX
  8
0
 10
5265.967549
 20
4704.847772
 42
0.032182
  0
VERTEX
  8
0
 10
5261.358889
 20
4725.987963
 42
0.032008
  0
VERTEX
  8
0
 10
5256.810373
 20
4738.725435
 42
0.033665
  0
VERTEX
  8
0
 10
5250.736809
 20
4750.556303
 42
0.033855
  0
VERTEX
  8
0
 10
5243.166253
 20
4761.404913
 42
0.033164
  0
VERTEX
  8
0
 10
5234.152296
 20
4771.212435
 42
0.019581
  0
VERTEX
  8
0
 10
5226.659849
 20
4777.811384
 42
0.029609
  0
VERTEX
  8
0
 10
5219.607122
 20
4782.886083
 42
0.024419
  0
VERTEX
  8
0
 10
5211.068880
 20
4787.725993
 42
0.008909
  0
VERTEX
  8
0
 10
5198.546315
 20
4793.760301
 42
-0.001937
  0
VERTEX
  8
0
 10
5191.384346
 20
4797.089239
 42
-0.001245
  0
VERTEX
  8
0
 10
5183.101105
 20
4801.003642
 42
-0.001251
  0
VERTEX
  8
0
 10
5175.013083
 20
4804.875291
 42
-0.002349
  0
VERTEX
  8
0
 10
5168.500000
 20
4808.050872
 42
0.006637
  0
VERTEX
  8
0
 10
5160.789593
 20
4811.728725
 42
0.020459
  0
VERTEX
  8
0
 10
5155.449235
 20
4813.929470
 42
0.026699
  0
VERTEX
  8
0
 10
5150.780241
 20
4815.356350
 42
0.019854
  0
VERTEX
  8
0
 10
5145.500000
 20
4816.445985
 42
0.024169
  0
VERTEX
  8
0
 10
5130.193875
 20
4818.221324
 42
0.007803
  0
VERTEX
  8
0
 10
5107.391509
 20
4819.397582
 42
0.005006
  0
VERTEX
  8
0
 10
5073.549098
 20
4820.275022
 42
0.001265
  0
VERTEX
  8
0
 10
5018.500000
 20
4821.011559
 42
0.001191
  0
VERTEX
  8
0
 10
4953.006222
 20
4821.566031
 42
0.001575
  0
VERTEX
  8
0
 10
4893.344170
 20
4821.741019
 42
0.000790
  0
VERTEX
  8
0
 10
4808.907171
 20
4821.589239
 42
0.000095
  0
SEQEND
  0
POLYLINE
  8
0
 66
1
 70
1
  0
VERTEX
  8
0
 10
3714.000000
 20
4053.646053
 42
-0.040102
  0
VERTEX
  8
0
 10
3732.059024
 20
4049.207431
 42
-0.016710
  0
VERTEX
  8
0
 10
3755.607313
 20
4040.489070
 42
-0.016685
  0
VERTEX
  8
0
 10
3779.680044
 20
4029.699270
 42
-0.025057
  0
VERTEX
  8
0
 10
3799.822256
 20
4018.568605
 42
-0.029569
  0
VERTEX
  8
0
 10
3808.092431
 20
4012.738264
 42
-0.016988
  0
VERTEX
  8
0
 10
3817.367527
 20
4004.811805
 42
-0.016620
  0
VERTEX
  8
0
 10
3826.464290
 20
3995.913577
 42
-0.020985
  0
VERTEX
  8
0
 10
3834.236477
 20
3987.073991
 42
-0.045920
  0
VERTEX
  8
0
 10
3857.837730
 20
3951.632899
 42
-0.029570
  0
VERTEX
  8
0
 10
3878.724259
 20
3906.872125
 42
-0.027640
  0
VERTEX
  8
0
 10
3895.669683
 20
3856.112861
 42
-0.025624
  0
VERTEX
  8
0
 10
3907.416956
 20
3802.500000
 42
-0.006545
  0
VERTEX
  8
0
 10
3910.654951
 20
3781.273470
 42
-0.015237
  0
VERTEX
  8
0
 10
3912.385898
 20
3765.280991
 42
-0.014185
  0
VERTEX
  8
0
 10
3913.206228
 20
3748.544636
 42
-0.004991
  0
VERTEX
  8
0
 10
3913.461764
 20
3724.500000
 42
-0.007133
  0
VERTEX
  8
0
 10
3913.102948
 20
3698.157203
 42
-0.020375
  0
VERTEX
  8
0
 10
3911.846404
 20
3679.876911
 42
-0.022881
  0
VERTEX
  8
0
 10
3909.201321
 20
3662.962817
 42
-0.011146
  0
VERTEX
  8
0
 10
3904.363486
 20
3641.646263
 42
-0.014330
  0
VERTEX
  8
0
 10
3895.171083
 20
3608.956301
 42
-0.015866
  0
VERTEX
  8
0
 10
3884.395038
 20
3577.952420
 42
-0.016673
  0
VERTEX
  8
0
 10
3873.328219
 20
3551.746379
 42
-0.049825
  0
VERTEX
  8
0
 10
3863.460082
 20
3535.000000
 42
-0.026123
  0
VERTEX
  8
0
 10
3848.916699
 20
3517.172599
 42
-0.018807
  0
VERTEX
  8
0
 10
3830.959789
 20
3498.806681
 42
-0.019004
  0
VERTEX
  8
0
 10
3812.728718
 20
3482.783068
 42
-0.043716
  0
VERTEX
  8
0
 10
3797.623829
 20
3472.545087
 42
-0.035937
  0
VERTEX
  8
0
 10
3782.594320
 20
3465.534613
 42
-0.020327
  0
VERTEX
  8
0
 10
3763.532872
 20
3459.134064
 42
-0.018892
  0
VERTEX
  8
0
 10
3742.031814
 20
3453.746252
 42
-0.017191
  0
VERTEX
  8
0
 10
3719.500000
 20
3449.800301
 42
-0.027466
  0
VERTEX
  8
0
 10
3706.669279
 20
3448.719041
 42
-0.009344
  0
VERTEX
  8
0
 10
3687.956592
 20
3448.523156
 42
-0.008851
  0
VERTEX
  8
0
 10
3669.523535
 20
3449.001067
 42
-0.036927
  0
VERTEX
  8
0
 10
3658.500000
 20
3450.301694
 42
-0.037193
  0
VERTEX
  8
0
 10
3636.377218
 20
3456.320067
 42
-0.029959
  0
VERTEX
  8
0
 10
3613.671248
 20
3465.916467
 42
-0.028361
  0
VERTEX
  8
0
 10
3591.005045
 20
3478.788364
 42
-0.025225
  0
VERTEX
  8
0
 10
3569.000000
 20
3494.618496
 42
-0.020702
  0
VERTEX
  8
0
 10
3559.208716
 20
3503.127698
 42
-0.007928
  0
VERTEX
  8
0
 10
3546.285526
 20
3515.727006
 42
-0.007978
  0
VERTEX
  8
0
 10
3533.691180
 20
3528.812458
 42
-0.019148
  0
VERTEX
  8
0
 10
3524.898692
 20
3539.000000
 42
-0.016922
  0
VERTEX
  8
0
 10
3509.652095
 20
3559.482225
 42
-0.019325
  0
VERTEX
  8
0
 10
3496.524001
 20
3580.081110
 42
-0.019468
  0
VERTEX
  8
0
 10
3485.107230
 20
3601.493868
 42
-0.017691
  0
VERTEX
  8
0
 10
3474.993638
 20
3624.415878
 42
-0.041874
  0
VERTEX
  8
0
 10
3458.433925
 20
3678.630133
 42
-0.047720
  0
VERTEX
  8
0
 10
3452.080224
 20
3732.510070
 42
-0.044062
  0
VERTEX
  8
0
 10
3455.889683
 20
3790.098313
 42
-0.028310
  0
VERTEX
  8
0
 10
3469.903395
 20
3855.613043
 42
-0.008711
  0
VERTEX
  8
0
 10
3476.779773
 20
3879.105355
 42
-0.012592
  0
VERTEX
  8
0
 10
3483.736230
 20
3899.591144
 42
-0.013480
  0
VERTEX
  8
0
 10
3491.307820
 20
3918.575637
 42
-0.012720
  0
VERTEX
  8
0
 10
3500.030370
 20
3937.500000
 42
-0.017545
  0
VERTEX
  8
0
 10
3510.502290
 20
3957.018912
 42
-0.023412
  0
VERTEX
  8
0
 10
3521.427986
 20
3973.903445
 42
-0.024326
  0
VERTEX
  8
0
 10
3533.520078
 20
3989.173260
 42
-0.021674
  0
VERTEX
  8
0
 10
3547.492115
 20
4003.821868
 42
-0.019855
  0
VERTEX
  8
0
 10
3558.055416
 20
4013.199086
 42
-0.020662
  0
VERTEX
  8
0
 10
3569.193853
 20
4021.578426
 42
-0.020424
  0
VERTEX
  8
0
 10
3581.109151
 20
4029.095351
 42
-0.018462
  0
VERTEX
  8
0
 10
3594.000000
 20
4035.889302
 42
-0.019425
  0
VERTEX
  8
0
 10
3605.848602
 20
4041.028909
 42
-0.007876
  0
VERTEX
  8
0
 10
3622.355004
 20
4047.141946
 42
-0.007122
  0
VERTEX
  8
0
 10
3638.554131
 20
4052.594543
 42
-0.034233
  0
VERTEX
  8
0
 10
3648.000000
 20
4054.926154
 42
-0.043661
  0
VERTEX
  8
0
 10
3657.524036
 20
4055.750075
 42
-0.004605
  0
VERTEX
  8
0
 10
3679.867683
 20
4055.522552
 42
-0.005406
  0
VERTEX
  8
0
 10
3702.105425
 20
4054.850676
 42
-0.029967
  0
SEQEND
  0
POLYLINE
  8
0
 66
1
 70
1
  0
VERTEX
  8
0
 10
4253.000000
 20
4051.930807
 42
-0.022106
  0
VERTEX
  8
0
 10
4269.209344
 20
4049.707315
 42
-0.024574
  0
VERTEX
  8
0
 10
4284.587452
 20
4046.112055
 42
-0.024103
  0
VERTEX
  8
0
 10
4299.795984
 20
4040.953680
 42
-0.019773
  0
VERTEX
  8
0
 10
4315.500000
 20
4034.039589
 42
-0.047931
  0
VERTEX
  8
0
 10
4344.387205
 20
4016.326024
 42
-0.043655
  0
VERTEX
  8
0
 10
4370.370266
 20
3992.927437
 42
-0.041055
  0
VERTEX
  8
0
 10
4393.272334
 20
3963.922992
 42
-0.033256
  0
VERTEX
  8
0
 10
4412.973403
 20
3929.500000
 42
-0.034074
  0
VERTEX
  8
0
 10
4432.417525
 20
3881.545281
 42
-0.023224
  0
VERTEX
  8
0
 10
4448.154588
 20
3824.826961
 42
-0.023415
  0
VERTEX
  8
0
 10
4458.046827
 20
3769.648134
 42
-0.053191
  0
VERTEX
  8
0
 10
4459.074524
 20
3727.343970
 42
-0.013134
  0
VERTEX
  8
0
 10
4456.798208
 20
3706.399643
 42
-0.010658
  0
VERTEX
  8
0
 10
4453.292038
 20
3684.083628
 42
-0.010896
  0
VERTEX
  8
0
 10
4448.996952
 20
3662.780158
 42
-0.017919
  0
VERTEX
  8
0
 10
4444.332231
 20
3645.000000
 42
-0.033930
  0
VERTEX
  8
0
 10
4430.719982
 20
3608.862538
 42
-0.029034
  0
VERTEX
  8
0
 10
4411.712079
 20
3572.891741
 42
-0.028738
  0
VERTEX
  8
0
 10
4388.424205
 20
3538.971558
 42
-0.031321
  0
VERTEX
  8
0
 10
4362.011885
 20
3508.961788
 42
-0.028428
  0
VERTEX
  8
0
 10
4337.073263
 20
3486.661373
 42
-0.037115
  0
VERTEX
  8
0
 10
4311.799014
 20
3469.423290
 42
-0.039667
  0
VERTEX
  8
0
 10
4285.749612
 20
3456.997569
 42
-0.041737
  0
VERTEX
  8
0
 10
4258.500000
 20
3449.091937
 42
-0.043247
  0
VERTEX
  8
0
 10
4224.160976
 20
3445.212307
 42
-0.037521
  0
VERTEX
  8
0
 10
4187.961065
 20
3446.985466
 42
-0.037054
  0
VERTEX
  8
0
 10
4151.955364
 20
3454.210190
 42
-0.039467
  0
VERTEX
  8
0
 10
4118.192165
 20
3466.572770
 42
-0.026184
  0
VERTEX
  8
0
 10
4109.372204
 20
3471.189727
 42
-0.027042
  0
VERTEX
  8
0
 10
4101.181322
 20
3476.658236
 42
-0.022265
  0
VERTEX
  8
0
 10
4092.394750
 20
3483.869820
 42
-0.010301
  0
VERTEX
  8
0
 10
4081.604885
 20
3493.969922
 42
-0.017472
  0
VERTEX
  8
0
 10
4062.139944
 20
3514.332561
 42
-0.030048
  0
VERTEX
  8
0
 10
4047.611851
 20
3532.751687
 42
-0.032428
  0
VERTEX
  8
0
 10
4036.154033
 20
3551.739704
 42
-0.025050
  0
VERTEX
  8
0
 10
4026.117468
 20
3573.739264
 42
-0.017585
  0
VERTEX
  8
0
 10
4017.902940
 20
3596.759324
 42
-0.011678
  0
VERTEX
  8
0
 10
4010.039509
 20
3623.675289
 42
-0.011717
  0
VERTEX
  8
0
 10
4003.495114
 20
3650.716521
 42
-0.018784
  0
VERTEX
  8
0
 10
3999.328057
 20
3674.086585
 42
-0.028017
  0
VERTEX
  8
0
 10
3997.991301
 20
3690.180270
 42
-0.005356
  0
VERTEX
  8
0
 10
3997.517615
 20
3719.525037
 42
-0.005783
  0
VERTEX
  8
0
 10
3997.699318
 20
3749.136508
 42
-0.020774
  0
VERTEX
  8
0
 10
3998.818177
 20
3768.000000
 42
-0.021889
  0
VERTEX
  8
0
 10
4004.702077
 20
3808.418601
 42
-0.018133
  0
VERTEX
  8
0
 10
4014.389349
 20
3850.823666
 42
-0.018386
  0
VERTEX
  8
0
 10
4026.903429
 20
3891.621646
 42
-0.025309
  0
VERTEX
  8
0
 10
4041.302537
 20
3927.155775
 42
-0.027647
  0
VERTEX
  8
0
 10
4054.357321
 20
3951.578908
 42
-0.026356
  0
VERTEX
  8
0
 10
4070.219792
 20
3974.821598
 42
-0.027492
  0
VERTEX
  8
0
 10
4087.532846
 20
3995.105868
 42
-0.041178
  0
VERTEX
  8
0
 10
4104.925392
 20
4010.576475
 42
-0.040724
  0
VERTEX
  8
0
 10
4122.562715
 20
4021.714665
 42
-0.016190
  0
VERTEX
  8
0
 10
4148.365930
 20
4034.162735
 42
-0.016056
  0
VERTEX
  8
0
 10
4174.729242
 20
4044.845763
 42
-0.044679
  0
VERTEX
  8
0
 10
4194.000000
 20
4050.046421
 42
-0.021716
  0
VERTEX
  8
0
 10
4207.149492
 20
4051.777188
 42
-0.013880
  0
VERTEX
  8
0
 10
4222.538095
 20
4052.696772
 42
-0.013652
  0
VERTEX
  8
0
 10
4238.393222
 20
4052.770114
 42
-0.017362
  0
SEQEND
  0
POLYLINE
  8
0
 66
1
 70
1
  0
VERTEX
  8
0
 10
5398.500000
 20
3911.023438
 42
-0.015975
  0
VERTEX
  8
0
 10
5435.155834
 20
3907.661233
 42
-0.013761
  0
VERTEX
  8
0
 10
5473.405258
 20
3901.843854
 42
-0.014218
  0
VERTEX
  8
0
 10
5508.942082
 20
3894.384975
 42
-0.026838
  0
VERTEX
  8
0
 10
5537.010973
 20
3886.039851
 42
-0.059804
  0
VERTEX
  8
0
 10
5581.598874
 20
3863.831264
 42
-0.064150
  0
VERTEX
  8
0
 10
5618.499840
 20
3832.132724
 42
-0.059729
  0
VERTEX
  8
0
 10
5648.139956
 20
3790.052233
 42
-0.042276
  0
VERTEX
  8
0
 10
5671.187634
 20
3737.000000
 42
-0.009281
  0
VERTEX
  8
0
 10
5675.507360
 20
3723.363211
 42
-0.007290
  0
VERTEX
  8
0
 10
5679.697756
 20
3708.433206
 42
-0.007298
  0
VERTEX
  8
0
 10
5683.444748
 20
3693.411764
 42
-0.009397
  0
VERTEX
  8
0
 10
5686.425416
 20
3679.500000
 42
-0.034206
  0
VERTEX
  8
0
 10
5696.950347
 20
3594.978002
 42
-0.015041
  0
VERTEX
  8
0
 10
5699.817404
 20
3482.218647
 42
-0.014683
  0
VERTEX
  8
0
 10
5695.680118
 20
3360.663096
 42
-0.017721
  0
VERTEX
  8
0
 10
5684.410535
 20
3247.000000
 42
-0.009428
  0
VERTEX
  8
0
 10
5677.275220
 20
3200.765310
 42
-0.018642
  0
VERTEX
  8
0
 10
5669.562735
 20
3164.448044
 42
-0.022760
  0
VERTEX
  8
0
 10
5660.477499
 20
3134.228668
 42
-0.027893
  0
VERTEX
  8
0
 10
5649.178918
 20
3107.000000
 42
-0.044787
  0
VERTEX
  8
0
 10
5633.582536
 20
3080.899318
 42
-0.074869
  0
VERTEX
  8
0
 10
5615.674448
 20
3062.709256
 42
-0.054362
  0
VERTEX
  8
0
 10
5589.304739
 20
3047.076446
 42
-0.014166
  0
VERTEX
  8
0
 10
5543.829587
 20
3027.947086
 42
-0.013902
  0
VERTEX
  8
0
 10
5495.149622
 20
3010.614718
 42
-0.012999
  0
VERTEX
  8
0
 10
5444.485785
 20
2995.592378
 42
-0.013137
  0
VERTEX
  8
0
 10
5393.705626
 20
2983.381649
 42
-0.015128
  0
VERTEX
  8
0
 10
5344.681087
 20
2974.488200
 42
-0.004352
  0
VERTEX
  8
0
 10
5324.594548
 20
2971.647356
 42
-0.001628
  0
VERTEX
  8
0
 10
5296.368160
 20
2967.999106
 42
-0.001589
  0
VERTEX
  8
0
 10
5268.449785
 20
2964.573144
 42
-0.005229
  0
VERTEX
  8
0
 10
5250.000000
 20
2962.564068
 42
0.000037
  0
VERTEX
  8
0
 10
5243.633723
 20
2961.937644
 42
0.000038
  0
VERTEX
  8
0
 10
5237.322400
 20
2961.315679
 42
0.000036
  0
VERTEX
  8
0
 10
5231.846699
 20
2960.775242
 42
0.000159
  0
VERTEX
  8
0
 10
5228.608169
 20
2960.454328
 42
0.000000
  0
VERTEX
  8
0
 10
5222.716338
 20
2959.868594
 42
0.000000
  0
VERTEX
  8
0
 10
5223.400838
 20
2969.684297
 42
-0.007552
  0
VERTEX
  8
0
 10
5223.918266
 20
2975.776773
 42
-0.000835
  0
VERTEX
  8
0
 10
5225.335174
 20
2989.688512
 42
-0.001019
  0
VERTEX
  8
0
 10
5227.083161
 20
3006.241770
 42
-0.000824
  0
VERTEX
  8
0
 10
5229.024598
 20
3024.000000
 42
0.004428
  0
VERTEX
  8
0
 10
5244.296457
 20
3173.669220
 42
0.004541
  0
VERTEX
  8
0
 10
5256.775670
 20
3322.333377
 42
0.004707
  0
VERTEX
  8
0
 10
5266.120823
 20
3465.352728
 42
0.005918
  0
VERTEX
  8
0
 10
5271.961059
 20
3598.000000
 42
-0.000467
  0
VERTEX
  8
0
 10
5272.388291
 20
3610.903138
 42
-0.000487
  0
VERTEX
  8
0
 10
5272.833824
 20
3623.625000
 42
-0.000468
  0
VERTEX
  8
0
 10
5273.239920
 20
3634.620570
 42
-0.002144
  0
VERTEX
  8
0
 10
5273.508906
 20
3641.000000
 42
0.007712
  0
VERTEX
  8
0
 10
5273.756732
 20
3648.990591
 42
0.000337
  0
VERTEX
  8
0
 10
5274.172750
 20
3676.894534
 42
0.000572
  0
VERTEX
  8
0
 10
5274.606003
 20
3709.989067
 42
0.000408
  0
VERTEX
  8
0
 10
5275.018492
 20
3747.045221
 42
-0.000687
  0
VERTEX
  8
0
 10
5275.672154
 20
3802.966389
 42
-0.002681
  0
VERTEX
  8
0
 10
5276.309039
 20
3837.530994
 42
-0.003696
  0
VERTEX
  8
0
 10
5277.203615
 20
3866.215015
 42
-0.002392
  0
VERTEX
  8
0
 10
5278.642959
 20
3899.395877
 42
0.000000
  0
VERTEX
  8
0
 10
5279.312348
 20
3913.291754
 42
0.000000
  0
VERTEX
  8
0
 10
5329.906174
 20
3912.693921
 42
-0.001526
  0
VERTEX
  8
0
 10
5350.596037
 20
3912.386304
 42
-0.001608
  0
VERTEX
  8
0
 10
5370.925564
 20
3911.956610
 42
-0.001536
  0
VERTEX
  8
0
 10
5388.454851
 20
3911.475839
 42
-0.007258
  0
SEQEND
  0
POLYLINE
  8
0
 66
1
 70
1
  0
VERTEX
  8
0
 10
3323.916475
 20
3615.563022
 42
-0.052126
  0
VERTEX
  8
0
 10
3347.010764
 20
3609.045074
 42
-0.044471
  0
VERTEX
  8
0
 10
3369.600356
 20
3597.623752
 42
-0.036669
  0
VERTEX
  8
0
 10
3393.449662
 20
3580.223632
 42
-0.019252
  0
VERTEX
  8
0
 10
3420.522629
 20
3555.398537
 42
-0.024200
  0
VERTEX
  8
0
 10
3447.164933
 20
3526.325279
 42
-0.024905
  0
VERTEX
  8
0
 10
3470.603106
 20
3495.081094
 42
-0.022946
  0
VERTEX
  8
0
 10
3492.379454
 20
3459.396696
 42
-0.015449
  0
VERTEX
  8
0
 10
3514.048925
 20
3416.857677
 42
-0.022323
  0
VERTEX
  8
0
 10
3536.179081
 20
3363.867100
 42
-0.037454
  0
VERTEX
  8
0
 10
3549.324576
 20
3317.470999
 42
-0.043745
  0
VERTEX
  8
0
 10
3554.135236
 20
3275.376658
 42
-0.051920
  0
VERTEX
  8
0
 10
3551.042910
 20
3235.500000
 42
-0.031240
  0
VERTEX
  8
0
 10
3543.639126
 20
3205.710292
 42
-0.045109
  0
VERTEX
  8
0
 10
3533.170587
 20
3180.686198
 42
-0.044708
  0
VERTEX
  8
0
 10
3518.304675
 20
3157.783066
 42
-0.029974
  0
VERTEX
  8
0
 10
3497.587525
 20
3134.399589
 42
-0.028202
  0
VERTEX
  8
0
 10
3475.560233
 20
3114.708180
 42
-0.041383
  0
VERTEX
  8
0
 10
3453.986198
 20
3100.251999
 42
-0.040505
  0
VERTEX
  8
0
 10
3429.974582
 20
3089.336294
 42
-0.025568
  0
VERTEX
  8
0
 10
3400.500000
 20
3080.393364
 42
-0.026915
  0
VERTEX
  8
0
 10
3385.772276
 20
3077.566403
 42
-0.050153
  0
VERTEX
  8
0
 10
3373.640185
 20
3077.134301
 42
-0.045102
  0
VERTEX
  8
0
 10
3360.838636
 20
3079.131487
 42
-0.017847
  0
VERTEX
  8
0
 10
3343.708485
 20
3084.068405
 42
-0.034829
  0
VERTEX
  8
0
 10
3320.400192
 20
3093.538353
 42
-0.030354
  0
VERTEX
  8
0
 10
3297.489383
 20
3106.542027
 42
-0.029092
  0
VERTEX
  8
0
 10
3275.376458
 20
3122.838116
 42
-0.026125
  0
VERTEX
  8
0
 10
3254.454694
 20
3142.153667
 42
-0.007565
  0
VERTEX
  8
0
 10
3244.675223
 20
3152.485766
 42
-0.014867
  0
VERTEX
  8
0
 10
3237.273359
 20
3161.044118
 42
-0.015252
  0
VERTEX
  8
0
 10
3230.514502
 20
3169.882920
 42
-0.008431
  0
VERTEX
  8
0
 10
3222.778382
 20
3181.059170
 42
-0.043717
  0
VERTEX
  8
0
 10
3199.393443
 20
3223.740469
 42
-0.028769
  0
VERTEX
  8
0
 10
3179.846393
 20
3276.255983
 42
-0.026674
  0
VERTEX
  8
0
 10
3165.006882
 20
3335.490731
 42
-0.023531
  0
VERTEX
  8
0
 10
3155.800891
 20
3398.500000
 42
-0.019411
  0
VERTEX
  8
0
 10
3154.720050
 20
3416.733737
 42
-0.006593
  0
VERTEX
  8
0
 10
3154.528736
 20
3443.290075
 42
-0.006270
  0
VERTEX
  8
0
 10
3155.013834
 20
3469.476301
 42
-0.025578
  0
VERTEX
  8
0
 10
3156.320383
 20
3485.333565
 42
-0.032823
  0
VERTEX
  8
0
 10
3164.400681
 20
3525.405534
 42
-0.050227
  0
VERTEX
  8
0
 10
3177.040007
 20
3558.485425
 42
-0.059317
  0
VERTEX
  8
0
 10
3193.890859
 20
3583.991551
 42
-0.084921
  0
VERTEX
  8
0
 10
3214.598316
 20
3601.399014
 42
-0.020647
  0
VERTEX
  8
0
 10
3222.268959
 20
3605.473808
 42
-0.014990
  0
VERTEX
  8
0
 10
3231.109202
 20
3609.390312
 42
-0.014687
  0
VERTEX
  8
0
 10
3240.415288
 20
3612.868662
 42
-0.016827
  0
VERTEX
  8
0
 10
3249.500000
 20
3615.625935
 42
-0.020422
  0
VERTEX
  8
0
 10
3255.672092
 20
3617.007318
 42
-0.031459
  0
VERTEX
  8
0
 10
3261.104355
 20
3617.642763
 42
-0.015472
  0
VERTEX
  8
0
 10
3268.775526
 20
3617.816215
 42
-0.001673
  0
VERTEX
  8
0
 10
3286.500000
 20
3617.609155
 42
-0.003152
  0
VERTEX
  8
0
 10
3299.815751
 20
3617.325057
 42
-0.006749
  0
VERTEX
  8
0
 10
3310.087135
 20
3616.902318
 42
-0.008574
  0
VERTEX
  8
0
 10
3318.045959
 20
3616.330059
 42
-0.020501
  0
SEQEND
  0
POLYLINE
  8
0
 66
1
 70
1
  0
VERTEX
  8
0
 10
4650.072590
 20
3613.430720
 42
-0.038123
  0
VERTEX
  8
0
 10
4670.367685
 20
3609.056212
 42
-0.041230
  0
VERTEX
  8
0
 10
4689.215654
 20
3601.725836
 42
-0.044190
  0
VERTEX
  8
0
 10
4705.299147
 20
3592.048717
 42
-0.064083
  0
VERTEX
  8
0
 10
4717.320309
 20
3580.669587
 42
-0.033642
  0
VERTEX
  8
0
 10
4724.678325
 20
3570.309953
 42
-0.017609
  0
VERTEX
  8
0
 10
4732.474313
 20
3556.538061
 42
-0.017097
  0
VERTEX
  8
0
 10
4739.719935
 20
3541.372321
 42
-0.020485
  0
VERTEX
  8
0
 10
4745.449666
 20
3526.623661
 42
-0.027940
  0
VERTEX
  8
0
 10
4749.781158
 20
3511.196141
 42
-0.022092
  0
VERTEX
  8
0
 10
4752.776637
 20
3494.122331
 42
-0.018056
  0
VERTEX
  8
0
 10
4754.685763
 20
3473.739493
 42
-0.009169
  0
VERTEX
  8
0
 10
4755.688695
 20
3448.000000
 42
-0.018511
  0
VERTEX
  8
0
 10
4755.007984
 20
3406.523041
 42
-0.019432
  0
VERTEX
  8
0
 10
4751.246546
 20
3365.880968
 42
-0.019208
  0
VERTEX
  8
0
 10
4744.285148
 20
3325.219040
 42
-0.017217
  0
VERTEX
  8
0
 10
4734.014414
 20
3283.681011
 42
-0.020831
  0
VERTEX
  8
0
 10
4718.820894
 20
3237.599307
 42
-0.033164
  0
VERTEX
  8
0
 10
4701.659736
 20
3199.826257
 42
-0.036302
  0
VERTEX
  8
0
 10
4680.961173
 20
3167.198315
 42
-0.032978
  0
VERTEX
  8
0
 10
4655.139233
 20
3136.778039
 42
-0.017070
  0
VERTEX
  8
0
 10
4640.169319
 20
3122.351738
 42
-0.022885
  0
VERTEX
  8
0
 10
4625.598383
 20
3110.398894
 42
-0.024083
  0
VERTEX
  8
0
 10
4610.635823
 20
3100.313483
 42
-0.022788
  0
VERTEX
  8
0
 10
4594.500000
 20
3091.511694
 42
-0.030333
  0
VERTEX
  8
0
 10
4573.918457
 20
3082.975619
 42
-0.029164
  0
VERTEX
  8
0
 10
4552.185780
 20
3076.862715
 42
-0.028491
  0
VERTEX
  8
0
 10
4529.393136
 20
3073.209858
 42
-0.026071
  0
VERTEX
  8
0
 10
4505.644045
 20
3072.025800
 42
-0.067651
  0
VERTEX
  8
0
 10
4450.071287
 20
3079.710575
 42
-0.094250
  0
VERTEX
  8
0
 10
4405.200880
 20
3101.966890
 42
-0.098759
  0
VERTEX
  8
0
 10
4373.071802
 20
3138.193945
 42
-0.081221
  0
VERTEX
  8
0
 10
4354.513735
 20
3186.534150
 42
-0.024445
  0
VERTEX
  8
0
 10
4351.580222
 20
3205.235807
 42
-0.022157
  0
VERTEX
  8
0
 10
4350.360248
 20
3224.759750
 42
-0.020599
  0
VERTEX
  8
0
 10
4350.842935
 20
3245.657955
 42
-0.015590
  0
VERTEX
  8
0
 10
4353.030115
 20
3268.500000
 42
-0.047041
  0
VERTEX
  8
0
 10
4370.802772
 20
3347.734802
 42
-0.036746
  0
VERTEX
  8
0
 10
4404.193914
 20
3429.402821
 42
-0.037269
  0
VERTEX
  8
0
 10
4448.387832
 20
3503.787856
 42
-0.054476
  0
VERTEX
  8
0
 10
4498.548830
 20
3561.044812
 42
-0.017586
  0
VERTEX
  8
0
 10
4517.633745
 20
3577.361083
 42
-0.022336
  0
VERTEX
  8
0
 10
4536.396806
 20
3590.970245
 42
-0.024753
  0
VERTEX
  8
0
 10
4554.188928
 20
3601.475287
 42
-0.040327
  0
VERTEX
  8
0
 10
4570.308339
 20
3608.352279
 42
-0.037414
  0
VERTEX
  8
0
 10
4587.646416
 20
3612.739644
 42
-0.027374
  0
VERTEX
  8
0
 10
4607.369839
 20
3615.084212
 42
-0.025882
  0
VERTEX
  8
0
 10
4628.499400
 20
3615.334183
 42
-0.024046
  0
SEQEND
  0
POLYLINE
  8
0
 66
1
 70
1
  0
VERTEX
  8
0
 10
3982.537628
 20
3435.052851
 42
-0.029327
  0
VERTEX
  8
0
 10
4020.904472
 20
3428.370253
 42
-0.035146
  0
VERTEX
  8
0
 10
4055.906737
 20
3417.491127
 42
-0.035845
  0
VERTEX
  8
0
 10
4088.459532
 20
3402.035738
 42
-0.032802
  0
VERTEX
  8
0
 10
4119.500000
 20
3381.676478
 42
-0.028503
  0
VERTEX
  8
0
 10
4129.705691
 20
3373.026483
 42
-0.006939
  0
VERTEX
  8
0
 10
4145.498639
 20
3357.591124
 42
-0.007349
  0
VERTEX
  8
0
 10
4161.113780
 20
3341.431821
 42
-0.020486
  0
VERTEX
  8
0
 10
4171.423794
 20
3329.500000
 42
-0.015143
  0
VERTEX
  8
0
 10
4181.402398
 20
3316.135657
 42
-0.007000
  0
VERTEX
  8
0
 10
4193.596770
 20
3298.198850
 42
-0.006022
  0
VERTEX
  8
0
 10
4207.666250
 20
3276.298258
 42
-0.003837
  0
VERTEX
  8
0
 10
4223.530003
 20
3250.500000
 42
0.008400
  0
VERTEX
  8
0
 10
4256.830844
 20
3197.436356
 42
0.016891
  0
VERTEX
  8
0
 10
4285.187258
 20
3156.952553
 42
0.016193
  0
VERTEX
  8
0
 10
4316.978880
 20
3117.411373
 42
0.007087
  0
VERTEX
  8
0
 10
4361.527769
 20
3067.000000
 42
-0.004235
  0
VERTEX
  8
0
 10
4399.226159
 20
3024.827879
 42
-0.017765
  0
VERTEX
  8
0
 10
4420.746795
 20
2998.509788
 42
-0.027167
  0
VERTEX
  8
0
 10
4435.486479
 20
2976.760199
 42
-0.023555
  0
VERTEX
  8
0
 10
4448.557159
 20
2952.500000
 42
-0.021213
  0
VERTEX
  8
0
 10
4459.660100
 20
2926.576591
 42
-0.041977
  0
VERTEX
  8
0
 10
4465.804186
 20
2905.075305
 42
-0.041245
  0
VERTEX
  8
0
 10
4468.331189
 20
2882.605026
 42
-0.019773
  0
VERTEX
  8
0
 10
4468.040861
 20
2853.557980
 42
-0.019704
  0
VERTEX
  8
0
 10
4465.151985
 20
2821.162149
 42
-0.030276
  0
VERTEX
  8
0
 10
4459.866596
 20
2793.512382
 42
-0.033254
  0
VERTEX
  8
0
 10
4451.765611
 20
2768.726444
 42
-0.032488
  0
VERTEX
  8
0
 10
4440.397824
 20
2745.032018
 42
-0.029644
  0
VERTEX
  8
0
 10
4431.423869
 20
2731.079165
 42
-0.021008
  0
VERTEX
  8
0
 10
4419.819054
 20
2716.516301
 42
-0.020721
  0
VERTEX
  8
0
 10
4406.788836
 20
2702.704276
 42
-0.025534
  0
VERTEX
  8
0
 10
4393.500000
 20
2691.001413
 42
-0.027591
  0
VERTEX
  8
0
 10
4373.060601
 20
2676.538778
 42
-0.019182
  0
VERTEX
  8
0
 10
4348.544866
 20
2662.427977
 42
-0.018907
  0
VERTEX
  8
0
 10
4322.479319
 20
2649.961969
 42
-0.023430
  0
VERTEX
  8
0
 10
4297.323472
 20
2640.451808
 42
-0.037997
  0
VERTEX
  8
0
 10
4246.832561
 20
2628.168935
 42
-0.036544
  0
VERTEX
  8
0
 10
4194.397444
 20
2623.457040
 42
-0.032234
  0
VERTEX
  8
0
 10
4136.176207
 20
2626.246871
 42
-0.019570
  0
VERTEX
  8
0
 10
4068.000000
 20
2636.652681
 42
0.002579
  0
VERTEX
  8
0
 10
4048.277250
 20
2640.352546
 42
0.002935
  0
VERTEX
  8
0
 10
4029.348739
 20
2643.687759
 42
0.003073
  0
VERTEX
  8
0
 10
4011.244512
 20
2646.653891
 42
0.003578
  0
VERTEX
  8
0
 10
3994.000000
 20
2649.244109
 42
0.009664
  0
VERTEX
  8
0
 10
3984.604938
 20
2650.401826
 42
0.013328
  0
VERTEX
  8
0
 10
3976.129644
 20
2651.052531
 42
0.009812
  0
VERTEX
  8
0
 10
3965.887494
 20
2651.363466
 42
0.002807
  0
VERTEX
  8
0
 10
3950.000000
 20
2651.444690
 42
0.011480
  0
VERTEX
  8
0
 10
3924.302717
 20
2650.841720
 42
0.019786
  0
VERTEX
  8
0
 10
3902.987915
 20
2649.004422
 42
0.009839
  0
VERTEX
  8
0
 10
3873.790355
 20
2644.733987
 42
0.001009
  0
VERTEX
  8
0
 10
3805.000000
 20
2633.143243
 42
-0.004818
  0
VERTEX
  8
0
 10
3784.582154
 20
2629.862707
 42
-0.004630
  0
VERTEX
  8
0
 10
3763.832103
 20
2626.929812
 42
-0.004658
  0
VERTEX
  8
0
 10
3743.165899
 20
2624.399330
 42
-0.005046
  0
VERTEX
  8
0
 10
3723.000000
 20
2622.326464
 42
-0.015293
  0
VERTEX
  8
0
 10
3702.032391
 20
2621.029976
 42
-0.006481
  0
VERTEX
  8
0
 10
3673.859725
 20
2620.516966
 42
-0.005537
  0
VERTEX
  8
0
 10
3646.638937
 20
2620.675640
 42
-0.033057
  0
VERTEX
  8
0
 10
3632.500000
 20
2621.851777
 42
-0.030977
  0
VERTEX
  8
0
 10
3585.820105
 20
2631.850916
 42
-0.035345
  0
VERTEX
  8
0
 10
3542.813522
 20
2647.238964
 42
-0.037745
  0
VERTEX
  8
0
 10
3505.103653
 20
2667.339763
 42
-0.049041
  0
VERTEX
  8
0
 10
3474.266550
 20
2691.430344
 42
-0.036958
  0
VERTEX
  8
0
 10
3458.643228
 20
2708.688305
 42
-0.029232
  0
VERTEX
  8
0
 10
3444.353139
 20
2729.424625
 42
-0.026953
  0
VERTEX
  8
0
 10
3431.499311
 20
2753.461984
 42
-0.021427
  0
VERTEX
  8
0
 10
3420.191547
 20
2780.637098
 42
-0.017377
  0
VERTEX
  8
0
 10
3415.796655
 20
2794.046426
 42
-0.039351
  0
VERTEX
  8
0
 10
3413.642301
 20
2804.496793
 42
-0.026677
  0
VERTEX
  8
0
 10
3412.723366
 20
2817.363088
 42
-0.004515
  0
VERTEX
  8
0
 10
3412.503348
 20
2842.000000
 42
-0.002254
  0
VERTEX
  8
0
 10
3412.585218
 20
2859.770470
 42
-0.007516
  0
VERTEX
  8
0
 10
3412.866908
 20
2871.433925
 42
-0.011055
  0
VERTEX
  8
0
 10
3413.411788
 20
2880.313271
 42
-0.013915
  0
VERTEX
  8
0
 10
3414.326129
 20
2888.500000
 42
-0.014526
  0
VERTEX
  8
0
 10
3417.599507
 20
2907.788582
 42
-0.015838
  0
VERTEX
  8
0
 10
3421.911222
 20
2926.301082
 42
-0.016307
  0
VERTEX
  8
0
 10
3427.246978
 20
2943.980479
 42
-0.017757
  0
VERTEX
  8
0
 10
3433.590738
 20
2960.771204
 42
-0.018764
  0
VERTEX
  8
0
 10
3441.842550
 20
2978.563030
 42
-0.011880
  0
VERTEX
  8
0
 10
3452.717091
 20
2998.680958
 42
-0.011898
  0
VERTEX
  8
0
 10
3464.122004
 20
3017.573968
 42
-0.026322
  0
VERTEX
  8
0
 10
3473.895592
 20
3031.277789
 42
-0.019567
  0
VERTEX
  8
0
 10
3482.272124
 20
3040.997822
 42
-0.006552
  0
VERTEX
  8
0
 10
3495.240721
 20
3054.546463
 42
-0.006011
  0
VERTEX
  8
0
 10
3511.110749
 20
3070.313500
 42
-0.004466
  0
VERTEX
  8
0
 10
3529.000000
 20
3087.356911
 42
0.004094
  0
VERTEX
  8
0
 10
3579.600142
 20
3135.492927
 42
0.018186
  0
VERTEX
  8
0
 10
3608.045249
 20
3165.075783
 42
0.022558
  0
VERTEX
  8
0
 10
3631.311594
 20
3193.594488
 42
0.008768
  0
VERTEX
  8
0
 10
3660.976013
 20
3235.000000
 42
-0.005754
  0
VERTEX
  8
0
 10
3683.777200
 20
3267.234573
 42
-0.011115
  0
VERTEX
  8
0
 10
3702.881725
 20
3292.397750
 42
-0.013291
  0
VERTEX
  8
0
 10
3720.475828
 20
3313.363154
 42
-0.014971
  0
VERTEX
  8
0
 10
3738.496124
 20
3332.524909
 42
-0.017632
  0
VERTEX
  8
0
 10
3761.634680
 20
3354.119165
 42
-0.025047
  0
VERTEX
  8
0
 10
3783.764752
 20
3371.491915
 42
-0.023887
  0
VERTEX
  8
0
 10
3808.315976
 20
3387.148783
 42
-0.014132
  0
VERTEX
  8
0
 10
3838.953691
 20
3403.556332
 42
-0.009194
  0
VERTEX
  8
0
 10
3862.408666
 20
3414.742675
 42
-0.017386
  0
VERTEX
  8
0
 10
3881.767474
 20
3422.742420
 42
-0.020228
  0
VERTEX
  8
0
 10
3899.478193
 20
3428.545679
 42
-0.019786
  0
VERTEX
  8
0
 10
3917.730285
 20
3432.947076
 42
-0.001828
  0
VERTEX
  8
0
 10
3923.641919
 20
3434.104888
 42
-0.002222
  0
VERTEX
  8
0
 10
3929.189521
 20
3435.144823
 42
-0.001871
  0
VERTEX
  8
0
 10
3933.863617
 20
3435.981474
 42
-0.015461
  0
VERTEX
  8
0
 10
3936.000000
 20
3436.287901
 42
-0.024994
  0
VERTEX
  8
0
 10
3944.827294
 20
3436.832039
 42
-0.009530
  0
VERTEX
  8
0
 10
3957.152674
 20
3436.739936
 42
-0.009485
  0
VERTEX
  8
0
 10
3970.420988
 20
3436.135793
 42
-0.012335
  0
SEQEND
  0
ENDSEC
  0
EOF
