  0
SECTION
  2
HEADER
  9
$ACADVER
  1
AC1006
  9
$EXTMIN
 10
0.000000
 20
0.000000
 30
0.000000
  9
$EXTMAX
 10
7813.000000
 20
7813.000000
 30
0.000000
  0
ENDSEC
  0
SECTION
  2
ENTITIES
  0
POLYLINE
  8
0
 66
1
 70
1
  0
VERTEX
  8
0
 10
4623.000000
 20
4820.925739
 42
0.000331
  0
VERTEX
  8
0
 10
3980.811581
 20
4818.085529
 42
0.001004
  0
VERTEX
  8
0
 10
3543.766762
 20
4814.984988
 42
0.001444
  0
VERTEX
  8
0
 10
3212.322924
 20
4811.010675
 42
0.002187
  0
VERTEX
  8
0
 10
2924.000000
 20
4805.459448
 42
0.001864
  0
VERTEX
  8
0
 10
2790.268234
 20
4801.800528
 42
0.007887
  0
VERTEX
  8
0
 10
2710.205083
 20
4798.046403
 42
0.011979
  0
VERTEX
  8
0
 10
2657.815219
 20
4793.498810
 42
0.052479
  0
VERTEX
  8
0
 10
2627.500000
 20
4786.865835
 42
0.021910
  0
VERTEX
  8
0
 10
2619.225462
 20
4783.712658
 42
0.026822
  0
VERTEX
  8
0
 10
2611.815642
 20
4780.027369
 42
0.022535
  0
VERTEX
  8
0
 10
2603.898990
 20
4775.061581
 42
0.009999
  0
VERTEX
  8
0
 10
2593.899755
 20
4767.843013
 42
0.049990
  0
VERTEX
  8
0
 10
2565.214468
 20
4741.377280
 42
0.091973
  0
VERTEX
  8
0
 10
2548.874812
 20
4714.259888
 42
0.060516
  0
VERTEX
  8
0
 10
2539.546648
 20
4675.805227
 42
0.012149
  0
VERTEX
  8
0
 10
2533.003762
 20
4605.500000
 42
0.008083
  0
VERTEX
  8
0
 10
2530.449848
 20
4556.744872
 42
0.006123
  0
VERTEX
  8
0
 10
2529.168312
 20
4503.187669
 42
0.002682
  0
VERTEX
  8
0
 10
2528.635705
 20
4418.849568
 42
0.000295
  0
VERTEX
  8
0
 10
2528.565775
 20
4225.500000
 42
0.001087
  0
VERTEX
  8
0
 10
2529.294701
 20
3922.159040
 42
0.001762
  0
VERTEX
  8
0
 10
2531.384135
 20
3664.287565
 42
0.001961
  0
VERTEX
  8
0
 10
2534.600597
 20
3457.444533
 42
0.007047
  0
VERTEX
  8
0
 10
2539.030821
 20
3325.500000
 42
0.002789
  0
VERTEX
  8
0
 10
2546.409971
 20
3187.017053
 42
0.003157
  0
VERTEX
  8
0
 10
2555.069978
 20
3054.236439
 42
0.003405
  0
VERTEX
  8
0
 10
2564.464634
 20
2934.425658
 42
0.006068
  0
VERTEX
  8
0
 10
2574.061643
 20
2836.000000
 42
0.022483
  0
VERTEX
  8
0
 10
2610.757953
 20
2600.054786
 42
0.030266
  0
VERTEX
  8
0
 10
2666.273615
 20
2391.169664
 42
0.033496
  0
VERTEX
  8
0
 10
2740.409284
 20
2209.394304
 42
0.043305
  0
VERTEX
  8
0
 10
2833.120145
 20
2055.000000
 42
0.006889
  0
VERTEX
  8
0
 10
2853.799291
 20
2027.289930
 42
0.011054
  0
VERTEX
  8
0
 10
2872.276432
 20
2004.299923
 42
0.010970
  0
VERTEX
  8
0
 10
2891.853870
 20
1982.025319
 42
0.006652
  0
VERTEX
  8
0
 10
2915.934562
 20
1956.500000
 42
0.006251
  0
VERTEX
  8
0
 10
2943.283793
 20
1928.969204
 42
0.007846
  0
VERTEX
  8
0
 10
2969.343693
 20
1904.175057
 42
0.007808
  0
VERTEX
  8
0
 10
2996.273023
 20
1880.113976
 42
0.006090
  0
VERTEX
  8
0
 10
3026.250000
 20
1854.792282
 42
-0.001359
  0
VERTEX
  8
0
 10
3036.503852
 20
1846.295716
 42
-0.002230
  0
VERTEX
  8
0
 10
3045.132433
 20
1839.040777
 42
-0.000249
  0
VERTEX
  8
0
 10
3052.788633
 20
1832.538331
 42
-0.233966
  0
VERTEX
  8
0
 10
3052.966794
 20
1832.124509
 42
-0.166249
  0
VERTEX
  8
0
 10
3052.551983
 20
1831.093762
 42
-0.001254
  0
VERTEX
  8
0
 10
3046.505614
 20
1824.124336
 42
-0.003630
  0
VERTEX
  8
0
 10
3038.485856
 20
1815.060640
 42
-0.001211
  0
VERTEX
  8
0
 10
3026.621503
 20
1801.910658
 42
0.014329
  0
VERTEX
  8
0
 10
3001.234806
 20
1772.244120
 42
0.017122
  0
VERTEX
  8
0
 10
2979.118331
 20
1742.842429
 42
0.018189
  0
VERTEX
  8
0
 10
2960.291715
 20
1713.746790
 42
0.021723
  0
VERTEX
  8
0
 10
2944.792210
 20
1685.000000
 42
0.009108
  0
VERTEX
  8
0
 10
2937.499261
 20
1669.216479
 42
0.035767
  0
VERTEX
  8
0
 10
2933.893829
 20
1659.124271
 42
0.049373
  0
VERTEX
  8
0
 10
2932.360577
 20
1650.347419
 42
0.030421
  0
VERTEX
  8
0
 10
2932.219365
 20
1639.854556
 42
0.010318
  0
VERTEX
  8
0
 10
2932.587592
 20
1634.447994
 42
0.023234
  0
VERTEX
  8
0
 10
2933.140849
 20
1630.377722
 42
0.028017
  0
VERTEX
  8
0
 10
2933.987509
 20
1626.881307
 42
0.024318
  0
VERTEX
  8
0
 10
2935.253283
 20
1623.328156
 42
0.122123
  0
VERTEX
  8
0
 10
2952.763086
 20
1599.508237
 42
0.061918
  0
VERTEX
  8
0
 10
2984.285063
 20
1579.295408
 42
0.045224
  0
VERTEX
  8
0
 10
3030.276064
 20
1562.187652
 42
0.020762
  0
VERTEX
  8
0
 10
3092.692661
 20
1547.953424
 42
0.006114
  0
VERTEX
  8
0
 10
3109.868698
 20
1544.996689
 42
0.002592
  0
VERTEX
  8
0
 10
3132.968562
 20
1541.433119
 42
0.002573
  0
VERTEX
  8
0
 10
3155.933939
 20
1538.132775
 42
0.006701
  0
VERTEX
  8
0
 10
3172.500000
 20
1536.064872
 42
0.010338
  0
VERTEX
  8
0
 10
3214.756410
 20
1532.246836
 42
0.007876
  0
VERTEX
  8
0
 10
3261.157895
 20
1529.753454
 42
0.004700
  0
VERTEX
  8
0
 10
3326.218672
 20
1527.896663
 42
0.001033
  0
VERTEX
  8
0
 10
3438.000000
 20
1525.989003
 42
-0.001176
  0
VERTEX
  8
0
 10
3504.321813
 20
1524.838201
 42
-0.003264
  0
VERTEX
  8
0
 10
3550.939055
 20
1523.615116
 42
-0.004072
  0
VERTEX
  8
0
 10
3591.316925
 20
1521.962628
 42
-0.003002
  0
VERTEX
  8
0
 10
3636.000000
 20
1519.500357
 42
0.003570
  0
VERTEX
  8
0
 10
3649.458114
 20
1518.774095
 42
0.000420
  0
VERTEX
  8
0
 10
3679.440809
 20
1517.395962
 42
0.000527
  0
VERTEX
  8
0
 10
3713.545645
 20
1515.893107
 42
0.000559
  0
VERTEX
  8
0
 10
3747.000000
 20
1514.491740
 42
-0.000158
  0
VERTEX
  8
0
 10
3762.969689
 20
1513.835619
 42
-0.000131
  0
VERTEX
  8
0
 10
3779.946875
 20
1513.128264
 42
-0.000133
  0
VERTEX
  8
0
 10
3795.489945
 20
1512.472441
 42
-0.000360
  0
VERTEX
  8
0
 10
3806.500000
 20
1511.997006
 42
0.000463
  0
VERTEX
  8
0
 10
3828.634303
 20
1511.045752
 42
0.000166
  0
VERTEX
  8
0
 10
3860.151820
 20
1509.730981
 42
0.000151
  0
VERTEX
  8
0
 10
3897.596485
 20
1508.192797
 42
0.000112
  0
VERTEX
  8
0
 10
3939.000000
 20
1506.513853
 42
0.008061
  0
VERTEX
  8
0
 10
4078.565544
 20
1503.138165
 42
0.005962
  0
VERTEX
  8
0
 10
4232.994871
 20
1503.734680
 42
0.006035
  0
VERTEX
  8
0
 10
4383.597186
 20
1507.930776
 42
0.009882
  0
VERTEX
  8
0
 10
4511.000000
 20
1515.544165
 42
0.006431
  0
VERTEX
  8
0
 10
4609.977246
 20
1524.707106
 42
0.011748
  0
VERTEX
  8
0
 10
4690.402387
 20
1535.112970
 42
0.014307
  0
VERTEX
  8
0
 10
4754.914475
 20
1546.904093
 42
0.030462
  0
VERTEX
  8
0
 10
4803.771659
 20
1560.441278
 42
0.042153
  0
VERTEX
  8
0
 10
4839.562794
 20
1576.230028
 42
0.084945
  0
VERTEX
  8
0
 10
4863.681815
 20
1595.306953
 42
0.111125
  0
VERTEX
  8
0
 10
4876.136596
 20
1617.532720
 42
0.115796
  0
VERTEX
  8
0
 10
4877.614214
 20
1642.604115
 42
0.017086
  0
VERTEX
  8
0
 10
4875.740582
 20
1651.576437
 42
0.024353
  0
VERTEX
  8
0
 10
4873.423180
 20
1659.378331
 42
0.021039
  0
VERTEX
  8
0
 10
4870.098438
 20
1667.714526
 42
0.009097
  0
VERTEX
  8
0
 10
4865.009735
 20
1678.530224
 42
0.022255
  0
VERTEX
  8
0
 10
4854.953324
 20
1696.831279
 42
0.014546
  0
VERTEX
  8
0
 10
4841.831974
 20
1717.032355
 42
0.012006
  0
VERTEX
  8
0
 10
4824.932226
 20
1740.252188
 42
0.006580
  0
VERTEX
  8
0
 10
4803.183415
 20
1767.912326
 42
0.000000
  0
VERTEX
  8
0
 10
4786.694176
 20
1788.324652
 42
0.000000
  0
VERTEX
  8
0
 10
4790.658109
 20
1791.912326
 42
-0.004246
  0
VERTEX
  8
0
 10
4793.126638
 20
1794.108695
 42
-0.000488
  0
VERTEX
  8
0
 10
4798.727211
 20
1798.997583
 42
-0.000588
  0
VERTEX
  8
0
 10
4805.401815
 20
1804.798760
 42
-0.000479
  0
VERTEX
  8
0
 10
4812.561021
 20
1810.994339
 42
0.011037
  0
VERTEX
  8
0
 10
4829.929159
 20
1826.678144
 42
0.005706
  0
VERTEX
  8
0
 10
4850.975992
 20
1847.003770
 42
0.005679
  0
VERTEX
  8
0
 10
4871.242234
 20
1867.487571
 42
0.012964
  0
VERTEX
  8
0
 10
4885.944696
 20
1883.500000
 42
0.012414
  0
VERTEX
  8
0
 10
4911.095783
 20
1913.848655
 42
0.011504
  0
VERTEX
  8
0
 10
4935.375580
 20
1946.175603
 42
0.011048
  0
VERTEX
  8
0
 10
4959.077558
 20
1980.888918
 42
0.009487
  0
VERTEX
  8
0
 10
4982.494488
 20
2018.404762
 42
0.021993
  0
VERTEX
  8
0
 10
5033.357648
 20
2112.611648
 42
0.023388
  0
VERTEX
  8
0
 10
5074.618260
 20
2209.039116
 42
0.021344
  0
VERTEX
  8
0
 10
5109.583964
 20
2316.392641
 42
0.013550
  0
VERTEX
  8
0
 10
5141.501158
 20
2444.000000
 42
0.002075
  0
VERTEX
  8
0
 10
5148.321002
 20
2475.404070
 42
0.002606
  0
VERTEX
  8
0
 10
5154.368500
 20
2504.565567
 42
0.002042
  0
VERTEX
  8
0
 10
5161.149584
 20
2538.865063
 42
0.000725
  0
VERTEX
  8
0
 10
5170.573965
 20
2587.961189
 42
-0.000530
  0
VERTEX
  8
0
 10
5175.020585
 20
2611.174734
 42
-0.000873
  0
VERTEX
  8
0
 10
5178.835147
 20
2630.790561
 42
-0.000055
  0
VERTEX
  8
0
 10
5182.300358
 20
2648.435110
 42
-0.148928
  0
VERTEX
  8
0
 10
5182.527025
 20
2648.860359
 42
-0.204274
  0
VERTEX
  8
0
 10
5182.957197
 20
2649.033370
 42
-0.000065
  0
VERTEX
  8
0
 10
5201.691811
 20
2648.644737
 42
-0.001084
  0
VERTEX
  8
0
 10
5222.510640
 20
2648.164993
 42
-0.000656
  0
VERTEX
  8
0
 10
5247.153814
 20
2647.511291
 42
0.003826
  0
VERTEX
  8
0
 10
5297.998767
 20
2646.485040
 42
0.003727
  0
VERTEX
  8
0
 10
5349.298145
 20
2646.224733
 42
0.003807
  0
VERTEX
  8
0
 10
5394.850346
 20
2646.679995
 42
0.011364
  0
VERTEX
  8
0
 10
5426.000000
 20
2647.937054
 42
0.013952
  0
VERTEX
  8
0
 10
5509.916682
 20
2655.591428
 42
0.021939
  0
VERTEX
  8
0
 10
5581.331929
 20
2667.316861
 42
0.025355
  0
VERTEX
  8
0
 10
5642.571646
 20
2683.431226
 42
0.034803
  0
VERTEX
  8
0
 10
5695.500000
 20
2704.423066
 42
0.030955
  0
VERTEX
  8
0
 10
5741.788566
 20
2730.257128
 42
0.033101
  0
VERTEX
  8
0
 10
5783.453750
 20
2761.092282
 42
0.033198
  0
VERTEX
  8
0
 10
5820.578688
 20
2797.066999
 42
0.031516
  0
VERTEX
  8
0
 10
5853.316186
 20
2838.240774
 42
0.029990
  0
VERTEX
  8
0
 10
5882.827730
 20
2886.507892
 42
0.019654
  0
VERTEX
  8
0
 10
5911.163168
 20
2945.240313
 42
0.019117
  0
VERTEX
  8
0
 10
5935.833210
 20
3008.474290
 42
0.022043
  0
VERTEX
  8
0
 10
5954.320104
 20
3070.500000
 42
0.020196
  0
VERTEX
  8
0
 10
5969.166657
 20
3141.831826
 42
0.010394
  0
VERTEX
  8
0
 10
5982.264292
 20
3232.138281
 42
0.009643
  0
VERTEX
  8
0
 10
5992.832375
 20
3333.428508
 42
0.008598
  0
VERTEX
  8
0
 10
5999.966890
 20
3439.000000
 42
0.007221
  0
VERTEX
  8
0
 10
6002.336854
 20
3505.099944
 42
0.006876
  0
VERTEX
  8
0
 10
6002.850790
 20
3572.330226
 42
0.007196
  0
VERTEX
  8
0
 10
6001.570133
 20
3634.796120
 42
0.012905
  0
VERTEX
  8
0
 10
5998.458282
 20
3686.000000
 42
0.010433
  0
VERTEX
  8
0
 10
5994.285450
 20
3724.713580
 42
0.002166
  0
VERTEX
  8
0
 10
5985.240558
 20
3792.541251
 42
0.002290
  0
VERTEX
  8
0
 10
5975.520628
 20
3860.783801
 42
0.008326
  0
VERTEX
  8
0
 10
5968.426120
 20
3904.000000
 42
0.025919
  0
VERTEX
  8
0
 10
5957.442364
 20
3950.660107
 42
0.030061
  0
VERTEX
  8
0
 10
5942.095659
 20
3993.617573
 42
0.031508
  0
VERTEX
  8
0
 10
5922.488402
 20
4032.580922
 42
0.035153
  0
VERTEX
  8
0
 10
5898.762964
 20
4067.297812
 42
0.018641
  0
VERTEX
  8
0
 10
5890.218452
 20
4077.298243
 42
0.009396
  0
VERTEX
  8
0
 10
5878.749194
 20
4089.290269
 42
0.009393
  0
VERTEX
  8
0
 10
5866.860210
 20
4100.820954
 42
0.019002
  0
VERTEX
  8
0
 10
5857.000000
 20
4109.353095
 42
0.040348
  0
VERTEX
  8
0
 10
5818.496993
 20
4135.393851
 42
0.036240
  0
VERTEX
  8
0
 10
5774.933329
 20
4155.985924
 42
0.033996
  0
VERTEX
  8
0
 10
5726.141306
 20
4171.140385
 42
0.027255
  0
VERTEX
  8
0
 10
5672.000000
 20
4180.918911
 42
0.011416
  0
VERTEX
  8
0
 10
5609.943438
 20
4187.230476
 42
0.003480
  0
VERTEX
  8
0
 10
5515.762531
 20
4193.982339
 42
0.003584
  0
VERTEX
  8
0
 10
5414.095419
 20
4199.828579
 42
0.005070
  0
VERTEX
  8
0
 10
5323.500000
 20
4203.466340
 42
-0.001064
  0
VERTEX
  8
0
 10
5315.372799
 20
4203.727471
 42
-0.000864
  0
VERTEX
  8
0
 10
5306.662013
 20
4204.040971
 42
-0.000872
  0
VERTEX
  8
0
 10
5298.635144
 20
4204.357769
 42
-0.002271
  0
VERTEX
  8
0
 10
5292.860044
 20
4204.622073
 42
0.000000
  0
VERTEX
  8
0
 10
5281.220088
 20
4205.207782
 42
0.000000
  0
VERTEX
  8
0
 10
5280.699602
 20
4352.353891
 42
0.000624
  0
VERTEX
  8
0
 10
5280.255019
 20
4445.244157
 42
0.003003
  0
VERTEX
  8
0
 10
5279.618124
 20
4498.137986
 42
0.004627
  0
VERTEX
  8
0
 10
5278.486556
 20
4539.576222
 42
0.003290
  0
VERTEX
  8
0
 10
5276.482791
 20
4586.000000
 42
0.005313
  0
VERTEX
  8
0
 10
5273.599328
 20
4633.726992
 42
0.009163
  0
VERTEX
  8
0
 10
5270.050815
 20
4673.360878
 42
0.010671
  0
VERTEX
  8
0
 10
5265.967549
 20
4704.847772
 42
0.032182
  0
VERTEX
  8
0
 10
5261.358889
 20
4725.987963
 42
0.032008
  0
VERTEX
  8
0
 10
5256.810373
 20
4738.725435
 42
0.033665
  0
VERTEX
  8
0
 10
5250.736809
 20
4750.556303
 42
0.033855
  0
VERTEX
  8
0
 10
5243.166253
 20
4761.404913
 42
0.033164
  0
VERTEX
  8
0
 10
5234.152296
 20
4771.212435
 42
0.019581
  0
VERTEX
  8
0
 10
5226.659849
 20
4777.811384
 42
0.029609
  0
VERTEX
  8
0
 10
5219.607122
 20
4782.886083
 42
0.024419
  0
VERTEX
  8
0
 10
5211.068880
 20
4787.725993
 42
0.008909
  0
VERTEX
  8
0
 10
5198.546315
 20
4793.760301
 42
-0.001937
  0
VERTEX
  8
0
 10
5191.384346
 20
4797.089239
 42
-0.001245
  0
VERTEX
  8
0
 10
5183.101105
 20
4801.003642
 42
-0.001251
  0
VERTEX
  8
0
 10
5175.013083
 20
4804.875291
 42
-0.002349
  0
VERTEX
  8
0
 10
5168.500000
 20
4808.050872
 42
0.006637
  0
VERTEX
  8
0
 10
5160.789593
 20
4811.728725
 42
0.020459
  0
VERTEX
  8
0
 10
5155.449235
 20
4813.929470
 42
0.026699
  0
VERTEX
  8
0
 10
5150.780241
 20
4815.356350
 42
0.019854
  0
VERTEX
  8
0
 10
5145.500000
 20
4816.445985
 42
0.024169
  0
VERTEX
  8
0
 10
5130.193875
 20
4818.221324
 42
0.007803
  0
VERTEX
  8
0
 10
5107.391509
 20
4819.397582
 42
0.005006
  0
VERTEX
  8
0
 10
5073.549098
 20
4820.275022
 42
0.001265
  0
VERTEX
  8
0
 10
5018.500000
 20
4821.011559
 42
0.001191
  0
VERTEX
  8
0
 10
4953.006222
 20
4821.566031
 42
0.001575
  0
VERTEX
  8
0
 10
4893.344170
 20
4821.741019
 42
0.000790
  0
VERTEX
  8
0
 10
4808.907171
 20
4821.589239
 42
0.000095
  0
SEQEND
  0
POLYLINE
  8
0
 66
1
 70
1
  0
VERTEX
  8
0
 10
4057.058042
 20
4165.457368
 42
-0.006618
  0
VERTEX
  8
0
 10
4075.639720
 20
4163.932726
 42
-0.009826
  0
VERTEX
  8
0
 10
4091.862509
 20
4162.062849
 42
-0.010375
  0
VERTEX
  8
0
 10
4107.310850
 20
4159.646518
 42
-0.008814
  0
VERTEX
  8
0
 10
4123.513100
 20
4156.471107
 42
-0.023843
  0
VERTEX
  8
0
 10
4176.121335
 20
4142.541629
 42
-0.021788
  0
VERTEX
  8
0
 10
4228.804312
 20
4123.305854
 42
-0.022723
  0
VERTEX
  8
0
 10
4276.363919
 20
4100.968569
 42
-0.039676
  0
VERTEX
  8
0
 10
4313.146521
 20
4077.710614
 42
-0.035849
  0
VERTEX
  8
0
 10
4354.358479
 20
4041.941359
 42
-0.026017
  0
VERTEX
  8
0
 10
4394.986834
 20
3996.751319
 42
-0.025230
  0
VERTEX
  8
0
 10
4432.153023
 20
3945.757668
 42
-0.027184
  0
VERTEX
  8
0
 10
4463.001996
 20
3892.500000
 42
-0.042181
  0
VERTEX
  8
0
 10
4491.531527
 20
3822.366842
 42
-0.042735
  0
VERTEX
  8
0
 10
4507.733475
 20
3748.744895
 42
-0.039611
  0
VERTEX
  8
0
 10
4511.908366
 20
3668.559182
 42
-0.028031
  0
VERTEX
  8
0
 10
4504.412397
 20
3578.682776
 42
-0.009403
  0
VERTEX
  8
0
 10
4499.172196
 20
3545.806872
 42
-0.009885
  0
VERTEX
  8
0
 10
4492.775573
 20
3513.697295
 42
-0.008457
  0
VERTEX
  8
0
 10
4484.253363
 20
3477.836708
 42
-0.004313
  0
VERTEX
  8
0
 10
4472.401186
 20
3433.077986
 42
0.003553
  0
VERTEX
  8
0
 10
4458.374285
 20
3380.430451
 42
0.017785
  0
VERTEX
  8
0
 10
4451.781220
 20
3350.626610
 42
0.023176
  0
VERTEX
  8
0
 10
4448.152829
 20
3324.072255
 42
0.008957
  0
VERTEX
  8
0
 10
4445.496059
 20
3287.000000
 42
-0.002626
  0
VERTEX
  8
0
 10
4444.252090
 20
3265.897269
 42
-0.009566
  0
VERTEX
  8
0
 10
4443.135945
 20
3252.523129
 42
-0.014523
  0
VERTEX
  8
0
 10
4441.811563
 20
3242.504995
 42
-0.017633
  0
VERTEX
  8
0
 10
4439.969516
 20
3233.214912
 42
-0.036791
  0
VERTEX
  8
0
 10
4436.438349
 20
3221.981019
 42
-0.048631
  0
VERTEX
  8
0
 10
4431.532465
 20
3212.448252
 42
-0.038909
  0
VERTEX
  8
0
 10
4424.023678
 20
3202.576065
 42
-0.014636
  0
VERTEX
  8
0
 10
4412.084968
 20
3189.946884
 42
-0.033142
  0
VERTEX
  8
0
 10
4392.053240
 20
3172.449668
 42
-0.051235
  0
VERTEX
  8
0
 10
4372.471339
 20
3160.462065
 42
-0.038753
  0
VERTEX
  8
0
 10
4347.177142
 20
3150.666614
 42
-0.011368
  0
VERTEX
  8
0
 10
4306.990838
 20
3139.576120
 42
0.004087
  0
VERTEX
  8
0
 10
4277.957480
 20
3132.016724
 42
0.021670
  0
VERTEX
  8
0
 10
4262.300851
 20
3127.066616
 42
0.039968
  0
VERTEX
  8
0
 10
4252.209961
 20
3122.445451
 42
0.058911
  0
VERTEX
  8
0
 10
4244.326589
 20
3116.733391
 42
0.081914
  0
VERTEX
  8
0
 10
4237.643307
 20
3108.168521
 42
0.066103
  0
VERTEX
  8
0
 10
4233.448714
 20
3097.261605
 42
0.036424
  0
VERTEX
  8
0
 10
4230.711797
 20
3080.548092
 42
0.007344
  0
VERTEX
  8
0
 10
4228.459665
 20
3050.500000
 42
-0.004117
  0
VERTEX
  8
0
 10
4227.230019
 20
3032.539571
 42
-0.007577
  0
VERTEX
  8
0
 10
4225.887832
 20
3017.951175
 42
-0.008565
  0
VERTEX
  8
0
 10
4224.478112
 20
3006.643460
 42
-0.035162
  0
VERTEX
  8
0
 10
4223.029188
 20
2999.893701
 42
-0.056795
  0
VERTEX
  8
0
 10
4221.214277
 20
2995.543135
 42
-0.022297
  0
VERTEX
  8
0
 10
4217.794291
 20
2990.005731
 42
-0.022134
  0
VERTEX
  8
0
 10
4213.625905
 20
2984.431856
 42
-0.030405
  0
VERTEX
  8
0
 10
4209.373686
 20
2979.841462
 42
-0.049287
  0
VERTEX
  8
0
 10
4194.223131
 20
2967.977402
 42
-0.029230
  0
VERTEX
  8
0
 10
4174.152882
 20
2956.819368
 42
-0.025308
  0
VERTEX
  8
0
 10
4149.576912
 20
2946.476552
 42
-0.017124
  0
VERTEX
  8
0
 10
4120.658728
 20
2937.101461
 42
-0.019848
  0
VERTEX
  8
0
 10
4086.768608
 20
2928.823530
 42
-0.024751
  0
VERTEX
  8
0
 10
4054.730824
 20
2923.968892
 42
-0.018830
  0
VERTEX
  8
0
 10
4016.138731
 20
2921.525159
 42
-0.006268
  0
VERTEX
  8
0
 10
3959.500000
 20
2920.786238
 42
-0.002253
  0
VERTEX
  8
0
 10
3922.479826
 20
2920.934218
 42
-0.011912
  0
VERTEX
  8
0
 10
3902.201044
 20
2921.589987
 42
-0.020545
  0
VERTEX
  8
0
 10
3887.558280
 20
2923.018263
 42
-0.020207
  0
VERTEX
  8
0
 10
3873.000000
 20
2925.648283
 42
-0.014931
  0
VERTEX
  8
0
 10
3861.168026
 20
2928.656820
 42
-0.007781
  0
VERTEX
  8
0
 10
3846.600838
 20
2933.074021
 42
-0.007758
  0
VERTEX
  8
0
 10
3832.363369
 20
2937.879141
 42
-0.017058
  0
VERTEX
  8
0
 10
3821.674410
 20
2942.088115
 42
-0.058748
  0
VERTEX
  8
0
 10
3794.671341
 20
2957.786513
 42
-0.047197
  0
VERTEX
  8
0
 10
3769.800211
 20
2980.417907
 42
-0.048867
  0
VERTEX
  8
0
 10
3750.656897
 20
3006.100793
 42
-0.084341
  0
VERTEX
  8
0
 10
3740.930805
 20
3030.839342
 42
-0.040129
  0
VERTEX
  8
0
 10
3740.509068
 20
3034.166292
 42
-0.001437
  0
VERTEX
  8
0
 10
3739.955788
 20
3047.024554
 42
-0.002640
  0
VERTEX
  8
0
 10
3739.425386
 20
3062.237891
 42
-0.001846
  0
VERTEX
  8
0
 10
3738.981315
 20
3079.393181
 42
0.001462
  0
VERTEX
  8
0
 10
3738.466060
 20
3099.907280
 42
0.004901
  0
VERTEX
  8
0
 10
3737.957440
 20
3113.343155
 42
0.002506
  0
VERTEX
  8
0
 10
3737.441122
 20
3123.140519
 42
0.160113
  0
VERTEX
  8
0
 10
3736.820513
 20
3124.716269
 42
0.127582
  0
VERTEX
  8
0
 10
3732.252869
 20
3128.006756
 42
0.014365
  0
VERTEX
  8
0
 10
3720.113066
 20
3132.325109
 42
0.010567
  0
VERTEX
  8
0
 10
3700.688631
 20
3138.161814
 42
0.002180
  0
VERTEX
  8
0
 10
3666.214440
 20
3147.569624
 42
-0.003248
  0
VERTEX
  8
0
 10
3638.644333
 20
3155.156667
 42
-0.004522
  0
VERTEX
  8
0
 10
3614.074034
 20
3162.330721
 42
-0.004913
  0
VERTEX
  8
0
 10
3593.808481
 20
3168.665244
 42
-0.015969
  0
VERTEX
  8
0
 10
3580.561765
 20
3173.421508
 42
-0.064193
  0
VERTEX
  8
0
 10
3561.433999
 20
3183.992123
 42
-0.049110
  0
VERTEX
  8
0
 10
3543.626119
 20
3199.967618
 42
-0.048082
  0
VERTEX
  8
0
 10
3528.896628
 20
3219.531341
 42
-0.054583
  0
VERTEX
  8
0
 10
3518.897236
 20
3240.760002
 42
0.000000
  0
VERTEX
  8
0
 10
3515.548533
 20
3250.500000
 42
0.000000
  0
VERTEX
  8
0
 10
3514.935086
 20
3316.000000
 42
0.001342
  0
VERTEX
  8
0
 10
3514.377281
 20
3362.288887
 42
0.013733
  0
VERTEX
  8
0
 10
3513.568590
 20
3381.441504
 42
0.030359
  0
VERTEX
  8
0
 10
3511.865562
 20
3394.431275
 42
0.022754
  0
VERTEX
  8
0
 10
3508.483701
 20
3408.459489
 42
0.017927
  0
VERTEX
  8
0
 10
3505.128078
 20
3418.656629
 42
0.011562
  0
VERTEX
  8
0
 10
3500.550147
 20
3430.222693
 42
0.007422
  0
VERTEX
  8
0
 10
3493.647798
 20
3445.895160
 42
0.002010
  0
VERTEX
  8
0
 10
3482.252691
 20
3470.500000
 42
-0.005592
  0
VERTEX
  8
0
 10
3462.775605
 20
3513.358481
 42
-0.014090
  0
VERTEX
  8
0
 10
3449.831771
 20
3545.101453
 42
-0.018486
  0
VERTEX
  8
0
 10
3440.962169
 20
3571.684479
 42
-0.021233
  0
VERTEX
  8
0
 10
3434.534176
 20
3597.657252
 42
-0.032817
  0
VERTEX
  8
0
 10
3429.293862
 20
3636.370195
 42
-0.026279
  0
VERTEX
  8
0
 10
3428.604121
 20
3678.448200
 42
-0.025757
  0
VERTEX
  8
0
 10
3432.374133
 20
3721.346097
 42
-0.027801
  0
VERTEX
  8
0
 10
3440.497784
 20
3762.531005
 42
-0.040619
  0
VERTEX
  8
0
 10
3462.833499
 20
3827.416198
 42
-0.040306
  0
VERTEX
  8
0
 10
3495.412336
 20
3888.014024
 42
-0.039521
  0
VERTEX
  8
0
 10
3537.967144
 20
3943.660894
 42
-0.036023
  0
VERTEX
  8
0
 10
3590.000000
 20
3993.805267
 42
-0.033080
  0
VERTEX
  8
0
 10
3672.703698
 20
4053.949579
 42
-0.031143
  0
VERTEX
  8
0
 10
3764.257706
 20
4104.009018
 42
-0.031989
  0
VERTEX
  8
0
 10
3858.471133
 20
4141.000658
 42
-0.041139
  0
VERTEX
  8
0
 10
3949.085740
 20
4162.022198
 42
-0.014693
  0
VERTEX
  8
0
 10
3974.828143
 20
4165.030697
 42
-0.013789
  0
VERTEX
  8
0
 10
4001.253631
 20
4166.601727
 42
-0.013339
  0
VERTEX
  8
0
 10
4028.588032
 20
4166.741920
 42
-0.011771
  0
SEQEND
  0
POLYLINE
  8
0
 66
1
 70
1
  0
VERTEX
  8
0
 10
5398.500000
 20
3911.023438
 42
-0.015975
  0
VERTEX
  8
0
 10
5435.155834
 20
3907.661233
 42
-0.013761
  0
VERTEX
  8
0
 10
5473.405258
 20
3901.843854
 42
-0.014218
  0
VERTEX
  8
0
 10
5508.942082
 20
3894.384975
 42
-0.026838
  0
VERTEX
  8
0
 10
5537.010973
 20
3886.039851
 42
-0.059756
  0
VERTEX
  8
0
 10
5581.612639
 20
3863.829714
 42
-0.064198
  0
VERTEX
  8
0
 10
5618.506994
 20
3832.142964
 42
-0.059767
  0
VERTEX
  8
0
 10
5648.137134
 20
3790.069816
 42
-0.042238
  0
VERTEX
  8
0
 10
5671.187634
 20
3737.000000
 42
-0.009281
  0
VERTEX
  8
0
 10
5675.507360
 20
3723.363211
 42
-0.007290
  0
VERTEX
  8
0
 10
5679.697756
 20
3708.433206
 42
-0.007298
  0
VERTEX
  8
0
 10
5683.444748
 20
3693.411764
 42
-0.009397
  0
VERTEX
  8
0
 10
5686.425416
 20
3679.500000
 42
-0.034206
  0
VERTEX
  8
0
 10
5696.950347
 20
3594.978002
 42
-0.015041
  0
VERTEX
  8
0
 10
5699.817404
 20
3482.218647
 42
-0.014683
  0
VERTEX
  8
0
 10
5695.680118
 20
3360.663096
 42
-0.017721
  0
VERTEX
  8
0
 10
5684.410535
 20
3247.000000
 42
-0.009655
  0
VERTEX
  8
0
 10
5677.097109
 20
3199.753259
 42
-0.019411
  0
VERTEX
  8
0
 10
5669.171031
 20
3162.873914
 42
-0.023819
  0
VERTEX
  8
0
 10
5659.779990
 20
3132.314543
 42
-0.029043
  0
VERTEX
  8
0
 10
5648.023746
 20
3104.803750
 42
-0.029045
  0
VERTEX
  8
0
 10
5636.485531
 20
3084.651266
 42
-0.054995
  0
VERTEX
  8
0
 10
5624.618481
 20
3070.212327
 42
-0.054069
  0
VERTEX
  8
0
 10
5609.749175
 20
3058.553924
 42
-0.027151
  0
VERTEX
  8
0
 10
5588.811130
 20
3047.044041
 42
-0.020786
  0
VERTEX
  8
0
 10
5544.987101
 20
3028.165041
 42
-0.013718
  0
VERTEX
  8
0
 10
5493.223998
 20
3009.984585
 42
-0.013308
  0
VERTEX
  8
0
 10
5438.227711
 20
2993.948564
 42
-0.014916
  0
VERTEX
  8
0
 10
5384.500000
 20
2981.522973
 42
-0.010454
  0
VERTEX
  8
0
 10
5356.559559
 20
2976.538580
 42
-0.004229
  0
VERTEX
  8
0
 10
5318.269201
 20
2970.862268
 42
-0.004264
  0
VERTEX
  8
0
 10
5278.466068
 20
2965.650919
 42
-0.007195
  0
VERTEX
  8
0
 10
5245.000000
 20
2962.047149
 42
0.000572
  0
VERTEX
  8
0
 10
5240.201584
 20
2961.594639
 42
0.000534
  0
VERTEX
  8
0
 10
5235.293753
 20
2961.120851
 42
0.000532
  0
VERTEX
  8
0
 10
5230.935921
 20
2960.690778
 42
0.001824
  0
VERTEX
  8
0
 10
5228.106393
 20
2960.398064
 42
0.000000
  0
VERTEX
  8
0
 10
5222.712786
 20
2959.820202
 42
0.000000
  0
VERTEX
  8
0
 10
5223.399062
 20
2969.660101
 42
-0.007531
  0
VERTEX
  8
0
 10
5223.917294
 20
2975.764391
 42
-0.000836
  0
VERTEX
  8
0
 10
5225.333722
 20
2989.681405
 42
-0.001018
  0
VERTEX
  8
0
 10
5227.081080
 20
3006.240014
 42
-0.000825
  0
VERTEX
  8
0
 10
5229.021432
 20
3024.000000
 42
0.004408
  0
VERTEX
  8
0
 10
5244.309326
 20
3173.871480
 42
0.004542
  0
VERTEX
  8
0
 10
5256.786766
 20
3322.501160
 42
0.004711
  0
VERTEX
  8
0
 10
5266.123736
 20
3465.401740
 42
0.005915
  0
VERTEX
  8
0
 10
5271.961059
 20
3598.000000
 42
-0.000477
  0
VERTEX
  8
0
 10
5272.388563
 20
3610.903138
 42
-0.000498
  0
VERTEX
  8
0
 10
5272.834909
 20
3623.625000
 42
-0.000478
  0
VERTEX
  8
0
 10
5273.242182
 20
3634.620562
 42
-0.002192
  0
VERTEX
  8
0
 10
5273.512601
 20
3641.000000
 42
0.007792
  0
VERTEX
  8
0
 10
5273.761688
 20
3648.990025
 42
0.000341
  0
VERTEX
  8
0
 10
5274.177280
 20
3676.881250
 42
0.000578
  0
VERTEX
  8
0
 10
5274.609398
 20
3709.961178
 42
0.000412
  0
VERTEX
  8
0
 10
5275.019842
 20
3747.000000
 42
-0.000690
  0
VERTEX
  8
0
 10
5275.670162
 20
3802.886809
 42
-0.002689
  0
VERTEX
  8
0
 10
5276.306017
 20
3837.453922
 42
-0.003701
  0
VERTEX
  8
0
 10
5277.201214
 20
3866.162166
 42
-0.002390
  0
VERTEX
  8
0
 10
5278.642959
 20
3899.395877
 42
0.000000
  0
VERTEX
  8
0
 10
5279.312348
 20
3913.291754
 42
0.000000
  0
VERTEX
  8
0
 10
5329.906174
 20
3912.693921
 42
-0.001526
  0
VERTEX
  8
0
 10
5350.596037
 20
3912.386304
 42
-0.001608
  0
VERTEX
  8
0
 10
5370.925564
 20
3911.956610
 42
-0.001536
  0
VERTEX
  8
0
 10
5388.454851
 20
3911.475839
 42
-0.007258
  0
SEQEND
  0
POLYLINE
  8
0
 66
1
 70
1
  0
VERTEX
  8
0
 10
4522.239650
 20
3122.517440
 42
-0.041299
  0
VERTEX
  8
0
 10
4532.526643
 20
3119.833687
 42
-0.023673
  0
VERTEX
  8
0
 10
4544.419636
 20
3115.013167
 42
-0.023235
  0
VERTEX
  8
0
 10
4556.233910
 20
3108.879237
 42
-0.030632
  0
VERTEX
  8
0
 10
4566.339636
 20
3102.162638
 42
-0.043258
  0
VERTEX
  8
0
 10
4570.782301
 20
3098.152272
 42
-0.022049
  0
VERTEX
  8
0
 10
4575.664537
 20
3092.425297
 42
-0.021462
  0
VERTEX
  8
0
 10
4580.294581
 20
3085.925185
 42
-0.026561
  0
VERTEX
  8
0
 10
4584.005804
 20
3079.486898
 42
-0.053436
  0
VERTEX
  8
0
 10
4586.970901
 20
3071.681249
 42
-0.046126
  0
VERTEX
  8
0
 10
4588.403928
 20
3063.025666
 42
-0.023240
  0
VERTEX
  8
0
 10
4588.735224
 20
3049.992720
 42
-0.003536
  0
VERTEX
  8
0
 10
4588.003196
 20
3023.975426
 42
0.004167
  0
VERTEX
  8
0
 10
4587.305236
 20
2998.002106
 42
0.020590
  0
VERTEX
  8
0
 10
4587.636535
 20
2983.373040
 42
0.035648
  0
VERTEX
  8
0
 10
4589.039807
 20
2973.048118
 42
0.041031
  0
VERTEX
  8
0
 10
4591.866622
 20
2963.518461
 42
0.040416
  0
VERTEX
  8
0
 10
4596.221173
 20
2954.530690
 42
0.025810
  0
VERTEX
  8
0
 10
4602.621796
 20
2944.836837
 42
0.018228
  0
VERTEX
  8
0
 10
4612.104060
 20
2932.908040
 42
0.006434
  0
VERTEX
  8
0
 10
4626.522529
 20
2916.500000
 42
-0.011623
  0
VERTEX
  8
0
 10
4645.096309
 20
2894.915602
 42
-0.038848
  0
VERTEX
  8
0
 10
4655.784956
 20
2879.611605
 42
-0.055832
  0
VERTEX
  8
0
 10
4661.814853
 20
2866.125697
 42
-0.051501
  0
VERTEX
  8
0
 10
4664.919827
 20
2851.267040
 42
-0.051758
  0
VERTEX
  8
0
 10
4664.914449
 20
2835.096222
 42
-0.062603
  0
VERTEX
  8
0
 10
4661.474788
 20
2820.325988
 42
-0.060955
  0
VERTEX
  8
0
 10
4654.385297
 20
2806.560890
 42
-0.045581
  0
VERTEX
  8
0
 10
4643.533900
 20
2793.371711
 42
-0.033461
  0
VERTEX
  8
0
 10
4633.828288
 20
2784.784399
 42
-0.025767
  0
VERTEX
  8
0
 10
4622.201215
 20
2776.728384
 42
-0.025845
  0
VERTEX
  8
0
 10
4609.858274
 20
2769.941706
 42
-0.034548
  0
VERTEX
  8
0
 10
4598.000000
 20
2765.178171
 42
-0.032425
  0
VERTEX
  8
0
 10
4589.174673
 20
2762.942743
 42
-0.022861
  0
VERTEX
  8
0
 10
4579.034100
 20
2761.539186
 42
-0.016590
  0
VERTEX
  8
0
 10
4565.948040
 20
2760.770878
 42
-0.006155
  0
VERTEX
  8
0
 10
4547.500000
 20
2760.528114
 42
-0.006369
  0
VERTEX
  8
0
 10
4528.226810
 20
2760.757270
 42
-0.027215
  0
VERTEX
  8
0
 10
4516.764395
 20
2761.665213
 42
-0.018927
  0
VERTEX
  8
0
 10
4503.767676
 20
2763.913747
 42
-0.001972
  0
VERTEX
  8
0
 10
4473.500000
 20
2770.463428
 42
0.003879
  0
VERTEX
  8
0
 10
4449.282848
 20
2775.607231
 42
0.008063
  0
VERTEX
  8
0
 10
4430.304497
 20
2779.166878
 42
0.009820
  0
VERTEX
  8
0
 10
4415.700700
 20
2781.368729
 42
0.032513
  0
VERTEX
  8
0
 10
4406.003019
 20
2782.000000
 42
0.059993
  0
VERTEX
  8
0
 10
4374.307400
 20
2778.183238
 42
0.012498
  0
VERTEX
  8
0
 10
4320.137321
 20
2763.501070
 42
0.012565
  0
VERTEX
  8
0
 10
4256.069781
 20
2742.638616
 42
0.009981
  0
VERTEX
  8
0
 10
4187.965490
 20
2717.012133
 42
0.004067
  0
VERTEX
  8
0
 10
4172.845611
 20
2710.832524
 42
0.006199
  0
VERTEX
  8
0
 10
4159.832800
 20
2705.199617
 42
0.005657
  0
VERTEX
  8
0
 10
4149.473381
 20
2700.420538
 42
0.043513
  0
VERTEX
  8
0
 10
4144.864510
 20
2697.716912
 42
0.000000
  0
VERTEX
  8
0
 10
4142.500000
 20
2696.037816
 42
0.000000
  0
VERTEX
  8
0
 10
4146.000000
 20
2692.952864
 42
0.081397
  0
VERTEX
  8
0
 10
4168.017433
 20
2679.148590
 42
0.004777
  0
VERTEX
  8
0
 10
4241.424038
 20
2649.143778
 42
0.007798
  0
VERTEX
  8
0
 10
4315.431142
 20
2621.044009
 42
0.023486
  0
VERTEX
  8
0
 10
4367.000000
 20
2605.073963
 42
0.008836
  0
VERTEX
  8
0
 10
4381.356815
 20
2601.626244
 42
0.017717
  0
VERTEX
  8
0
 10
4392.823906
 20
2599.509007
 42
0.020244
  0
VERTEX
  8
0
 10
4403.356515
 20
2598.381238
 42
0.016472
  0
VERTEX
  8
0
 10
4414.698784
 20
2598.004021
 42
0.016104
  0
VERTEX
  8
0
 10
4426.753013
 20
2598.388681
 42
0.015083
  0
VERTEX
  8
0
 10
4439.025151
 20
2599.548982
 42
0.011294
  0
VERTEX
  8
0
 10
4454.006435
 20
2601.767511
 42
0.004136
  0
VERTEX
  8
0
 10
4475.083940
 20
2605.556785
 42
-0.016416
  0
VERTEX
  8
0
 10
4528.804832
 20
2613.858456
 42
-0.036427
  0
VERTEX
  8
0
 10
4570.162925
 20
2615.831478
 42
-0.047066
  0
VERTEX
  8
0
 10
4603.856803
 20
2611.795522
 42
-0.059494
  0
VERTEX
  8
0
 10
4633.500000
 20
2601.571487
 42
-0.012899
  0
VERTEX
  8
0
 10
4642.211419
 20
2597.071900
 42
-0.026065
  0
VERTEX
  8
0
 10
4648.775064
 20
2593.005231
 42
-0.027286
  0
VERTEX
  8
0
 10
4654.687579
 20
2588.403542
 42
-0.015645
  0
VERTEX
  8
0
 10
4661.318887
 20
2582.260261
 42
-0.068684
  0
VERTEX
  8
0
 10
4675.517970
 20
2563.780245
 42
-0.083789
  0
VERTEX
  8
0
 10
4683.002812
 20
2543.326244
 42
-0.085961
  0
VERTEX
  8
0
 10
4683.261467
 20
2521.973152
 42
-0.076859
  0
VERTEX
  8
0
 10
4676.434439
 20
2500.864349
 42
-0.028594
  0
VERTEX
  8
0
 10
4669.874556
 20
2489.496855
 42
-0.033625
  0
VERTEX
  8
0
 10
4662.373120
 20
2479.583774
 42
-0.023770
  0
VERTEX
  8
0
 10
4651.683542
 20
2468.394070
 42
-0.006834
  0
VERTEX
  8
0
 10
4634.108559
 20
2452.117738
 42
0.006152
  0
VERTEX
  8
0
 10
4621.540026
 20
2440.509753
 42
0.020319
  0
VERTEX
  8
0
 10
4613.675649
 20
2432.434554
 42
0.030464
  0
VERTEX
  8
0
 10
4608.459402
 20
2425.859045
 42
0.044456
  0
VERTEX
  8
0
 10
4604.781634
 20
2419.448632
 42
0.000000
  0
VERTEX
  8
0
 10
4602.500000
 20
2414.500000
 42
0.000000
  0
VERTEX
  8
0
 10
4602.747020
 20
2368.000000
 42
-0.003556
  0
VERTEX
  8
0
 10
4602.680251
 20
2330.900555
 42
-0.031952
  0
VERTEX
  8
0
 10
4601.497984
 20
2314.687907
 42
-0.057701
  0
VERTEX
  8
0
 10
4598.384892
 20
2302.594512
 42
-0.025522
  0
VERTEX
  8
0
 10
4591.675601
 20
2287.500000
 42
-0.013789
  0
VERTEX
  8
0
 10
4588.616804
 20
2281.858990
 42
-0.028757
  0
VERTEX
  8
0
 10
4585.870032
 20
2277.684242
 42
-0.026812
  0
VERTEX
  8
0
 10
4582.540607
 20
2273.675205
 42
-0.010503
  0
VERTEX
  8
0
 10
4577.545755
 20
2268.500000
 42
-0.011214
  0
VERTEX
  8
0
 10
4573.661141
 20
2264.810092
 42
-0.010111
  0
VERTEX
  8
0
 10
4569.480798
 20
2261.165409
 42
-0.010188
  0
VERTEX
  8
0
 10
4565.601557
 20
2258.051112
 42
-0.031347
  0
VERTEX
  8
0
 10
4562.811869
 20
2256.169479
 42
-0.042521
  0
VERTEX
  8
0
 10
4545.998123
 20
2248.135696
 42
-0.037181
  0
VERTEX
  8
0
 10
4527.299963
 20
2242.628739
 42
-0.036453
  0
VERTEX
  8
0
 10
4507.601840
 20
2239.868529
 42
-0.036983
  0
VERTEX
  8
0
 10
4487.807693
 20
2240.018710
 42
-0.034183
  0
VERTEX
  8
0
 10
4462.672434
 20
2243.813880
 42
-0.049694
  0
VERTEX
  8
0
 10
4441.383546
 20
2250.809836
 42
-0.050466
  0
VERTEX
  8
0
 10
4422.134026
 20
2261.771533
 42
-0.036735
  0
VERTEX
  8
0
 10
4403.152064
 20
2277.500000
 42
-0.029759
  0
VERTEX
  8
0
 10
4392.935104
 20
2288.557239
 42
-0.032129
  0
VERTEX
  8
0
 10
4384.383022
 20
2300.481305
 42
-0.019944
  0
VERTEX
  8
0
 10
4374.698537
 20
2317.471733
 42
-0.004360
  0
VERTEX
  8
0
 10
4359.465458
 20
2347.500000
 42
0.003395
  0
VERTEX
  8
0
 10
4345.570589
 20
2375.021864
 42
0.022019
  0
VERTEX
  8
0
 10
4337.876316
 20
2388.511625
 42
0.037488
  0
VERTEX
  8
0
 10
4330.834153
 20
2398.022982
 42
0.022869
  0
VERTEX
  8
0
 10
4321.222436
 20
2408.176460
 42
0.040867
  0
VERTEX
  8
0
 10
4294.202389
 20
2430.268164
 42
0.017977
  0
VERTEX
  8
0
 10
4255.230248
 20
2455.124324
 42
0.012123
  0
VERTEX
  8
0
 10
4198.784691
 20
2486.516505
 42
0.003767
  0
VERTEX
  8
0
 10
4112.500000
 20
2530.974799
 42
-0.000324
  0
VERTEX
  8
0
 10
4080.020909
 20
2547.427639
 42
-0.001253
  0
VERTEX
  8
0
 10
4059.909277
 20
2557.695372
 42
-0.001483
  0
VERTEX
  8
0
 10
4041.550320
 20
2567.195329
 42
-0.000596
  0
VERTEX
  8
0
 10
4016.500000
 20
2580.290099
 42
0.003124
  0
VERTEX
  8
0
 10
4007.345993
 20
2585.016463
 42
0.003024
  0
VERTEX
  8
0
 10
3998.033956
 20
2589.680298
 42
0.002987
  0
VERTEX
  8
0
 10
3989.789905
 20
2593.686015
 42
0.011118
  0
VERTEX
  8
0
 10
3984.530489
 20
2596.060563
 42
0.030664
  0
VERTEX
  8
0
 10
3976.475136
 20
2598.914964
 42
0.115264
  0
VERTEX
  8
0
 10
3971.156879
 20
2599.179601
 42
0.057238
  0
VERTEX
  8
0
 10
3964.570016
 20
2597.184212
 42
0.003729
  0
VERTEX
  8
0
 10
3946.292419
 20
2589.110437
 42
-0.004086
  0
VERTEX
  8
0
 10
3935.431285
 20
2584.321998
 42
-0.000961
  0
VERTEX
  8
0
 10
3917.185898
 20
2576.496989
 42
-0.000990
  0
VERTEX
  8
0
 10
3896.168351
 20
2567.579978
 42
-0.000974
  0
VERTEX
  8
0
 10
3875.000000
 20
2558.696900
 42
0.002786
  0
VERTEX
  8
0
 10
3799.048894
 20
2526.500534
 42
0.008994
  0
VERTEX
  8
0
 10
3749.087016
 20
2503.918433
 42
0.013354
  0
VERTEX
  8
0
 10
3713.124981
 20
2485.687243
 42
0.023283
  0
VERTEX
  8
0
 10
3684.500000
 20
2468.432685
 42
0.020833
  0
VERTEX
  8
0
 10
3670.746031
 20
2458.390167
 42
0.024957
  0
VERTEX
  8
0
 10
3658.716659
 20
2447.791796
 42
0.027474
  0
VERTEX
  8
0
 10
3649.156469
 20
2437.399488
 42
0.054313
  0
VERTEX
  8
0
 10
3643.018664
 20
2428.036584
 42
0.033273
  0
VERTEX
  8
0
 10
3640.451686
 20
2422.052439
 42
0.006038
  0
VERTEX
  8
0
 10
3636.572838
 20
2410.602298
 42
0.006684
  0
VERTEX
  8
0
 10
3632.493284
 20
2397.469263
 42
0.007226
  0
VERTEX
  8
0
 10
3628.875952
 20
2384.567793
 42
-0.023104
  0
VERTEX
  8
0
 10
3617.091029
 20
2347.148728
 42
-0.050018
  0
VERTEX
  8
0
 10
3603.951382
 20
2320.035156
 42
-0.059361
  0
VERTEX
  8
0
 10
3587.337965
 20
2299.056744
 42
-0.048055
  0
VERTEX
  8
0
 10
3565.109613
 20
2280.845843
 42
-0.010746
  0
VERTEX
  8
0
 10
3556.388937
 20
2275.270277
 42
-0.017629
  0
VERTEX
  8
0
 10
3548.750692
 20
2270.976599
 42
-0.018005
  0
VERTEX
  8
0
 10
3540.945667
 20
2267.294073
 42
-0.011854
  0
VERTEX
  8
0
 10
3531.728024
 20
2263.600323
 42
-0.051646
  0
VERTEX
  8
0
 10
3498.030813
 20
2254.844182
 42
-0.057695
  0
VERTEX
  8
0
 10
3464.511104
 20
2253.644899
 42
-0.061958
  0
VERTEX
  8
0
 10
3433.783835
 20
2259.977885
 42
-0.079563
  0
VERTEX
  8
0
 10
3408.300296
 20
2273.433510
 42
-0.038094
  0
VERTEX
  8
0
 10
3399.834647
 20
2280.869656
 42
-0.030956
  0
VERTEX
  8
0
 10
3391.942545
 20
2290.014349
 42
-0.031307
  0
VERTEX
  8
0
 10
3385.345293
 20
2299.920542
 42
-0.042526
  0
VERTEX
  8
0
 10
3380.772208
 20
2309.636220
 42
-0.033335
  0
VERTEX
  8
0
 10
3377.789579
 20
2319.694279
 42
-0.028394
  0
VERTEX
  8
0
 10
3375.972838
 20
2330.613961
 42
-0.019317
  0
VERTEX
  8
0
 10
3374.971610
 20
2345.004837
 42
-0.005775
  0
VERTEX
  8
0
 10
3374.547443
 20
2367.000000
 42
0.002652
  0
VERTEX
  8
0
 10
3374.368153
 20
2380.752519
 42
0.005869
  0
VERTEX
  8
0
 10
3374.052596
 20
2391.240667
 42
0.006357
  0
VERTEX
  8
0
 10
3373.626190
 20
2399.052696
 42
0.039961
  0
VERTEX
  8
0
 10
3373.041228
 20
2403.000000
 42
0.046308
  0
VERTEX
  8
0
 10
3370.158645
 20
2411.711570
 42
0.042726
  0
VERTEX
  8
0
 10
3365.659595
 20
2419.996142
 42
0.029276
  0
VERTEX
  8
0
 10
3358.383570
 20
2429.739327
 42
0.008856
  0
VERTEX
  8
0
 10
3346.238970
 20
2443.651003
 42
-0.009478
  0
VERTEX
  8
0
 10
3332.631553
 20
2459.277537
 42
-0.019506
  0
VERTEX
  8
0
 10
3322.709243
 20
2472.102564
 42
-0.022939
  0
VERTEX
  8
0
 10
3314.896135
 20
2484.196041
 42
-0.020525
  0
VERTEX
  8
0
 10
3307.907552
 20
2497.403525
 42
-0.022342
  0
VERTEX
  8
0
 10
3303.511924
 20
2507.772301
 42
-0.026970
  0
VERTEX
  8
0
 10
3300.363037
 20
2517.867398
 42
-0.028416
  0
VERTEX
  8
0
 10
3298.444994
 20
2527.754545
 42
-0.031108
  0
VERTEX
  8
0
 10
3297.736231
 20
2537.500000
 42
-0.039897
  0
VERTEX
  8
0
 10
3298.657420
 20
2550.762255
 42
-0.059638
  0
VERTEX
  8
0
 10
3301.733106
 20
2561.952349
 42
-0.060052
  0
VERTEX
  8
0
 10
3307.343147
 20
2572.044925
 42
-0.041136
  0
VERTEX
  8
0
 10
3315.891455
 20
2582.000000
 42
-0.034558
  0
VERTEX
  8
0
 10
3325.776578
 20
2590.495963
 42
-0.038915
  0
VERTEX
  8
0
 10
3336.368794
 20
2597.182404
 42
-0.036068
  0
VERTEX
  8
0
 10
3348.548796
 20
2602.522521
 42
-0.023510
  0
VERTEX
  8
0
 10
3363.248924
 20
2606.974595
 42
-0.020185
  0
VERTEX
  8
0
 10
3375.344134
 20
2609.510938
 42
-0.019494
  0
VERTEX
  8
0
 10
3387.745672
 20
2611.098948
 42
-0.017878
  0
VERTEX
  8
0
 10
3401.192839
 20
2611.807205
 42
-0.012287
  0
VERTEX
  8
0
 10
3416.462711
 20
2611.689569
 42
-0.011209
  0
VERTEX
  8
0
 10
3431.670201
 20
2610.857009
 42
-0.019095
  0
VERTEX
  8
0
 10
3444.313046
 20
2609.392883
 42
-0.011649
  0
VERTEX
  8
0
 10
3460.443170
 20
2606.511392
 42
-0.001880
  0
VERTEX
  8
0
 10
3491.694232
 20
2600.051677
 42
0.001489
  0
VERTEX
  8
0
 10
3519.984566
 20
2594.180877
 42
0.007111
  0
VERTEX
  8
0
 10
3536.192962
 20
2591.107092
 42
0.012274
  0
VERTEX
  8
0
 10
3546.941978
 20
2589.497415
 42
0.030876
  0
VERTEX
  8
0
 10
3554.842916
 20
2589.004021
 42
0.053502
  0
VERTEX
  8
0
 10
3567.871649
 20
2590.393791
 42
0.018989
  0
VERTEX
  8
0
 10
3586.049262
 20
2595.057419
 42
0.012532
  0
VERTEX
  8
0
 10
3611.866960
 20
2603.446614
 42
0.003561
  0
VERTEX
  8
0
 10
3651.562154
 20
2617.773051
 42
-0.005723
  0
VERTEX
  8
0
 10
3686.129571
 20
2630.080129
 42
-0.003139
  0
VERTEX
  8
0
 10
3728.730108
 20
2644.401740
 42
-0.003032
  0
VERTEX
  8
0
 10
3774.304914
 20
2659.099799
 42
-0.003423
  0
VERTEX
  8
0
 10
3818.250000
 20
2672.648539
 42
0.016463
  0
VERTEX
  8
0
 10
3820.070109
 20
2673.262108
 42
0.024893
  0
VERTEX
  8
0
 10
3821.604688
 20
2673.925150
 42
0.022163
  0
VERTEX
  8
0
 10
3822.758491
 20
2674.558381
 42
0.261887
  0
VERTEX
  8
0
 10
3823.000000
 20
2674.987849
 42
0.274332
  0
VERTEX
  8
0
 10
3821.221646
 20
2677.985165
 42
0.007557
  0
VERTEX
  8
0
 10
3807.275584
 20
2685.329188
 42
0.010252
  0
VERTEX
  8
0
 10
3786.959921
 20
2695.119831
 42
0.002894
  0
VERTEX
  8
0
 10
3754.910640
 20
2709.539602
 42
0.005080
  0
VERTEX
  8
0
 10
3682.659176
 20
2740.671471
 42
0.016805
  0
VERTEX
  8
0
 10
3634.229732
 20
2759.070705
 42
0.025347
  0
VERTEX
  8
0
 10
3598.926726
 20
2769.175884
 42
0.058244
  0
VERTEX
  8
0
 10
3571.500000
 20
2772.253562
 42
0.026697
  0
VERTEX
  8
0
 10
3561.952201
 20
2771.699245
 42
0.018294
  0
VERTEX
  8
0
 10
3551.213405
 20
2770.098655
 42
0.010934
  0
VERTEX
  8
0
 10
3536.176216
 20
2766.949969
 42
0.002483
  0
VERTEX
  8
0
 10
3510.830247
 20
2760.928532
 42
-0.014201
  0
VERTEX
  8
0
 10
3466.342157
 20
2751.454909
 42
-0.032278
  0
VERTEX
  8
0
 10
3432.220850
 20
2747.448506
 42
-0.041636
  0
VERTEX
  8
0
 10
3403.967498
 20
2748.321134
 42
-0.050479
  0
VERTEX
  8
0
 10
3378.082496
 20
2753.973042
 42
-0.063163
  0
VERTEX
  8
0
 10
3348.285993
 20
2768.073661
 42
-0.063461
  0
VERTEX
  8
0
 10
3323.005881
 20
2789.147951
 42
-0.064751
  0
VERTEX
  8
0
 10
3304.234037
 20
2815.453050
 42
-0.070907
  0
VERTEX
  8
0
 10
3293.520512
 20
2844.902490
 42
-0.024431
  0
VERTEX
  8
0
 10
3292.098915
 20
2853.797441
 42
-0.019154
  0
VERTEX
  8
0
 10
3291.402521
 20
2863.544635
 42
-0.019558
  0
VERTEX
  8
0
 10
3291.459733
 20
2872.941203
 42
-0.033561
  0
VERTEX
  8
0
 10
3292.337239
 20
2880.722637
 42
-0.052995
  0
VERTEX
  8
0
 10
3296.135575
 20
2893.673852
 42
-0.066439
  0
VERTEX
  8
0
 10
3302.390273
 20
2904.500928
 42
-0.053413
  0
VERTEX
  8
0
 10
3312.390226
 20
2914.953722
 42
-0.021710
  0
VERTEX
  8
0
 10
3328.000000
 20
2927.003583
 42
0.010576
  0
VERTEX
  8
0
 10
3343.072267
 20
2938.111981
 42
0.030472
  0
VERTEX
  8
0
 10
3352.852766
 20
2946.641999
 42
0.041675
  0
VERTEX
  8
0
 10
3359.669107
 20
2954.582613
 42
0.042396
  0
VERTEX
  8
0
 10
3365.030423
 20
2963.500000
 42
0.037161
  0
VERTEX
  8
0
 10
3368.312152
 20
2971.662140
 42
0.026293
  0
VERTEX
  8
0
 10
3370.808699
 20
2981.222778
 42
0.018728
  0
VERTEX
  8
0
 10
3372.912672
 20
2993.827306
 42
0.006635
  0
VERTEX
  8
0
 10
3375.005812
 20
3012.000000
 42
-0.006012
  0
VERTEX
  8
0
 10
3377.857591
 20
3037.033756
 42
-0.019494
  0
VERTEX
  8
0
 10
3380.593814
 20
3053.523636
 42
-0.028231
  0
VERTEX
  8
0
 10
3383.920589
 20
3066.036072
 42
-0.032502
  0
VERTEX
  8
0
 10
3388.516630
 20
3077.500000
 42
-0.047420
  0
VERTEX
  8
0
 10
3394.429689
 20
3087.341156
 42
-0.050856
  0
VERTEX
  8
0
 10
3401.970057
 20
3095.641848
 42
-0.043647
  0
VERTEX
  8
0
 10
3412.017655
 20
3103.193187
 42
-0.023122
  0
VERTEX
  8
0
 10
3425.618682
 20
3110.819337
 42
-0.015271
  0
VERTEX
  8
0
 10
3435.681829
 20
3115.486362
 42
-0.043015
  0
VERTEX
  8
0
 10
3443.043495
 20
3117.907429
 42
-0.039696
  0
VERTEX
  8
0
 10
3451.033185
 20
3119.134629
 42
-0.011501
  0
VERTEX
  8
0
 10
3463.500000
 20
3119.759200
 42
-0.016588
  0
VERTEX
  8
0
 10
3482.382977
 20
3119.643685
 42
-0.025687
  0
VERTEX
  8
0
 10
3498.617914
 20
3118.167869
 42
-0.029659
  0
VERTEX
  8
0
 10
3512.594525
 20
3115.315483
 42
-0.041293
  0
VERTEX
  8
0
 10
3524.613704
 20
3111.021115
 42
-0.065444
  0
VERTEX
  8
0
 10
3542.746739
 20
3099.743404
 42
-0.043427
  0
VERTEX
  8
0
 10
3560.294362
 20
3082.594769
 42
-0.033235
  0
VERTEX
  8
0
 10
3578.650878
 20
3058.127103
 42
-0.015190
  0
VERTEX
  8
0
 10
3599.425687
 20
3024.000000
 42
0.000773
  0
VERTEX
  8
0
 10
3609.260541
 20
3006.742931
 42
0.005257
  0
VERTEX
  8
0
 10
3614.221689
 20
2998.276684
 42
0.009481
  0
VERTEX
  8
0
 10
3618.049178
 20
2992.165370
 42
0.006866
  0
VERTEX
  8
0
 10
3622.533509
 20
2985.500000
 42
0.035447
  0
VERTEX
  8
0
 10
3641.646760
 20
2961.709967
 42
0.020847
  0
VERTEX
  8
0
 10
3667.562949
 20
2935.998925
 42
0.019749
  0
VERTEX
  8
0
 10
3697.676663
 20
2910.621973
 42
0.019862
  0
VERTEX
  8
0
 10
3729.643056
 20
2887.751119
 42
0.011160
  0
VERTEX
  8
0
 10
3751.732946
 20
2873.932868
 42
0.009557
  0
VERTEX
  8
0
 10
3775.578722
 20
2860.356841
 42
0.006222
  0
VERTEX
  8
0
 10
3807.864407
 20
2843.301491
 42
0.001635
  0
VERTEX
  8
0
 10
3860.000000
 20
2816.799555
 42
-0.001404
  0
VERTEX
  8
0
 10
3893.538497
 20
2799.770523
 42
-0.002311
  0
VERTEX
  8
0
 10
3921.794919
 20
2785.158348
 42
-0.002722
  0
VERTEX
  8
0
 10
3945.054899
 20
2772.831647
 42
-0.005751
  0
VERTEX
  8
0
 10
3962.927683
 20
2762.968397
 42
0.000000
  0
VERTEX
  8
0
 10
3969.355365
 20
2759.324152
 42
0.000000
  0
VERTEX
  8
0
 10
3995.427683
 20
2772.041227
 42
-0.002713
  0
VERTEX
  8
0
 10
4017.071724
 20
2782.453368
 42
-0.005355
  0
VERTEX
  8
0
 10
4034.393014
 20
2790.444462
 42
-0.005322
  0
VERTEX
  8
0
 10
4051.949842
 20
2798.093911
 42
-0.002645
  0
VERTEX
  8
0
 10
4074.357699
 20
2807.435038
 42
0.009264
  0
VERTEX
  8
0
 10
4137.244787
 20
2834.633386
 42
0.011952
  0
VERTEX
  8
0
 10
4193.886999
 20
2862.038914
 42
0.013264
  0
VERTEX
  8
0
 10
4241.682595
 20
2888.215749
 42
0.028061
  0
VERTEX
  8
0
 10
4276.917041
 20
2911.486837
 42
0.019609
  0
VERTEX
  8
0
 10
4292.341631
 20
2923.935027
 42
0.022580
  0
VERTEX
  8
0
 10
4306.003118
 20
2937.007817
 42
0.022977
  0
VERTEX
  8
0
 10
4318.224637
 20
2951.046304
 42
0.021808
  0
VERTEX
  8
0
 10
4329.333722
 20
2966.386792
 42
0.007739
  0
VERTEX
  8
0
 10
4336.125022
 20
2977.036539
 42
0.009878
  0
VERTEX
  8
0
 10
4342.034744
 20
2987.066530
 42
0.007125
  0
VERTEX
  8
0
 10
4348.848968
 20
2999.586294
 42
0.002025
  0
VERTEX
  8
0
 10
4359.083485
 20
3019.238248
 42
-0.003984
  0
VERTEX
  8
0
 10
4369.540726
 20
3039.127218
 42
-0.010111
  0
VERTEX
  8
0
 10
4377.540177
 20
3053.353162
 42
-0.013188
  0
VERTEX
  8
0
 10
4384.665076
 20
3064.746797
 42
-0.014407
  0
VERTEX
  8
0
 10
4392.182565
 20
3075.410866
 42
-0.023231
  0
VERTEX
  8
0
 10
4400.199876
 20
3085.138776
 42
-0.018517
  0
VERTEX
  8
0
 10
4409.694001
 20
3094.875559
 42
-0.018974
  0
VERTEX
  8
0
 10
4419.365416
 20
3103.410249
 42
-0.036056
  0
VERTEX
  8
0
 10
4427.851741
 20
3109.379706
 42
-0.029013
  0
VERTEX
  8
0
 10
4435.702859
 20
3113.496339
 42
-0.019983
  0
VERTEX
  8
0
 10
4445.014451
 20
3117.269122
 42
-0.019734
  0
VERTEX
  8
0
 10
4454.779598
 20
3120.349120
 42
-0.025042
  0
VERTEX
  8
0
 10
4464.014864
 20
3122.375504
 42
-0.031838
  0
VERTEX
  8
0
 10
4475.488691
 20
3123.553009
 42
-0.009044
  0
VERTEX
  8
0
 10
4493.425277
 20
3123.921213
 42
-0.008876
  0
VERTEX
  8
0
 10
4511.290869
 20
3123.647594
 42
-0.034910
  0
SEQEND
  0
POLYLINE
  8
0
 66
1
 70
1
  0
VERTEX
  8
0
 10
4170.888663
 20
3529.905511
 42
0.028900
  0
VERTEX
  8
0
 10
4159.773117
 20
3528.327005
 42
0.032791
  0
VERTEX
  8
0
 10
4149.384613
 20
3525.514342
 42
0.029329
  0
VERTEX
  8
0
 10
4138.542726
 20
3521.075369
 42
0.016719
  0
VERTEX
  8
0
 10
4125.983691
 20
3514.526105
 42
0.021062
  0
VERTEX
  8
0
 10
4111.716477
 20
3505.655961
 42
0.033495
  0
VERTEX
  8
0
 10
4100.411312
 20
3496.785280
 42
0.039285
  0
VERTEX
  8
0
 10
4091.853980
 20
3487.781597
 42
0.056256
  0
VERTEX
  8
0
 10
4085.924471
 20
3478.511619
 42
0.024077
  0
VERTEX
  8
0
 10
4081.721884
 20
3468.803136
 42
0.039902
  0
VERTEX
  8
0
 10
4079.251314
 20
3460.231444
 42
0.035120
  0
VERTEX
  8
0
 10
4077.991048
 20
3450.639972
 42
0.014369
  0
VERTEX
  8
0
 10
4077.574386
 20
3437.500000
 42
0.004652
  0
VERTEX
  8
0
 10
4077.635479
 20
3427.866300
 42
0.018054
  0
VERTEX
  8
0
 10
4077.944207
 20
3421.905988
 42
0.025059
  0
VERTEX
  8
0
 10
4078.622101
 20
3417.023663
 42
0.016589
  0
VERTEX
  8
0
 10
4079.864539
 20
3411.500000
 42
0.072303
  0
VERTEX
  8
0
 10
4093.763748
 20
3378.512955
 42
0.083429
  0
VERTEX
  8
0
 10
4115.976764
 20
3352.649090
 42
0.078163
  0
VERTEX
  8
0
 10
4146.705060
 20
3334.283509
 42
0.054577
  0
VERTEX
  8
0
 10
4185.645271
 20
3323.353119
 42
0.029292
  0
VERTEX
  8
0
 10
4199.305471
 20
3321.899112
 42
0.011230
  0
VERTEX
  8
0
 10
4218.408942
 20
3321.421119
 42
0.010453
  0
VERTEX
  8
0
 10
4237.071425
 20
3321.763598
 42
0.045052
  0
VERTEX
  8
0
 10
4248.068901
 20
3323.193531
 42
0.061628
  0
VERTEX
  8
0
 10
4268.755793
 20
3330.568137
 42
0.092703
  0
VERTEX
  8
0
 10
4283.956198
 20
3342.133646
 42
0.082631
  0
VERTEX
  8
0
 10
4295.082816
 20
3359.469481
 42
0.040176
  0
VERTEX
  8
0
 10
4303.519453
 20
3384.473925
 42
0.008792
  0
VERTEX
  8
0
 10
4305.003074
 20
3390.881897
 42
0.026904
  0
VERTEX
  8
0
 10
4305.696429
 20
3395.286339
 42
0.028862
  0
VERTEX
  8
0
 10
4305.887834
 20
3399.571467
 42
0.011381
  0
VERTEX
  8
0
 10
4305.676251
 20
3405.473925
 42
0.071481
  0
VERTEX
  8
0
 10
4298.605307
 20
3440.122503
 42
0.058654
  0
VERTEX
  8
0
 10
4281.778067
 20
3473.983449
 42
0.059955
  0
VERTEX
  8
0
 10
4258.054639
 20
3502.255061
 42
0.084323
  0
VERTEX
  8
0
 10
4230.652656
 20
3520.390069
 42
0.036171
  0
VERTEX
  8
0
 10
4217.084897
 20
3525.251811
 42
0.028476
  0
VERTEX
  8
0
 10
4201.828157
 20
3528.580764
 42
0.028100
  0
VERTEX
  8
0
 10
4186.043809
 20
3530.191682
 42
0.032211
  0
SEQEND
  0
POLYLINE
  8
0
 66
1
 70
1
  0
VERTEX
  8
0
 10
3771.500000
 20
3527.277866
 42
0.038767
  0
VERTEX
  8
0
 10
3749.579231
 20
3522.435812
 42
0.040571
  0
VERTEX
  8
0
 10
3729.014187
 20
3514.317324
 42
0.042103
  0
VERTEX
  8
0
 10
3710.752707
 20
3503.339914
 42
0.049865
  0
VERTEX
  8
0
 10
3695.686619
 20
3489.990726
 42
0.048946
  0
VERTEX
  8
0
 10
3680.550064
 20
3470.008542
 42
0.038133
  0
VERTEX
  8
0
 10
3668.100118
 20
3445.754576
 42
0.038886
  0
VERTEX
  8
0
 10
3659.757139
 20
3420.602586
 42
0.060712
  0
VERTEX
  8
0
 10
3657.000000
 20
3397.979478
 42
0.051079
  0
VERTEX
  8
0
 10
3658.675778
 20
3381.618548
 42
0.037176
  0
VERTEX
  8
0
 10
3663.706917
 20
3364.020085
 42
0.037956
  0
VERTEX
  8
0
 10
3671.018583
 20
3348.020433
 42
0.070334
  0
VERTEX
  8
0
 10
3679.587566
 20
3336.629825
 42
0.053806
  0
VERTEX
  8
0
 10
3687.033387
 20
3330.634620
 42
0.033597
  0
VERTEX
  8
0
 10
3696.853310
 20
3325.228933
 42
0.031920
  0
VERTEX
  8
0
 10
3708.006679
 20
3320.874357
 42
0.033010
  0
VERTEX
  8
0
 10
3719.500000
 20
3318.032347
 42
0.052535
  0
VERTEX
  8
0
 10
3744.555572
 20
3316.239261
 42
0.030934
  0
VERTEX
  8
0
 10
3774.472472
 20
3319.101401
 42
0.030956
  0
VERTEX
  8
0
 10
3803.748570
 20
3325.621089
 42
0.053446
  0
VERTEX
  8
0
 10
3826.824016
 20
3335.047158
 42
0.052459
  0
VERTEX
  8
0
 10
3843.256569
 20
3346.275140
 42
0.038865
  0
VERTEX
  8
0
 10
3858.879089
 20
3361.789565
 42
0.039060
  0
VERTEX
  8
0
 10
3871.815609
 20
3379.417331
 42
0.055255
  0
VERTEX
  8
0
 10
3880.181973
 20
3396.977524
 42
0.054165
  0
VERTEX
  8
0
 10
3884.878978
 20
3417.405574
 42
0.047699
  0
VERTEX
  8
0
 10
3885.370103
 20
3439.276985
 42
0.048930
  0
VERTEX
  8
0
 10
3881.759794
 20
3460.226478
 42
0.066193
  0
VERTEX
  8
0
 10
3874.274287
 20
3477.900117
 42
0.056758
  0
VERTEX
  8
0
 10
3866.977510
 20
3487.574199
 42
0.036132
  0
VERTEX
  8
0
 10
3856.542678
 20
3497.082009
 42
0.032127
  0
VERTEX
  8
0
 10
3843.403575
 20
3506.118924
 42
0.024182
  0
VERTEX
  8
0
 10
3827.926560
 20
3514.372111
 42
0.020747
  0
VERTEX
  8
0
 10
3811.389080
 20
3521.365065
 42
0.033441
  0
VERTEX
  8
0
 10
3796.746999
 20
3525.761680
 42
0.039082
  0
VERTEX
  8
0
 10
3783.574071
 20
3527.708490
 42
0.052174
  0
SEQEND
  0
POLYLINE
  8
0
 66
1
 70
1
  0
VERTEX
  8
0
 10
3972.444193
 20
3304.181264
 42
0.113497
  0
VERTEX
  8
0
 10
3965.596801
 20
3298.800091
 42
0.042320
  0
VERTEX
  8
0
 10
3958.706925
 20
3288.600866
 42
0.027164
  0
VERTEX
  8
0
 10
3950.824373
 20
3272.497413
 42
0.007995
  0
VERTEX
  8
0
 10
3940.495138
 20
3247.000000
 42
0.003725
  0
VERTEX
  8
0
 10
3925.202657
 20
3206.551635
 42
0.024923
  0
VERTEX
  8
0
 10
3918.763542
 20
3186.039638
 42
0.053507
  0
VERTEX
  8
0
 10
3916.928395
 20
3173.682396
 42
0.187146
  0
VERTEX
  8
0
 10
3919.488377
 20
3166.196182
 42
0.116257
  0
VERTEX
  8
0
 10
3925.616708
 20
3161.635126
 42
0.107363
  0
VERTEX
  8
0
 10
3933.322473
 20
3160.117685
 42
0.059787
  0
VERTEX
  8
0
 10
3944.489574
 20
3161.678883
 42
0.013878
  0
VERTEX
  8
0
 10
3962.707416
 20
3167.037823
 42
-0.019139
  0
VERTEX
  8
0
 10
3972.622758
 20
3169.841537
 42
-0.049585
  0
VERTEX
  8
0
 10
3979.971993
 20
3170.863788
 42
-0.045851
  0
VERTEX
  8
0
 10
3987.704641
 20
3170.457319
 42
-0.014469
  0
VERTEX
  8
0
 10
3999.112482
 20
3168.462756
 42
0.017948
  0
VERTEX
  8
0
 10
4009.529042
 20
3166.716085
 42
0.023672
  0
VERTEX
  8
0
 10
4019.123230
 20
3165.918801
 42
0.025003
  0
VERTEX
  8
0
 10
4027.040556
 20
3166.032983
 42
0.103576
  0
VERTEX
  8
0
 10
4031.624161
 20
3167.305646
 42
0.049172
  0
VERTEX
  8
0
 10
4035.365216
 20
3169.732755
 42
0.122520
  0
VERTEX
  8
0
 10
4037.332920
 20
3172.304073
 42
0.088044
  0
VERTEX
  8
0
 10
4038.220302
 20
3176.031300
 42
0.017789
  0
VERTEX
  8
0
 10
4038.374173
 20
3182.863099
 42
0.014643
  0
VERTEX
  8
0
 10
4038.141407
 20
3188.357414
 42
0.024384
  0
VERTEX
  8
0
 10
4037.585247
 20
3192.955081
 42
0.021404
  0
VERTEX
  8
0
 10
4036.527244
 20
3197.872131
 42
0.008588
  0
VERTEX
  8
0
 10
4034.679246
 20
3204.500000
 42
0.008076
  0
VERTEX
  8
0
 10
4027.387951
 20
3227.640150
 42
0.006553
  0
VERTEX
  8
0
 10
4018.846863
 20
3252.214296
 42
0.006433
  0
VERTEX
  8
0
 10
4010.511789
 20
3274.326559
 42
0.021507
  0
VERTEX
  8
0
 10
4004.244341
 20
3288.500000
 42
0.023494
  0
VERTEX
  8
0
 10
3999.458462
 20
3297.130153
 42
0.084053
  0
VERTEX
  8
0
 10
3995.308452
 20
3301.852080
 42
0.104713
  0
VERTEX
  8
0
 10
3990.354141
 20
3304.389895
 42
0.048237
  0
VERTEX
  8
0
 10
3983.174987
 20
3305.609900
 42
0.015245
  0
VERTEX
  8
0
 10
3979.661088
 20
3305.755606
 42
0.035843
  0
VERTEX
  8
0
 10
3977.041732
 20
3305.596414
 42
0.043122
  0
VERTEX
  8
0
 10
3974.782566
 20
3305.094666
 42
0.033838
  0
SEQEND
  0
ENDSEC
  0
EOF
