  0
SECTION
  2
HEADER
  9
$ACADVER
  1
AC1006
  9
$EXTMIN
 10
0.000000
 20
0.000000
 30
0.000000
  9
$EXTMAX
 10
7813.000000
 20
7813.000000
 30
0.000000
  0
ENDSEC
  0
SECTION
  2
ENTITIES
  0
POLYLINE
  8
0
 66
1
 70
1
  0
VERTEX
  8
0
 10
3917.085578
 20
6541.914511
 42
0.051867
  0
VERTEX
  8
0
 10
3912.781841
 20
6540.595300
 42
0.052572
  0
VERTEX
  8
0
 10
3908.862620
 20
6538.422963
 42
0.055385
  0
VERTEX
  8
0
 10
3905.672388
 20
6535.614599
 42
0.073947
  0
VERTEX
  8
0
 10
3903.526234
 20
6532.414042
 42
0.047471
  0
VERTEX
  8
0
 10
3902.622052
 20
6529.923079
 42
0.042586
  0
VERTEX
  8
0
 10
3902.161936
 20
6527.213483
 42
0.025865
  0
VERTEX
  8
0
 10
3902.043834
 20
6523.449433
 42
0.005897
  0
VERTEX
  8
0
 10
3902.248831
 20
6517.074804
 42
0.026193
  0
VERTEX
  8
0
 10
3903.454830
 20
6504.592176
 42
0.013716
  0
VERTEX
  8
0
 10
3906.190456
 20
6489.220367
 42
0.008692
  0
VERTEX
  8
0
 10
3911.031930
 20
6467.664435
 42
0.002316
  0
VERTEX
  8
0
 10
3919.499449
 20
6433.500000
 42
0.000016
  0
VERTEX
  8
0
 10
3924.396337
 20
6414.129687
 42
0.000008
  0
VERTEX
  8
0
 10
3930.645423
 20
6389.415625
 42
0.000008
  0
VERTEX
  8
0
 10
3937.146355
 20
6363.708995
 42
0.000011
  0
VERTEX
  8
0
 10
3942.890152
 20
6341.000000
 42
-0.004001
  0
VERTEX
  8
0
 10
3960.672983
 20
6268.255927
 42
-0.021849
  0
VERTEX
  8
0
 10
3968.244543
 20
6228.470700
 42
-0.027382
  0
VERTEX
  8
0
 10
3971.511097
 20
6192.119482
 42
-0.008608
  0
VERTEX
  8
0
 10
3972.475451
 20
6137.500000
 42
-0.004428
  0
VERTEX
  8
0
 10
3972.098460
 20
6092.716016
 42
-0.014109
  0
VERTEX
  8
0
 10
3970.738248
 20
6062.835820
 42
-0.018425
  0
VERTEX
  8
0
 10
3967.942421
 20
6037.649779
 42
-0.013146
  0
VERTEX
  8
0
 10
3963.038605
 20
6009.701232
 42
-0.017239
  0
VERTEX
  8
0
 10
3952.715491
 20
5966.480601
 42
-0.011216
  0
VERTEX
  8
0
 10
3937.969154
 20
5917.308921
 42
-0.006337
  0
VERTEX
  8
0
 10
3913.974682
 20
5846.441089
 42
-0.001263
  0
VERTEX
  8
0
 10
3869.188740
 20
5720.500000
 42
0.002813
  0
VERTEX
  8
0
 10
3845.620149
 20
5653.567004
 42
0.006439
  0
VERTEX
  8
0
 10
3828.792631
 20
5602.798774
 42
0.008393
  0
VERTEX
  8
0
 10
3816.574338
 20
5561.913849
 42
0.013337
  0
VERTEX
  8
0
 10
3807.647050
 20
5526.500000
 42
0.013924
  0
VERTEX
  8
0
 10
3803.130459
 20
5503.318057
 42
0.020768
  0
VERTEX
  8
0
 10
3800.595674
 20
5482.821819
 42
0.015746
  0
VERTEX
  8
0
 10
3799.375177
 20
5458.445308
 42
0.004632
  0
VERTEX
  8
0
 10
3799.027960
 20
5421.000000
 42
0.014113
  0
VERTEX
  8
0
 10
3801.051727
 20
5349.294824
 42
0.036599
  0
VERTEX
  8
0
 10
3807.728915
 20
5298.064169
 42
0.031419
  0
VERTEX
  8
0
 10
3822.414403
 20
5244.076001
 42
0.008208
  0
VERTEX
  8
0
 10
3852.791404
 20
5159.500000
 42
-0.000400
  0
VERTEX
  8
0
 10
3866.571912
 20
5122.937116
 42
-0.001416
  0
VERTEX
  8
0
 10
3875.331251
 20
5099.438269
 42
-0.001402
  0
VERTEX
  8
0
 10
3884.000671
 20
5075.773938
 42
-0.000386
  0
VERTEX
  8
0
 10
3897.504958
 20
5038.500000
 42
0.003673
  0
VERTEX
  8
0
 10
3913.097643
 20
4996.329480
 42
0.010641
  0
VERTEX
  8
0
 10
3924.718758
 20
4967.467994
 42
0.015182
  0
VERTEX
  8
0
 10
3934.406044
 20
4946.590067
 42
0.030649
  0
VERTEX
  8
0
 10
3943.509453
 20
4930.912209
 42
0.024202
  0
VERTEX
  8
0
 10
3949.472150
 20
4922.832148
 42
0.036309
  0
VERTEX
  8
0
 10
3955.487126
 20
4916.461974
 42
0.037587
  0
VERTEX
  8
0
 10
3962.195610
 20
4911.186951
 42
0.028623
  0
VERTEX
  8
0
 10
3970.244613
 20
4906.427822
 42
0.027803
  0
VERTEX
  8
0
 10
3980.351950
 20
4901.900180
 42
0.035173
  0
VERTEX
  8
0
 10
3990.144936
 20
4898.921814
 42
0.033376
  0
VERTEX
  8
0
 10
4000.665159
 20
4897.243508
 42
0.021516
  0
VERTEX
  8
0
 10
4013.000000
 20
4896.645484
 42
0.004631
  0
VERTEX
  8
0
 10
4021.487158
 20
4896.678102
 42
0.024678
  0
VERTEX
  8
0
 10
4026.113692
 20
4896.967409
 42
0.039673
  0
VERTEX
  8
0
 10
4029.626686
 20
4897.647040
 42
0.026888
  0
VERTEX
  8
0
 10
4033.492628
 20
4898.946083
 42
0.153096
  0
VERTEX
  8
0
 10
4049.719286
 20
4912.115357
 42
0.070775
  0
VERTEX
  8
0
 10
4061.511827
 20
4936.913700
 42
0.050983
  0
VERTEX
  8
0
 10
4068.787612
 20
4972.678731
 42
0.024479
  0
VERTEX
  8
0
 10
4071.124440
 20
5019.500000
 42
0.019734
  0
VERTEX
  8
0
 10
4069.784792
 20
5054.240450
 42
0.021732
  0
VERTEX
  8
0
 10
4065.705846
 20
5087.656714
 42
0.017814
  0
VERTEX
  8
0
 10
4057.973872
 20
5125.693117
 42
0.007813
  0
VERTEX
  8
0
 10
4045.160791
 20
5175.500000
 42
-0.007309
  0
VERTEX
  8
0
 10
4025.923878
 20
5249.966581
 42
-0.018385
  0
VERTEX
  8
0
 10
4014.713385
 20
5304.869662
 42
-0.022709
  0
VERTEX
  8
0
 10
4008.937996
 20
5353.073989
 42
-0.018534
  0
VERTEX
  8
0
 10
4007.027870
 20
5405.000000
 42
-0.008904
  0
VERTEX
  8
0
 10
4007.808961
 20
5448.146712
 42
-0.011683
  0
VERTEX
  8
0
 10
4010.143342
 20
5487.484564
 42
-0.011715
  0
VERTEX
  8
0
 10
4014.305913
 20
5526.582397
 42
-0.009036
  0
VERTEX
  8
0
 10
4020.611212
 20
5569.000000
 42
-0.005548
  0
VERTEX
  8
0
 10
4024.765104
 20
5592.258054
 42
-0.001830
  0
VERTEX
  8
0
 10
4031.373520
 20
5626.345053
 42
-0.000933
  0
VERTEX
  8
0
 10
4042.439054
 20
5681.781004
 42
-0.000139
  0
VERTEX
  8
0
 10
4064.970373
 20
5793.410784
 42
0.004861
  0
VERTEX
  8
0
 10
4083.055649
 20
5887.590725
 42
0.013271
  0
VERTEX
  8
0
 10
4093.422906
 20
5954.617827
 42
0.016256
  0
VERTEX
  8
0
 10
4099.035933
 20
6013.896726
 42
0.011353
  0
VERTEX
  8
0
 10
4101.667219
 20
6081.000000
 42
0.015990
  0
VERTEX
  8
0
 10
4100.648908
 20
6146.735898
 42
0.021107
  0
VERTEX
  8
0
 10
4095.283787
 20
6206.405333
 42
0.020804
  0
VERTEX
  8
0
 10
4084.825061
 20
6266.086322
 42
0.014854
  0
VERTEX
  8
0
 10
4068.386035
 20
6331.895080
 42
0.005946
  0
VERTEX
  8
0
 10
4051.942612
 20
6387.733154
 42
0.007849
  0
VERTEX
  8
0
 10
4035.558520
 20
6438.189211
 42
0.008433
  0
VERTEX
  8
0
 10
4020.467966
 20
6479.978118
 42
0.027359
  0
VERTEX
  8
0
 10
4008.504027
 20
6506.905215
 42
0.053632
  0
VERTEX
  8
0
 10
3999.541142
 20
6520.586204
 42
0.072457
  0
VERTEX
  8
0
 10
3988.623782
 20
6530.534685
 42
0.068659
  0
VERTEX
  8
0
 10
3974.849209
 20
6537.311899
 42
0.042658
  0
VERTEX
  8
0
 10
3957.301195
 20
6541.510869
 42
0.024005
  0
VERTEX
  8
0
 10
3948.073719
 20
6542.451647
 42
0.010892
  0
VERTEX
  8
0
 10
3935.935968
 20
6542.837988
 42
0.010170
  0
VERTEX
  8
0
 10
3924.207957
 20
6542.717145
 42
0.040810
  0
SEQEND
  0
POLYLINE
  8
0
 66
1
 70
1
  0
VERTEX
  8
0
 10
3485.024244
 20
6238.396909
 42
0.030117
  0
VERTEX
  8
0
 10
3479.305058
 20
6236.484232
 42
0.051361
  0
VERTEX
  8
0
 10
3474.853443
 20
6234.134965
 42
0.063891
  0
VERTEX
  8
0
 10
3471.714177
 20
6231.404701
 42
0.102503
  0
VERTEX
  8
0
 10
3469.947533
 20
6228.341025
 42
0.106255
  0
VERTEX
  8
0
 10
3469.107015
 20
6220.520016
 42
0.019391
  0
VERTEX
  8
0
 10
3471.200759
 20
6206.023000
 42
0.011841
  0
VERTEX
  8
0
 10
3476.029500
 20
6182.902528
 42
0.002181
  0
VERTEX
  8
0
 10
3486.128165
 20
6140.524143
 42
-0.005394
  0
VERTEX
  8
0
 10
3497.594010
 20
6090.999376
 42
-0.017460
  0
VERTEX
  8
0
 10
3503.695856
 20
6057.807356
 42
-0.019906
  0
VERTEX
  8
0
 10
3507.048548
 20
6026.617277
 42
-0.008793
  0
VERTEX
  8
0
 10
3509.107916
 20
5985.206763
 42
-0.008830
  0
VERTEX
  8
0
 10
3509.676947
 20
5945.817259
 42
-0.008992
  0
VERTEX
  8
0
 10
3508.847002
 20
5906.670097
 42
-0.009519
  0
VERTEX
  8
0
 10
3506.758111
 20
5870.830005
 42
-0.017419
  0
VERTEX
  8
0
 10
3503.484078
 20
5841.743572
 42
-0.022039
  0
VERTEX
  8
0
 10
3494.876278
 20
5797.225126
 42
-0.013236
  0
VERTEX
  8
0
 10
3480.955561
 20
5745.218116
 42
-0.008946
  0
VERTEX
  8
0
 10
3459.049202
 20
5675.853393
 42
-0.002786
  0
VERTEX
  8
0
 10
3423.721474
 20
5572.500000
 42
0.002469
  0
VERTEX
  8
0
 10
3405.082447
 20
5518.083245
 42
0.005361
  0
VERTEX
  8
0
 10
3391.423805
 20
5476.072079
 42
0.006519
  0
VERTEX
  8
0
 10
3380.483621
 20
5439.488441
 42
0.006448
  0
VERTEX
  8
0
 10
3370.459599
 20
5402.500000
 42
0.009463
  0
VERTEX
  8
0
 10
3360.093063
 20
5358.782369
 42
0.010931
  0
VERTEX
  8
0
 10
3351.920609
 20
5316.750095
 42
0.011680
  0
VERTEX
  8
0
 10
3346.090997
 20
5277.329247
 42
0.015847
  0
VERTEX
  8
0
 10
3342.793778
 20
5241.500000
 42
0.024307
  0
VERTEX
  8
0
 10
3342.433829
 20
5210.121333
 42
0.019917
  0
VERTEX
  8
0
 10
3345.012783
 20
5176.678556
 42
0.019710
  0
VERTEX
  8
0
 10
3350.295824
 20
5143.133300
 42
0.022213
  0
VERTEX
  8
0
 10
3358.053215
 20
5111.439547
 42
0.022670
  0
VERTEX
  8
0
 10
3368.326686
 20
5081.426047
 42
0.023632
  0
VERTEX
  8
0
 10
3381.151955
 20
5052.889429
 42
0.023087
  0
VERTEX
  8
0
 10
3396.910584
 20
5025.096493
 42
0.019682
  0
VERTEX
  8
0
 10
3415.975810
 20
4997.308116
 42
0.019981
  0
VERTEX
  8
0
 10
3439.745847
 20
4967.952373
 42
0.022524
  0
VERTEX
  8
0
 10
3464.895575
 20
4941.788593
 42
0.024435
  0
VERTEX
  8
0
 10
3489.371747
 20
4920.697074
 42
0.048857
  0
VERTEX
  8
0
 10
3510.929408
 20
4907.038105
 42
0.029478
  0
VERTEX
  8
0
 10
3523.892695
 20
4901.431779
 42
0.032003
  0
VERTEX
  8
0
 10
3537.078133
 20
4897.564973
 42
0.030831
  0
VERTEX
  8
0
 10
3551.080567
 20
4895.310456
 42
0.023931
  0
VERTEX
  8
0
 10
3566.500000
 20
4894.536634
 42
0.070972
  0
VERTEX
  8
0
 10
3591.480138
 20
4898.042010
 42
0.274453
  0
VERTEX
  8
0
 10
3601.764766
 20
4908.994542
 42
0.118781
  0
VERTEX
  8
0
 10
3601.361389
 20
4931.143404
 42
0.011107
  0
VERTEX
  8
0
 10
3586.340786
 20
4984.000000
 42
-0.004229
  0
VERTEX
  8
0
 10
3573.700625
 20
5026.260425
 42
-0.013154
  0
VERTEX
  8
0
 10
3566.176735
 20
5055.021358
 42
-0.016025
  0
VERTEX
  8
0
 10
3560.989826
 20
5080.940016
 42
-0.009173
  0
VERTEX
  8
0
 10
3556.312896
 20
5112.500000
 42
-0.024939
  0
VERTEX
  8
0
 10
3554.850748
 20
5130.991369
 42
-0.007285
  0
VERTEX
  8
0
 10
3554.437768
 20
5159.529835
 42
-0.007505
  0
VERTEX
  8
0
 10
3554.874857
 20
5188.455695
 42
-0.020117
  0
VERTEX
  8
0
 10
3556.322497
 20
5209.000000
 42
-0.012535
  0
VERTEX
  8
0
 10
3563.822963
 20
5263.955331
 42
-0.010060
  0
VERTEX
  8
0
 10
3574.558790
 20
5322.675672
 42
-0.007664
  0
VERTEX
  8
0
 10
3590.338345
 20
5394.493781
 42
-0.003106
  0
VERTEX
  8
0
 10
3613.946305
 20
5491.884012
 42
0.002753
  0
VERTEX
  8
0
 10
3637.788583
 20
5589.938494
 42
0.006612
  0
VERTEX
  8
0
 10
3654.090544
 20
5662.909277
 42
0.008697
  0
VERTEX
  8
0
 10
3664.703552
 20
5718.339326
 42
0.022056
  0
VERTEX
  8
0
 10
3669.923386
 20
5759.000000
 42
0.017630
  0
VERTEX
  8
0
 10
3671.534554
 20
5792.320943
 42
0.010630
  0
VERTEX
  8
0
 10
3671.210218
 20
5831.873869
 42
0.010427
  0
VERTEX
  8
0
 10
3669.148910
 20
5872.809672
 42
0.013212
  0
VERTEX
  8
0
 10
3665.459089
 20
5910.500000
 42
0.014476
  0
VERTEX
  8
0
 10
3658.415125
 20
5956.191259
 42
0.014089
  0
VERTEX
  8
0
 10
3648.686201
 20
6001.816932
 42
0.014505
  0
VERTEX
  8
0
 10
3636.773703
 20
6045.321329
 42
0.018498
  0
VERTEX
  8
0
 10
3623.170191
 20
6084.616795
 42
0.013465
  0
VERTEX
  8
0
 10
3609.195931
 20
6117.929462
 42
0.006045
  0
VERTEX
  8
0
 10
3589.141317
 20
6160.950360
 42
0.004581
  0
VERTEX
  8
0
 10
3568.917338
 20
6202.031441
 42
0.040377
  0
VERTEX
  8
0
 10
3558.391305
 20
6219.302900
 42
0.098822
  0
VERTEX
  8
0
 10
3549.263879
 20
6227.733738
 42
0.052757
  0
VERTEX
  8
0
 10
3535.332545
 20
6234.349043
 42
0.046903
  0
VERTEX
  8
0
 10
3518.270151
 20
6238.600061
 42
0.039422
  0
VERTEX
  8
0
 10
3499.677641
 20
6239.934189
 42
0.013389
  0
VERTEX
  8
0
 10
3495.762558
 20
6239.801228
 42
0.010951
  0
VERTEX
  8
0
 10
3491.587429
 20
6239.455466
 42
0.011105
  0
VERTEX
  8
0
 10
3487.759393
 20
6238.967699
 42
0.028402
  0
SEQEND
  0
POLYLINE
  8
0
 66
1
 70
1
  0
VERTEX
  8
0
 10
4338.001508
 20
6160.970650
 42
0.039205
  0
VERTEX
  8
0
 10
4334.521567
 20
6159.944503
 42
0.051607
  0
VERTEX
  8
0
 10
4331.570048
 20
6158.451763
 42
0.051331
  0
VERTEX
  8
0
 10
4328.974929
 20
6156.379104
 42
0.038204
  0
VERTEX
  8
0
 10
4326.561789
 20
6153.616157
 42
0.138927
  0
VERTEX
  8
0
 10
4324.566200
 20
6148.400999
 42
0.021605
  0
VERTEX
  8
0
 10
4324.051327
 20
6137.257926
 42
0.020315
  0
VERTEX
  8
0
 10
4324.603630
 20
6122.596949
 42
0.010767
  0
VERTEX
  8
0
 10
4326.415924
 20
6104.500000
 42
-0.016385
  0
VERTEX
  8
0
 10
4329.912767
 20
6065.125120
 42
-0.023180
  0
VERTEX
  8
0
 10
4330.245540
 20
6029.936885
 42
-0.023315
  0
VERTEX
  8
0
 10
4327.323038
 20
5995.025465
 42
-0.016866
  0
VERTEX
  8
0
 10
4320.952882
 20
5956.500000
 42
-0.012848
  0
VERTEX
  8
0
 10
4312.497162
 20
5919.262571
 42
-0.011724
  0
VERTEX
  8
0
 10
4301.903801
 20
5881.344857
 42
-0.009409
  0
VERTEX
  8
0
 10
4287.494553
 20
5837.078512
 42
-0.004233
  0
VERTEX
  8
0
 10
4266.998635
 20
5779.500000
 42
0.003253
  0
VERTEX
  8
0
 10
4247.410804
 20
5724.812188
 42
0.012615
  0
VERTEX
  8
0
 10
4236.353382
 20
5690.553147
 42
0.017629
  0
VERTEX
  8
0
 10
4228.988349
 20
5661.914796
 42
0.012070
  0
VERTEX
  8
0
 10
4222.570663
 20
5628.958207
 42
0.005949
  0
VERTEX
  8
0
 10
4218.375016
 20
5602.331456
 42
0.014385
  0
VERTEX
  8
0
 10
4216.076860
 20
5582.543462
 42
0.014729
  0
VERTEX
  8
0
 10
4214.950046
 20
5562.932835
 42
0.006523
  0
VERTEX
  8
0
 10
4214.563765
 20
5537.000000
 42
0.008483
  0
VERTEX
  8
0
 10
4215.007364
 20
5507.657768
 42
0.020546
  0
VERTEX
  8
0
 10
4216.591702
 20
5486.042913
 42
0.022378
  0
VERTEX
  8
0
 10
4219.845960
 20
5465.748889
 42
0.011962
  0
VERTEX
  8
0
 10
4225.580059
 20
5441.000000
 42
0.010016
  0
VERTEX
  8
0
 10
4233.807813
 20
5411.458272
 42
0.009750
  0
VERTEX
  8
0
 10
4243.281215
 20
5382.001936
 42
0.005719
  0
VERTEX
  8
0
 10
4257.582415
 20
5341.841390
 42
0.001122
  0
VERTEX
  8
0
 10
4284.278227
 20
5270.000000
 42
-0.001253
  0
VERTEX
  8
0
 10
4305.650472
 20
5212.438630
 42
-0.005270
  0
VERTEX
  8
0
 10
4318.032241
 20
5177.709094
 42
-0.007996
  0
VERTEX
  8
0
 10
4326.937622
 20
5150.466285
 42
-0.006797
  0
VERTEX
  8
0
 10
4335.484177
 20
5121.440585
 42
-0.009065
  0
VERTEX
  8
0
 10
4341.944728
 20
5096.619306
 42
-0.008650
  0
VERTEX
  8
0
 10
4347.609718
 20
5071.191107
 42
-0.007197
  0
VERTEX
  8
0
 10
4353.207642
 20
5041.687729
 42
-0.003538
  0
VERTEX
  8
0
 10
4359.523434
 20
5004.000000
 42
0.002866
  0
VERTEX
  8
0
 10
4363.377770
 20
4980.809255
 42
0.003498
  0
VERTEX
  8
0
 10
4367.259857
 20
4959.159212
 42
0.003184
  0
VERTEX
  8
0
 10
4370.757383
 20
4941.050444
 42
0.020459
  0
VERTEX
  8
0
 10
4372.957012
 20
4931.986281
 42
0.048885
  0
VERTEX
  8
0
 10
4374.774198
 20
4927.392340
 42
0.028611
  0
VERTEX
  8
0
 10
4377.776098
 20
4922.287334
 42
0.028693
  0
VERTEX
  8
0
 10
4381.299760
 20
4917.614934
 42
0.054347
  0
VERTEX
  8
0
 10
4384.717689
 20
4914.374866
 42
0.025019
  0
VERTEX
  8
0
 10
4386.733089
 20
4912.995835
 42
0.013614
  0
VERTEX
  8
0
 10
4389.332331
 20
4911.497861
 42
0.013536
  0
VERTEX
  8
0
 10
4392.064827
 20
4910.114920
 42
0.020860
  0
VERTEX
  8
0
 10
4394.504395
 20
4909.084240
 42
0.053263
  0
VERTEX
  8
0
 10
4404.311931
 20
4906.563266
 42
0.026563
  0
VERTEX
  8
0
 10
4417.093229
 20
4905.383297
 42
0.025836
  0
VERTEX
  8
0
 10
4429.454981
 20
4905.540486
 42
0.083041
  0
VERTEX
  8
0
 10
4437.441612
 20
4907.411157
 42
0.066848
  0
VERTEX
  8
0
 10
4441.722987
 20
4909.915531
 42
0.032414
  0
VERTEX
  8
0
 10
4446.468014
 20
4914.141300
 42
0.028338
  0
VERTEX
  8
0
 10
4451.398705
 20
4919.743264
 42
0.020438
  0
VERTEX
  8
0
 10
4456.265592
 20
4926.500000
 42
0.027775
  0
VERTEX
  8
0
 10
4466.025394
 20
4943.241012
 42
0.013208
  0
VERTEX
  8
0
 10
4476.787224
 20
4965.756820
 42
0.013186
  0
VERTEX
  8
0
 10
4486.603421
 20
4989.429525
 42
0.021618
  0
VERTEX
  8
0
 10
4493.500721
 20
5010.002504
 42
0.024278
  0
VERTEX
  8
0
 10
4500.488480
 20
5039.618304
 42
0.017173
  0
VERTEX
  8
0
 10
4505.555621
 20
5073.414972
 42
0.017262
  0
VERTEX
  8
0
 10
4508.259130
 20
5107.154125
 42
0.026242
  0
VERTEX
  8
0
 10
4508.052333
 20
5136.557637
 42
0.026404
  0
VERTEX
  8
0
 10
4503.482819
 20
5177.077121
 42
0.019755
  0
VERTEX
  8
0
 10
4494.352747
 20
5221.076834
 42
0.013265
  0
VERTEX
  8
0
 10
4478.407863
 20
5278.548238
 42
0.003941
  0
VERTEX
  8
0
 10
4451.029166
 20
5365.500000
 42
-0.001474
  0
VERTEX
  8
0
 10
4437.715989
 20
5407.063962
 42
-0.002431
  0
VERTEX
  8
0
 10
4426.740800
 20
5442.272820
 42
-0.002758
  0
VERTEX
  8
0
 10
4418.225762
 20
5470.621648
 42
-0.009019
  0
VERTEX
  8
0
 10
4413.036781
 20
5489.500000
 42
-0.021751
  0
VERTEX
  8
0
 10
4405.193143
 20
5526.903547
 42
-0.013730
  0
VERTEX
  8
0
 10
4399.155502
 20
5571.104461
 42
-0.013181
  0
VERTEX
  8
0
 10
4395.288058
 20
5618.198845
 42
-0.013994
  0
VERTEX
  8
0
 10
4394.010252
 20
5664.500000
 42
-0.010703
  0
VERTEX
  8
0
 10
4394.670593
 20
5694.786546
 42
-0.012817
  0
VERTEX
  8
0
 10
4396.632530
 20
5723.243198
 42
-0.007850
  0
VERTEX
  8
0
 10
4400.793211
 20
5760.857353
 42
-0.001559
  0
VERTEX
  8
0
 10
4409.501830
 20
5828.000000
 42
0.001901
  0
VERTEX
  8
0
 10
4419.263158
 20
5903.665519
 42
0.011117
  0
VERTEX
  8
0
 10
4423.359403
 20
5943.582219
 42
0.018234
  0
VERTEX
  8
0
 10
4424.704897
 20
5974.447977
 42
0.011778
  0
VERTEX
  8
0
 10
4424.116139
 20
6010.223591
 42
0.002737
  0
VERTEX
  8
0
 10
4423.122367
 20
6032.056740
 42
0.006472
  0
VERTEX
  8
0
 10
4422.082463
 20
6048.307587
 42
0.007845
  0
VERTEX
  8
0
 10
4420.766257
 20
6062.490422
 42
0.006559
  0
VERTEX
  8
0
 10
4418.935907
 20
6077.500000
 42
0.021072
  0
VERTEX
  8
0
 10
4413.667755
 20
6107.019772
 42
0.039012
  0
VERTEX
  8
0
 10
4406.551590
 20
6130.294181
 42
0.049709
  0
VERTEX
  8
0
 10
4397.964638
 20
6147.030771
 42
0.132180
  0
VERTEX
  8
0
 10
4388.078418
 20
6155.959994
 42
0.074771
  0
VERTEX
  8
0
 10
4379.253297
 20
6158.908847
 42
0.018374
  0
VERTEX
  8
0
 10
4364.055685
 20
6160.995847
 42
0.019177
  0
VERTEX
  8
0
 10
4348.535130
 20
6161.949662
 42
0.057917
  0
SEQEND
  0
POLYLINE
  8
0
 66
1
 70
1
  0
VERTEX
  8
0
 10
4623.000000
 20
4820.925739
 42
0.000331
  0
VERTEX
  8
0
 10
3980.811581
 20
4818.085529
 42
0.001004
  0
VERTEX
  8
0
 10
3543.766762
 20
4814.984988
 42
0.001444
  0
VERTEX
  8
0
 10
3212.322924
 20
4811.010675
 42
0.002187
  0
VERTEX
  8
0
 10
2924.000000
 20
4805.459448
 42
0.001864
  0
VERTEX
  8
0
 10
2790.268234
 20
4801.800528
 42
0.007887
  0
VERTEX
  8
0
 10
2710.205083
 20
4798.046403
 42
0.011979
  0
VERTEX
  8
0
 10
2657.815219
 20
4793.498810
 42
0.052479
  0
VERTEX
  8
0
 10
2627.500000
 20
4786.865835
 42
0.021910
  0
VERTEX
  8
0
 10
2619.225462
 20
4783.712658
 42
0.026822
  0
VERTEX
  8
0
 10
2611.815642
 20
4780.027369
 42
0.022535
  0
VERTEX
  8
0
 10
2603.898990
 20
4775.061581
 42
0.009999
  0
VERTEX
  8
0
 10
2593.899755
 20
4767.843013
 42
0.049990
  0
VERTEX
  8
0
 10
2565.214468
 20
4741.377280
 42
0.091973
  0
VERTEX
  8
0
 10
2548.874812
 20
4714.259888
 42
0.060516
  0
VERTEX
  8
0
 10
2539.546648
 20
4675.805227
 42
0.012149
  0
VERTEX
  8
0
 10
2533.003762
 20
4605.500000
 42
0.008083
  0
VERTEX
  8
0
 10
2530.449848
 20
4556.744872
 42
0.006123
  0
VERTEX
  8
0
 10
2529.168312
 20
4503.187669
 42
0.002682
  0
VERTEX
  8
0
 10
2528.635705
 20
4418.849568
 42
0.000295
  0
VERTEX
  8
0
 10
2528.565775
 20
4225.500000
 42
0.001091
  0
VERTEX
  8
0
 10
2529.297735
 20
3921.894135
 42
0.001760
  0
VERTEX
  8
0
 10
2531.395429
 20
3663.369377
 42
0.001948
  0
VERTEX
  8
0
 10
2534.616020
 20
3456.001486
 42
0.007178
  0
VERTEX
  8
0
 10
2539.043079
 20
3325.000000
 42
0.002782
  0
VERTEX
  8
0
 10
2546.860687
 20
3179.564478
 42
0.003332
  0
VERTEX
  8
0
 10
2555.895438
 20
3042.725039
 42
0.003636
  0
VERTEX
  8
0
 10
2565.634664
 20
2921.037052
 42
0.006751
  0
VERTEX
  8
0
 10
2575.584917
 20
2822.500000
 42
0.022356
  0
VERTEX
  8
0
 10
2612.691575
 20
2590.866755
 42
0.030058
  0
VERTEX
  8
0
 10
2668.051644
 20
2385.777372
 42
0.033229
  0
VERTEX
  8
0
 10
2741.525995
 20
2207.121768
 42
0.042706
  0
VERTEX
  8
0
 10
2833.120145
 20
2055.000000
 42
0.006889
  0
VERTEX
  8
0
 10
2853.799291
 20
2027.289930
 42
0.011054
  0
VERTEX
  8
0
 10
2872.276432
 20
2004.299923
 42
0.010970
  0
VERTEX
  8
0
 10
2891.853870
 20
1982.025319
 42
0.006652
  0
VERTEX
  8
0
 10
2915.934562
 20
1956.500000
 42
0.006251
  0
VERTEX
  8
0
 10
2943.283793
 20
1928.969204
 42
0.007846
  0
VERTEX
  8
0
 10
2969.343693
 20
1904.175057
 42
0.007808
  0
VERTEX
  8
0
 10
2996.273023
 20
1880.113976
 42
0.006090
  0
VERTEX
  8
0
 10
3026.250000
 20
1854.792282
 42
-0.001359
  0
VERTEX
  8
0
 10
3036.503852
 20
1846.295716
 42
-0.002230
  0
VERTEX
  8
0
 10
3045.132433
 20
1839.040777
 42
-0.000249
  0
VERTEX
  8
0
 10
3052.788633
 20
1832.538331
 42
-0.233966
  0
VERTEX
  8
0
 10
3052.966794
 20
1832.124509
 42
-0.166249
  0
VERTEX
  8
0
 10
3052.551983
 20
1831.093762
 42
-0.001254
  0
VERTEX
  8
0
 10
3046.505614
 20
1824.124336
 42
-0.003630
  0
VERTEX
  8
0
 10
3038.485856
 20
1815.060640
 42
-0.001211
  0
VERTEX
  8
0
 10
3026.621503
 20
1801.910658
 42
0.014329
  0
VERTEX
  8
0
 10
3001.234806
 20
1772.244120
 42
0.017122
  0
VERTEX
  8
0
 10
2979.118331
 20
1742.842429
 42
0.018189
  0
VERTEX
  8
0
 10
2960.291715
 20
1713.746790
 42
0.021723
  0
VERTEX
  8
0
 10
2944.792210
 20
1685.000000
 42
0.009108
  0
VERTEX
  8
0
 10
2937.499261
 20
1669.216479
 42
0.035767
  0
VERTEX
  8
0
 10
2933.893829
 20
1659.124271
 42
0.049373
  0
VERTEX
  8
0
 10
2932.360577
 20
1650.347419
 42
0.030421
  0
VERTEX
  8
0
 10
2932.219365
 20
1639.854556
 42
0.010318
  0
VERTEX
  8
0
 10
2932.587592
 20
1634.447994
 42
0.023234
  0
VERTEX
  8
0
 10
2933.140849
 20
1630.377722
 42
0.028017
  0
VERTEX
  8
0
 10
2933.987509
 20
1626.881307
 42
0.024318
  0
VERTEX
  8
0
 10
2935.253283
 20
1623.328156
 42
0.122123
  0
VERTEX
  8
0
 10
2952.763086
 20
1599.508237
 42
0.061918
  0
VERTEX
  8
0
 10
2984.285063
 20
1579.295408
 42
0.045224
  0
VERTEX
  8
0
 10
3030.276064
 20
1562.187652
 42
0.020762
  0
VERTEX
  8
0
 10
3092.692661
 20
1547.953424
 42
0.006114
  0
VERTEX
  8
0
 10
3109.868698
 20
1544.996689
 42
0.002592
  0
VERTEX
  8
0
 10
3132.968562
 20
1541.433119
 42
0.002573
  0
VERTEX
  8
0
 10
3155.933939
 20
1538.132775
 42
0.006701
  0
VERTEX
  8
0
 10
3172.500000
 20
1536.064872
 42
0.010338
  0
VERTEX
  8
0
 10
3214.756410
 20
1532.246836
 42
0.007876
  0
VERTEX
  8
0
 10
3261.157895
 20
1529.753454
 42
0.004700
  0
VERTEX
  8
0
 10
3326.218672
 20
1527.896663
 42
0.001033
  0
VERTEX
  8
0
 10
3438.000000
 20
1525.989003
 42
-0.001176
  0
VERTEX
  8
0
 10
3504.321813
 20
1524.838201
 42
-0.003264
  0
VERTEX
  8
0
 10
3550.939055
 20
1523.615116
 42
-0.004072
  0
VERTEX
  8
0
 10
3591.316925
 20
1521.962628
 42
-0.003002
  0
VERTEX
  8
0
 10
3636.000000
 20
1519.500357
 42
0.003570
  0
VERTEX
  8
0
 10
3649.458114
 20
1518.774095
 42
0.000420
  0
VERTEX
  8
0
 10
3679.440809
 20
1517.395962
 42
0.000527
  0
VERTEX
  8
0
 10
3713.545645
 20
1515.893107
 42
0.000559
  0
VERTEX
  8
0
 10
3747.000000
 20
1514.491740
 42
-0.000158
  0
VERTEX
  8
0
 10
3762.969689
 20
1513.835619
 42
-0.000131
  0
VERTEX
  8
0
 10
3779.946875
 20
1513.128264
 42
-0.000133
  0
VERTEX
  8
0
 10
3795.489945
 20
1512.472441
 42
-0.000360
  0
VERTEX
  8
0
 10
3806.500000
 20
1511.997006
 42
0.000463
  0
VERTEX
  8
0
 10
3828.634303
 20
1511.045752
 42
0.000166
  0
VERTEX
  8
0
 10
3860.151820
 20
1509.730981
 42
0.000151
  0
VERTEX
  8
0
 10
3897.596485
 20
1508.192797
 42
0.000112
  0
VERTEX
  8
0
 10
3939.000000
 20
1506.513853
 42
0.008061
  0
VERTEX
  8
0
 10
4078.565544
 20
1503.138165
 42
0.005962
  0
VERTEX
  8
0
 10
4232.994871
 20
1503.734680
 42
0.006035
  0
VERTEX
  8
0
 10
4383.597186
 20
1507.930776
 42
0.009882
  0
VERTEX
  8
0
 10
4511.000000
 20
1515.544165
 42
0.006431
  0
VERTEX
  8
0
 10
4609.977246
 20
1524.707106
 42
0.011748
  0
VERTEX
  8
0
 10
4690.402387
 20
1535.112970
 42
0.014307
  0
VERTEX
  8
0
 10
4754.914475
 20
1546.904093
 42
0.030462
  0
VERTEX
  8
0
 10
4803.771659
 20
1560.441278
 42
0.042153
  0
VERTEX
  8
0
 10
4839.562794
 20
1576.230028
 42
0.084945
  0
VERTEX
  8
0
 10
4863.681815
 20
1595.306953
 42
0.111125
  0
VERTEX
  8
0
 10
4876.136596
 20
1617.532720
 42
0.115796
  0
VERTEX
  8
0
 10
4877.614214
 20
1642.604115
 42
0.017086
  0
VERTEX
  8
0
 10
4875.740582
 20
1651.576437
 42
0.024353
  0
VERTEX
  8
0
 10
4873.423180
 20
1659.378331
 42
0.021039
  0
VERTEX
  8
0
 10
4870.098438
 20
1667.714526
 42
0.009097
  0
VERTEX
  8
0
 10
4865.009735
 20
1678.530224
 42
0.022255
  0
VERTEX
  8
0
 10
4854.953324
 20
1696.831279
 42
0.014546
  0
VERTEX
  8
0
 10
4841.831974
 20
1717.032355
 42
0.012006
  0
VERTEX
  8
0
 10
4824.932226
 20
1740.252188
 42
0.006580
  0
VERTEX
  8
0
 10
4803.183415
 20
1767.912326
 42
0.000000
  0
VERTEX
  8
0
 10
4786.694176
 20
1788.324652
 42
0.000000
  0
VERTEX
  8
0
 10
4790.658109
 20
1791.912326
 42
-0.004246
  0
VERTEX
  8
0
 10
4793.126638
 20
1794.108695
 42
-0.000488
  0
VERTEX
  8
0
 10
4798.727211
 20
1798.997583
 42
-0.000588
  0
VERTEX
  8
0
 10
4805.401815
 20
1804.798760
 42
-0.000479
  0
VERTEX
  8
0
 10
4812.561021
 20
1810.994339
 42
0.011037
  0
VERTEX
  8
0
 10
4829.929159
 20
1826.678144
 42
0.005706
  0
VERTEX
  8
0
 10
4850.975992
 20
1847.003770
 42
0.005679
  0
VERTEX
  8
0
 10
4871.242234
 20
1867.487571
 42
0.012964
  0
VERTEX
  8
0
 10
4885.944696
 20
1883.500000
 42
0.012414
  0
VERTEX
  8
0
 10
4911.095783
 20
1913.848655
 42
0.011504
  0
VERTEX
  8
0
 10
4935.375580
 20
1946.175603
 42
0.011048
  0
VERTEX
  8
0
 10
4959.077558
 20
1980.888918
 42
0.009487
  0
VERTEX
  8
0
 10
4982.494488
 20
2018.404762
 42
0.021993
  0
VERTEX
  8
0
 10
5033.357648
 20
2112.611648
 42
0.023388
  0
VERTEX
  8
0
 10
5074.618260
 20
2209.039116
 42
0.021344
  0
VERTEX
  8
0
 10
5109.583964
 20
2316.392641
 42
0.013550
  0
VERTEX
  8
0
 10
5141.501158
 20
2444.000000
 42
0.002075
  0
VERTEX
  8
0
 10
5148.321002
 20
2475.404070
 42
0.002606
  0
VERTEX
  8
0
 10
5154.368500
 20
2504.565567
 42
0.002042
  0
VERTEX
  8
0
 10
5161.149584
 20
2538.865063
 42
0.000725
  0
VERTEX
  8
0
 10
5170.573965
 20
2587.961189
 42
-0.000530
  0
VERTEX
  8
0
 10
5175.020585
 20
2611.174734
 42
-0.000873
  0
VERTEX
  8
0
 10
5178.835147
 20
2630.790561
 42
-0.000055
  0
VERTEX
  8
0
 10
5182.300358
 20
2648.435110
 42
-0.148928
  0
VERTEX
  8
0
 10
5182.527025
 20
2648.860359
 42
-0.204274
  0
VERTEX
  8
0
 10
5182.957197
 20
2649.033370
 42
-0.000065
  0
VERTEX
  8
0
 10
5201.691811
 20
2648.644737
 42
-0.001084
  0
VERTEX
  8
0
 10
5222.510640
 20
2648.164993
 42
-0.000656
  0
VERTEX
  8
0
 10
5247.153814
 20
2647.511291
 42
0.005088
  0
VERTEX
  8
0
 10
5325.859194
 20
2646.121378
 42
0.008802
  0
VERTEX
  8
0
 10
5391.296959
 20
2646.783674
 42
0.010276
  0
VERTEX
  8
0
 10
5448.537877
 20
2649.549105
 42
0.012486
  0
VERTEX
  8
0
 10
5502.000000
 20
2654.578394
 42
0.019065
  0
VERTEX
  8
0
 10
5577.593279
 20
2666.536667
 42
0.029620
  0
VERTEX
  8
0
 10
5641.464552
 20
2683.134458
 42
0.033188
  0
VERTEX
  8
0
 10
5697.171905
 20
2705.372626
 42
0.035777
  0
VERTEX
  8
0
 10
5748.000000
 20
2734.319026
 42
0.023703
  0
VERTEX
  8
0
 10
5777.653322
 20
2756.241324
 42
0.023686
  0
VERTEX
  8
0
 10
5805.105914
 20
2780.876958
 42
0.023478
  0
VERTEX
  8
0
 10
5830.329979
 20
2808.219677
 42
0.022362
  0
VERTEX
  8
0
 10
5853.316186
 20
2838.240774
 42
0.029989
  0
VERTEX
  8
0
 10
5882.827007
 20
2886.506389
 42
0.019655
  0
VERTEX
  8
0
 10
5911.160953
 20
2945.235094
 42
0.019117
  0
VERTEX
  8
0
 10
5935.830752
 20
3008.468006
 42
0.022035
  0
VERTEX
  8
0
 10
5954.320766
 20
3070.500000
 42
0.020252
  0
VERTEX
  8
0
 10
5969.165614
 20
3141.851652
 42
0.010351
  0
VERTEX
  8
0
 10
5982.288554
 20
3232.400436
 42
0.009629
  0
VERTEX
  8
0
 10
5992.867844
 20
3333.792277
 42
0.008701
  0
VERTEX
  8
0
 10
5999.959461
 20
3439.000000
 42
0.007087
  0
VERTEX
  8
0
 10
6002.336303
 20
3505.497968
 42
0.006908
  0
VERTEX
  8
0
 10
6002.855615
 20
3572.606246
 42
0.007255
  0
VERTEX
  8
0
 10
6001.575015
 20
3634.802766
 42
0.012854
  0
VERTEX
  8
0
 10
5998.458282
 20
3686.000000
 42
0.010433
  0
VERTEX
  8
0
 10
5994.285450
 20
3724.713580
 42
0.002166
  0
VERTEX
  8
0
 10
5985.240558
 20
3792.541251
 42
0.002290
  0
VERTEX
  8
0
 10
5975.520628
 20
3860.783801
 42
0.008326
  0
VERTEX
  8
0
 10
5968.426120
 20
3904.000000
 42
0.025919
  0
VERTEX
  8
0
 10
5957.442364
 20
3950.660107
 42
0.030061
  0
VERTEX
  8
0
 10
5942.095659
 20
3993.617573
 42
0.031508
  0
VERTEX
  8
0
 10
5922.488402
 20
4032.580922
 42
0.035153
  0
VERTEX
  8
0
 10
5898.762964
 20
4067.297812
 42
0.018644
  0
VERTEX
  8
0
 10
5890.213721
 20
4077.303673
 42
0.009407
  0
VERTEX
  8
0
 10
5878.742151
 20
4089.297304
 42
0.009404
  0
VERTEX
  8
0
 10
5866.853859
 20
4100.825491
 42
0.019063
  0
VERTEX
  8
0
 10
5857.000000
 20
4109.348302
 42
0.040173
  0
VERTEX
  8
0
 10
5818.443057
 20
4135.425870
 42
0.036324
  0
VERTEX
  8
0
 10
5774.919194
 20
4156.009193
 42
0.034071
  0
VERTEX
  8
0
 10
5726.174505
 20
4171.142145
 42
0.027185
  0
VERTEX
  8
0
 10
5672.000000
 20
4180.918911
 42
0.011416
  0
VERTEX
  8
0
 10
5609.943438
 20
4187.230476
 42
0.003480
  0
VERTEX
  8
0
 10
5515.762531
 20
4193.982339
 42
0.003584
  0
VERTEX
  8
0
 10
5414.095419
 20
4199.828579
 42
0.005070
  0
VERTEX
  8
0
 10
5323.500000
 20
4203.466340
 42
-0.001064
  0
VERTEX
  8
0
 10
5315.372799
 20
4203.727471
 42
-0.000864
  0
VERTEX
  8
0
 10
5306.662013
 20
4204.040971
 42
-0.000872
  0
VERTEX
  8
0
 10
5298.635144
 20
4204.357769
 42
-0.002271
  0
VERTEX
  8
0
 10
5292.860044
 20
4204.622073
 42
0.000000
  0
VERTEX
  8
0
 10
5281.220088
 20
4205.207782
 42
0.000000
  0
VERTEX
  8
0
 10
5280.699602
 20
4352.353891
 42
0.000624
  0
VERTEX
  8
0
 10
5280.255019
 20
4445.244157
 42
0.003003
  0
VERTEX
  8
0
 10
5279.618124
 20
4498.137986
 42
0.004627
  0
VERTEX
  8
0
 10
5278.486556
 20
4539.576222
 42
0.003290
  0
VERTEX
  8
0
 10
5276.482791
 20
4586.000000
 42
0.005313
  0
VERTEX
  8
0
 10
5273.599328
 20
4633.726992
 42
0.009163
  0
VERTEX
  8
0
 10
5270.050815
 20
4673.360878
 42
0.010671
  0
VERTEX
  8
0
 10
5265.967549
 20
4704.847772
 42
0.032182
  0
VERTEX
  8
0
 10
5261.358889
 20
4725.987963
 42
0.032008
  0
VERTEX
  8
0
 10
5256.810373
 20
4738.725435
 42
0.033665
  0
VERTEX
  8
0
 10
5250.736809
 20
4750.556303
 42
0.033855
  0
VERTEX
  8
0
 10
5243.166253
 20
4761.404913
 42
0.033164
  0
VERTEX
  8
0
 10
5234.152296
 20
4771.212435
 42
0.019581
  0
VERTEX
  8
0
 10
5226.659849
 20
4777.811384
 42
0.029609
  0
VERTEX
  8
0
 10
5219.607122
 20
4782.886083
 42
0.024419
  0
VERTEX
  8
0
 10
5211.068880
 20
4787.725993
 42
0.008909
  0
VERTEX
  8
0
 10
5198.546315
 20
4793.760301
 42
-0.001937
  0
VERTEX
  8
0
 10
5191.384346
 20
4797.089239
 42
-0.001245
  0
VERTEX
  8
0
 10
5183.101105
 20
4801.003642
 42
-0.001251
  0
VERTEX
  8
0
 10
5175.013083
 20
4804.875291
 42
-0.002349
  0
VERTEX
  8
0
 10
5168.500000
 20
4808.050872
 42
0.006637
  0
VERTEX
  8
0
 10
5160.789593
 20
4811.728725
 42
0.020459
  0
VERTEX
  8
0
 10
5155.449235
 20
4813.929470
 42
0.026699
  0
VERTEX
  8
0
 10
5150.780241
 20
4815.356350
 42
0.019854
  0
VERTEX
  8
0
 10
5145.500000
 20
4816.445985
 42
0.024169
  0
VERTEX
  8
0
 10
5130.193875
 20
4818.221324
 42
0.007803
  0
VERTEX
  8
0
 10
5107.391509
 20
4819.397582
 42
0.005006
  0
VERTEX
  8
0
 10
5073.549098
 20
4820.275022
 42
0.001265
  0
VERTEX
  8
0
 10
5018.500000
 20
4821.011559
 42
0.001191
  0
VERTEX
  8
0
 10
4953.006222
 20
4821.566031
 42
0.001575
  0
VERTEX
  8
0
 10
4893.344170
 20
4821.741019
 42
0.000790
  0
VERTEX
  8
0
 10
4808.907171
 20
4821.589239
 42
0.000095
  0
SEQEND
  0
POLYLINE
  8
0
 66
1
 70
1
  0
VERTEX
  8
0
 10
3974.000000
 20
4044.977177
 42
-0.005173
  0
VERTEX
  8
0
 10
4013.693979
 20
4043.015233
 42
-0.011378
  0
VERTEX
  8
0
 10
4043.972575
 20
4040.511979
 42
-0.013075
  0
VERTEX
  8
0
 10
4071.352928
 20
4036.893624
 42
-0.009602
  0
VERTEX
  8
0
 10
4101.500000
 20
4031.509152
 42
-0.033059
  0
VERTEX
  8
0
 10
4202.364194
 20
4004.456636
 42
-0.032846
  0
VERTEX
  8
0
 10
4299.008140
 20
3964.300503
 42
-0.032642
  0
VERTEX
  8
0
 10
4390.124957
 20
3911.556641
 42
-0.031744
  0
VERTEX
  8
0
 10
4474.500000
 20
3846.952817
 42
-0.013105
  0
VERTEX
  8
0
 10
4490.528058
 20
3832.225404
 42
-0.004577
  0
VERTEX
  8
0
 10
4512.827620
 20
3810.231591
 42
-0.004560
  0
VERTEX
  8
0
 10
4534.679126
 20
3787.877438
 42
-0.013496
  0
VERTEX
  8
0
 10
4549.116152
 20
3772.000000
 42
-0.034470
  0
VERTEX
  8
0
 10
4618.955978
 20
3678.591276
 42
-0.036664
  0
VERTEX
  8
0
 10
4673.709369
 20
3578.319830
 42
-0.036607
  0
VERTEX
  8
0
 10
4713.296853
 20
3470.980515
 42
-0.034150
  0
VERTEX
  8
0
 10
4737.921904
 20
3356.500000
 42
-0.005566
  0
VERTEX
  8
0
 10
4741.165129
 20
3332.160355
 42
-0.016076
  0
VERTEX
  8
0
 10
4742.680126
 20
3315.218615
 42
-0.012283
  0
VERTEX
  8
0
 10
4743.306526
 20
3295.935119
 42
-0.002209
  0
VERTEX
  8
0
 10
4743.431942
 20
3260.000000
 42
-0.008955
  0
VERTEX
  8
0
 10
4742.238498
 20
3196.651014
 42
-0.017883
  0
VERTEX
  8
0
 10
4738.608245
 20
3146.672472
 42
-0.020271
  0
VERTEX
  8
0
 10
4731.816304
 20
3101.367315
 42
-0.016006
  0
VERTEX
  8
0
 10
4720.931769
 20
3053.000000
 42
-0.018741
  0
VERTEX
  8
0
 10
4702.640592
 20
2991.891861
 42
-0.019527
  0
VERTEX
  8
0
 10
4680.043283
 20
2933.172014
 42
-0.019599
  0
VERTEX
  8
0
 10
4653.020990
 20
2876.598085
 42
-0.019201
  0
VERTEX
  8
0
 10
4621.479599
 20
2821.915787
 42
-0.023982
  0
VERTEX
  8
0
 10
4580.352369
 20
2763.014902
 42
-0.022610
  0
VERTEX
  8
0
 10
4533.000956
 20
2707.105911
 42
-0.022428
  0
VERTEX
  8
0
 10
4480.383761
 20
2655.259184
 42
-0.022650
  0
VERTEX
  8
0
 10
4423.500000
 20
2608.513085
 42
-0.012764
  0
VERTEX
  8
0
 10
4391.539934
 20
2585.837854
 42
-0.014711
  0
VERTEX
  8
0
 10
4359.916954
 20
2565.918404
 42
-0.013381
  0
VERTEX
  8
0
 10
4324.745905
 20
2546.432268
 42
-0.007906
  0
VERTEX
  8
0
 10
4281.803655
 20
2524.976224
 42
-0.009911
  0
VERTEX
  8
0
 10
4246.162326
 20
2508.728008
 42
-0.015683
  0
VERTEX
  8
0
 10
4214.942873
 20
2496.383237
 42
-0.015570
  0
VERTEX
  8
0
 10
4182.849041
 20
2485.959171
 42
-0.009587
  0
VERTEX
  8
0
 10
4144.500000
 20
2475.603814
 42
-0.010870
  0
VERTEX
  8
0
 10
4088.023430
 20
2462.806843
 42
-0.022783
  0
VERTEX
  8
0
 10
4043.543544
 20
2455.832589
 42
-0.021493
  0
VERTEX
  8
0
 10
3997.017391
 20
2452.711014
 42
-0.008649
  0
VERTEX
  8
0
 10
3933.293186
 20
2452.283063
 42
-0.005286
  0
VERTEX
  8
0
 10
3888.608070
 20
2453.228519
 42
-0.015080
  0
VERTEX
  8
0
 10
3857.564083
 20
2455.152106
 42
-0.017406
  0
VERTEX
  8
0
 10
3829.245721
 20
2458.763644
 42
-0.009278
  0
VERTEX
  8
0
 10
3794.500000
 20
2465.093921
 42
-0.020997
  0
VERTEX
  8
0
 10
3725.635267
 20
2482.001394
 42
-0.021683
  0
VERTEX
  8
0
 10
3659.179811
 20
2504.474945
 42
-0.021859
  0
VERTEX
  8
0
 10
3595.434623
 20
2532.421243
 42
-0.022170
  0
VERTEX
  8
0
 10
3534.680776
 20
2565.707002
 42
-0.032276
  0
VERTEX
  8
0
 10
3450.543615
 20
2624.521456
 42
-0.031347
  0
VERTEX
  8
0
 10
3373.801142
 20
2694.212064
 42
-0.031478
  0
VERTEX
  8
0
 10
3306.676852
 20
2772.637291
 42
-0.033227
  0
VERTEX
  8
0
 10
3251.242317
 20
2857.517360
 42
-0.022709
  0
VERTEX
  8
0
 10
3218.564934
 20
2922.375395
 42
-0.023535
  0
VERTEX
  8
0
 10
3192.330874
 20
2989.172437
 42
-0.023442
  0
VERTEX
  8
0
 10
3172.404131
 20
3058.392192
 42
-0.022142
  0
VERTEX
  8
0
 10
3158.600244
 20
3130.500000
 42
-0.008663
  0
VERTEX
  8
0
 10
3154.810718
 20
3160.050361
 42
-0.010910
  0
VERTEX
  8
0
 10
3152.375616
 20
3187.525812
 42
-0.010240
  0
VERTEX
  8
0
 10
3151.041538
 20
3216.444784
 42
-0.006315
  0
VERTEX
  8
0
 10
3150.599129
 20
3250.500000
 42
-0.010146
  0
VERTEX
  8
0
 10
3151.531443
 20
3297.269666
 42
-0.015175
  0
VERTEX
  8
0
 10
3154.413244
 20
3338.037063
 42
-0.016019
  0
VERTEX
  8
0
 10
3159.603453
 20
3376.844243
 42
-0.013450
  0
VERTEX
  8
0
 10
3167.519172
 20
3417.588638
 42
-0.031925
  0
VERTEX
  8
0
 10
3197.777783
 20
3521.790346
 42
-0.034246
  0
VERTEX
  8
0
 10
3240.501573
 20
3618.785061
 42
-0.034226
  0
VERTEX
  8
0
 10
3296.091132
 20
3709.089569
 42
-0.031813
  0
VERTEX
  8
0
 10
3364.744561
 20
3793.326028
 42
-0.025380
  0
VERTEX
  8
0
 10
3419.034545
 20
3846.245641
 42
-0.023633
  0
VERTEX
  8
0
 10
3479.670028
 20
3894.740978
 42
-0.023658
  0
VERTEX
  8
0
 10
3544.539942
 20
3937.245834
 42
-0.025585
  0
VERTEX
  8
0
 10
3611.500000
 20
3972.240413
 42
-0.020236
  0
VERTEX
  8
0
 10
3673.964973
 20
3997.913546
 42
-0.021609
  0
VERTEX
  8
0
 10
3736.961700
 20
4017.834773
 42
-0.021082
  0
VERTEX
  8
0
 10
3802.849179
 20
4032.631283
 42
-0.017479
  0
VERTEX
  8
0
 10
3874.000000
 20
4042.933444
 42
0.000221
  0
VERTEX
  8
0
 10
3881.304543
 20
4043.734889
 42
0.000294
  0
VERTEX
  8
0
 10
3887.946875
 20
4044.470609
 42
0.000207
  0
VERTEX
  8
0
 10
3893.516659
 20
4045.093190
 42
0.002967
  0
VERTEX
  8
0
 10
3895.500000
 20
4045.327641
 42
-0.030285
  0
VERTEX
  8
0
 10
3903.500023
 20
4045.832685
 42
-0.001740
  0
VERTEX
  8
0
 10
3928.130068
 20
4045.808432
 42
-0.002975
  0
VERTEX
  8
0
 10
3953.560208
 20
4045.543572
 42
-0.005669
  0
SEQEND
  0
POLYLINE
  8
0
 66
1
 70
1
  0
VERTEX
  8
0
 10
5398.500000
 20
3911.023438
 42
-0.011868
  0
VERTEX
  8
0
 10
5426.439153
 20
3908.691955
 42
-0.011242
  0
VERTEX
  8
0
 10
5454.747640
 20
3905.006153
 42
-0.011243
  0
VERTEX
  8
0
 10
5482.858252
 20
3900.052144
 42
-0.011878
  0
VERTEX
  8
0
 10
5510.203996
 20
3893.917495
 42
-0.038295
  0
VERTEX
  8
0
 10
5550.858251
 20
3880.400410
 42
-0.051243
  0
VERTEX
  8
0
 10
5584.945956
 20
3861.780899
 42
-0.052607
  0
VERTEX
  8
0
 10
5613.859848
 20
3837.056328
 42
-0.043622
  0
VERTEX
  8
0
 10
5639.053464
 20
3805.324137
 42
-0.038012
  0
VERTEX
  8
0
 10
5656.348078
 20
3774.249825
 42
-0.026425
  0
VERTEX
  8
0
 10
5671.217787
 20
3736.916820
 42
-0.024862
  0
VERTEX
  8
0
 10
5682.976962
 20
3695.475709
 42
-0.023026
  0
VERTEX
  8
0
 10
5690.921057
 20
3652.000000
 42
-0.024108
  0
VERTEX
  8
0
 10
5698.421273
 20
3565.490454
 42
-0.013588
  0
VERTEX
  8
0
 10
5699.591096
 20
3460.115610
 42
-0.013255
  0
VERTEX
  8
0
 10
5694.884620
 20
3349.657012
 42
-0.016295
  0
VERTEX
  8
0
 10
5684.410535
 20
3247.000000
 42
-0.009659
  0
VERTEX
  8
0
 10
5677.112848
 20
3199.857808
 42
-0.019294
  0
VERTEX
  8
0
 10
5669.194171
 20
3162.974351
 42
-0.023669
  0
VERTEX
  8
0
 10
5659.834325
 20
3132.435167
 42
-0.029305
  0
VERTEX
  8
0
 10
5648.163082
 20
3105.083634
 42
-0.044230
  0
VERTEX
  8
0
 10
5632.607799
 20
3079.730400
 42
-0.073995
  0
VERTEX
  8
0
 10
5614.935697
 20
3062.095116
 42
-0.053215
  0
VERTEX
  8
0
 10
5588.954834
 20
3046.861839
 42
-0.013531
  0
VERTEX
  8
0
 10
5543.829587
 20
3027.947086
 42
-0.014012
  0
VERTEX
  8
0
 10
5494.334148
 20
3010.336650
 42
-0.013320
  0
VERTEX
  8
0
 10
5443.091438
 20
2995.202925
 42
-0.013456
  0
VERTEX
  8
0
 10
5391.683353
 20
2982.969442
 42
-0.015165
  0
VERTEX
  8
0
 10
5341.694706
 20
2974.059553
 42
-0.004061
  0
VERTEX
  8
0
 10
5320.511003
 20
2971.118852
 42
-0.001536
  0
VERTEX
  8
0
 10
5290.867237
 20
2967.341444
 42
-0.001411
  0
VERTEX
  8
0
 10
5261.879717
 20
2963.821165
 42
-0.006444
  0
VERTEX
  8
0
 10
5245.000000
 20
2962.039857
 42
0.000598
  0
VERTEX
  8
0
 10
5240.201584
 20
2961.590139
 42
0.000559
  0
VERTEX
  8
0
 10
5235.293753
 20
2961.118709
 42
0.000556
  0
VERTEX
  8
0
 10
5230.935929
 20
2960.690306
 42
0.001907
  0
VERTEX
  8
0
 10
5228.106393
 20
2960.398064
 42
0.000000
  0
VERTEX
  8
0
 10
5222.712786
 20
2959.820202
 42
0.000000
  0
VERTEX
  8
0
 10
5223.399062
 20
2969.660101
 42
-0.007544
  0
VERTEX
  8
0
 10
5223.917453
 20
2975.764384
 42
-0.000838
  0
VERTEX
  8
0
 10
5225.334652
 20
2989.681405
 42
-0.001020
  0
VERTEX
  8
0
 10
5227.083034
 20
3006.240014
 42
-0.000826
  0
VERTEX
  8
0
 10
5229.024598
 20
3024.000000
 42
0.004414
  0
VERTEX
  8
0
 10
5244.317624
 20
3173.835429
 42
0.004555
  0
VERTEX
  8
0
 10
5256.789070
 20
3322.357550
 42
0.004723
  0
VERTEX
  8
0
 10
5266.119361
 20
3465.221024
 42
0.005901
  0
VERTEX
  8
0
 10
5271.961059
 20
3598.000000
 42
-0.000467
  0
VERTEX
  8
0
 10
5272.388291
 20
3610.903138
 42
-0.000487
  0
VERTEX
  8
0
 10
5272.833824
 20
3623.625000
 42
-0.000468
  0
VERTEX
  8
0
 10
5273.239920
 20
3634.620570
 42
-0.002144
  0
VERTEX
  8
0
 10
5273.508906
 20
3641.000000
 42
0.007712
  0
VERTEX
  8
0
 10
5273.756732
 20
3648.990591
 42
0.000337
  0
VERTEX
  8
0
 10
5274.172750
 20
3676.894534
 42
0.000572
  0
VERTEX
  8
0
 10
5274.606003
 20
3709.989067
 42
0.000408
  0
VERTEX
  8
0
 10
5275.018492
 20
3747.045221
 42
-0.000687
  0
VERTEX
  8
0
 10
5275.672154
 20
3802.966389
 42
-0.002681
  0
VERTEX
  8
0
 10
5276.309039
 20
3837.530994
 42
-0.003696
  0
VERTEX
  8
0
 10
5277.203615
 20
3866.215015
 42
-0.002392
  0
VERTEX
  8
0
 10
5278.642959
 20
3899.395877
 42
0.000000
  0
VERTEX
  8
0
 10
5279.312348
 20
3913.291754
 42
0.000000
  0
VERTEX
  8
0
 10
5329.906174
 20
3912.693921
 42
-0.001526
  0
VERTEX
  8
0
 10
5350.596037
 20
3912.386304
 42
-0.001608
  0
VERTEX
  8
0
 10
5370.925564
 20
3911.956610
 42
-0.001536
  0
VERTEX
  8
0
 10
5388.454851
 20
3911.475839
 42
-0.007258
  0
SEQEND
  0
POLYLINE
  8
0
 66
1
 70
1
  0
VERTEX
  8
0
 10
3654.500000
 20
3645.976363
 42
0.010272
  0
VERTEX
  8
0
 10
3644.331335
 20
3645.219050
 42
0.022121
  0
VERTEX
  8
0
 10
3636.554449
 20
3644.130115
 42
0.024107
  0
VERTEX
  8
0
 10
3629.332160
 20
3642.427189
 42
0.014787
  0
VERTEX
  8
0
 10
3621.000000
 20
3639.764268
 42
0.052442
  0
VERTEX
  8
0
 10
3593.249578
 20
3626.574337
 42
0.045846
  0
VERTEX
  8
0
 10
3567.467376
 20
3607.373772
 42
0.045891
  0
VERTEX
  8
0
 10
3545.640253
 20
3583.818527
 42
0.052812
  0
VERTEX
  8
0
 10
3529.627084
 20
3557.705903
 42
0.055496
  0
VERTEX
  8
0
 10
3518.098184
 20
3524.448005
 42
0.056475
  0
VERTEX
  8
0
 10
3514.257444
 20
3489.666601
 42
0.056348
  0
VERTEX
  8
0
 10
3518.295725
 20
3454.836591
 42
0.054785
  0
VERTEX
  8
0
 10
3530.015540
 20
3421.435954
 42
0.058964
  0
VERTEX
  8
0
 10
3549.134483
 20
3391.257845
 42
0.055917
  0
VERTEX
  8
0
 10
3575.077337
 20
3365.768890
 42
0.056122
  0
VERTEX
  8
0
 10
3605.923799
 20
3346.740745
 42
0.060315
  0
VERTEX
  8
0
 10
3639.500000
 20
3335.609546
 42
0.028277
  0
VERTEX
  8
0
 10
3654.241430
 20
3333.485606
 42
0.021589
  0
VERTEX
  8
0
 10
3670.528610
 20
3332.778526
 42
0.021602
  0
VERTEX
  8
0
 10
3686.801734
 20
3333.478407
 42
0.028467
  0
VERTEX
  8
0
 10
3701.500000
 20
3335.596182
 42
0.074335
  0
VERTEX
  8
0
 10
3745.007687
 20
3351.399566
 42
0.071472
  0
VERTEX
  8
0
 10
3782.647568
 20
3379.395570
 42
0.072258
  0
VERTEX
  8
0
 10
3810.551038
 20
3416.537032
 42
0.078929
  0
VERTEX
  8
0
 10
3825.692233
 20
3459.000000
 42
0.034251
  0
VERTEX
  8
0
 10
3827.158206
 20
3471.525177
 42
0.012108
  0
VERTEX
  8
0
 10
3827.588701
 20
3489.593536
 42
0.011950
  0
VERTEX
  8
0
 10
3827.152536
 20
3507.544903
 42
0.037863
  0
VERTEX
  8
0
 10
3825.668434
 20
3519.463717
 42
0.059075
  0
VERTEX
  8
0
 10
3813.537355
 20
3556.369180
 42
0.060313
  0
VERTEX
  8
0
 10
3793.174210
 20
3589.134101
 42
0.060700
  0
VERTEX
  8
0
 10
3765.716609
 20
3615.918770
 42
0.061250
  0
VERTEX
  8
0
 10
3732.710074
 20
3635.231003
 42
0.035063
  0
VERTEX
  8
0
 10
3715.877587
 20
3641.127538
 42
0.032590
  0
VERTEX
  8
0
 10
3697.970684
 20
3644.789024
 42
0.029041
  0
VERTEX
  8
0
 10
3677.902214
 20
3646.367065
 42
0.018552
  0
SEQEND
  0
POLYLINE
  8
0
 66
1
 70
1
  0
VERTEX
  8
0
 10
4174.500000
 20
3641.339191
 42
0.023886
  0
VERTEX
  8
0
 10
4167.003275
 20
3639.356541
 42
0.012654
  0
VERTEX
  8
0
 10
4157.912094
 20
3636.226140
 42
0.012249
  0
VERTEX
  8
0
 10
4148.403475
 20
3632.412591
 42
0.014206
  0
VERTEX
  8
0
 10
4139.558330
 20
3628.309590
 42
0.055822
  0
VERTEX
  8
0
 10
4109.453466
 20
3608.831651
 42
0.057465
  0
VERTEX
  8
0
 10
4084.730124
 20
3583.345172
 42
0.057152
  0
VERTEX
  8
0
 10
4066.349049
 20
3552.765467
 42
0.054138
  0
VERTEX
  8
0
 10
4054.958021
 20
3518.261305
 42
0.029792
  0
VERTEX
  8
0
 10
4053.283305
 20
3507.264641
 42
0.012981
  0
VERTEX
  8
0
 10
4052.314579
 20
3492.519626
 42
0.012975
  0
VERTEX
  8
0
 10
4052.112376
 20
3477.756523
 42
0.030075
  0
VERTEX
  8
0
 10
4052.913313
 20
3466.710896
 42
0.061804
  0
VERTEX
  8
0
 10
4062.438190
 20
3430.316001
 42
0.059738
  0
VERTEX
  8
0
 10
4080.640938
 20
3396.897126
 42
0.059379
  0
VERTEX
  8
0
 10
4106.348532
 20
3368.555730
 42
0.059674
  0
VERTEX
  8
0
 10
4137.956613
 20
3347.104419
 42
0.031836
  0
VERTEX
  8
0
 10
4157.542081
 20
3338.512556
 42
0.036249
  0
VERTEX
  8
0
 10
4177.237437
 20
3332.906870
 42
0.035947
  0
VERTEX
  8
0
 10
4197.679820
 20
3330.172775
 42
0.030380
  0
VERTEX
  8
0
 10
4219.500000
 20
3330.165067
 42
0.050592
  0
VERTEX
  8
0
 10
4247.822028
 20
3334.778821
 42
0.044952
  0
VERTEX
  8
0
 10
4275.844978
 20
3345.085117
 42
0.044627
  0
VERTEX
  8
0
 10
4301.775753
 20
3360.329442
 42
0.048105
  0
VERTEX
  8
0
 10
4323.888947
 20
3379.599146
 42
0.064369
  0
VERTEX
  8
0
 10
4347.020288
 20
3411.370726
 42
0.065103
  0
VERTEX
  8
0
 10
4361.203737
 20
3447.860766
 42
0.063787
  0
VERTEX
  8
0
 10
4365.707797
 20
3487.444643
 42
0.057748
  0
VERTEX
  8
0
 10
4360.388512
 20
3528.299348
 42
0.047541
  0
VERTEX
  8
0
 10
4351.057672
 20
3554.689712
 42
0.047934
  0
VERTEX
  8
0
 10
4336.930317
 20
3578.764967
 42
0.047270
  0
VERTEX
  8
0
 10
4318.271540
 20
3599.999548
 42
0.043786
  0
VERTEX
  8
0
 10
4295.500000
 20
3617.962336
 42
0.021162
  0
VERTEX
  8
0
 10
4286.695671
 20
3623.216680
 42
0.009711
  0
VERTEX
  8
0
 10
4274.814337
 20
3629.346732
 42
0.009634
  0
VERTEX
  8
0
 10
4262.844893
 20
3634.947104
 42
0.024218
  0
VERTEX
  8
0
 10
4253.867509
 20
3638.428451
 42
0.038507
  0
VERTEX
  8
0
 10
4245.359176
 20
3640.551511
 42
0.020136
  0
VERTEX
  8
0
 10
4234.520963
 20
3641.938606
 42
0.015535
  0
VERTEX
  8
0
 10
4220.648976
 20
3642.715618
 42
0.007090
  0
VERTEX
  8
0
 10
4202.500000
 20
3642.909922
 42
0.004226
  0
VERTEX
  8
0
 10
4192.555596
 20
3642.791305
 42
0.008915
  0
VERTEX
  8
0
 10
4184.844877
 20
3642.496540
 42
0.011271
  0
VERTEX
  8
0
 10
4178.867043
 20
3642.025829
 42
0.027423
  0
SEQEND
  0
POLYLINE
  8
0
 66
1
 70
1
  0
VERTEX
  8
0
 10
3348.317169
 20
3238.563684
 42
0.037994
  0
VERTEX
  8
0
 10
3339.628990
 20
3235.873544
 42
0.037220
  0
VERTEX
  8
0
 10
3331.385232
 20
3231.884977
 42
0.034128
  0
VERTEX
  8
0
 10
3323.218122
 20
3226.377960
 42
0.023578
  0
VERTEX
  8
0
 10
3314.750075
 20
3219.119434
 42
0.096434
  0
VERTEX
  8
0
 10
3298.067177
 20
3195.885739
 42
0.095115
  0
VERTEX
  8
0
 10
3291.213513
 20
3167.976344
 42
0.071462
  0
VERTEX
  8
0
 10
3294.417279
 20
3133.074462
 42
0.030965
  0
VERTEX
  8
0
 10
3308.057103
 20
3088.368164
 42
0.012712
  0
VERTEX
  8
0
 10
3318.591947
 20
3062.254967
 42
0.008740
  0
VERTEX
  8
0
 10
3331.794781
 20
3033.188279
 42
0.008743
  0
VERTEX
  8
0
 10
3345.999375
 20
3004.613543
 42
0.012758
  0
VERTEX
  8
0
 10
3359.584394
 20
2980.000000
 42
0.010383
  0
VERTEX
  8
0
 10
3373.809278
 20
2956.830060
 42
0.007965
  0
VERTEX
  8
0
 10
3390.270769
 20
2932.100086
 42
0.008113
  0
VERTEX
  8
0
 10
3406.747124
 20
2908.994243
 42
0.015314
  0
VERTEX
  8
0
 10
3420.895131
 20
2891.000000
 42
0.017642
  0
VERTEX
  8
0
 10
3443.239349
 20
2866.142709
 42
0.007150
  0
VERTEX
  8
0
 10
3475.336446
 20
2833.813032
 42
0.007211
  0
VERTEX
  8
0
 10
3509.498010
 20
2801.325477
 42
0.012393
  0
VERTEX
  8
0
 10
3539.000000
 20
2775.393743
 42
0.017382
  0
VERTEX
  8
0
 10
3563.076651
 20
2756.648396
 42
0.012023
  0
VERTEX
  8
0
 10
3591.519738
 20
2737.075143
 42
0.011756
  0
VERTEX
  8
0
 10
3621.805883
 20
2718.290114
 42
0.013634
  0
VERTEX
  8
0
 10
3651.500000
 20
2701.898096
 42
0.022593
  0
VERTEX
  8
0
 10
3710.997100
 20
2674.470621
 42
0.024591
  0
VERTEX
  8
0
 10
3771.087963
 20
2653.376166
 42
0.024401
  0
VERTEX
  8
0
 10
3833.386926
 20
2638.154420
 42
0.021558
  0
VERTEX
  8
0
 10
3899.500000
 20
2628.315378
 42
0.020486
  0
VERTEX
  8
0
 10
3923.193363
 20
2626.804994
 42
0.005647
  0
VERTEX
  8
0
 10
3960.534138
 20
2626.379271
 42
0.005681
  0
VERTEX
  8
0
 10
3997.930267
 20
2626.800194
 42
0.019857
  0
VERTEX
  8
0
 10
4022.000000
 20
2628.302330
 42
0.012670
  0
VERTEX
  8
0
 10
4061.162733
 20
2633.317801
 42
0.014344
  0
VERTEX
  8
0
 10
4098.421633
 20
2640.151598
 42
0.014664
  0
VERTEX
  8
0
 10
4134.470022
 20
2648.950664
 42
0.014592
  0
VERTEX
  8
0
 10
4170.000000
 20
2659.860340
 42
0.051991
  0
VERTEX
  8
0
 10
4294.893799
 20
2717.288635
 42
0.051023
  0
VERTEX
  8
0
 10
4406.113082
 20
2799.550221
 42
0.050909
  0
VERTEX
  8
0
 10
4498.585492
 20
2902.824034
 42
0.051285
  0
VERTEX
  8
0
 10
4568.021376
 20
3022.408964
 42
0.011888
  0
VERTEX
  8
0
 10
4579.638372
 20
3049.900455
 42
0.007401
  0
VERTEX
  8
0
 10
4592.008326
 20
3082.641722
 42
0.006754
  0
VERTEX
  8
0
 10
4602.671248
 20
3113.477869
 42
0.030261
  0
VERTEX
  8
0
 10
4607.561857
 20
3131.943018
 42
0.039075
  0
VERTEX
  8
0
 10
4608.755462
 20
3141.817160
 42
0.018529
  0
VERTEX
  8
0
 10
4608.821315
 20
3154.642649
 42
0.018537
  0
VERTEX
  8
0
 10
4607.935345
 20
3167.464613
 42
0.038247
  0
VERTEX
  8
0
 10
4606.112293
 20
3177.341953
 42
0.063715
  0
VERTEX
  8
0
 10
4599.031307
 20
3194.754646
 42
0.069092
  0
VERTEX
  8
0
 10
4587.941806
 20
3209.298184
 42
0.067740
  0
VERTEX
  8
0
 10
4573.101571
 20
3220.488782
 42
0.057762
  0
VERTEX
  8
0
 10
4555.000000
 20
3228.044702
 42
0.040981
  0
VERTEX
  8
0
 10
4545.893254
 20
3229.872888
 42
0.019699
  0
VERTEX
  8
0
 10
4534.007367
 20
3230.787603
 42
0.019585
  0
VERTEX
  8
0
 10
4522.247024
 20
3230.767006
 42
0.047496
  0
VERTEX
  8
0
 10
4513.652685
 20
3229.592355
 42
0.040415
  0
VERTEX
  8
0
 10
4503.951304
 20
3226.468239
 42
0.036772
  0
VERTEX
  8
0
 10
4494.552486
 20
3221.743055
 42
0.036018
  0
VERTEX
  8
0
 10
4485.760096
 20
3215.580120
 42
0.035145
  0
VERTEX
  8
0
 10
4477.865744
 20
3208.172171
 42
0.045912
  0
VERTEX
  8
0
 10
4470.115171
 20
3198.085128
 42
0.032377
  0
VERTEX
  8
0
 10
4463.272658
 20
3185.520107
 42
0.021685
  0
VERTEX
  8
0
 10
4455.992663
 20
3167.838169
 42
0.006618
  0
VERTEX
  8
0
 10
4446.507269
 20
3140.500000
 42
-0.003778
  0
VERTEX
  8
0
 10
4442.909972
 20
3129.938755
 42
-0.003241
  0
VERTEX
  8
0
 10
4438.968444
 20
3118.878125
 42
-0.003265
  0
VERTEX
  8
0
 10
4435.257994
 20
3108.879376
 42
-0.009358
  0
VERTEX
  8
0
 10
4432.505608
 20
3102.000000
 42
-0.047245
  0
VERTEX
  8
0
 10
4387.013635
 20
3017.470579
 42
-0.043551
  0
VERTEX
  8
0
 10
4325.350518
 20
2940.462483
 42
-0.043989
  0
VERTEX
  8
0
 10
4251.988849
 20
2876.036189
 42
-0.050732
  0
VERTEX
  8
0
 10
4171.754258
 20
2828.880586
 42
-0.011395
  0
VERTEX
  8
0
 10
4148.840909
 20
2818.998566
 42
-0.011335
  0
VERTEX
  8
0
 10
4125.460809
 20
2810.152338
 42
-0.011479
  0
VERTEX
  8
0
 10
4102.013785
 20
2802.483809
 42
-0.012513
  0
VERTEX
  8
0
 10
4078.900175
 20
2796.133934
 42
-0.023878
  0
VERTEX
  8
0
 10
4035.156845
 20
2787.478783
 42
-0.022821
  0
VERTEX
  8
0
 10
3990.121159
 20
2782.871035
 42
-0.022707
  0
VERTEX
  8
0
 10
3944.624022
 20
2782.374289
 42
-0.023053
  0
VERTEX
  8
0
 10
3899.500000
 20
2786.018585
 42
-0.027264
  0
VERTEX
  8
0
 10
3843.045848
 20
2796.361465
 42
-0.026250
  0
VERTEX
  8
0
 10
3787.317544
 20
2812.882346
 42
-0.026675
  0
VERTEX
  8
0
 10
3734.560625
 20
2834.816914
 42
-0.030782
  0
VERTEX
  8
0
 10
3687.000000
 20
2861.352087
 42
-0.014859
  0
VERTEX
  8
0
 10
3661.927865
 20
2878.511046
 42
-0.015495
  0
VERTEX
  8
0
 10
3638.275686
 20
2896.900709
 42
-0.014490
  0
VERTEX
  8
0
 10
3614.458686
 20
2917.825202
 42
-0.010192
  0
VERTEX
  8
0
 10
3588.855769
 20
2942.661459
 42
-0.011597
  0
VERTEX
  8
0
 10
3561.120893
 20
2972.016805
 42
-0.021431
  0
VERTEX
  8
0
 10
3540.210006
 20
2997.302885
 42
-0.019657
  0
VERTEX
  8
0
 10
3520.405385
 20
3025.711008
 42
-0.008177
  0
VERTEX
  8
0
 10
3495.837969
 20
3065.500000
 42
-0.005822
  0
VERTEX
  8
0
 10
3481.703030
 20
3089.895003
 42
-0.007536
  0
VERTEX
  8
0
 10
3469.338621
 20
3112.612339
 42
-0.008337
  0
VERTEX
  8
0
 10
3459.314712
 20
3132.508627
 42
-0.018761
  0
VERTEX
  8
0
 10
3452.542399
 20
3147.984502
 42
-0.015568
  0
VERTEX
  8
0
 10
3450.876682
 20
3152.636403
 42
-0.006663
  0
VERTEX
  8
0
 10
3448.928846
 20
3158.946859
 42
-0.006585
  0
VERTEX
  8
0
 10
3447.029612
 20
3165.732807
 42
-0.008620
  0
VERTEX
  8
0
 10
3445.483231
 20
3171.984502
 42
0.023893
  0
VERTEX
  8
0
 10
3441.233033
 20
3187.162823
 42
0.041260
  0
VERTEX
  8
0
 10
3436.090550
 20
3199.215742
 42
0.044161
  0
VERTEX
  8
0
 10
3429.315780
 20
3209.692592
 42
0.032548
  0
VERTEX
  8
0
 10
3420.124478
 20
3220.018121
 42
0.031367
  0
VERTEX
  8
0
 10
3413.406463
 20
3225.858897
 42
0.036391
  0
VERTEX
  8
0
 10
3406.322552
 20
3230.502042
 42
0.035392
  0
VERTEX
  8
0
 10
3398.469719
 20
3234.167318
 42
0.027034
  0
VERTEX
  8
0
 10
3389.441978
 20
3237.077914
 42
0.037859
  0
VERTEX
  8
0
 10
3380.335062
 20
3238.755313
 42
0.017590
  0
VERTEX
  8
0
 10
3368.338792
 20
3239.611973
 42
0.017328
  0
VERTEX
  8
0
 10
3356.546917
 20
3239.629201
 42
0.047819
  0
SEQEND
  0
ENDSEC
  0
EOF
