  0
SECTION
  2
HEADER
  9
$ACADVER
  1
AC1006
  9
$EXTMIN
 10
0.000000
 20
0.000000
 30
0.000000
  9
$EXTMAX
 10
7813.000000
 20
7813.000000
 30
0.000000
  0
ENDSEC
  0
SECTION
  2
ENTITIES
  0
POLYLINE
  8
0
 66
1
 70
1
  0
VERTEX
  8
0
 10
4623.000000
 20
4820.925739
 42
0.000331
  0
VERTEX
  8
0
 10
3980.811581
 20
4818.085529
 42
0.001004
  0
VERTEX
  8
0
 10
3543.766762
 20
4814.984988
 42
0.001444
  0
VERTEX
  8
0
 10
3212.322924
 20
4811.010675
 42
0.002187
  0
VERTEX
  8
0
 10
2924.000000
 20
4805.459448
 42
0.001864
  0
VERTEX
  8
0
 10
2790.268234
 20
4801.800528
 42
0.007887
  0
VERTEX
  8
0
 10
2710.205083
 20
4798.046403
 42
0.011979
  0
VERTEX
  8
0
 10
2657.815219
 20
4793.498810
 42
0.052479
  0
VERTEX
  8
0
 10
2627.500000
 20
4786.865835
 42
0.021910
  0
VERTEX
  8
0
 10
2619.225462
 20
4783.712658
 42
0.026822
  0
VERTEX
  8
0
 10
2611.815642
 20
4780.027369
 42
0.022535
  0
VERTEX
  8
0
 10
2603.898990
 20
4775.061581
 42
0.009999
  0
VERTEX
  8
0
 10
2593.899755
 20
4767.843013
 42
0.049990
  0
VERTEX
  8
0
 10
2565.214468
 20
4741.377280
 42
0.091973
  0
VERTEX
  8
0
 10
2548.874812
 20
4714.259888
 42
0.060516
  0
VERTEX
  8
0
 10
2539.546648
 20
4675.805227
 42
0.012149
  0
VERTEX
  8
0
 10
2533.003762
 20
4605.500000
 42
0.008083
  0
VERTEX
  8
0
 10
2530.449848
 20
4556.744872
 42
0.006123
  0
VERTEX
  8
0
 10
2529.168312
 20
4503.187669
 42
0.002682
  0
VERTEX
  8
0
 10
2528.635705
 20
4418.849568
 42
0.000295
  0
VERTEX
  8
0
 10
2528.565775
 20
4225.500000
 42
0.001092
  0
VERTEX
  8
0
 10
2529.298037
 20
3921.979227
 42
0.001759
  0
VERTEX
  8
0
 10
2531.396464
 20
3663.417434
 42
0.001946
  0
VERTEX
  8
0
 10
2534.617305
 20
3455.979236
 42
0.007180
  0
VERTEX
  8
0
 10
2539.043079
 20
3325.000000
 42
0.002680
  0
VERTEX
  8
0
 10
2546.533055
 20
3185.129701
 42
0.003158
  0
VERTEX
  8
0
 10
2555.170092
 20
3052.796387
 42
0.003432
  0
VERTEX
  8
0
 10
2564.493926
 20
2934.045289
 42
0.006029
  0
VERTEX
  8
0
 10
2574.061643
 20
2836.000000
 42
0.022481
  0
VERTEX
  8
0
 10
2610.758112
 20
2600.047508
 42
0.030269
  0
VERTEX
  8
0
 10
2666.271686
 20
2391.166855
 42
0.033499
  0
VERTEX
  8
0
 10
2740.406227
 20
2209.397329
 42
0.043302
  0
VERTEX
  8
0
 10
2833.120145
 20
2055.000000
 42
0.006889
  0
VERTEX
  8
0
 10
2853.799291
 20
2027.289930
 42
0.011054
  0
VERTEX
  8
0
 10
2872.276432
 20
2004.299923
 42
0.010970
  0
VERTEX
  8
0
 10
2891.853870
 20
1982.025319
 42
0.006652
  0
VERTEX
  8
0
 10
2915.934562
 20
1956.500000
 42
0.006251
  0
VERTEX
  8
0
 10
2943.283793
 20
1928.969204
 42
0.007846
  0
VERTEX
  8
0
 10
2969.343693
 20
1904.175057
 42
0.007808
  0
VERTEX
  8
0
 10
2996.273023
 20
1880.113976
 42
0.006090
  0
VERTEX
  8
0
 10
3026.250000
 20
1854.792282
 42
-0.001359
  0
VERTEX
  8
0
 10
3036.503852
 20
1846.295716
 42
-0.002230
  0
VERTEX
  8
0
 10
3045.132433
 20
1839.040777
 42
-0.000249
  0
VERTEX
  8
0
 10
3052.788633
 20
1832.538331
 42
-0.233966
  0
VERTEX
  8
0
 10
3052.966794
 20
1832.124509
 42
-0.166249
  0
VERTEX
  8
0
 10
3052.551983
 20
1831.093762
 42
-0.001254
  0
VERTEX
  8
0
 10
3046.505614
 20
1824.124336
 42
-0.003630
  0
VERTEX
  8
0
 10
3038.485856
 20
1815.060640
 42
-0.001211
  0
VERTEX
  8
0
 10
3026.621503
 20
1801.910658
 42
0.014329
  0
VERTEX
  8
0
 10
3001.234806
 20
1772.244120
 42
0.017122
  0
VERTEX
  8
0
 10
2979.118331
 20
1742.842429
 42
0.018189
  0
VERTEX
  8
0
 10
2960.291715
 20
1713.746790
 42
0.021723
  0
VERTEX
  8
0
 10
2944.792210
 20
1685.000000
 42
0.009108
  0
VERTEX
  8
0
 10
2937.499261
 20
1669.216479
 42
0.035767
  0
VERTEX
  8
0
 10
2933.893829
 20
1659.124271
 42
0.049373
  0
VERTEX
  8
0
 10
2932.360577
 20
1650.347419
 42
0.030421
  0
VERTEX
  8
0
 10
2932.219365
 20
1639.854556
 42
0.010318
  0
VERTEX
  8
0
 10
2932.587592
 20
1634.447994
 42
0.023234
  0
VERTEX
  8
0
 10
2933.140849
 20
1630.377722
 42
0.028017
  0
VERTEX
  8
0
 10
2933.987509
 20
1626.881307
 42
0.024318
  0
VERTEX
  8
0
 10
2935.253283
 20
1623.328156
 42
0.122123
  0
VERTEX
  8
0
 10
2952.763086
 20
1599.508237
 42
0.061918
  0
VERTEX
  8
0
 10
2984.285063
 20
1579.295408
 42
0.045224
  0
VERTEX
  8
0
 10
3030.276064
 20
1562.187652
 42
0.020762
  0
VERTEX
  8
0
 10
3092.692661
 20
1547.953424
 42
0.006114
  0
VERTEX
  8
0
 10
3109.868698
 20
1544.996689
 42
0.002592
  0
VERTEX
  8
0
 10
3132.968562
 20
1541.433119
 42
0.002573
  0
VERTEX
  8
0
 10
3155.933939
 20
1538.132775
 42
0.006701
  0
VERTEX
  8
0
 10
3172.500000
 20
1536.064872
 42
0.010338
  0
VERTEX
  8
0
 10
3214.756410
 20
1532.246836
 42
0.007876
  0
VERTEX
  8
0
 10
3261.157895
 20
1529.753454
 42
0.004700
  0
VERTEX
  8
0
 10
3326.218672
 20
1527.896663
 42
0.001033
  0
VERTEX
  8
0
 10
3438.000000
 20
1525.989003
 42
-0.001176
  0
VERTEX
  8
0
 10
3504.321813
 20
1524.838201
 42
-0.003264
  0
VERTEX
  8
0
 10
3550.939055
 20
1523.615116
 42
-0.004072
  0
VERTEX
  8
0
 10
3591.316925
 20
1521.962628
 42
-0.003002
  0
VERTEX
  8
0
 10
3636.000000
 20
1519.500357
 42
0.003570
  0
VERTEX
  8
0
 10
3649.458114
 20
1518.774095
 42
0.000420
  0
VERTEX
  8
0
 10
3679.440809
 20
1517.395962
 42
0.000527
  0
VERTEX
  8
0
 10
3713.545645
 20
1515.893107
 42
0.000559
  0
VERTEX
  8
0
 10
3747.000000
 20
1514.491740
 42
-0.000158
  0
VERTEX
  8
0
 10
3762.969689
 20
1513.835619
 42
-0.000131
  0
VERTEX
  8
0
 10
3779.946875
 20
1513.128264
 42
-0.000133
  0
VERTEX
  8
0
 10
3795.489945
 20
1512.472441
 42
-0.000360
  0
VERTEX
  8
0
 10
3806.500000
 20
1511.997006
 42
0.000463
  0
VERTEX
  8
0
 10
3828.634303
 20
1511.045752
 42
0.000166
  0
VERTEX
  8
0
 10
3860.151820
 20
1509.730981
 42
0.000151
  0
VERTEX
  8
0
 10
3897.596485
 20
1508.192797
 42
0.000112
  0
VERTEX
  8
0
 10
3939.000000
 20
1506.513853
 42
0.008061
  0
VERTEX
  8
0
 10
4078.565544
 20
1503.138165
 42
0.005962
  0
VERTEX
  8
0
 10
4232.994871
 20
1503.734680
 42
0.006035
  0
VERTEX
  8
0
 10
4383.597186
 20
1507.930776
 42
0.009882
  0
VERTEX
  8
0
 10
4511.000000
 20
1515.544165
 42
0.006431
  0
VERTEX
  8
0
 10
4609.977246
 20
1524.707106
 42
0.011748
  0
VERTEX
  8
0
 10
4690.402387
 20
1535.112970
 42
0.014307
  0
VERTEX
  8
0
 10
4754.914475
 20
1546.904093
 42
0.030462
  0
VERTEX
  8
0
 10
4803.771659
 20
1560.441278
 42
0.042153
  0
VERTEX
  8
0
 10
4839.562794
 20
1576.230028
 42
0.084945
  0
VERTEX
  8
0
 10
4863.681815
 20
1595.306953
 42
0.111125
  0
VERTEX
  8
0
 10
4876.136596
 20
1617.532720
 42
0.115796
  0
VERTEX
  8
0
 10
4877.614214
 20
1642.604115
 42
0.017086
  0
VERTEX
  8
0
 10
4875.740582
 20
1651.576437
 42
0.024353
  0
VERTEX
  8
0
 10
4873.423180
 20
1659.378331
 42
0.021039
  0
VERTEX
  8
0
 10
4870.098438
 20
1667.714526
 42
0.009097
  0
VERTEX
  8
0
 10
4865.009735
 20
1678.530224
 42
0.022255
  0
VERTEX
  8
0
 10
4854.953324
 20
1696.831279
 42
0.014546
  0
VERTEX
  8
0
 10
4841.831974
 20
1717.032355
 42
0.012006
  0
VERTEX
  8
0
 10
4824.932226
 20
1740.252188
 42
0.006580
  0
VERTEX
  8
0
 10
4803.183415
 20
1767.912326
 42
0.000000
  0
VERTEX
  8
0
 10
4786.694176
 20
1788.324652
 42
0.000000
  0
VERTEX
  8
0
 10
4790.658109
 20
1791.912326
 42
-0.004246
  0
VERTEX
  8
0
 10
4793.126638
 20
1794.108695
 42
-0.000488
  0
VERTEX
  8
0
 10
4798.727211
 20
1798.997583
 42
-0.000588
  0
VERTEX
  8
0
 10
4805.401815
 20
1804.798760
 42
-0.000479
  0
VERTEX
  8
0
 10
4812.561021
 20
1810.994339
 42
0.011037
  0
VERTEX
  8
0
 10
4829.929159
 20
1826.678144
 42
0.005706
  0
VERTEX
  8
0
 10
4850.975992
 20
1847.003770
 42
0.005679
  0
VERTEX
  8
0
 10
4871.242234
 20
1867.487571
 42
0.012964
  0
VERTEX
  8
0
 10
4885.944696
 20
1883.500000
 42
0.012414
  0
VERTEX
  8
0
 10
4911.095783
 20
1913.848655
 42
0.011504
  0
VERTEX
  8
0
 10
4935.375580
 20
1946.175603
 42
0.011048
  0
VERTEX
  8
0
 10
4959.077558
 20
1980.888918
 42
0.009487
  0
VERTEX
  8
0
 10
4982.494488
 20
2018.404762
 42
0.021993
  0
VERTEX
  8
0
 10
5033.357648
 20
2112.611648
 42
0.023388
  0
VERTEX
  8
0
 10
5074.618260
 20
2209.039116
 42
0.021344
  0
VERTEX
  8
0
 10
5109.583964
 20
2316.392641
 42
0.013550
  0
VERTEX
  8
0
 10
5141.501158
 20
2444.000000
 42
0.002075
  0
VERTEX
  8
0
 10
5148.321002
 20
2475.404070
 42
0.002606
  0
VERTEX
  8
0
 10
5154.368500
 20
2504.565567
 42
0.002042
  0
VERTEX
  8
0
 10
5161.149584
 20
2538.865063
 42
0.000725
  0
VERTEX
  8
0
 10
5170.573965
 20
2587.961189
 42
-0.000530
  0
VERTEX
  8
0
 10
5175.020585
 20
2611.174734
 42
-0.000873
  0
VERTEX
  8
0
 10
5178.835147
 20
2630.790561
 42
-0.000055
  0
VERTEX
  8
0
 10
5182.300358
 20
2648.435110
 42
-0.148928
  0
VERTEX
  8
0
 10
5182.527025
 20
2648.860359
 42
-0.204274
  0
VERTEX
  8
0
 10
5182.957197
 20
2649.033370
 42
-0.000065
  0
VERTEX
  8
0
 10
5201.691811
 20
2648.644737
 42
-0.001084
  0
VERTEX
  8
0
 10
5222.510640
 20
2648.164993
 42
-0.000656
  0
VERTEX
  8
0
 10
5247.153814
 20
2647.511291
 42
0.005088
  0
VERTEX
  8
0
 10
5325.859194
 20
2646.121378
 42
0.008802
  0
VERTEX
  8
0
 10
5391.296959
 20
2646.783674
 42
0.010276
  0
VERTEX
  8
0
 10
5448.537877
 20
2649.549105
 42
0.012486
  0
VERTEX
  8
0
 10
5502.000000
 20
2654.578394
 42
0.014120
  0
VERTEX
  8
0
 10
5560.672700
 20
2663.266171
 42
0.020194
  0
VERTEX
  8
0
 10
5612.062179
 20
2674.521968
 42
0.022479
  0
VERTEX
  8
0
 10
5657.582088
 20
2688.650726
 42
0.027694
  0
VERTEX
  8
0
 10
5698.500000
 20
2706.012433
 42
0.029555
  0
VERTEX
  8
0
 10
5744.308849
 20
2731.982872
 42
0.033019
  0
VERTEX
  8
0
 10
5784.982561
 20
2762.320331
 42
0.033214
  0
VERTEX
  8
0
 10
5821.104661
 20
2797.576834
 42
0.030605
  0
VERTEX
  8
0
 10
5853.316186
 20
2838.240774
 42
0.029989
  0
VERTEX
  8
0
 10
5882.827007
 20
2886.506389
 42
0.019655
  0
VERTEX
  8
0
 10
5911.160953
 20
2945.235094
 42
0.019117
  0
VERTEX
  8
0
 10
5935.830752
 20
3008.468006
 42
0.022035
  0
VERTEX
  8
0
 10
5954.320766
 20
3070.500000
 42
0.019888
  0
VERTEX
  8
0
 10
5968.899834
 20
3140.319114
 42
0.010298
  0
VERTEX
  8
0
 10
5981.822552
 20
3228.514832
 42
0.009566
  0
VERTEX
  8
0
 10
5992.306365
 20
3327.271789
 42
0.008581
  0
VERTEX
  8
0
 10
5999.454382
 20
3430.000000
 42
0.006862
  0
VERTEX
  8
0
 10
6002.163807
 20
3500.186791
 42
0.007188
  0
VERTEX
  8
0
 10
6002.888906
 20
3569.346012
 42
0.007635
  0
VERTEX
  8
0
 10
6001.670053
 20
3632.950604
 42
0.013020
  0
VERTEX
  8
0
 10
5998.458282
 20
3686.000000
 42
0.010433
  0
VERTEX
  8
0
 10
5994.285450
 20
3724.713580
 42
0.002166
  0
VERTEX
  8
0
 10
5985.240558
 20
3792.541251
 42
0.002290
  0
VERTEX
  8
0
 10
5975.520628
 20
3860.783801
 42
0.008326
  0
VERTEX
  8
0
 10
5968.426120
 20
3904.000000
 42
0.025919
  0
VERTEX
  8
0
 10
5957.442364
 20
3950.660107
 42
0.030061
  0
VERTEX
  8
0
 10
5942.095659
 20
3993.617573
 42
0.031508
  0
VERTEX
  8
0
 10
5922.488402
 20
4032.580922
 42
0.035153
  0
VERTEX
  8
0
 10
5898.762964
 20
4067.297812
 42
0.018644
  0
VERTEX
  8
0
 10
5890.213721
 20
4077.303673
 42
0.009407
  0
VERTEX
  8
0
 10
5878.742151
 20
4089.297304
 42
0.009404
  0
VERTEX
  8
0
 10
5866.853859
 20
4100.825491
 42
0.019063
  0
VERTEX
  8
0
 10
5857.000000
 20
4109.348302
 42
0.040173
  0
VERTEX
  8
0
 10
5818.443057
 20
4135.425870
 42
0.036324
  0
VERTEX
  8
0
 10
5774.919194
 20
4156.009193
 42
0.034071
  0
VERTEX
  8
0
 10
5726.174505
 20
4171.142145
 42
0.027185
  0
VERTEX
  8
0
 10
5672.000000
 20
4180.918911
 42
0.011416
  0
VERTEX
  8
0
 10
5609.943438
 20
4187.230476
 42
0.003480
  0
VERTEX
  8
0
 10
5515.762531
 20
4193.982339
 42
0.003584
  0
VERTEX
  8
0
 10
5414.095419
 20
4199.828579
 42
0.005070
  0
VERTEX
  8
0
 10
5323.500000
 20
4203.466340
 42
-0.001064
  0
VERTEX
  8
0
 10
5315.372799
 20
4203.727471
 42
-0.000864
  0
VERTEX
  8
0
 10
5306.662013
 20
4204.040971
 42
-0.000872
  0
VERTEX
  8
0
 10
5298.635144
 20
4204.357769
 42
-0.002271
  0
VERTEX
  8
0
 10
5292.860044
 20
4204.622073
 42
0.000000
  0
VERTEX
  8
0
 10
5281.220088
 20
4205.207782
 42
0.000000
  0
VERTEX
  8
0
 10
5280.699602
 20
4352.353891
 42
0.000624
  0
VERTEX
  8
0
 10
5280.255019
 20
4445.244157
 42
0.003003
  0
VERTEX
  8
0
 10
5279.618124
 20
4498.137986
 42
0.004627
  0
VERTEX
  8
0
 10
5278.486556
 20
4539.576222
 42
0.003290
  0
VERTEX
  8
0
 10
5276.482791
 20
4586.000000
 42
0.005313
  0
VERTEX
  8
0
 10
5273.599328
 20
4633.726992
 42
0.009163
  0
VERTEX
  8
0
 10
5270.050815
 20
4673.360878
 42
0.010671
  0
VERTEX
  8
0
 10
5265.967549
 20
4704.847772
 42
0.032182
  0
VERTEX
  8
0
 10
5261.358889
 20
4725.987963
 42
0.032008
  0
VERTEX
  8
0
 10
5256.810373
 20
4738.725435
 42
0.033665
  0
VERTEX
  8
0
 10
5250.736809
 20
4750.556303
 42
0.033855
  0
VERTEX
  8
0
 10
5243.166253
 20
4761.404913
 42
0.033164
  0
VERTEX
  8
0
 10
5234.152296
 20
4771.212435
 42
0.019581
  0
VERTEX
  8
0
 10
5226.659849
 20
4777.811384
 42
0.029609
  0
VERTEX
  8
0
 10
5219.607122
 20
4782.886083
 42
0.024419
  0
VERTEX
  8
0
 10
5211.068880
 20
4787.725993
 42
0.008909
  0
VERTEX
  8
0
 10
5198.546315
 20
4793.760301
 42
-0.001937
  0
VERTEX
  8
0
 10
5191.384346
 20
4797.089239
 42
-0.001245
  0
VERTEX
  8
0
 10
5183.101105
 20
4801.003642
 42
-0.001251
  0
VERTEX
  8
0
 10
5175.013083
 20
4804.875291
 42
-0.002349
  0
VERTEX
  8
0
 10
5168.500000
 20
4808.050872
 42
0.006637
  0
VERTEX
  8
0
 10
5160.789593
 20
4811.728725
 42
0.020459
  0
VERTEX
  8
0
 10
5155.449235
 20
4813.929470
 42
0.026699
  0
VERTEX
  8
0
 10
5150.780241
 20
4815.356350
 42
0.019854
  0
VERTEX
  8
0
 10
5145.500000
 20
4816.445985
 42
0.024169
  0
VERTEX
  8
0
 10
5130.193875
 20
4818.221324
 42
0.007803
  0
VERTEX
  8
0
 10
5107.391509
 20
4819.397582
 42
0.005006
  0
VERTEX
  8
0
 10
5073.549098
 20
4820.275022
 42
0.001265
  0
VERTEX
  8
0
 10
5018.500000
 20
4821.011559
 42
0.001191
  0
VERTEX
  8
0
 10
4953.006222
 20
4821.566031
 42
0.001575
  0
VERTEX
  8
0
 10
4893.344170
 20
4821.741019
 42
0.000790
  0
VERTEX
  8
0
 10
4808.907171
 20
4821.589239
 42
0.000095
  0
SEQEND
  0
POLYLINE
  8
0
 66
1
 70
1
  0
VERTEX
  8
0
 10
4000.423850
 20
4125.975262
 42
-0.007798
  0
VERTEX
  8
0
 10
4028.044228
 20
4124.511765
 42
-0.012798
  0
VERTEX
  8
0
 10
4051.353711
 20
4122.311169
 42
-0.012928
  0
VERTEX
  8
0
 10
4074.353727
 20
4118.939003
 42
-0.008169
  0
VERTEX
  8
0
 10
4101.000000
 20
4113.875989
 42
-0.039191
  0
VERTEX
  8
0
 10
4229.330206
 20
4076.633712
 42
-0.041578
  0
VERTEX
  8
0
 10
4347.636912
 20
4020.373090
 42
-0.041814
  0
VERTEX
  8
0
 10
4454.415352
 20
3945.651038
 42
-0.040557
  0
VERTEX
  8
0
 10
4548.459473
 20
3853.500000
 42
-0.023174
  0
VERTEX
  8
0
 10
4594.946322
 20
3794.600530
 42
-0.023760
  0
VERTEX
  8
0
 10
4635.370222
 20
3732.127439
 42
-0.023670
  0
VERTEX
  8
0
 10
4669.819552
 20
3665.869651
 42
-0.022612
  0
VERTEX
  8
0
 10
4698.431900
 20
3595.647159
 42
-0.013045
  0
VERTEX
  8
0
 10
4709.733825
 20
3561.034239
 42
-0.010636
  0
VERTEX
  8
0
 10
4720.065437
 20
3523.447433
 42
-0.010597
  0
VERTEX
  8
0
 10
4728.832857
 20
3485.278543
 42
-0.012601
  0
VERTEX
  8
0
 10
4735.428095
 20
3448.909178
 42
-0.025506
  0
VERTEX
  8
0
 10
4740.974623
 20
3395.349704
 42
-0.014019
  0
VERTEX
  8
0
 10
4742.566764
 20
3329.448254
 42
-0.014015
  0
VERTEX
  8
0
 10
4740.459712
 20
3263.437631
 42
-0.025069
  0
VERTEX
  8
0
 10
4734.499018
 20
3209.500000
 42
-0.028277
  0
VERTEX
  8
0
 10
4714.386628
 20
3118.158660
 42
-0.028526
  0
VERTEX
  8
0
 10
4684.140446
 20
3029.943315
 42
-0.028722
  0
VERTEX
  8
0
 10
4644.286510
 20
2946.325893
 42
-0.029620
  0
VERTEX
  8
0
 10
4595.476301
 20
2868.717929
 42
-0.008865
  0
VERTEX
  8
0
 10
4574.747874
 20
2840.782867
 42
-0.011886
  0
VERTEX
  8
0
 10
4554.921617
 20
2816.259339
 42
-0.011849
  0
VERTEX
  8
0
 10
4533.902427
 20
2792.646263
 42
-0.008723
  0
VERTEX
  8
0
 10
4509.558674
 20
2767.465087
 42
-0.010825
  0
VERTEX
  8
0
 10
4481.137795
 20
2740.278278
 42
-0.012032
  0
VERTEX
  8
0
 10
4452.531133
 20
2715.314763
 42
-0.012164
  0
VERTEX
  8
0
 10
4423.048318
 20
2691.999749
 42
-0.011595
  0
VERTEX
  8
0
 10
4392.000000
 20
2669.759454
 42
-0.034253
  0
VERTEX
  8
0
 10
4300.470770
 20
2616.140615
 42
-0.034164
  0
VERTEX
  8
0
 10
4202.399587
 20
2575.467371
 42
-0.033916
  0
VERTEX
  8
0
 10
4099.004178
 20
2548.289889
 42
-0.032688
  0
VERTEX
  8
0
 10
3991.598838
 20
2534.916174
 42
-0.013212
  0
VERTEX
  8
0
 10
3968.038525
 20
2534.159539
 42
-0.004754
  0
VERTEX
  8
0
 10
3934.489258
 20
2534.287919
 42
-0.004678
  0
VERTEX
  8
0
 10
3901.203959
 20
2535.043298
 42
-0.014887
  0
VERTEX
  8
0
 10
3879.000000
 20
2536.417661
 42
-0.010673
  0
VERTEX
  8
0
 10
3836.844253
 20
2541.198845
 42
-0.012889
  0
VERTEX
  8
0
 10
3797.518023
 20
2547.547508
 42
-0.013026
  0
VERTEX
  8
0
 10
3758.930044
 20
2555.848220
 42
-0.011352
  0
VERTEX
  8
0
 10
3719.000000
 20
2566.497687
 42
-0.045148
  0
VERTEX
  8
0
 10
3589.877905
 20
2617.111049
 42
-0.043737
  0
VERTEX
  8
0
 10
3470.467074
 20
2690.524421
 42
-0.043610
  0
VERTEX
  8
0
 10
3365.329343
 20
2783.823995
 42
-0.044309
  0
VERTEX
  8
0
 10
3278.586002
 20
2893.480151
 42
-0.022218
  0
VERTEX
  8
0
 10
3243.574988
 20
2952.384658
 42
-0.021142
  0
VERTEX
  8
0
 10
3213.298836
 20
3015.131241
 42
-0.021136
  0
VERTEX
  8
0
 10
3188.422140
 20
3080.229206
 42
-0.022173
  0
VERTEX
  8
0
 10
3169.573229
 20
3146.172102
 42
-0.013771
  0
VERTEX
  8
0
 10
3158.904912
 20
3197.089348
 42
-0.020346
  0
VERTEX
  8
0
 10
3152.612958
 20
3242.290608
 42
-0.018498
  0
VERTEX
  8
0
 10
3149.661529
 20
3290.908671
 42
-0.009050
  0
VERTEX
  8
0
 10
3149.317456
 20
3353.000000
 42
-0.004634
  0
VERTEX
  8
0
 10
3150.137590
 20
3390.572123
 42
-0.014363
  0
VERTEX
  8
0
 10
3151.653618
 20
3415.886203
 42
-0.016466
  0
VERTEX
  8
0
 10
3154.495821
 20
3439.169300
 42
-0.007781
  0
VERTEX
  8
0
 10
3159.615279
 20
3469.000000
 42
-0.031684
  0
VERTEX
  8
0
 10
3187.143722
 20
3577.320078
 42
-0.034015
  0
VERTEX
  8
0
 10
3227.648497
 20
3678.665297
 42
-0.034413
  0
VERTEX
  8
0
 10
3281.016445
 20
3772.520627
 42
-0.034071
  0
VERTEX
  8
0
 10
3346.914503
 20
3858.500000
 42
-0.011387
  0
VERTEX
  8
0
 10
3366.267139
 20
3879.490155
 42
-0.007533
  0
VERTEX
  8
0
 10
3389.394123
 20
3902.743687
 42
-0.007521
  0
VERTEX
  8
0
 10
3413.290114
 20
3925.365800
 42
-0.011079
  0
VERTEX
  8
0
 10
3435.000000
 20
3944.438477
 42
-0.030103
  0
VERTEX
  8
0
 10
3500.189172
 20
3992.820608
 42
-0.024114
  0
VERTEX
  8
0
 10
3575.629831
 20
4037.029744
 42
-0.024078
  0
VERTEX
  8
0
 10
3655.122592
 20
4073.843837
 42
-0.029689
  0
VERTEX
  8
0
 10
3732.488415
 20
4100.015179
 42
-0.012498
  0
VERTEX
  8
0
 10
3766.981952
 20
4108.523635
 42
-0.008477
  0
VERTEX
  8
0
 10
3806.643295
 20
4116.558944
 42
-0.008467
  0
VERTEX
  8
0
 10
3844.495615
 20
4122.900997
 42
-0.020871
  0
VERTEX
  8
0
 10
3872.500000
 20
4125.918451
 42
-0.014247
  0
VERTEX
  8
0
 10
3891.891830
 20
4126.638364
 42
-0.002043
  0
VERTEX
  8
0
 10
3931.601399
 20
4126.818247
 42
-0.002464
  0
VERTEX
  8
0
 10
3972.144561
 20
4126.636444
 42
-0.006982
  0
SEQEND
  0
POLYLINE
  8
0
 66
1
 70
1
  0
VERTEX
  8
0
 10
5398.500000
 20
3911.023438
 42
-0.015975
  0
VERTEX
  8
0
 10
5435.155834
 20
3907.661233
 42
-0.013761
  0
VERTEX
  8
0
 10
5473.405258
 20
3901.843854
 42
-0.014218
  0
VERTEX
  8
0
 10
5508.942082
 20
3894.384975
 42
-0.026838
  0
VERTEX
  8
0
 10
5537.010973
 20
3886.039851
 42
-0.059756
  0
VERTEX
  8
0
 10
5581.612639
 20
3863.829714
 42
-0.064198
  0
VERTEX
  8
0
 10
5618.506994
 20
3832.142964
 42
-0.059767
  0
VERTEX
  8
0
 10
5648.137134
 20
3790.069816
 42
-0.042238
  0
VERTEX
  8
0
 10
5671.187634
 20
3737.000000
 42
-0.009281
  0
VERTEX
  8
0
 10
5675.507360
 20
3723.363211
 42
-0.007290
  0
VERTEX
  8
0
 10
5679.697756
 20
3708.433206
 42
-0.007298
  0
VERTEX
  8
0
 10
5683.444748
 20
3693.411764
 42
-0.009397
  0
VERTEX
  8
0
 10
5686.425416
 20
3679.500000
 42
-0.034206
  0
VERTEX
  8
0
 10
5696.950347
 20
3594.978002
 42
-0.015041
  0
VERTEX
  8
0
 10
5699.817404
 20
3482.218647
 42
-0.014683
  0
VERTEX
  8
0
 10
5695.680118
 20
3360.663096
 42
-0.017721
  0
VERTEX
  8
0
 10
5684.410535
 20
3247.000000
 42
-0.009479
  0
VERTEX
  8
0
 10
5677.201938
 20
3200.322048
 42
-0.019020
  0
VERTEX
  8
0
 10
5669.420293
 20
3163.851269
 42
-0.023264
  0
VERTEX
  8
0
 10
5660.206870
 20
3133.505427
 42
-0.027834
  0
VERTEX
  8
0
 10
5648.660112
 20
3105.960265
 42
-0.030495
  0
VERTEX
  8
0
 10
5637.059503
 20
3085.393672
 42
-0.055868
  0
VERTEX
  8
0
 10
5624.880441
 20
3070.521159
 42
-0.054347
  0
VERTEX
  8
0
 10
5609.474034
 20
3058.454397
 42
-0.027313
  0
VERTEX
  8
0
 10
5587.777825
 20
3046.567006
 42
-0.021417
  0
VERTEX
  8
0
 10
5542.530158
 20
3027.234083
 42
-0.013726
  0
VERTEX
  8
0
 10
5488.539087
 20
3008.528584
 42
-0.013429
  0
VERTEX
  8
0
 10
5431.659924
 20
2992.221530
 42
-0.016271
  0
VERTEX
  8
0
 10
5377.500000
 20
2980.120920
 42
-0.009085
  0
VERTEX
  8
0
 10
5350.476752
 20
2975.507044
 42
-0.003857
  0
VERTEX
  8
0
 10
5314.107783
 20
2970.262195
 42
-0.003878
  0
VERTEX
  8
0
 10
5276.499084
 20
2965.431137
 42
-0.006612
  0
VERTEX
  8
0
 10
5245.000000
 20
2962.054928
 42
0.000544
  0
VERTEX
  8
0
 10
5240.201584
 20
2961.599440
 42
0.000508
  0
VERTEX
  8
0
 10
5235.293753
 20
2961.123136
 42
0.000506
  0
VERTEX
  8
0
 10
5230.935912
 20
2960.691282
 42
0.001736
  0
VERTEX
  8
0
 10
5228.106393
 20
2960.398064
 42
0.000000
  0
VERTEX
  8
0
 10
5222.712786
 20
2959.820202
 42
0.000000
  0
VERTEX
  8
0
 10
5223.399062
 20
2969.660101
 42
-0.007531
  0
VERTEX
  8
0
 10
5223.917294
 20
2975.764391
 42
-0.000836
  0
VERTEX
  8
0
 10
5225.333722
 20
2989.681405
 42
-0.001018
  0
VERTEX
  8
0
 10
5227.081080
 20
3006.240014
 42
-0.000825
  0
VERTEX
  8
0
 10
5229.021432
 20
3024.000000
 42
0.004408
  0
VERTEX
  8
0
 10
5244.309326
 20
3173.871480
 42
0.004542
  0
VERTEX
  8
0
 10
5256.786766
 20
3322.501160
 42
0.004711
  0
VERTEX
  8
0
 10
5266.123736
 20
3465.401740
 42
0.005915
  0
VERTEX
  8
0
 10
5271.961059
 20
3598.000000
 42
-0.000467
  0
VERTEX
  8
0
 10
5272.388291
 20
3610.903138
 42
-0.000487
  0
VERTEX
  8
0
 10
5272.833824
 20
3623.625000
 42
-0.000468
  0
VERTEX
  8
0
 10
5273.239920
 20
3634.620570
 42
-0.002144
  0
VERTEX
  8
0
 10
5273.508906
 20
3641.000000
 42
0.007712
  0
VERTEX
  8
0
 10
5273.756732
 20
3648.990591
 42
0.000337
  0
VERTEX
  8
0
 10
5274.172750
 20
3676.894534
 42
0.000572
  0
VERTEX
  8
0
 10
5274.606003
 20
3709.989067
 42
0.000408
  0
VERTEX
  8
0
 10
5275.018492
 20
3747.045221
 42
-0.000687
  0
VERTEX
  8
0
 10
5275.672154
 20
3802.966389
 42
-0.002681
  0
VERTEX
  8
0
 10
5276.309039
 20
3837.530994
 42
-0.003696
  0
VERTEX
  8
0
 10
5277.203615
 20
3866.215015
 42
-0.002392
  0
VERTEX
  8
0
 10
5278.642959
 20
3899.395877
 42
0.000000
  0
VERTEX
  8
0
 10
5279.312348
 20
3913.291754
 42
0.000000
  0
VERTEX
  8
0
 10
5329.906174
 20
3912.693921
 42
-0.001526
  0
VERTEX
  8
0
 10
5350.596037
 20
3912.386304
 42
-0.001608
  0
VERTEX
  8
0
 10
5370.925564
 20
3911.956610
 42
-0.001536
  0
VERTEX
  8
0
 10
5388.454851
 20
3911.475839
 42
-0.007258
  0
SEQEND
  0
POLYLINE
  8
0
 66
1
 70
1
  0
VERTEX
  8
0
 10
3658.000000
 20
3730.360665
 42
-0.000491
  0
VERTEX
  8
0
 10
3656.584183
 20
3730.154261
 42
-0.000096
  0
VERTEX
  8
0
 10
3654.031250
 20
3729.785143
 42
-0.000102
  0
VERTEX
  8
0
 10
3651.054707
 20
3729.355976
 42
-0.000094
  0
VERTEX
  8
0
 10
3648.000000
 20
3728.916760
 42
0.069882
  0
VERTEX
  8
0
 10
3606.382016
 20
3716.852223
 42
0.067536
  0
VERTEX
  8
0
 10
3569.162417
 20
3693.695435
 42
0.067998
  0
VERTEX
  8
0
 10
3539.669992
 20
3661.627316
 42
0.072605
  0
VERTEX
  8
0
 10
3520.644830
 20
3623.500000
 42
0.014307
  0
VERTEX
  8
0
 10
3517.250748
 20
3612.095902
 42
0.024790
  0
VERTEX
  8
0
 10
3515.179710
 20
3602.430937
 42
0.022939
  0
VERTEX
  8
0
 10
3513.980543
 20
3592.108526
 42
0.010366
  0
VERTEX
  8
0
 10
3513.312467
 20
3578.500000
 42
0.004425
  0
VERTEX
  8
0
 10
3513.103672
 20
3567.778457
 42
0.014834
  0
VERTEX
  8
0
 10
3513.237478
 20
3560.753212
 42
0.018848
  0
VERTEX
  8
0
 10
3513.763851
 20
3554.676161
 42
0.011266
  0
VERTEX
  8
0
 10
3514.823657
 20
3547.500000
 42
0.026003
  0
VERTEX
  8
0
 10
3518.476670
 20
3531.251916
 42
0.025389
  0
VERTEX
  8
0
 10
3523.819590
 20
3515.337857
 42
0.025678
  0
VERTEX
  8
0
 10
3530.675953
 20
3500.229662
 42
0.028230
  0
VERTEX
  8
0
 10
3538.854762
 20
3486.391922
 42
0.047700
  0
VERTEX
  8
0
 10
3559.062473
 20
3461.686371
 42
0.051138
  0
VERTEX
  8
0
 10
3583.155147
 20
3441.895011
 42
0.051074
  0
VERTEX
  8
0
 10
3610.791752
 20
3427.385735
 42
0.047363
  0
VERTEX
  8
0
 10
3641.500000
 20
3418.331077
 42
0.035736
  0
VERTEX
  8
0
 10
3653.230431
 20
3416.909013
 42
0.012038
  0
VERTEX
  8
0
 10
3670.465398
 20
3416.475909
 42
0.012099
  0
VERTEX
  8
0
 10
3687.749437
 20
3416.876056
 42
0.034287
  0
VERTEX
  8
0
 10
3699.723557
 20
3418.269991
 42
0.036504
  0
VERTEX
  8
0
 10
3722.150305
 20
3424.173911
 42
0.041902
  0
VERTEX
  8
0
 10
3742.421238
 20
3433.084340
 42
0.040631
  0
VERTEX
  8
0
 10
3761.427141
 20
3445.512443
 42
0.031028
  0
VERTEX
  8
0
 10
3780.078000
 20
3461.948905
 42
0.032079
  0
VERTEX
  8
0
 10
3795.998695
 20
3480.018782
 42
0.038761
  0
VERTEX
  8
0
 10
3808.397740
 20
3498.917615
 42
0.039217
  0
VERTEX
  8
0
 10
3817.621128
 20
3519.310203
 42
0.034205
  0
VERTEX
  8
0
 10
3824.050882
 20
3541.841430
 42
0.028162
  0
VERTEX
  8
0
 10
3825.707372
 20
3552.562861
 42
0.013922
  0
VERTEX
  8
0
 10
3826.659458
 20
3566.311535
 42
0.013926
  0
VERTEX
  8
0
 10
3826.846586
 20
3580.228860
 42
0.025587
  0
VERTEX
  8
0
 10
3826.104186
 20
3591.535121
 42
0.061854
  0
VERTEX
  8
0
 10
3817.172435
 20
3627.989006
 42
0.059276
  0
VERTEX
  8
0
 10
3799.514298
 20
3661.722081
 42
0.059526
  0
VERTEX
  8
0
 10
3774.518529
 20
3690.246195
 42
0.063437
  0
VERTEX
  8
0
 10
3744.000000
 20
3711.377549
 42
0.036909
  0
VERTEX
  8
0
 10
3723.071149
 20
3720.352875
 42
0.028531
  0
VERTEX
  8
0
 10
3699.173602
 20
3727.077387
 42
0.029239
  0
VERTEX
  8
0
 10
3676.103084
 20
3730.771845
 42
0.061597
  0
SEQEND
  0
POLYLINE
  8
0
 66
1
 70
1
  0
VERTEX
  8
0
 10
4192.232610
 20
3726.966338
 42
0.036378
  0
VERTEX
  8
0
 10
4166.337110
 20
3721.768083
 42
0.040170
  0
VERTEX
  8
0
 10
4142.346916
 20
3712.980315
 42
0.040728
  0
VERTEX
  8
0
 10
4120.359638
 20
3700.599600
 42
0.039495
  0
VERTEX
  8
0
 10
4100.427140
 20
3684.704113
 42
0.057953
  0
VERTEX
  8
0
 10
4076.156197
 20
3656.056264
 42
0.059849
  0
VERTEX
  8
0
 10
4059.416706
 20
3622.900821
 42
0.060146
  0
VERTEX
  8
0
 10
4051.063917
 20
3586.876772
 42
0.059580
  0
VERTEX
  8
0
 10
4051.484053
 20
3549.781438
 42
0.041155
  0
VERTEX
  8
0
 10
4056.969447
 20
3524.370970
 42
0.042901
  0
VERTEX
  8
0
 10
4066.493204
 20
3500.569627
 42
0.042538
  0
VERTEX
  8
0
 10
4080.026467
 20
3478.565419
 42
0.039134
  0
VERTEX
  8
0
 10
4097.436210
 20
3458.500000
 42
0.029729
  0
VERTEX
  8
0
 10
4113.344392
 20
3444.590296
 42
0.033658
  0
VERTEX
  8
0
 10
4130.169549
 20
3433.282368
 42
0.034152
  0
VERTEX
  8
0
 10
4148.132445
 20
3424.468051
 42
0.032431
  0
VERTEX
  8
0
 10
4167.437428
 20
3418.004945
 42
0.015665
  0
VERTEX
  8
0
 10
4178.995147
 20
3415.336614
 42
0.023436
  0
VERTEX
  8
0
 10
4189.241959
 20
3413.801549
 42
0.021944
  0
VERTEX
  8
0
 10
4200.070269
 20
3413.173263
 42
0.011671
  0
VERTEX
  8
0
 10
4213.500000
 20
3413.297689
 42
0.020923
  0
VERTEX
  8
0
 10
4230.552120
 20
3414.569475
 42
0.030942
  0
VERTEX
  8
0
 10
4245.308038
 20
3417.226386
 42
0.030684
  0
VERTEX
  8
0
 10
4259.714039
 20
3421.704198
 42
0.020113
  0
VERTEX
  8
0
 10
4275.709227
 20
3428.522212
 42
0.068146
  0
VERTEX
  8
0
 10
4311.100594
 20
3451.670883
 42
0.068301
  0
VERTEX
  8
0
 10
4338.935405
 20
3483.465496
 42
0.068099
  0
VERTEX
  8
0
 10
4357.237361
 20
3521.673836
 42
0.067077
  0
VERTEX
  8
0
 10
4364.725503
 20
3563.593226
 42
0.083194
  0
VERTEX
  8
0
 10
4358.622852
 20
3612.880094
 42
0.077889
  0
VERTEX
  8
0
 10
4336.775066
 20
3658.731905
 42
0.078072
  0
VERTEX
  8
0
 10
4302.004821
 20
3695.612563
 42
0.084223
  0
VERTEX
  8
0
 10
4258.445861
 20
3718.900416
 42
0.028023
  0
VERTEX
  8
0
 10
4242.174963
 20
3723.348969
 42
0.022412
  0
VERTEX
  8
0
 10
4224.247166
 20
3726.353284
 42
0.022938
  0
VERTEX
  8
0
 10
4206.840985
 20
3727.667348
 42
0.038735
  0
SEQEND
  0
POLYLINE
  8
0
 66
1
 70
1
  0
VERTEX
  8
0
 10
3353.000000
 20
3323.313413
 42
0.030709
  0
VERTEX
  8
0
 10
3348.832572
 20
3322.356976
 42
0.010826
  0
VERTEX
  8
0
 10
3342.988924
 20
3320.493812
 42
0.011048
  0
VERTEX
  8
0
 10
3337.084511
 20
3318.322499
 42
0.022695
  0
VERTEX
  8
0
 10
3332.586337
 20
3316.314423
 42
0.074075
  0
VERTEX
  8
0
 10
3313.782666
 20
3303.084226
 42
0.069534
  0
VERTEX
  8
0
 10
3299.178287
 20
3284.685664
 42
0.070858
  0
VERTEX
  8
0
 10
3290.388097
 20
3263.338301
 42
0.082561
  0
VERTEX
  8
0
 10
3288.540925
 20
3241.500000
 42
0.052339
  0
VERTEX
  8
0
 10
3295.388414
 20
3204.899335
 42
0.021978
  0
VERTEX
  8
0
 10
3311.809407
 20
3157.497059
 42
0.020682
  0
VERTEX
  8
0
 10
3334.776352
 20
3105.899601
 42
0.019784
  0
VERTEX
  8
0
 10
3362.242878
 20
3055.587548
 42
0.010639
  0
VERTEX
  8
0
 10
3376.626285
 20
3032.673550
 42
0.008531
  0
VERTEX
  8
0
 10
3393.044549
 20
3008.617577
 42
0.008730
  0
VERTEX
  8
0
 10
3409.432622
 20
2986.301083
 42
0.016227
  0
VERTEX
  8
0
 10
3423.608475
 20
2968.889623
 42
0.014091
  0
VERTEX
  8
0
 10
3449.603699
 20
2940.645057
 42
0.007107
  0
VERTEX
  8
0
 10
3483.868709
 20
2906.444799
 42
0.006931
  0
VERTEX
  8
0
 10
3518.023899
 20
2874.216620
 42
0.020293
  0
VERTEX
  8
0
 10
3542.736922
 20
2853.319192
 42
0.031669
  0
VERTEX
  8
0
 10
3616.410820
 20
2803.127937
 42
0.032141
  0
VERTEX
  8
0
 10
3695.479902
 20
2762.917497
 42
0.032316
  0
VERTEX
  8
0
 10
3778.622568
 20
2733.357713
 42
0.032825
  0
VERTEX
  8
0
 10
3864.450386
 20
2714.942292
 42
0.012938
  0
VERTEX
  8
0
 10
3885.617110
 20
2712.393096
 42
0.011791
  0
VERTEX
  8
0
 10
3907.552791
 20
2710.846263
 42
0.010215
  0
VERTEX
  8
0
 10
3932.295994
 20
2710.193177
 42
0.005868
  0
VERTEX
  8
0
 10
3962.133155
 20
2710.365579
 42
0.006007
  0
VERTEX
  8
0
 10
4011.627000
 20
2711.827446
 42
0.016325
  0
VERTEX
  8
0
 10
4046.606291
 20
2714.427253
 42
0.019671
  0
VERTEX
  8
0
 10
4077.440257
 20
2718.966669
 42
0.012955
  0
VERTEX
  8
0
 10
4112.500000
 20
2726.491320
 42
0.027221
  0
VERTEX
  8
0
 10
4175.939868
 20
2745.543832
 42
0.024446
  0
VERTEX
  8
0
 10
4239.314053
 20
2771.970121
 42
0.024274
  0
VERTEX
  8
0
 10
4300.275936
 20
2804.681275
 42
0.025807
  0
VERTEX
  8
0
 10
4356.500000
 20
2842.540455
 42
0.032908
  0
VERTEX
  8
0
 10
4423.468344
 20
2900.103749
 42
0.033058
  0
VERTEX
  8
0
 10
4482.195799
 20
2965.873316
 42
0.032902
  0
VERTEX
  8
0
 10
4531.988971
 20
3039.123059
 42
0.031919
  0
VERTEX
  8
0
 10
4572.305304
 20
3119.000000
 42
0.008872
  0
VERTEX
  8
0
 10
4583.406709
 20
3146.327922
 42
0.008931
  0
VERTEX
  8
0
 10
4593.506143
 20
3173.973107
 42
0.009426
  0
VERTEX
  8
0
 10
4601.739014
 20
3199.364002
 42
0.019602
  0
VERTEX
  8
0
 10
4606.998713
 20
3219.500000
 42
0.034564
  0
VERTEX
  8
0
 10
4609.017063
 20
3233.112349
 42
0.044533
  0
VERTEX
  8
0
 10
4608.879218
 20
3245.749987
 42
0.046107
  0
VERTEX
  8
0
 10
4606.535058
 20
3257.804747
 42
0.041558
  0
VERTEX
  8
0
 10
4601.968972
 20
3269.672845
 42
0.049391
  0
VERTEX
  8
0
 10
4593.975929
 20
3282.737670
 42
0.047558
  0
VERTEX
  8
0
 10
4583.484505
 20
3294.163369
 42
0.046797
  0
VERTEX
  8
0
 10
4570.849192
 20
3303.559739
 42
0.044735
  0
VERTEX
  8
0
 10
4556.500000
 20
3310.606493
 42
0.022023
  0
VERTEX
  8
0
 10
4552.127329
 20
3312.070341
 42
0.033495
  0
VERTEX
  8
0
 10
4548.212318
 20
3312.913159
 42
0.023129
  0
VERTEX
  8
0
 10
4543.291875
 20
3313.401027
 42
0.005394
  0
VERTEX
  8
0
 10
4535.000000
 20
3313.747747
 42
0.015976
  0
VERTEX
  8
0
 10
4523.388811
 20
3313.736741
 42
0.037753
  0
VERTEX
  8
0
 10
4514.791974
 20
3312.801453
 42
0.042773
  0
VERTEX
  8
0
 10
4507.099959
 20
3310.678146
 42
0.026581
  0
VERTEX
  8
0
 10
4498.500000
 20
3306.960998
 42
0.050979
  0
VERTEX
  8
0
 10
4482.528617
 20
3296.880932
 42
0.074896
  0
VERTEX
  8
0
 10
4471.153648
 20
3284.826727
 42
0.053452
  0
VERTEX
  8
0
 10
4461.446155
 20
3267.061492
 42
0.014679
  0
VERTEX
  8
0
 10
4450.081118
 20
3237.225003
 42
-0.004646
  0
VERTEX
  8
0
 10
4439.721137
 20
3208.295196
 42
-0.009731
  0
VERTEX
  8
0
 10
4431.019139
 20
3186.033420
 42
-0.011231
  0
VERTEX
  8
0
 10
4422.324787
 20
3166.275993
 42
-0.009019
  0
VERTEX
  8
0
 10
4412.116632
 20
3145.413207
 42
-0.020204
  0
VERTEX
  8
0
 10
4391.999998
 20
3109.742402
 42
-0.021298
  0
VERTEX
  8
0
 10
4369.396908
 20
3076.453112
 42
-0.020539
  0
VERTEX
  8
0
 10
4343.273902
 20
3044.158814
 42
-0.016330
  0
VERTEX
  8
0
 10
4312.577497
 20
3011.463462
 42
-0.029168
  0
VERTEX
  8
0
 10
4266.709217
 20
2970.748997
 42
-0.031760
  0
VERTEX
  8
0
 10
4217.649979
 20
2936.887858
 42
-0.031378
  0
VERTEX
  8
0
 10
4164.150306
 20
2909.178618
 42
-0.027172
  0
VERTEX
  8
0
 10
4105.000000
 20
2886.858582
 42
-0.009376
  0
VERTEX
  8
0
 10
4087.352718
 20
2881.635785
 42
-0.007760
  0
VERTEX
  8
0
 10
4068.374952
 20
2876.719757
 42
-0.007864
  0
VERTEX
  8
0
 10
4050.803025
 20
2872.749305
 42
-0.020392
  0
VERTEX
  8
0
 10
4038.000000
 20
2870.608009
 42
-0.020164
  0
VERTEX
  8
0
 10
4006.359906
 20
2867.924392
 42
-0.010130
  0
VERTEX
  8
0
 10
3966.266478
 20
2866.960670
 42
-0.010052
  0
VERTEX
  8
0
 10
3924.786721
 20
2867.638150
 42
-0.014886
  0
VERTEX
  8
0
 10
3888.500000
 20
2870.044053
 42
-0.031995
  0
VERTEX
  8
0
 10
3850.454422
 20
2876.181648
 42
-0.020783
  0
VERTEX
  8
0
 10
3807.458990
 20
2887.871612
 42
-0.020235
  0
VERTEX
  8
0
 10
3763.889643
 20
2903.652132
 42
-0.023643
  0
VERTEX
  8
0
 10
3724.000000
 20
2922.199838
 42
-0.019634
  0
VERTEX
  8
0
 10
3688.585055
 20
2942.560739
 42
-0.020679
  0
VERTEX
  8
0
 10
3655.502213
 20
2965.310284
 42
-0.019877
  0
VERTEX
  8
0
 10
3623.279378
 20
2991.554259
 42
-0.015588
  0
VERTEX
  8
0
 10
3590.433369
 20
3022.425391
 42
-0.011991
  0
VERTEX
  8
0
 10
3562.281761
 20
3051.971828
 42
-0.019843
  0
VERTEX
  8
0
 10
3540.156155
 20
3078.370405
 42
-0.019345
  0
VERTEX
  8
0
 10
3519.812840
 20
3106.914315
 42
-0.010716
  0
VERTEX
  8
0
 10
3497.116070
 20
3143.189938
 42
-0.005687
  0
VERTEX
  8
0
 10
3481.074426
 20
3170.803601
 42
-0.007927
  0
VERTEX
  8
0
 10
3467.398729
 20
3195.893235
 42
-0.008698
  0
VERTEX
  8
0
 10
3456.726857
 20
3217.122471
 42
-0.026556
  0
VERTEX
  8
0
 10
3450.518870
 20
3232.000000
 42
-0.013240
  0
VERTEX
  8
0
 10
3449.258764
 20
3235.857574
 42
-0.004435
  0
VERTEX
  8
0
 10
3447.617722
 20
3241.556250
 42
-0.004409
  0
VERTEX
  8
0
 10
3445.912211
 20
3247.898598
 42
-0.005025
  0
VERTEX
  8
0
 10
3444.394338
 20
3254.000000
 42
0.021931
  0
VERTEX
  8
0
 10
3440.380122
 20
3268.085506
 42
0.033564
  0
VERTEX
  8
0
 10
3435.571016
 20
3279.832109
 42
0.037125
  0
VERTEX
  8
0
 10
3429.666792
 20
3289.911165
 42
0.037704
  0
VERTEX
  8
0
 10
3422.364300
 20
3298.950843
 42
0.041443
  0
VERTEX
  8
0
 10
3409.687366
 20
3310.366401
 42
0.057862
  0
VERTEX
  8
0
 10
3396.572071
 20
3318.133122
 42
0.059750
  0
VERTEX
  8
0
 10
3382.363849
 20
3322.523600
 42
0.048236
  0
VERTEX
  8
0
 10
3366.436111
 20
3323.863818
 42
0.003207
  0
VERTEX
  8
0
 10
3362.065578
 20
3323.781352
 42
0.003915
  0
VERTEX
  8
0
 10
3357.978108
 20
3323.645961
 42
0.003290
  0
VERTEX
  8
0
 10
3354.544454
 20
3323.482663
 42
0.027531
  0
SEQEND
  0
ENDSEC
  0
EOF
